<?xml version="1.0" encoding="UTF-8"?>
<svg width="129px" height="100px" viewBox="0 0 129 100" version="1.1" xmlns="http://www.w3.org/2000/svg" xmlns:xlink="http://www.w3.org/1999/xlink">
    <!-- Generator: Sketch 49.3 (51167) - http://www.bohemiancoding.com/sketch -->
    <title>002-speed</title>
    <desc>Created with Sketch.</desc>
    <defs></defs>
    <g id="Welcome" stroke="none" stroke-width="1" fill="none" fill-rule="evenodd">
        <g id="Landing-Page" transform="translate(-656.000000, -794.000000)" fill="#141E14" fill-rule="nonzero">
            <g id="002-speed" transform="translate(656.000000, 794.000000)">
                <path d="M122.466216,51.0454955 L109.497297,51.0454955 L105.86982,27.4603604 C108.207207,29.0121622 111.009009,29.918018 114.02027,29.918018 C122.170721,29.918018 128.800901,23.2837838 128.800901,15.1355856 C128.800901,6.98738739 122.170721,0.354954955 114.02027,0.354954955 C105.86982,0.354954955 99.2396396,6.98513514 99.2396396,15.1355856 C99.2396396,16.8481982 99.5477477,18.4864865 100.086486,20.0175676 L92.0081081,13.1004505 C90.3653153,11.6941441 88.272973,10.9279279 86.1126126,10.9279279 L57.0099099,10.9279279 C53.5175676,10.9279279 50.6752252,13.7698198 50.6752252,17.2626126 C50.6752252,20.7554054 53.5171171,23.5972973 57.0099099,23.5972973 L83.1522523,23.5972973 L61.1779279,40.8545045 C57.1873874,43.9900901 54.8981982,48.6963964 54.8981982,53.7725225 C54.8981982,59.3891892 57.7193694,64.5536036 62.4468468,67.5941441 L82.0414414,80.1891892 L65.5234234,87.0725225 C63.863964,87.7630631 62.559009,89.127027 61.9423423,90.8121622 C61.3256757,92.5013514 61.4418919,94.3869369 62.2653153,95.9873874 C63.4054054,98.2 65.6648649,99.4882883 68.0148649,99.4882883 C68.8869369,99.4882883 69.7716216,99.3108108 70.613964,98.9373874 L93.3842342,88.8864865 C96.9400901,87.2310811 99.2391892,83.6225225 99.2391892,79.695045 C99.2391892,77.0220721 98.1558559,74.4076577 96.2662162,72.5225225 L83.3247748,59.5792793 L95.5247748,48.9013514 L96.4666667,56.4328829 C96.9837838,60.581982 100.524775,63.7153153 104.703604,63.7153153 L122.465315,63.7153153 C125.957658,63.7153153 128.8,60.8734234 128.8,57.3806306 C128.800901,53.8873874 125.959009,51.0454955 122.466216,51.0454955 Z M114.02027,4.57567568 C119.841441,4.57567568 124.577928,9.31171171 124.577928,15.1333333 C124.577928,20.954955 119.841892,25.690991 114.02027,25.690991 C108.199099,25.690991 103.462613,20.954955 103.462613,15.1333333 C103.462613,9.31171171 108.199099,4.57567568 114.02027,4.57567568 Z M122.466216,59.4914414 L104.704505,59.4914414 C102.652252,59.4914414 100.912162,57.9477477 100.656757,55.9103604 L98.7288288,40.4923423 L77.145045,59.3734234 L93.2810811,75.5094595 C94.3855856,76.6094595 95.0166667,78.1342342 95.0166667,79.6963964 C95.0166667,81.9873874 93.6738739,84.0945946 91.6382883,85.0445946 L68.9058559,95.0761261 C67.8247748,95.5594595 66.5576577,95.1076577 66.0171171,94.0585586 C65.7279279,93.4945946 65.6896396,92.8612613 65.9054054,92.2657658 C66.122973,91.6747748 66.5621622,91.2144144 67.145045,90.9716216 L85.0905405,83.495045 C86.2666667,83.0072072 87.0671171,81.9157658 87.1788288,80.6468468 C87.2905405,79.3779279 86.6954955,78.1617117 85.6247748,77.4752252 L64.7297297,64.0414414 C61.2184685,61.7801802 59.1216216,57.9414414 59.1216216,53.7671171 C59.1216216,49.9959459 60.8234234,46.495045 63.7878378,44.163964 L89.7463964,23.7774775 L85.3333333,19.372973 L57.0099099,19.372973 C55.8463964,19.372973 54.8981982,18.427027 54.8981982,17.2612613 C54.8981982,16.0954955 55.8463964,15.1495495 57.0099099,15.1495495 L86.1126126,15.1495495 C87.2653153,15.1495495 88.3824324,15.554955 89.2585586,16.3045045 L101.494595,26.7986486 L105.873874,55.268018 L122.465766,55.268018 C123.629279,55.268018 124.577477,56.213964 124.577477,57.3797297 C124.577477,58.5454955 123.62973,59.4914414 122.466216,59.4914414 Z" id="Shape"></path>
                <path d="M31.077027,94.3243243 C30.0171171,95.5301802 28.2328829,95.7369369 26.9301802,94.8076577 C26.2166667,94.2986486 25.7603604,93.5387387 25.6486486,92.6707207 C25.5369369,91.8009009 25.7837838,90.9540541 26.3454955,90.2806306 L54.4112613,56.6022523 L51.168018,53.8972973 L23.1,87.5774775 C21.7972973,89.1400901 21.1995495,91.1945946 21.4594595,93.2130631 C21.7193694,95.2315315 22.8193694,97.0666667 24.4765766,98.2490991 C25.7689189,99.1698198 27.2572072,99.6171171 28.7373874,99.6171171 C30.7815315,99.6171171 32.8063063,98.7599099 34.2527027,97.1085586 L58.5981982,69.3130631 L55.4202703,66.5301802 L31.077027,94.3243243 Z" id="Shape"></path>
                <rect id="Rectangle-path" x="16.8918919" y="27.8189189" width="46.4527027" height="4.22297297"></rect>
                <rect id="Rectangle-path" x="4.22297297" y="27.8189189" width="8.44594595" height="4.22297297"></rect>
                <rect id="Rectangle-path" x="21.1148649" y="36.2648649" width="31.6725225" height="4.22297297"></rect>
                <rect id="Rectangle-path" x="8.44594595" y="36.2648649" width="8.44594595" height="4.22297297"></rect>
                <rect id="Rectangle-path" x="23.2265766" y="44.7108108" width="27.4495495" height="4.22297297"></rect>
                <rect id="Rectangle-path" x="12.6689189" y="44.7108108" width="6.33468468" height="4.22297297"></rect>
                <rect id="Rectangle-path" x="12.6689189" y="19.372973" width="35.8954955" height="4.22297297"></rect>
                <rect id="Rectangle-path" x="0" y="19.372973" width="8.44594595" height="4.22297297"></rect>
            </g>
        </g>
    </g>
</svg>