<?xml version="1.0" encoding="UTF-8"?>
<svg width="29px" height="26px" viewBox="0 0 29 26" version="1.1" xmlns="http://www.w3.org/2000/svg" xmlns:xlink="http://www.w3.org/1999/xlink">
    <!-- Generator: Sketch 49.3 (51167) - http://www.bohemiancoding.com/sketch -->
    <title>heart</title>
    <desc>Created with Sketch.</desc>
    <defs></defs>
    <g id="Welcome" stroke="none" stroke-width="1" fill="none" fill-rule="evenodd">
        <g id="Circuit-Specs" transform="translate(-1234.000000, -1079.000000)" fill="#FF3030" fill-rule="nonzero">
            <g id="Footer" transform="translate(60.000000, 1007.000000)">
                <g id="Group-5" transform="translate(1038.000000, 70.000000)">
                    <g id="heart" transform="translate(136.000000, 2.000000)">
                        <path d="M26.6576295,2.86792809 C25.1391068,1.34940539 23.1287549,0.519443596 20.9831499,0.519443596 C18.837545,0.519443596 16.8210452,1.35555326 15.3025225,2.87407595 L14.5094479,3.66715056 L13.7040776,2.86178022 C12.1855549,1.34325753 10.1629072,0.501 8.01730227,0.501 C5.87784519,0.501 3.86134542,1.33710966 2.34897059,2.84948449 C0.83044789,4.36800719 -0.00566177291,6.38450697 0.000486092257,8.53011191 C0.000486092257,10.6757169 0.84274362,12.6860688 2.36126632,14.2045915 L13.9069571,25.7502822 C14.0668016,25.9101267 14.2819769,25.9961969 14.4910043,25.9961969 C14.7000317,25.9961969 14.915207,25.9162746 15.0750515,25.7564301 L26.6453337,14.2291829 C28.1638564,12.7106602 28.9999661,10.6941604 28.9999661,8.5485555 C29.006114,6.40295056 28.1761522,4.38645079 26.6576295,2.86792809 Z" id="Shape"></path>
                    </g>
                </g>
            </g>
        </g>
    </g>
</svg>