<?xml version="1.0" encoding="UTF-8"?>
<svg width="30px" height="30px" viewBox="0 0 30 30" version="1.1" xmlns="http://www.w3.org/2000/svg" xmlns:xlink="http://www.w3.org/1999/xlink">
    <!-- Generator: Sketch 50 (54983) - http://www.bohemiancoding.com/sketch -->
    <title>logout</title>
    <desc>Created with Sketch.</desc>
    <defs></defs>
    <g id="Welcome" stroke="none" stroke-width="1" fill="none" fill-rule="evenodd">
        <g id="Create-Circuit" transform="translate(-571.000000, -156.000000)" fill="#D9FF00" fill-rule="nonzero">
            <g id="logout" transform="translate(571.000000, 156.000000)">
                <path d="M21.1794872,22.6666667 C21.3846154,22.8717949 21.6410256,22.974359 21.9230769,22.974359 C22.2051282,22.974359 22.4615385,22.8717949 22.6666667,22.6666667 L29.5897436,15.7435897 C29.6410256,15.6923077 29.6923077,15.6410256 29.7179487,15.5897436 C29.7179487,15.5897436 29.7435897,15.5641026 29.7435897,15.5384615 C29.7692308,15.4871795 29.7948718,15.4358974 29.8205128,15.4102564 C29.8205128,15.3846154 29.8205128,15.3589744 29.8461538,15.3589744 C29.8717949,15.3076923 29.8717949,15.2820513 29.8974359,15.2307692 C29.9230769,15.1538462 29.9230769,15.1025641 29.9230769,15.025641 C29.9230769,14.9487179 29.9230769,14.8974359 29.8974359,14.8205128 C29.8974359,14.7692308 29.8717949,14.7179487 29.8461538,14.6923077 C29.8461538,14.6666667 29.8461538,14.6410256 29.8205128,14.6410256 C29.7948718,14.5897436 29.7692308,14.5384615 29.7435897,14.4871795 C29.7435897,14.4871795 29.7435897,14.4615385 29.7179487,14.4615385 C29.6923077,14.4102564 29.6410256,14.3589744 29.5897436,14.3076923 L22.6666667,7.38461538 C22.2564103,6.97435897 21.5897436,6.97435897 21.1794872,7.38461538 C20.7692308,7.79487179 20.7692308,8.46153846 21.1794872,8.87179487 L26.3076923,14 L8.07692308,14 C7.48717949,14 7.02564103,14.4615385 7.02564103,15.0512821 C7.02564103,15.6410256 7.48717949,16.1025641 8.07692308,16.1025641 L26.3076923,16.1025641 L21.1794872,21.2307692 C20.7692308,21.5897436 20.7692308,22.2564103 21.1794872,22.6666667 Z" id="Shape"></path>
                <path d="M1.15384615,29.8717949 L15,29.8717949 C15.5897436,29.8717949 16.0512821,29.4102564 16.0512821,28.8205128 L16.0512821,18.4871795 C16.0512821,17.8974359 15.5897436,17.4358974 15,17.4358974 C14.4102564,17.4358974 13.9487179,17.8974359 13.9487179,18.4871795 L13.9487179,27.7692308 L2.20512821,27.7692308 L2.20512821,2.20512821 L13.9487179,2.20512821 L13.9487179,11.4871795 C13.9487179,12.0769231 14.4102564,12.5384615 15,12.5384615 C15.5897436,12.5384615 16.0512821,12.0769231 16.0512821,11.4871795 L16.0512821,1.15384615 C16.0512821,0.564102564 15.5897436,0.102564103 15,0.102564103 L1.15384615,0.102564103 C0.564102564,0.102564103 0.102564103,0.564102564 0.102564103,1.15384615 L0.102564103,28.8205128 C0.128205128,29.4102564 0.58974359,29.8717949 1.15384615,29.8717949 Z" id="Shape"></path>
            </g>
        </g>
    </g>
</svg>