<?xml version="1.0" encoding="UTF-8"?>
<svg width="125px" height="100px" viewBox="0 0 125 100" version="1.1" xmlns="http://www.w3.org/2000/svg" xmlns:xlink="http://www.w3.org/1999/xlink">
    <!-- Generator: Sketch 49.3 (51167) - http://www.bohemiancoding.com/sketch -->
    <title>003-gym</title>
    <desc>Created with Sketch.</desc>
    <defs></defs>
    <g id="Welcome" stroke="none" stroke-width="1" fill="none" fill-rule="evenodd">
        <g id="Landing-Page" transform="translate(-223.000000, -794.000000)" fill="#141E14" fill-rule="nonzero">
            <g id="003-gym" transform="translate(223.000000, 794.000000)">
                <path d="M118.75,16.6666667 L114.583333,16.6666667 L114.583333,6.25 C114.583333,2.80416667 111.779167,0 108.333333,0 L100,0 C96.5541667,0 93.75,2.80416667 93.75,6.25 L93.75,22.9166667 L88.8458333,22.9166667 L88.3875,21.75 C86.1791667,16.13125 80.8520833,12.5 74.8145833,12.5 L74.6166667,12.5 C73.7541667,10.08125 71.4625,8.33333333 68.75,8.33333333 C67.14375,8.33333333 65.6916667,8.96041667 64.5833333,9.95833333 C63.475,8.95833333 62.0229167,8.33333333 60.4166667,8.33333333 C58.8104167,8.33333333 57.3583333,8.96041667 56.25,9.95833333 C55.1416667,8.95833333 53.6895833,8.33333333 52.0833333,8.33333333 C50.4770833,8.33333333 49.025,8.96041667 47.9166667,9.95833333 C46.8083333,8.95833333 45.35625,8.33333333 43.75,8.33333333 C40.3041667,8.33333333 37.5,11.1375 37.5,14.5833333 L37.5,22.9166667 L31.25,22.9166667 L31.25,6.25 C31.25,2.80416667 28.4458333,0 25,0 L16.6666667,0 C13.2208333,0 10.4166667,2.80416667 10.4166667,6.25 L10.4166667,16.6666667 L6.25,16.6666667 C2.80416667,16.6666667 0,19.4708333 0,22.9166667 L0,43.75 C0,47.1958333 2.80416667,50 6.25,50 L10.4166667,50 L10.4166667,60.4166667 C10.4166667,63.8625 13.2208333,66.6666667 16.6666667,66.6666667 L25,66.6666667 C28.4458333,66.6666667 31.25,63.8625 31.25,60.4166667 L31.25,43.75 L35.975,43.75 L37.5979167,48.8854167 C37.6708333,49.11875 37.7854167,49.3375 37.9354167,49.5333333 L43.4958333,56.7270833 L39.9333333,94.15625 C39.7895833,95.65 40.2854167,97.14375 41.2958333,98.2541667 C42.30625,99.3625 43.74375,100 45.2458333,100 L73.4875,100 C74.99375,100 76.4354167,99.3604167 77.44375,98.24375 C78.4541667,97.1270833 78.9479167,95.6291667 78.7979167,94.1291667 L75.1583333,57.73125 C75.11875,57.35 75.2708333,56.975 75.5604167,56.7270833 L86.9916667,46.9291667 C87.9916667,46.0708333 88.69375,44.9625 89.1208333,43.75 L93.75,43.75 L93.75,60.4166667 C93.75,63.8625 96.5541667,66.6666667 100,66.6666667 L108.333333,66.6666667 C111.779167,66.6666667 114.583333,63.8625 114.583333,60.4166667 L114.583333,50 L118.75,50 C122.195833,50 125,47.1958333 125,43.75 L125,22.9166667 C125,19.4708333 122.195833,16.6666667 118.75,16.6666667 Z M10.4166667,45.8333333 L6.25,45.8333333 C5.1,45.8333333 4.16666667,44.8979167 4.16666667,43.75 L4.16666667,22.9166667 C4.16666667,21.76875 5.1,20.8333333 6.25,20.8333333 L10.4166667,20.8333333 L10.4166667,45.8333333 Z M27.0833333,25 L27.0833333,41.6666667 L27.0833333,60.4166667 C27.0833333,61.5645833 26.15,62.5 25,62.5 L16.6666667,62.5 C15.5166667,62.5 14.5833333,61.5645833 14.5833333,60.4166667 L14.5833333,47.9166667 L14.5833333,18.75 L14.5833333,6.25 C14.5833333,5.10208333 15.5166667,4.16666667 16.6666667,4.16666667 L25,4.16666667 C26.15,4.16666667 27.0833333,5.10208333 27.0833333,6.25 L27.0833333,25 Z M66.6666667,14.5833333 C66.6666667,13.4354167 67.6,12.5 68.75,12.5 C69.9,12.5 70.8333333,13.4354167 70.8333333,14.5833333 L70.8333333,25 L70.8333333,26.8604167 C70.8333333,27.6520833 70.4458333,28.3666667 69.8833333,28.7833333 C69.8229167,28.825 69.7666667,28.8708333 69.7020833,28.90625 C69.5916667,28.9708333 69.4708333,29.00625 69.35,29.04375 C69.2166667,29.0854167 69.08125,29.1145833 68.9375,29.1270833 C68.76875,29.1395833 68.6041667,29.1270833 68.4416667,29.1020833 C68.3208333,29.0833333 68.2,29.06875 68.0875,29.03125 C67.9208333,28.975 67.7666667,28.8833333 67.6166667,28.7833333 C67.5270833,28.7229167 67.4291667,28.6770833 67.35,28.6041667 C67.2020833,28.46875 67.09375,28.3020833 66.9916667,28.1333333 C66.9479167,28.0604167 66.8854167,28.0020833 66.85,27.9229167 C66.7354167,27.6625 66.6666667,27.3770833 66.6666667,27.0833333 L66.6666667,14.5833333 Z M58.3333333,14.5833333 C58.3333333,13.4354167 59.2666667,12.5 60.4166667,12.5 C61.5666667,12.5 62.5,13.4354167 62.5,14.5833333 L62.5,27.0833333 C62.5,28.23125 61.5666667,29.1666667 60.4166667,29.1666667 C59.2666667,29.1666667 58.3333333,28.23125 58.3333333,27.0833333 L58.3333333,14.5833333 Z M50,14.5833333 C50,13.4354167 50.9333333,12.5 52.0833333,12.5 C53.2333333,12.5 54.1666667,13.4354167 54.1666667,14.5833333 L54.1666667,27.0833333 C54.1666667,28.23125 53.2333333,29.1666667 52.0833333,29.1666667 C50.9333333,29.1666667 50,28.23125 50,27.0833333 L50,14.5833333 Z M41.6666667,25 L41.6666667,14.5833333 C41.6666667,13.4354167 42.6,12.5 43.75,12.5 C44.9,12.5 45.8333333,13.4354167 45.8333333,14.5833333 L45.8333333,27.0833333 C45.8333333,27.3770833 45.7645833,27.6625 45.6479167,27.925 C45.6125,28.0041667 45.55,28.0625 45.50625,28.1354167 C45.4041667,28.3041667 45.2958333,28.46875 45.1479167,28.60625 C45.0708333,28.6770833 44.9729167,28.725 44.8854167,28.7833333 C44.7333333,28.8833333 44.5791667,28.9770833 44.4083333,29.0333333 C44.3,29.0708333 44.18125,29.0833333 44.0666667,29.1020833 C43.9,29.1270833 43.7333333,29.1416667 43.5604167,29.1270833 C43.41875,29.1145833 43.2833333,29.0854167 43.1520833,29.04375 C43.0291667,29.0041667 42.9083333,28.96875 42.7958333,28.9041667 C42.73125,28.8708333 42.6770833,28.825 42.61875,28.7833333 C42.05625,28.3666667 41.6666667,27.65 41.6666667,26.8583333 L41.6666667,25 Z M31.25,39.5833333 L31.25,27.0833333 L37.5,27.0833333 C37.5,29.3708333 38.7479167,31.3520833 40.5854167,32.4416667 C40.6979167,32.5104167 40.8145833,32.5666667 40.93125,32.6291667 C41.11875,32.725 41.3041667,32.8208333 41.5,32.8958333 C41.71875,32.9833333 41.9479167,33.0458333 42.1791667,33.10625 C42.3166667,33.1416667 42.45,33.1875 42.5916667,33.2145833 C42.6354167,33.2229167 42.6729167,33.2395833 42.7166667,33.2479167 C42.8625,33.2729167 43.00625,33.2583333 43.1520833,33.2729167 C43.3520833,33.2916667 43.5458333,33.3333333 43.75,33.3333333 C43.8104167,33.3333333 43.8666667,33.3166667 43.925,33.3145833 C44.1166667,33.3083333 44.3020833,33.2791667 44.4895833,33.2583333 C44.7395833,33.2291667 44.9854167,33.1958333 45.225,33.1375 C45.4041667,33.09375 45.575,33.0333333 45.75,32.975 C45.9833333,32.8958333 46.2125,32.8083333 46.4333333,32.7041667 C46.6020833,32.6229167 46.7645833,32.53125 46.9270833,32.4354167 C47.1354167,32.3104167 47.3333333,32.1770833 47.5270833,32.0291667 C47.6145833,31.9625 47.7145833,31.9166667 47.7979167,31.8458333 C47.8395833,31.8104167 47.8791667,31.7770833 47.91875,31.7416667 C48.0395833,31.85 48.18125,31.9354167 48.3104167,32.0333333 C48.4395833,32.1333333 48.5645833,32.2354167 48.7020833,32.325 C48.8979167,32.4520833 49.1083333,32.5541667 49.31875,32.6604167 C49.4583333,32.7291667 49.5895833,32.8083333 49.7333333,32.8666667 C49.975,32.9645833 50.23125,33.0333333 50.4854167,33.1 C50.6145833,33.1333333 50.7354167,33.1833333 50.86875,33.2104167 C51.2625,33.2875 51.6666667,33.3333333 52.0833333,33.3333333 C52.5,33.3333333 52.9041667,33.2875 53.2979167,33.2104167 C53.4333333,33.1833333 53.55625,33.1333333 53.6875,33.0979167 C53.9395833,33.0291667 54.19375,32.9645833 54.4333333,32.8666667 C54.58125,32.80625 54.7145833,32.7270833 54.85625,32.65625 C55.0645833,32.5520833 55.2729167,32.45 55.4666667,32.325 C55.60625,32.2354167 55.73125,32.13125 55.8604167,32.03125 C55.9895833,31.9333333 56.1291667,31.8479167 56.25,31.7395833 C56.3708333,31.8479167 56.5104167,31.93125 56.6395833,32.03125 C56.7708333,32.13125 56.8958333,32.2375 57.0354167,32.3270833 C57.2291667,32.4520833 57.4375,32.5541667 57.6458333,32.6583333 C57.7875,32.7291667 57.9208333,32.8083333 58.06875,32.86875 C58.3083333,32.9666667 58.5604167,33.0333333 58.8145833,33.1 C58.9458333,33.1354167 59.0708333,33.1854167 59.2041667,33.2125 C59.5958333,33.2875 60,33.3333333 60.4166667,33.3333333 C60.8333333,33.3333333 61.2375,33.2875 61.63125,33.2104167 C61.7625,33.1833333 61.8854167,33.1354167 62.0145833,33.1 C62.2708333,33.03125 62.525,32.9645833 62.7666667,32.8666667 C62.9125,32.8083333 63.04375,32.7291667 63.1833333,32.6583333 C63.39375,32.5541667 63.6020833,32.45 63.7979167,32.3229167 C63.9354167,32.2333333 64.0583333,32.13125 64.1895833,32.03125 C64.31875,31.9333333 64.4604167,31.8479167 64.58125,31.7395833 C64.6208333,31.775 64.6604167,31.8104167 64.7020833,31.84375 C64.7854167,31.9145833 64.8854167,31.9604167 64.9708333,32.0270833 C65.1645833,32.175 65.3645833,32.3104167 65.5770833,32.4375 C65.7354167,32.53125 65.89375,32.6208333 66.0604167,32.7 C66.2895833,32.8104167 66.525,32.8979167 66.76875,32.98125 C66.9333333,33.0375 67.0958333,33.09375 67.2645833,33.1354167 C67.51875,33.1979167 67.7791667,33.23125 68.0416667,33.2625 C68.2166667,33.2833333 68.3875,33.3104167 68.5645833,33.3145833 C68.6270833,33.3166667 68.6854167,33.3333333 68.75,33.3333333 C68.9583333,33.3333333 69.15625,33.2916667 69.3583333,33.2708333 C69.5,33.2583333 69.6416667,33.2708333 69.7854167,33.2479167 C69.8333333,33.2395833 69.8770833,33.2229167 69.925,33.2145833 C70.01875,33.1958333 70.1083333,33.16875 70.2,33.1458333 C70.4666667,33.08125 70.725,33.0041667 70.975,32.9041667 C71.1125,32.8520833 71.2458333,32.7958333 71.3770833,32.7333333 C71.5229167,32.6625 71.6645833,32.5833333 71.8041667,32.5020833 C73.3270833,31.6395833 74.4604167,30.1791667 74.8458333,28.4229167 C74.9375,28.65625 75,28.9041667 75,29.1666667 L75,36.6375 L72.0541667,39.5833333 L31.25,39.5833333 Z M85.4166667,41.29375 C85.4166667,42.2458333 85.0020833,43.1458333 84.28125,43.7666667 L72.8520833,53.5625 C71.5270833,54.6979167 70.8395833,56.4104167 71.0125,58.1479167 L74.6520833,94.5458333 C74.6958333,94.9979167 74.4854167,95.30625 74.3541667,95.45 C74.225,95.5916667 73.9375,95.8333333 73.4854167,95.8333333 L45.2458333,95.8333333 C44.7958333,95.8333333 44.5083333,95.59375 44.3791667,95.45 C44.25,95.30625 44.0375,95 44.0791667,94.55 L47.7208333,56.3 C47.7708333,55.7729167 47.61875,55.2479167 47.2958333,54.8270833 L41.4583333,47.2770833 L40.34375,43.75 L72.0541667,43.75 C73.15,43.75 74.225,43.30625 75,42.5291667 L77.9458333,39.5833333 C78.7333333,38.7958333 79.1666667,37.75 79.1666667,36.6375 L79.1666667,29.1666667 C79.1666667,26.4541667 77.41875,24.1625 75,23.3 L75,16.66875 C79.2354167,16.7416667 82.9541667,19.3166667 84.5083333,23.2729167 L85.2916667,25.2416667 C85.3729167,25.40625 85.4166667,25.5875 85.4166667,25.7666667 L85.4166667,41.29375 Z M93.75,39.5833333 L89.5833333,39.5833333 L89.5833333,27.0833333 L93.75,27.0833333 L93.75,39.5833333 Z M110.416667,18.75 L110.416667,47.9166667 L110.416667,60.4166667 C110.416667,61.5645833 109.483333,62.5 108.333333,62.5 L100,62.5 C98.85,62.5 97.9166667,61.5645833 97.9166667,60.4166667 L97.9166667,41.6666667 L97.9166667,25 L97.9166667,6.25 C97.9166667,5.10208333 98.85,4.16666667 100,4.16666667 L108.333333,4.16666667 C109.483333,4.16666667 110.416667,5.10208333 110.416667,6.25 L110.416667,18.75 Z M120.833333,43.75 C120.833333,44.8979167 119.9,45.8333333 118.75,45.8333333 L114.583333,45.8333333 L114.583333,20.8333333 L118.75,20.8333333 C119.9,20.8333333 120.833333,21.76875 120.833333,22.9166667 L120.833333,43.75 Z" id="Shape"></path>
            </g>
        </g>
    </g>
</svg>