<?xml version="1.0" encoding="UTF-8"?>
<svg width="87px" height="102px" viewBox="0 0 87 102" version="1.1" xmlns="http://www.w3.org/2000/svg" xmlns:xlink="http://www.w3.org/1999/xlink">
    <!-- Generator: Sketch 49.3 (51167) - http://www.bohemiancoding.com/sketch -->
    <title>001-big-stopwatch</title>
    <desc>Created with Sketch.</desc>
    <defs></defs>
    <g id="Welcome" stroke="none" stroke-width="1" fill="none" fill-rule="evenodd">
        <g id="Landing-Page" transform="translate(-1080.000000, -793.000000)" fill="#141E14" fill-rule="nonzero" stroke="#141E14">
            <g id="001-big-stopwatch" transform="translate(1081.000000, 794.000000)">
                <path d="M51.1676471,16.0015837 L51.1676471,10.7633484 L52.078733,10.7633484 C52.8282805,10.7633484 53.4361991,10.1554299 53.4361991,9.40588235 L53.4361991,6.36176471 C53.4364253,2.85384615 50.5823529,0 47.0746606,0 L37.7970588,0 C34.2891403,0 31.4352941,2.85384615 31.4352941,6.36176471 L31.4352941,9.4061086 C31.4352941,10.1556561 32.0432127,10.7635747 32.7927602,10.7635747 L33.7045249,10.7635747 L33.7045249,16.00181 C27.4846154,17.3106335 21.7635747,19.9882353 16.8710407,23.7038462 L13.7579186,20.5904977 C12.6665158,19.4995475 10.890724,19.4995475 9.79932127,20.5904977 L5.95384615,24.4359729 C5.42511312,24.9647059 5.13393665,25.6676471 5.13393665,26.4153846 C5.13393665,27.1631222 5.42511312,27.8660633 5.95384615,28.3947964 L9.01719457,31.4581448 C3.42036199,38.6384615 0.0812217195,47.6608597 0.0812217195,57.449095 C0.0812217195,80.8036199 19.081448,99.8038462 42.4359729,99.8038462 C65.7904977,99.8038462 84.7904977,80.8036199 84.7904977,57.449095 C84.7904977,37.0873303 70.3468326,20.0373303 51.1676471,16.0015837 Z M34.1502262,6.36176471 C34.1502262,4.35090498 35.7861991,2.71493213 37.7970588,2.71493213 L47.0746606,2.71493213 C49.0855204,2.71493213 50.7214932,4.35090498 50.7214932,6.36176471 L50.7214932,8.04864253 L34.1502262,8.04864253 L34.1502262,6.36176471 Z M36.419457,10.8622172 L48.4529412,10.8622172 L48.4529412,15.5237557 C46.4868778,15.2429864 44.4785068,15.0943439 42.4359729,15.0943439 C40.3936652,15.0943439 38.3855204,15.2427602 36.419457,15.5235294 L36.419457,10.8622172 Z M7.87352941,26.4751131 C7.86674208,26.4683258 7.84886878,26.4504525 7.84886878,26.4153846 C7.84886878,26.380543 7.86696833,26.3626697 7.87352941,26.3558824 L11.7190045,22.5104072 C11.7520362,22.4773756 11.8056561,22.4773756 11.8382353,22.5104072 L14.7493213,25.4214932 C13.3346154,26.6459276 12.0038462,27.9644796 10.7617647,29.3633484 L7.87352941,26.4751131 Z M42.4359729,97.088914 C20.5785068,97.088914 2.79615385,79.3065611 2.79615385,57.449095 C2.79615385,35.591629 20.5785068,17.8095023 42.4359729,17.8095023 C64.2932127,17.8095023 82.0755656,35.5918552 82.0755656,57.4493213 C82.0755656,79.3067873 64.2932127,97.088914 42.4359729,97.088914 Z" id="Shape"></path>
                <path d="M42.4359729,24.4208145 C24.2239819,24.4208145 9.40769231,39.2373303 9.40769231,57.449095 C9.40769231,75.6608597 24.2242081,90.4773756 42.4359729,90.4773756 C60.6479638,90.4773756 75.4642534,75.6608597 75.4642534,57.449095 C75.4642534,39.2373303 60.6479638,24.4208145 42.4359729,24.4208145 Z M42.4359729,87.7626697 C25.7210407,87.7626697 12.1226244,74.1642534 12.1226244,57.4493213 C12.1226244,40.7343891 25.7210407,27.1357466 42.4359729,27.1357466 C59.150905,27.1357466 72.7493213,40.7341629 72.7493213,57.449095 C72.7493213,74.1640271 59.150905,87.7626697 42.4359729,87.7626697 Z" id="Shape"></path>
                <path d="M43.7658371,39.8332579 C43.6366516,39.2015837 43.0807692,38.7479638 42.4359729,38.7479638 C41.7911765,38.7479638 41.2352941,39.2015837 41.1061086,39.8332579 C41.1061086,39.8332579 37.528733,56.8201357 37.528733,57.449095 C37.528733,60.1547511 39.7300905,62.3561086 42.4357466,62.3561086 C45.1414027,62.3561086 47.3425339,60.1549774 47.3425339,57.449095 C47.3427602,56.8201357 43.7658371,39.8332579 43.7658371,39.8332579 Z M42.4359729,46.8757919 L43.6255656,52.6886878 C43.2443439,52.5934389 42.8461538,52.5420814 42.4359729,52.5420814 C42.0257919,52.5420814 41.6273756,52.5934389 41.2461538,52.6886878 L42.4359729,46.8757919 Z M42.4359729,59.6411765 C41.2271493,59.6411765 40.2438914,58.6576923 40.2438914,57.449095 C40.2438914,56.2404977 41.2273756,55.2570136 42.4359729,55.2570136 C43.6445701,55.2570136 44.6278281,56.2404977 44.6278281,57.449095 C44.6278281,58.6576923 43.6443439,59.6411765 42.4359729,59.6411765 Z" id="Shape"></path>
                <path d="M42.4357466,78.4721719 C41.6861991,78.4721719 41.0782805,79.0800905 41.0782805,79.829638 L41.0782805,85.0864253 C41.0782805,85.8359729 41.6861991,86.4438914 42.4357466,86.4438914 C43.1855204,86.4438914 43.7932127,85.8359729 43.7932127,85.0864253 L43.7932127,79.829638 C43.7932127,79.0800905 43.1855204,78.4721719 42.4357466,78.4721719 Z" id="Shape"></path>
                <path d="M42.4357466,36.4257919 C43.1855204,36.4257919 43.7932127,35.8178733 43.7932127,35.0683258 L43.7932127,29.8115385 C43.7932127,29.061991 43.1855204,28.4540724 42.4357466,28.4540724 C41.6861991,28.4540724 41.0782805,29.061991 41.0782805,29.8115385 L41.0782805,35.0683258 C41.0782805,35.8178733 41.6861991,36.4257919 42.4357466,36.4257919 Z" id="Shape"></path>
                <path d="M25.6511312,72.3149321 L21.9339367,76.0321267 C21.4038462,76.5622172 21.4038462,77.4217195 21.9339367,77.95181 C22.199095,78.2167421 22.5463801,78.3493213 22.8938914,78.3493213 C23.2414027,78.3493213 23.5886878,78.2167421 23.8538462,77.95181 L27.5710407,74.2346154 C28.1011312,73.7045249 28.1011312,72.8450226 27.5710407,72.3149321 C27.0404977,71.7848416 26.1809955,71.7848416 25.6511312,72.3149321 Z" id="Shape"></path>
                <path d="M58.2626697,42.9807692 C58.6228507,42.9807692 58.9680995,42.8375566 59.2228507,42.5828054 L62.938009,38.8656109 C63.4678733,38.3352941 63.4676471,37.4757919 62.9373303,36.9459276 C62.4072398,36.4160633 61.5475113,36.4160633 61.0176471,36.9463801 L57.3402715,40.6260181 C57.0719457,40.8739819 56.9040724,41.2289593 56.9040724,41.6233032 C56.9040724,42.3728507 57.5128959,42.9807692 58.2626697,42.9807692 Z" id="Shape"></path>
                <path d="M20.0540724,56.0925339 L14.7972851,56.0925339 C14.0477376,56.0925339 13.439819,56.7004525 13.439819,57.45 C13.439819,58.1995475 14.0477376,58.8074661 14.7972851,58.8074661 L20.0540724,58.8074661 C20.8036199,58.8074661 21.4115385,58.1995475 21.4115385,57.45 C21.4115385,56.7004525 20.8036199,56.0925339 20.0540724,56.0925339 Z" id="Shape"></path>
                <path d="M70.0723982,56.0904977 L64.8174208,56.0904977 C64.0678733,56.0904977 63.4599548,56.6984163 63.4599548,57.4479638 C63.4599548,58.1975113 64.0678733,58.8054299 64.8174208,58.8054299 L70.0723982,58.8054299 C70.8219457,58.8054299 71.4298643,58.1975113 71.4298643,57.4479638 C71.4298643,56.6984163 70.8219457,56.0904977 70.0723982,56.0904977 Z" id="Shape"></path>
                <path d="M25.6488688,42.5828054 C25.9033937,42.8375566 26.2488688,42.9807692 26.6090498,42.9807692 L26.611086,42.9807692 C27.3606335,42.9807692 27.9676471,42.3728507 27.9676471,41.6233032 C27.9676471,41.2375566 27.8067873,40.8895928 27.54819,40.6425339 L23.8540724,36.9466063 C23.3244344,36.4162896 22.4644796,36.4160633 21.9343891,36.9461538 C21.4040724,37.4760181 21.4038462,38.3355204 21.9339367,38.8658371 L25.6488688,42.5828054 Z" id="Shape"></path>
                <path d="M59.2205882,72.3149321 C58.6904977,71.7848416 57.8307692,71.7846154 57.300905,72.3149321 C56.7705882,72.8450226 56.7705882,73.7045249 57.3006787,74.2346154 L61.0178733,77.95181 C61.2830317,78.2169683 61.6303167,78.3493213 61.9778281,78.3493213 C62.3251131,78.3493213 62.6726244,78.2167421 62.9375566,77.95181 C63.4678733,77.4217195 63.4678733,76.5622172 62.9377828,76.0321267 L59.2205882,72.3149321 Z" id="Shape"></path>
            </g>
        </g>
    </g>
</svg>