<?xml version="1.0" encoding="utf-8"?>
<!-- Generator: Adobe Illustrator 20.1.0, SVG Export Plug-In . SVG Version: 6.00 Build 0)  -->
<svg version="1.2" baseProfile="tiny" id="Layer_2" xmlns="http://www.w3.org/2000/svg" xmlns:xlink="http://www.w3.org/1999/xlink"
	 x="0px" y="0px" viewBox="0 0 900 600" xml:space="preserve">
<svg style="overflow: visible;" viewBox="00 900 600" xmlns="http://www.w3.org/2000/svg"><g fill="#e6e6e6"><path d="m206.8 163.6c0-5.1 4.1-9.2 9.3-9.2s9.2 4.2 9.2 9.2-4.1 9.2-9.3 9.2-9.2-4.1-9.2-9.2zm17.3-.1c0-4.5-3.5-8.2-8.2-8.2s-8.2 3.7-8.2 8.3c0 4.5 3.5 8.2 8.2 8.2s8.2-3.7 8.2-8.3zm-13 0c0-2.8 2.1-5.1 5.1-5.1 1.9 0 2.9.6 3.9 1.5l-1.4 1.7c-.8-.7-1.5-1.1-2.5-1.1-1.7 0-2.8 1.4-2.8 3.1s1.1 3 2.8 3c1.1 0 1.7-.5 2.5-1.1l1.4 1.4c-1.1 1.1-2.1 1.7-4 1.7-2.9 0-5-2.3-5-5.1z"/><path d="m226.6 154.7h3.4l4.2 13.2 4.4-13.3h2.6l4.4 13.3 4.2-13.2h3.3l-6.2 18h-2.7l-4.4-12.8-4.4 12.8h-2.7z"/><path d="m252.8 165.8c0-3.9 3.1-7 7.2-7 4.2 0 7.2 3.2 7.2 7s-3.1 7-7.3 7c-4 0-7.1-3.1-7.1-7zm11.3 0c0-2.3-1.7-4.3-4.2-4.3s-4.1 2-4.1 4.3 1.7 4.3 4.1 4.3c2.7.1 4.2-1.9 4.2-4.3z"/><path d="m269.5 159.1h3.1v3c.8-2 2.4-3.4 4.8-3.3v3.2h-.2c-2.7 0-4.6 1.7-4.6 5.4v5.1h-3.1z"/><path d="m279.1 153.9h3.1v11.1l5.6-6h3.8l-5.4 5.5 5.5 8h-3.5l-4.1-5.8-1.9 2v3.9h-3.1z"/><path d="m291.7 165.8c0-3.9 3.1-7 7.2-7 4.2 0 7.2 3.2 7.2 7s-3.1 7-7.3 7c-4 0-7.1-3.1-7.1-7zm11.3 0c0-2.3-1.7-4.3-4.2-4.3s-4.1 2-4.1 4.3 1.7 4.3 4.1 4.3c2.6.1 4.2-1.9 4.2-4.3z"/><path d="m308.2 167.6v-8.6h3.1v7.6c0 2.1 1.1 3.3 2.9 3.3s3-1.3 3-3.3v-7.6h3.1v13.4h-3.1v-2.1c-.8 1.3-2.1 2.3-4.2 2.3-3.1.2-4.8-1.8-4.8-5z"/><path d="m323.9 168.8v-7.1h-1.7v-2.6h1.7v-3.7h3.1v3.7h3.6v2.6h-3.6v6.6c0 1.2.6 1.7 1.7 1.7.7 0 1.3-.2 1.9-.5v2.5c-.8.5-1.7.7-2.8.7-2.3 0-3.9-.9-3.9-3.9z"/><path d="m333.2 154.7h3.2v15h9.4v2.9h-12.5v-17.9z"/><path d="m356 172.5v-1.7c-.9 1.1-2.3 2-4.4 2-2.6 0-4.8-1.4-4.8-4.2 0-3 2.3-4.4 5.4-4.4 1.7 0 2.6.2 3.7.5v-.2c0-1.9-1.2-2.9-3.3-2.9-1.5 0-2.6.3-3.9.8l-.8-2.5c1.5-.7 2.9-1.1 5.1-1.1 4 0 5.9 2.1 5.9 5.7v8zm.1-5.6c-.8-.3-1.9-.5-3.1-.5-2 0-3.1.8-3.1 2.1s1.1 2 2.6 2c2 0 3.5-1.1 3.5-2.9z"/><path d="m364.9 170.5v2.1h-3.1v-18.7h3.1v7.4c1-1.4 2.4-2.5 4.5-2.5 3.2 0 6.3 2.5 6.3 7s-3.1 7-6.3 7c-2.1 0-3.5-1.1-4.5-2.3zm7.7-4.7c0-2.6-1.7-4.3-3.9-4.3s-3.9 1.7-3.9 4.4c0 2.6 1.8 4.3 3.9 4.3s3.9-1.7 3.9-4.4z"/><path d="m376.9 170.8 1.4-2.1c1.4 1.1 3 1.7 4.4 1.7s2.1-.5 2.1-1.5-1.3-1.4-2.8-1.8c-.1 0-.2-.1-.2-.1-2-.6-4.2-1.4-4.2-4s2.1-4.1 4.8-4.1c1.7 0 3.5.6 5 1.5l-1.2 2.2c-1.3-.8-2.6-1.3-3.8-1.3s-1.9.5-1.9 1.4 1.3 1.4 2.8 1.8c.1 0 .2.1.2.1 2 .6 4.2 1.5 4.2 4 0 2.9-2.2 4.2-5 4.2-1.9 0-4-.7-5.8-2z"/><path d="m505.6 163.6c0-5.1 4.1-9.2 9.3-9.2s9.2 4.2 9.2 9.2-4.1 9.2-9.3 9.2-9.2-4.1-9.2-9.2zm17.4-.1c0-4.5-3.5-8.2-8.2-8.2s-8.2 3.7-8.2 8.3c0 4.5 3.5 8.2 8.2 8.2s8.2-3.7 8.2-8.3zm-13.1 0c0-2.8 2.1-5.1 5.1-5.1 1.9 0 2.9.6 3.9 1.5l-1.4 1.7c-.8-.7-1.5-1.1-2.5-1.1-1.7 0-2.8 1.4-2.8 3.1s1.1 3 2.8 3c1.1 0 1.7-.5 2.5-1.1l1.4 1.4c-1.1 1.1-2.1 1.7-4 1.7-2.9 0-5-2.3-5-5.1z"/><path d="m525.4 154.7h3.4l4.2 13.2 4.4-13.3h2.6l4.4 13.3 4.2-13.2h3.3l-6.2 18h-2.7l-4.4-12.8-4.4 12.8h-2.7z"/><path d="m551.7 165.8c0-3.9 3.1-7 7.2-7 4.2 0 7.2 3.2 7.2 7s-3.1 7-7.3 7c-4.1 0-7.1-3.1-7.1-7zm11.2 0c0-2.3-1.7-4.3-4.2-4.3s-4.1 2-4.1 4.3 1.7 4.3 4.1 4.3c2.7.1 4.2-1.9 4.2-4.3z"/><path d="m568.3 159.1h3.1v3c.8-2 2.4-3.4 4.8-3.3v3.2h-.2c-2.7 0-4.6 1.7-4.6 5.4v5.1h-3.1z"/><path d="m577.9 153.9h3.1v11.1l5.6-6h3.8l-5.4 5.5 5.5 8h-3.5l-4.1-5.8-1.9 2v3.9h-3.1z"/><path d="m590.6 165.8c0-3.9 3.1-7 7.2-7 4.2 0 7.2 3.2 7.2 7s-3.1 7-7.3 7c-4.1 0-7.1-3.1-7.1-7zm11.2 0c0-2.3-1.7-4.3-4.2-4.3s-4.1 2-4.1 4.3 1.7 4.3 4.1 4.3c2.6.1 4.2-1.9 4.2-4.3z"/><path d="m607 167.6v-8.6h3.1v7.6c0 2.1 1.1 3.3 2.9 3.3s3-1.3 3-3.3v-7.6h3.1v13.4h-3.1v-2.1c-.8 1.3-2.1 2.3-4.2 2.3-3 .2-4.8-1.8-4.8-5z"/><path d="m622.7 168.8v-7.1h-1.7v-2.6h1.7v-3.7h3.1v3.7h3.6v2.6h-3.6v6.6c0 1.2.6 1.7 1.7 1.7.7 0 1.3-.2 1.9-.5v2.5c-.8.5-1.7.7-2.8.7-2.3 0-3.9-.9-3.9-3.9z"/><path d="m632 154.7h3.2v15h9.4v2.9h-12.6z"/><path d="m654.8 172.5v-1.7c-.9 1.1-2.3 2-4.4 2-2.6 0-4.8-1.4-4.8-4.2 0-3 2.3-4.4 5.4-4.4 1.7 0 2.6.2 3.7.5v-.2c0-1.9-1.2-2.9-3.3-2.9-1.5 0-2.6.3-3.9.8l-.8-2.5c1.5-.7 2.9-1.1 5.1-1.1 4 0 5.9 2.1 5.9 5.7v8zm.1-5.6c-.8-.3-1.9-.5-3.1-.5-2 0-3.1.8-3.1 2.1s1.1 2 2.6 2c2 0 3.5-1.1 3.5-2.9z"/><path d="m663.7 170.5v2.1h-3.1v-18.7h3.1v7.4c1-1.4 2.4-2.5 4.5-2.5 3.2 0 6.3 2.5 6.3 7s-3.1 7-6.3 7c-2.1 0-3.5-1.1-4.5-2.3zm7.8-4.7c0-2.6-1.7-4.3-3.9-4.3-2.1 0-3.9 1.7-3.9 4.4 0 2.6 1.8 4.3 3.9 4.3s3.9-1.7 3.9-4.4z"/><path d="m675.8 170.8 1.4-2.1c1.4 1.1 3 1.7 4.4 1.7s2.1-.5 2.1-1.5-1.3-1.4-2.8-1.8c-.1 0-.2-.1-.2-.1-2-.6-4.2-1.4-4.2-4s2.1-4.1 4.8-4.1c1.7 0 3.5.6 5 1.5l-1.2 2.2c-1.3-.8-2.6-1.3-3.8-1.3s-1.9.5-1.9 1.4 1.3 1.4 2.8 1.8c.1 0 .2.1.2.1 2 .6 4.2 1.5 4.2 4 0 2.9-2.2 4.2-5 4.2-2 0-4.1-.7-5.8-2z"/><path d="m61 298.6c0-5.1 4.1-9.2 9.3-9.2s9.2 4.2 9.2 9.2-4.1 9.2-9.3 9.2c-5.1 0-9.2-4.2-9.2-9.2zm17.4-.1c0-4.5-3.5-8.2-8.2-8.2s-8.2 3.7-8.2 8.3c0 4.5 3.5 8.2 8.2 8.2s8.2-3.7 8.2-8.3zm-13.1-.1c0-2.8 2.1-5.1 5.1-5.1 1.9 0 2.9.6 3.9 1.5l-1.4 1.7c-.8-.7-1.5-1.1-2.5-1.1-1.7 0-2.8 1.4-2.8 3.1s1.1 3 2.8 3c1.1 0 1.7-.5 2.5-1.1l1.4 1.4c-1.1 1.1-2.1 1.7-4 1.7-2.8.1-5-2.2-5-5.1z"/><path d="m80.9 289.7h3.4l4.2 13.2 4.4-13.3h2.6l4.4 13.3 4.2-13.2h3.3l-6.2 18h-2.7l-4.4-12.8-4.4 12.8h-2.7z"/><path d="m107.1 300.8c0-3.9 3.1-7 7.2-7s7.2 3.2 7.2 7-3.1 7-7.3 7c-4 0-7.1-3.1-7.1-7zm11.3 0c0-2.3-1.7-4.3-4.2-4.3s-4.1 2-4.1 4.3 1.7 4.3 4.1 4.3c2.6.1 4.2-1.9 4.2-4.3z"/><path d="m123.7 294h3.1v3c.8-2 2.4-3.4 4.8-3.3v3.2h-.2c-2.7 0-4.6 1.7-4.6 5.4v5.1h-3.1z"/><path d="m133.4 288.9h3.1v11.1l5.6-6h3.8l-5.4 5.5 5.5 8h-3.5l-4.1-5.8-1.9 1.9v3.9h-3.1z"/><path d="m146 300.8c0-3.9 3.1-7 7.2-7s7.2 3.2 7.2 7-3.1 7-7.3 7c-4.1 0-7.1-3.1-7.1-7zm11.2 0c0-2.3-1.7-4.3-4.2-4.3s-4.1 2-4.1 4.3 1.7 4.3 4.1 4.3c2.6.1 4.2-1.9 4.2-4.3z"/><path d="m162.4 302.6v-8.6h3.1v7.6c0 2.1 1.1 3.3 2.9 3.3s3-1.3 3-3.3v-7.6h3.1v13.4h-3.1v-2.1c-.8 1.3-2.1 2.3-4.2 2.3-3 .2-4.8-1.8-4.8-5z"/><path d="m178.1 303.8v-7.1h-1.7v-2.7h1.7v-3.7h3.1v3.7h3.6v2.6h-3.6v6.6c0 1.2.6 1.7 1.7 1.7.7 0 1.3-.2 1.9-.5v2.5c-.8.5-1.7.7-2.8.7-2.3.1-3.9-.9-3.9-3.8z"/><path d="m187.4 289.7h3.2v15h9.4v2.9h-12.5v-17.9z"/><path d="m210.2 307.5v-1.7c-.9 1.1-2.3 2-4.4 2-2.6 0-4.8-1.4-4.8-4.2 0-3 2.3-4.4 5.4-4.4 1.7 0 2.6.2 3.7.5v-.2c0-1.9-1.2-2.9-3.3-2.9-1.5 0-2.6.3-3.9.8l-.8-2.5c1.5-.7 2.9-1.1 5.1-1.1 4 0 5.9 2.1 5.9 5.7v8zm.1-5.6c-.8-.3-1.9-.5-3.1-.5-2 0-3.1.8-3.1 2.1s1.1 2 2.6 2c2 0 3.5-1.1 3.5-2.9z"/><path d="m219.2 305.5v2.1h-3.1v-18.7h3.1v7.4c1-1.4 2.4-2.5 4.5-2.5 3.2 0 6.3 2.5 6.3 7s-3.1 7-6.3 7c-2.2 0-3.6-1.1-4.5-2.3zm7.7-4.7c0-2.6-1.7-4.3-3.9-4.3s-3.9 1.7-3.9 4.4c0 2.6 1.8 4.3 3.9 4.3s3.9-1.7 3.9-4.4z"/><path d="m231.2 305.8 1.4-2.1c1.4 1.1 3 1.7 4.4 1.7s2.1-.5 2.1-1.5-1.3-1.4-2.8-1.8c-.1 0-.2-.1-.2-.1-2-.6-4.2-1.4-4.2-4s2.1-4.1 4.8-4.1c1.7 0 3.5.6 5 1.5l-1.2 2.2c-1.3-.8-2.6-1.3-3.8-1.3s-1.9.5-1.9 1.4 1.3 1.4 2.8 1.8c.1 0 .2.1.2.1 2 .6 4.2 1.5 4.2 4 0 2.9-2.2 4.2-5 4.2-2 0-4.1-.7-5.8-2z"/><path d="m360.6 298.6c0-5.1 4.1-9.2 9.3-9.2s9.2 4.2 9.2 9.2-4.1 9.2-9.3 9.2-9.2-4.2-9.2-9.2zm17.4-.1c0-4.5-3.5-8.2-8.2-8.2s-8.2 3.7-8.2 8.3c0 4.5 3.5 8.2 8.2 8.2s8.2-3.7 8.2-8.3zm-13.1-.1c0-2.8 2.1-5.1 5.1-5.1 1.9 0 2.9.6 3.9 1.5l-1.4 1.7c-.8-.7-1.5-1.1-2.5-1.1-1.7 0-2.8 1.4-2.8 3.1s1.1 3 2.8 3c1.1 0 1.7-.5 2.5-1.1l1.4 1.4c-1.1 1.1-2.1 1.7-4 1.7-2.8.1-5-2.2-5-5.1z"/><path d="m380.5 289.7h3.4l4.2 13.2 4.4-13.3h2.6l4.4 13.3 4.2-13.2h3.3l-6.2 18h-2.7l-4.4-12.8-4.4 12.8h-2.7z"/><path d="m406.7 300.8c0-3.9 3.1-7 7.2-7 4.2 0 7.2 3.2 7.2 7s-3.1 7-7.3 7c-4.1 0-7.1-3.1-7.1-7zm11.3 0c0-2.3-1.7-4.3-4.2-4.3s-4.1 2-4.1 4.3 1.7 4.3 4.1 4.3c2.7.1 4.2-1.9 4.2-4.3z"/><path d="m423.3 294h3.1v3c.8-2 2.4-3.4 4.8-3.3v3.2h-.2c-2.7 0-4.6 1.7-4.6 5.4v5.1h-3.1z"/><path d="m433 288.9h3.1v11.1l5.6-6h3.8l-5.4 5.5 5.5 8h-3.5l-4.1-5.8-1.9 2v3.9h-3.1z"/><path d="m445.6 300.8c0-3.9 3.1-7 7.2-7 4.2 0 7.2 3.2 7.2 7s-3.1 7-7.3 7c-4.1 0-7.1-3.1-7.1-7zm11.3 0c0-2.3-1.7-4.3-4.2-4.3s-4.1 2-4.1 4.3 1.7 4.3 4.1 4.3c2.6.1 4.2-1.9 4.2-4.3z"/><path d="m462.1 302.6v-8.6h3.1v7.6c0 2.1 1.1 3.3 2.9 3.3s3-1.3 3-3.3v-7.6h3.1v13.4h-3.1v-2.1c-.8 1.3-2.1 2.3-4.2 2.3-3.1.2-4.8-1.8-4.8-5z"/><path d="m477.8 303.8v-7.1h-1.8v-2.7h1.7v-3.7h3.1v3.7h3.6v2.6h-3.6v6.6c0 1.2.6 1.7 1.7 1.7.7 0 1.3-.2 1.9-.5v2.5c-.8.5-1.7.7-2.8.7-2.2.1-3.8-.9-3.8-3.8z"/><path d="m487.1 289.7h3.2v15h9.4v2.9h-12.5v-17.9z"/><path d="m509.9 307.5v-1.7c-.9 1.1-2.3 2-4.4 2-2.6 0-4.8-1.4-4.8-4.2 0-3 2.3-4.4 5.4-4.4 1.7 0 2.6.2 3.7.5v-.2c0-1.9-1.2-2.9-3.3-2.9-1.5 0-2.6.3-3.9.8l-.8-2.5c1.5-.7 2.9-1.1 5.1-1.1 4 0 5.9 2.1 5.9 5.7v8zm.1-5.6c-.8-.3-1.9-.5-3.1-.5-2 0-3.1.8-3.1 2.1s1.1 2 2.6 2c2 0 3.5-1.1 3.5-2.9z"/><path d="m518.8 305.5v2.1h-3.1v-18.7h3.1v7.4c1-1.4 2.4-2.5 4.5-2.5 3.2 0 6.3 2.5 6.3 7s-3.1 7-6.3 7c-2.2 0-3.5-1.1-4.5-2.3zm7.7-4.7c0-2.6-1.7-4.3-3.9-4.3s-3.9 1.7-3.9 4.4c0 2.6 1.8 4.3 3.9 4.3s3.9-1.7 3.9-4.4z"/><path d="m530.8 305.8 1.4-2.1c1.4 1.1 3 1.7 4.4 1.7s2.1-.5 2.1-1.5-1.3-1.4-2.8-1.8c-.1 0-.2-.1-.2-.1-2-.6-4.2-1.4-4.2-4s2.1-4.1 4.8-4.1c1.7 0 3.5.6 5 1.5l-1.2 2.2c-1.3-.8-2.6-1.3-3.8-1.3s-1.9.5-1.9 1.4 1.3 1.4 2.8 1.8c.1 0 .2.1.2.1 2 .6 4.2 1.5 4.2 4 0 2.9-2.2 4.2-5 4.2-1.9 0-4.1-.7-5.8-2z"/><path d="m659.5 298.6c0-5.1 4.1-9.2 9.3-9.2s9.2 4.2 9.2 9.2-4.1 9.2-9.3 9.2-9.2-4.2-9.2-9.2zm17.3-.1c0-4.5-3.5-8.2-8.2-8.2s-8.2 3.7-8.2 8.3c0 4.5 3.5 8.2 8.2 8.2 4.8 0 8.2-3.7 8.2-8.3zm-13-.1c0-2.8 2.1-5.1 5.1-5.1 1.9 0 2.9.6 3.9 1.5l-1.4 1.7c-.8-.7-1.5-1.1-2.5-1.1-1.7 0-2.8 1.4-2.8 3.1s1.1 3 2.8 3c1.1 0 1.7-.5 2.5-1.1l1.4 1.4c-1.1 1.1-2.1 1.7-4 1.7-2.9.1-5-2.2-5-5.1z"/><path d="m679.3 289.7h3.4l4.2 13.2 4.4-13.3h2.6l4.4 13.3 4.2-13.2h3.3l-6.2 18h-2.6l-4.4-12.8-4.4 12.8h-2.7z"/><path d="m705.5 300.8c0-3.9 3.1-7 7.2-7 4.2 0 7.2 3.2 7.2 7s-3.1 7-7.3 7c-4 0-7.1-3.1-7.1-7zm11.3 0c0-2.3-1.7-4.3-4.2-4.3s-4.1 2-4.1 4.3 1.7 4.3 4.1 4.3c2.7.1 4.2-1.9 4.2-4.3z"/><path d="m722.1 294h3.1v3c.8-2 2.4-3.4 4.8-3.3v3.2h-.2c-2.7 0-4.6 1.7-4.6 5.4v5.1h-3.1z"/><path d="m731.8 288.9h3.1v11.1l5.6-6h3.8l-5.4 5.5 5.5 8h-3.5l-4.1-5.8-1.9 2v3.9h-3.1z"/><path d="m744.4 300.8c0-3.9 3.1-7 7.2-7 4.2 0 7.2 3.2 7.2 7s-3.1 7-7.3 7c-4.1 0-7.1-3.1-7.1-7zm11.3 0c0-2.3-1.7-4.3-4.2-4.3s-4.1 2-4.1 4.3 1.7 4.3 4.1 4.3c2.6.1 4.2-1.9 4.2-4.3z"/><path d="m760.9 302.6v-8.6h3.1v7.6c0 2.1 1.1 3.3 2.9 3.3s3-1.3 3-3.3v-7.6h3.1v13.4h-3.1v-2.1c-.8 1.3-2.1 2.3-4.2 2.3-3.1.2-4.8-1.8-4.8-5z"/><path d="m776.6 303.8v-7.1h-1.7v-2.7h1.7v-3.7h3.1v3.7h3.6v2.6h-3.6v6.6c0 1.2.6 1.7 1.7 1.7.7 0 1.3-.2 1.9-.5v2.5c-.8.5-1.7.7-2.8.7-2.3.1-3.9-.9-3.9-3.8z"/><path d="m785.9 289.7h3.2v15h9.4v2.9h-12.5v-17.9z"/><path d="m808.7 307.5v-1.7c-.9 1.1-2.3 2-4.4 2-2.6 0-4.8-1.4-4.8-4.2 0-3 2.3-4.4 5.4-4.4 1.7 0 2.6.2 3.7.5v-.2c0-1.9-1.2-2.9-3.3-2.9-1.5 0-2.6.3-3.9.8l-.8-2.5c1.5-.7 2.9-1.1 5.1-1.1 4 0 5.9 2.1 5.9 5.7v8zm.1-5.6c-.8-.3-1.9-.5-3.1-.5-2 0-3.1.8-3.1 2.1s1.1 2 2.6 2c2 0 3.5-1.1 3.5-2.9z"/><path d="m817.6 305.5v2.1h-3.1v-18.7h3.1v7.4c1-1.4 2.4-2.5 4.5-2.5 3.2 0 6.3 2.5 6.3 7s-3.1 7-6.3 7c-2.1 0-3.5-1.1-4.5-2.3zm7.7-4.7c0-2.6-1.7-4.3-3.9-4.3-2.1 0-3.9 1.7-3.9 4.4 0 2.6 1.8 4.3 3.9 4.3 2.2 0 3.9-1.7 3.9-4.4z"/><path d="m829.6 305.8 1.4-2.1c1.4 1.1 3 1.7 4.4 1.7s2.1-.5 2.1-1.5-1.3-1.4-2.8-1.8c-.1 0-.2-.1-.2-.1-2-.6-4.2-1.4-4.2-4s2.1-4.1 4.8-4.1c1.7 0 3.5.6 5 1.5l-1.2 2.2c-1.3-.8-2.6-1.3-3.8-1.3s-1.9.5-1.9 1.4 1.3 1.4 2.8 1.8c.1 0 .2.1.2.1 2 .6 4.2 1.5 4.2 4 0 2.9-2.2 4.2-5 4.2-1.9 0-4-.7-5.8-2z"/><path d="m206.3 434.2c0-5.1 4.1-9.2 9.3-9.2s9.2 4.2 9.2 9.2-4.1 9.2-9.3 9.2-9.2-4.1-9.2-9.2zm17.4-.1c0-4.5-3.5-8.2-8.2-8.2s-8.2 3.7-8.2 8.3c0 4.5 3.5 8.2 8.2 8.2s8.2-3.7 8.2-8.3zm-13.1-.1c0-2.8 2.1-5.1 5.1-5.1 1.9 0 2.9.6 3.9 1.5l-1.4 1.7c-.8-.7-1.5-1.1-2.5-1.1-1.7 0-2.8 1.4-2.8 3.1s1.1 3 2.8 3c1.1 0 1.7-.5 2.5-1.1l1.4 1.4c-1.1 1.1-2.1 1.7-4 1.7-2.9.1-5-2.2-5-5.1z"/><path d="m226.1 425.3h3.4l4.2 13.2 4.4-13.3h2.6l4.4 13.3 4.2-13.2h3.3l-6.2 18h-2.7l-4.4-12.8-4.4 12.8h-2.7z"/><path d="m252.4 436.4c0-3.9 3.1-7 7.2-7 4.2 0 7.2 3.2 7.2 7s-3.1 7-7.3 7c-4.1 0-7.1-3.1-7.1-7zm11.2 0c0-2.3-1.7-4.3-4.2-4.3s-4.1 2-4.1 4.3 1.7 4.3 4.1 4.3c2.7.1 4.2-1.9 4.2-4.3z"/><path d="m269 429.7h3.1v3c.8-2 2.4-3.4 4.8-3.3v3.2h-.2c-2.7 0-4.6 1.7-4.6 5.4v5.1h-3.1z"/><path d="m278.6 424.5h3.1v11.1l5.6-6h3.8l-5.4 5.5 5.5 8h-3.5l-4.1-5.8-1.9 2v3.9h-3.1z"/><path d="m291.3 436.4c0-3.9 3.1-7 7.2-7 4.2 0 7.2 3.2 7.2 7s-3.1 7-7.3 7c-4.1 0-7.1-3.1-7.1-7zm11.2 0c0-2.3-1.7-4.3-4.2-4.3s-4.1 2-4.1 4.3 1.7 4.3 4.1 4.3c2.6.1 4.2-1.9 4.2-4.3z"/><path d="m307.7 438.2v-8.6h3.1v7.6c0 2.1 1.1 3.3 2.9 3.3s3-1.3 3-3.3v-7.6h3.1v13.4h-3.1v-2.1c-.8 1.3-2.1 2.3-4.2 2.3-3 .2-4.8-1.8-4.8-5z"/><path d="m323.4 439.4v-7.1h-1.7v-2.6h1.7v-3.7h3.1v3.7h3.6v2.6h-3.6v6.6c0 1.2.6 1.7 1.7 1.7.7 0 1.3-.2 1.9-.5v2.5c-.8.5-1.7.7-2.8.7-2.3 0-3.9-.9-3.9-3.9z"/><path d="m332.7 425.3h3.2v15h9.4v2.9h-12.5v-17.9z"/><path d="m355.5 443.1v-1.7c-.9 1.1-2.3 2-4.4 2-2.6 0-4.8-1.4-4.8-4.2 0-3 2.3-4.4 5.4-4.4 1.7 0 2.6.2 3.7.5v-.2c0-1.9-1.2-2.9-3.3-2.9-1.5 0-2.6.3-3.9.8l-.8-2.5c1.5-.7 2.9-1.1 5.1-1.1 4 0 5.9 2.1 5.9 5.7v8zm.1-5.6c-.8-.3-1.9-.5-3.1-.5-2 0-3.1.8-3.1 2.1s1.1 2 2.6 2c2 0 3.5-1.1 3.5-2.9z"/><path d="m364.4 441.1v2.1h-3.1v-18.7h3.1v7.4c1-1.4 2.4-2.5 4.5-2.5 3.2 0 6.3 2.5 6.3 7s-3.1 7-6.3 7c-2.1 0-3.5-1.1-4.5-2.3zm7.7-4.7c0-2.6-1.7-4.3-3.9-4.3-2.1 0-3.9 1.7-3.9 4.4 0 2.6 1.8 4.3 3.9 4.3 2.2 0 3.9-1.7 3.9-4.4z"/><path d="m376.5 441.4 1.4-2.1c1.4 1.1 3 1.7 4.4 1.7s2.1-.5 2.1-1.5-1.3-1.4-2.8-1.8c-.1 0-.2-.1-.2-.1-2-.6-4.2-1.4-4.2-4s2.1-4.1 4.8-4.1c1.7 0 3.5.6 5 1.5l-1.2 2.2c-1.3-.8-2.6-1.3-3.8-1.3s-1.9.5-1.9 1.4 1.3 1.4 2.8 1.8c.1 0 .2.1.2.1 2 .6 4.2 1.5 4.2 4 0 2.9-2.2 4.2-5 4.2-2 0-4.1-.7-5.8-2z"/><path d="m505.1 434.2c0-5.1 4.1-9.2 9.3-9.2s9.2 4.2 9.2 9.2-4.1 9.2-9.3 9.2-9.2-4.1-9.2-9.2zm17.4-.1c0-4.5-3.5-8.2-8.2-8.2s-8.2 3.7-8.2 8.3c0 4.5 3.5 8.2 8.2 8.2s8.2-3.7 8.2-8.3zm-13.1-.1c0-2.8 2.1-5.1 5.1-5.1 1.9 0 2.9.6 3.9 1.5l-1.4 1.7c-.8-.7-1.5-1.1-2.5-1.1-1.7 0-2.8 1.4-2.8 3.1s1.1 3 2.8 3c1.1 0 1.7-.5 2.5-1.1l1.4 1.4c-1.1 1.1-2.1 1.7-4 1.7-2.9.1-5-2.2-5-5.1z"/><path d="m525 425.3h3.4l4.2 13.2 4.4-13.3h2.6l4.4 13.3 4.2-13.2h3.3l-6.2 18h-2.7l-4.4-12.8-4.4 12.8h-2.7z"/><path d="m551.2 436.4c0-3.9 3.1-7 7.2-7 4.2 0 7.2 3.2 7.2 7s-3.1 7-7.3 7c-4.1 0-7.1-3.1-7.1-7zm11.2 0c0-2.3-1.7-4.3-4.2-4.3s-4.1 2-4.1 4.3 1.7 4.3 4.1 4.3c2.7.1 4.2-1.9 4.2-4.3z"/><path d="m567.8 429.7h3.1v3c.8-2 2.4-3.4 4.8-3.3v3.2h-.2c-2.7 0-4.6 1.7-4.6 5.4v5.1h-3.1z"/><path d="m577.5 424.5h3.1v11.1l5.6-6h3.8l-5.4 5.5 5.5 8h-3.5l-4.1-5.8-1.9 2v3.9h-3.1z"/><path d="m590.1 436.4c0-3.9 3.1-7 7.2-7 4.2 0 7.2 3.2 7.2 7s-3.1 7-7.3 7c-4.1 0-7.1-3.1-7.1-7zm11.2 0c0-2.3-1.7-4.3-4.2-4.3s-4.1 2-4.1 4.3 1.7 4.3 4.1 4.3c2.6.1 4.2-1.9 4.2-4.3z"/><path d="m606.5 438.2v-8.6h3.1v7.6c0 2.1 1.1 3.3 2.9 3.3s3-1.3 3-3.3v-7.6h3.1v13.4h-3.1v-2.1c-.8 1.3-2.1 2.3-4.2 2.3-3 .2-4.8-1.8-4.8-5z"/><path d="m622.2 439.4v-7.1h-1.7v-2.6h1.7v-3.7h3.1v3.7h3.6v2.6h-3.6v6.6c0 1.2.6 1.7 1.7 1.7.7 0 1.3-.2 1.9-.5v2.5c-.8.5-1.7.7-2.8.7-2.3 0-3.9-.9-3.9-3.9z"/><path d="m631.5 425.3h3.2v15h9.4v2.9h-12.5v-17.9z"/><path d="m654.3 443.1v-1.7c-.9 1.1-2.3 2-4.4 2-2.6 0-4.8-1.4-4.8-4.2 0-3 2.3-4.4 5.4-4.4 1.7 0 2.6.2 3.7.5v-.2c0-1.9-1.2-2.9-3.3-2.9-1.5 0-2.6.3-3.9.8l-.8-2.5c1.5-.7 2.9-1.1 5.1-1.1 4 0 5.9 2.1 5.9 5.7v8zm.1-5.6c-.8-.3-1.9-.5-3.1-.5-2 0-3.1.8-3.1 2.1s1.1 2 2.6 2c2 0 3.5-1.1 3.5-2.9z"/><path d="m663.3 441.1v2.1h-3.1v-18.7h3.1v7.4c1-1.4 2.4-2.5 4.5-2.5 3.2 0 6.3 2.5 6.3 7s-3.1 7-6.3 7c-2.2 0-3.6-1.1-4.5-2.3zm7.7-4.7c0-2.6-1.7-4.3-3.9-4.3s-3.9 1.7-3.9 4.4c0 2.6 1.8 4.3 3.9 4.3s3.9-1.7 3.9-4.4z"/><path d="m675.3 441.4 1.4-2.1c1.4 1.1 3 1.7 4.4 1.7s2.1-.5 2.1-1.5-1.3-1.4-2.8-1.8c-.1 0-.2-.1-.2-.1-2-.6-4.2-1.4-4.2-4s2.1-4.1 4.8-4.1c1.7 0 3.5.6 5 1.5l-1.2 2.2c-1.3-.8-2.6-1.3-3.8-1.3s-1.9.5-1.9 1.4 1.3 1.4 2.8 1.8c.1 0 .2.1.2.1 2 .6 4.2 1.5 4.2 4 0 2.9-2.2 4.2-5 4.2-2 0-4.1-.7-5.8-2z"/></g></svg><g>
	<path d="M629.4,14.3c-0.2,0.3-0.4,0.6-0.7,0.9c-1.1,0-2.2-0.2-3.3,0c-1.1,0.2-2.3,0.7-3.3,1.3c-1.5,0.9-2.9,2-4.3,3.1
		c-0.8,0.7-1.5,1.5-2.1,2.4c-0.5,0.8-1,1.6-0.2,2.7c0.4-0.2,0.9-0.2,1.3-0.5c0.7-0.5,1.3-1,1.9-1.6c2-1.8,4.2-1.9,6.6-1
		c3.1,1.1,5.2,4.3,5.2,7.7c0,0.5-0.1,0.9-0.2,1.5c1,1.2,2.3,2,3.7,2.7c4.9,2.3,8.8,5.8,11.9,10.3c2.6,3.8,5.2,7.6,7.1,11.8
		c1,2.2,2.3,4.4,3.6,6.5c0.6,1.1,0.9,2.2,1,3.4c0.1,4.2,0.2,8.5,0.2,12.7c0,1.1-0.4,2.3-0.7,3.4c-0.6,2-1.5,4-2,6.1
		c-0.5,2.2-1.7,3.9-3.3,5.3c-1.1,1-2.3,2-3.5,3.1c0.4,4.5-0.1,8.9-0.9,13.3c-0.8,4.4-1.9,8.7-3.5,13.3c-0.7-1.2-0.5-2.1-0.4-3
		c0.8-4.5,1.6-9.1,2.4-13.6c0.5-2.7,0.8-5.3,0.3-8.2c-1.6,0.4-2.5,1.5-3.6,2.4c0,0.8,0,1.6,0,2.4c0.1,6,0.1,12,0.1,18.1
		c0,0.9-0.1,1.9-1.1,2.7c-0.4-0.9-0.3-1.8-0.4-2.7c0-0.8,0-1.7-0.1-2.5c0-0.9-0.1-1.9-0.2-2.8c-0.1-0.8-0.2-1.6-0.2-2.5
		c-0.1-0.9-0.1-1.9-0.1-2.8c0-0.8,0-1.7,0-2.5c0-0.9-0.1-1.9-0.1-2.8c-0.1-0.8-0.2-1.6-0.3-2.5c-1.3,0.1-1.9,0.9-2.4,1.9
		c-1.3,0.1-2.1,1-2.6,1.6c-1,7.8,0.8,14.8,3.7,21.7c0.1-0.8,0-1.6-0.1-2.4c-1-5.4-2.2-10.9-1.5-16.5c0.2-1.5,0.3-3,0.4-4.5
		c0.8,0.7,0.9,1.6,0.9,2.6c-0.4,5.7,0.2,11.3,1.3,16.9c0.3,1.7,0.7,3.5,1,5.2c0,0.1,0.1,0.2,0.1,0.3c-0.7,2.7,1.3,4.3,2.5,6.2
		c0.2,0.3,0.4,0.5,1,1.2c-2-0.8-3.3-1.7-4.3-3.1c-2.2-3-3.8-6.2-4.5-9.9c-0.2-0.8-0.4-1.6-0.6-2.4c-1.2-4-1.5-8.1-0.9-12.3
		c0.1-0.5,0.1-0.9,0.1-1.4c0-0.1-0.1-0.2-0.1-0.4c-0.8-0.2-0.9,0.5-1,1c-1,6-1.7,11.9-0.9,18c0,0.3,0,0.7-0.1,1.1
		c0,0.2-0.2,0.4-0.4,0.8c-0.4-0.3-0.8-0.5-1-0.8c-1-1.3-1.7-2.8-2.2-4.4c-1.4-4.6-1.5-9.3-1.9-14.2c-1.3-0.5-2.5,0-3.5,0.8
		c-2.2,1.9-4.6,3.7-6.4,6.1c-1.4,2-3.2,3.8-4.8,5.7c-0.7,0.8-2,0.9-2.9,0.1c-1.2-1.2-2.4-2.6-3.7-4.1c-1-0.4-2.1-0.2-3,0.7
		c-1.5,1.4-2.9,1.4-4.4,0.2c-0.2-0.1-0.4-0.2-0.8-0.3c-1,0.8-1.7,2.3-3.3,2.2c-1.3,0-2.5-0.3-4-0.6c-2.1,1.1-4.3,2.5-7,2.6
		c-2.6-1.3-4.3-3.4-5.3-6c-1.2-3.2-2.5-6.4-3.1-9.8c-0.1-0.3-0.3-0.6-0.5-1c-0.6,0-1.2-0.1-1.7,0c-1.5,0.2-3,0.6-4.5,0.8
		c-0.6,0.1-1.3,0.3-1.7,0.1c-2.3-1-4.4-0.3-6.7,0.4c-0.1,0.5-0.2,1.1-0.2,1.7c0.2,3.1-0.2,6.1-0.9,9.1c-0.8,3.6-1.6,7.1-2.6,10.7
		c-1,3.9-0.5,7.7,0.3,11.6c0.5,2.2,1.2,4.3,1.8,6.5c1.9,6,3.1,12.1,3.5,18.3c1.9,2.3,3.7,4.5,5.6,6.6c1.3,1.4,2.3,3,2.9,4.8
		c1.4,3.9,3,7.7,4.1,11.7c1.3,4.5,2.4,9.1,3.5,13.7c0.7,2.9,1.5,5.7,2.8,8.4c1.7,3.5,3.1,7.2,5.1,10.5c2.2,3.7,3.3,7.8,5,11.7
		c1,2.5,2.2,5,3.5,7.3c1.1,1.9,2.9,3.4,4.9,4.4c0.7,0.3,1.6,0.4,2.4,0.5c0.6,0,1.2-0.1,1.7-0.2c3.8-1.1,7.7-1.1,11.6-1.1
		c2,0,3.8,0.5,5.1,2c1.3,1.5,2.9,2.2,4.9,2.4c3.4,0.3,6.8,0.8,10.2,1.2c1,0.1,2.1,0.4,3.1,0.7c3.3,0.9,6.6,1.8,10.1,1.8
		c1.2,0,2.3,0.3,3.5,0.5c1,0.2,1.7,0.8,2.3,1.5c0.8,0.9,0.7,2.1-0.2,2.8c-1.3,1.1-2.7,1.8-4.4,2c-4.3,0.6-8.5,0.3-12.7-0.2
		c-1-0.1-2.2-0.4-3.1,0c-3.8,1.2-7.5,0.8-11.3-0.2c-0.5,0.4-1.1,0.8-1.7,1.2c-0.7,0.5-1.5,0.7-2.4,0.5c-1.3-0.2-2.6-0.3-3.8-0.7
		c-3-1.1-6.1-0.4-9.1-0.5c-0.4,0-0.9,0.2-1.3,0.5c-1.3,0.9-2.9,1-4.4,1c-2.1,0-4.3,0.1-6.4,0.1c-0.7,0-1.4-0.1-2.1-0.4
		c-0.8-0.4-1.6-0.9-2.4-1.5c-0.3-0.3-0.5-0.7-0.8-1.2c0.4-0.2,0.8-0.5,1-0.4c5.2,1.8,10.2,0.8,15.3-0.5c0.8-0.2,1.6-0.5,2.4-0.7
		c2.4-0.5,4.6-0.7,6.8,0.7c1.4,0.9,3.1,1.2,4.8,1.1c0.5,0,1.1-0.2,1.6-0.5c0.8-0.5,0.7-1.7-0.2-2c-2.5-0.9-5.1-1.8-7.6-2.8
		c-1.4-0.6-2.7-1.4-3.9-2.3c-2.7-0.9-5.2,1-7.9,0.9c0.2-0.3,0.2-0.6,0.4-0.7c2.1-0.6,4.3-1.3,6.5-1.8c0.8-0.2,1.7-0.2,2.3,0.4
		c0.8,0.8,1.9,0.9,2.9,1.2c2.8,0.9,5.6,1.9,8.5,2.8c0.7,1,1.4,2.1,2.2,3.2c0.7,0.9,1.6,1.4,2.7,1.3c1.1-0.1,2.2-0.1,3.2-0.4
		c2.6-0.8,5.3-0.6,8-0.6c1.6,0,3.2,0.5,4.9,0.8c1.4,0.2,2.8,0.3,4.2,0.3c0.4,0,0.8-0.3,1.2-0.5c-0.2-0.4-0.3-0.7-0.4-0.7
		c-5.4-1.3-10.8-2.5-16.2-3.8c-0.7-0.2-1.4-0.4-2.1-0.5c-2-0.1-3.6-1-5.2-2.1c-3.1-2.3-6.8-3.1-10.4-4.2c-0.4-0.1-0.9,0.1-1.3,0.2
		c-0.7,0.1-1.4,0.3-2.1,0.3c-3.3,0.3-6.6,0.5-9.8,1c-1.4,0.2-2.6,0-3.7-0.8c-2.6-2.1-4.8-4.5-5.7-7.9c-1-3.7-2.4-7.1-4.1-10.5
		c-4.7-9.3-8.6-18.9-11.1-29.1c-1.5-6.2-3.7-12.2-5.6-18.3c-0.5-1.7-1.4-3.2-2.5-4.6c-2.2-2.8-4.3-5.6-6.4-8.5c-0.7-1-1.6-2-0.9-3.5
		c0.3-0.7-0.3-1.8-0.5-2.7c-1.3-5.3-2.7-10.5-3.8-15.8c-0.8-3.7-1.3-7.4-1.6-11.2c-0.2-2.1,0.3-4.2,0.6-6.3
		c0.8-4.8,1.8-9.5,2.7-14.3c0.3-1.7,0.5-3.5,0.4-5.4c-1.8-0.1-3.4-0.2-5-0.4c-1.5-0.2-2.9-1-4.7-0.5c-0.5,0.9-1,1.9-1.5,3
		c-1.7,3.7-3.9,7-7.1,9.7c-0.4,0.4-0.9,0.8-1.2,1.3c-3.1,4.2-7.1,7.2-11.5,9.9c-0.7,0.4-1.4,0.8-2.2,1.3c0,0.8-0.1,1.5,0,2.1
		c0.5,2.9,1.1,5.8,1.7,8.7c1.2,5.8,3.3,11.3,5.8,16.7c1.1,2.5,2.4,4.9,3.5,7.3c0.9,2,1.8,4.1,2.7,6.2c0.6,1.5,1.1,3.1,2.1,4.5
		c0.8,1.1,1.1,2.4,1.1,3.7c-0.1,3.4,1.1,6.5,2.3,9.6c1.2,3.1,2.9,5.9,5,8.5c0.4,0.6,0.9,1.1,1.3,1.7c3.5,5.7,7.9,10.6,12.3,15.6
		c1.2,1.4,2.4,2.9,3.6,4.4c1.8,2.2,3.6,4.4,5.4,6.6c2.5,3,5,6,7.6,8.9c1.1,1.3,2.1,2.7,3.5,3.9c1.5,1.4,2.4,3.4,2.7,5.6
		c0.2,1.6,0.7,2.9,1.7,4.2c1.1,1.5,1.9,3.2,1.5,5.5c-0.7-0.2-1.4-0.2-1.7-0.5c-0.7-0.7-1.4-1.6-1.9-2.5c-2.4-4.6-4.7-9.2-7.1-13.9
		c-0.4-0.8-1-1.6-1.6-2.3c-3-3.8-6-7.6-9-11.4c-0.4-0.5-0.8-0.9-1.2-1.3c-7.4-6.6-13-14.6-18.2-23c-1.2-1.9-2.4-3.8-3.8-5.6
		c-3.1-4.1-4.8-8.7-4.8-13.8c0.1-3.7-1.5-6.7-3.3-9.6c-6.3-10.1-10.1-21-11.7-32.8c-0.2-1.9-0.6-3.7-0.9-5.5
		c-0.7-0.6-1.2-0.2-1.7,0.1c-0.7,0.6-1.4,1.2-2.1,1.9c-10.7,11.1-20.6,22.8-29.4,35.4c-0.5,0.7-1,1.3-1.3,2.1
		c-3.2,6.6-6.9,12.9-9.5,19.8c-0.7,1.9-1.5,3.7-2.9,5.2c-0.8,0.9-1.1,2.3-1.7,3.5c-1.5,3.1-2.9,6.2-4.5,9.2c-1.8,3.4-4.1,6.3-7,8.8
		c-3.4,2.9-6.7,6-9.9,9.1c-3.3,3.2-6.5,6.5-9.7,9.8c-2.9,3-5.7,6-8.6,8.9c-0.2,0.2-0.4,0.3-0.5,0.5c-4.2,5.4-8.2,11-11.7,16.8
		c0.4,0.9,0.9,1.6,1.2,2.3c0.2,0.7,0.3,1.4,0.4,2.1c0.7,2.5,1.3,5,2,7.5c0.5,1.8,1.4,3.5,2.6,5c1.3,1.6,2.5,3.1,3.8,4.7
		c0.7,0.1,1.4,0.1,2.1,0.3c3.5,0.9,7,1,10.6,0.7c1.3-0.1,2.5,0.1,3.7,0.9c0.8,0.6,1.9,1,2.9,1.4c2.9,1,5.9,1.8,8.8,2.8
		c1.2,0.4,2.4,0.9,3.7,1.4c0.1,0.9,0.2,1.7,0.1,2.5c0,0.4-0.3,0.9-0.6,1.2c-0.2,0.2-0.6,0.3-1.1,0.6c-0.1-1.2-0.2-2.1-0.3-3.2
		c-0.6-0.3-1.1-0.6-1.7-0.7c-4.6-1.1-9.2-2.3-13.3-4.7c-1-0.6-2-0.5-3.3-0.1c3,2,6.2,3.2,9.4,4.4c1.1,0.4,2.2,0.8,3.3,1.3
		c0.4,0.2,0.7,0.6,0.2,1.3c-0.2,0-0.6,0.1-0.9,0c-3.7-1.2-7.4-2.4-10.9-4.3c-1.4-0.8-3.1-1.1-4.7-1.5c-2.6-0.6-5.3-1-8.2-1.5
		c-0.2-0.5-0.3-1.1-0.7-1.4c-6.3-5.7-9.1-13.1-10.2-21.2c-0.1-1,0.2-2.1,0.6-3.1c0.8-2.2,1.8-4.4,2.8-6.5
		c2.9-6.3,7.3-11.6,12.4-16.2c2-1.7,3.7-3.6,5.2-5.8c3.3-4.9,7.4-9.2,12.1-12.9c1.9-1.6,3.8-3.2,5.8-4.7c2.1-1.6,3.7-3.6,5.1-5.8
		c2.4-4.1,4.8-8.1,7.3-12.2c0.7-1.2,1.5-2.4,2.2-3.6c1.2-1.8,2-3.7,2.7-5.7c1.5-4.9,4-9.4,7-13.5c3.2-4.3,5.8-8.9,8.5-13.4
		c2.4-3.9,5-7.8,7.8-11.4c3.7-4.7,7.9-9.1,11.7-13.7c2.6-3.2,5.7-5.6,9.2-7.7c3.8-2.4,7.4-5,10.9-7.8c6-4.9,10.5-10.8,12.9-18.2
		c1.8-5.6,2.2-11.1,0-16.6c-0.2-0.6-0.4-1.1,0.3-1.7c2,0.9,2.1,3.2,3.3,4.9c0.3-0.7,0.7-1.3,0.8-1.9c0.2-0.8,0.2-1.7,0.1-2.5
		c-0.2-3.2-0.4-6.4-0.8-9.5c-0.6-4.7-2.7-8.7-6.2-12.1c-1.6-1.6-3.1-3.2-4.8-4.7c-1.2-1.1-2.7-1.9-4.4-2.3
		c-8.1-1.6-15.9-4.5-23.9-6.4c-0.5-0.1-0.9-0.2-1.4-0.4c-3.3-1.4-6.7-1.1-10.1-1.2c-1.9,0-3.5,0.5-4.9,1.7
		c-5.7,4.5-9.6,10.1-10.8,17.3c-1.3,7.8-0.7,15.6,1,23.2c0.2,1.1,0.7,2.3,1.3,3.3c1.5,2.6,3.2,5,5.3,7.1c0.9,0.9,1.8,1.8,3.1,2.3
		c0.3-0.4,0.6-0.6,0.7-0.9c1-2.9,2.1-5.8,2.9-8.7c0.4-1.6,0.4-3.3,0.6-4.9c0.1-0.6,0.3-1.1,1.2-1.1c0.8,2.2,0.4,4.4-0.1,6.6
		c-0.8,3.7-6.1,17.3-8,20.4c-1.6,2.5-3.4,4.8-5.2,7.1c-3.4,4.4-6.9,8.7-10.4,13c-0.3,0.4-0.5,0.8-0.9,1.1c-3.6,3.8-6.4,8.2-8.6,12.9
		c-0.3,0.7-0.8,1.4-1.3,2.2c0.1,0.4,0.3,0.8,0.5,1.2c1.2,2.4,2,4.8,1,7.5c0,0.1,0,0.2,0,0.4c-0.1,2.1,0,4.3-0.5,6.3
		c-0.5,1.9-1.6,3.6-2.4,5.5c-0.5,1.1-0.9,2.2-1.2,3.3c-1.4,5.6-4.7,9.8-9.3,12.9c-4.5,3-9.1,6-13.9,8.5c-6.2,3.3-4.3,1.4-7.6,7.8
		c-4.7,9.2-8.1,18.9-11.9,28.4c-2.2,5.6-4.4,11.2-6.6,16.8c-0.3,0.8-0.5,1.6-0.7,2.4l0.1-0.1c-0.3,0.5-0.5,1-0.8,1.6l0.1-0.1
		c-1.2,0.7-1.8,1.8-2.2,3.1c-0.6,1.8-1.3,3.6-1.9,5.3c-0.2,0.6-0.3,1.2-0.6,1.6c-1.9,2.2-1.7,4.8-1.6,7.4c0.1,2.4,1.2,4.3,3.2,6.1
		c-0.3-3-1.4-5.6-0.2-8.8c0.3,1.4,0.6,2.1,0.7,2.9c0.5,3.2,1.6,6.2,3,9c1.4,2.7,3.2,4.9,5.8,6.5c2.7,1.7,5.5,3.3,7.8,5.5
		c0.4,0.4,1,0.7,1.5,0.9c2.9,0.9,5.1,3,7.6,4.4c0.7,0.4,1.1,1.2,1.5,1.9c0.3,0.6,0.4,1.3,0.7,2c0.5,1.2,1.4,1.9,2.8,1.8
		c0.9,0,1.9-0.1,2.7-0.2c0.5-1.1,0.3-1.8-0.7-2.1c-0.6-0.2-1.1-0.3-1.8-0.4c-0.2-0.7-0.5-1.4-0.7-2c-1-2.4-2.2-4.7-4.5-6.2
		c-0.8-0.5-1.5-1.1-2-2c2.1,0.1,2.1,0.1,6.4,3.7c0.5,0,1.2,0,1.9,0c2.3-0.1,4.4,0.3,6.6,1.1c3.3,1.2,6.8,2,10.4,1.1
		c0.3-0.1,0.6-0.3,1-0.4c-0.1-0.5-0.2-0.9-0.3-1.5c1-0.4,1.8,0.1,2.3,0.9c0.4,0.7-0.2,1.9-1,2.4c-0.2,0.1-0.4,0.2-0.6,0.3
		c-4.4,0.5-8.9,1.5-13.1-1.2c-1.6-1.1-2.9-1.1-6.1-0.8c-0.4,1.2,0.4,2,0.8,3c0.9,0.5,1.9,0.9,2.8,1.4c0.9,0.6,1.3,1.6,0.9,2.5
		c-0.4,1.1-0.9,2.2-2.3,2.4c-3.5,0.4-6.3-0.8-7.8-4.2c-1.4-3-3.6-4.6-6.5-5.5c-2.3-0.7-4.3-1.9-6.1-3.5c-1.7-1.6-3.6-3-5.5-4.4
		c-2.2-1.5-4-3.3-5.3-5.6c-0.7-1.3-1.7-2.2-3-2.8c-0.8-0.4-1.6-1-2.3-1.6c-1.8-1.5-2.8-3.5-2.8-5.9c-0.1-4.1,0.9-7.9,2.9-11.6
		c1.3-2.5,2.4-5.1,3.6-7.7c0.6-1.3,0.8-2.7,2.2-3.5c0.5-0.3,0.7-1.2,0.9-1.9c0.9-2.7,1.7-5.4,2.5-8.1c3.3-10.6,7.3-21,12-31.1
		c1-2.1,2.1-4.1,3.1-6.3c-2.4,0-4.3,0.8-6,2.1c-2.5,2-5.5,3.3-8.5,4.4c-10.1,3.7-19.9,8.1-29.8,12.3c-1.7,0.7-3.5,1.5-5,2.6
		c-7.4,4.9-14.8,9.7-21.8,15.2c-5.5,4.3-9.7,9.7-13.3,15.5c-0.1,0.2-0.1,0.5-0.1,0.8c0.7,0.8,1.9,0.7,2.8,1c1.7,0.6,2.4,1.2,2,2.8
		c-0.6,2.3,0,4.4,0.4,6.6c0.5,2.4,0.8,4.9,1.1,7.3c0.2,1.5,0.3,3.1,0.5,4.6c0.1,0.5,0.1,1,0.3,1.3c2.2,2.5,3.3,6.1,6.8,7.4
		c2.5,3.4,6.9,4,9.9,6.7c2.7,1.1,5.5,2.1,8.2,3.2c0.8,0.3,1.5,0.6,2.1,0.8c0.5,1.7,1,3.1,1.5,4.5c0.7,2,1,4.1,0.8,6.3
		c-0.3,2.9-1.7,4.5-4.5,5.2c-0.9,0.2-1.9,0.2-2.8,0.3c-0.8,0.1-1.7-0.2-1.8,1c-0.8,0.3-1.5,0.7-2.3,0.9c-5.5,1-10.9,2.2-16.4,2.8
		c-4.6,0.4-9.2,0.2-13.8,0c-3.6-0.2-6.8-1.8-9.9-3.5c-2.6-1.4-5.1-3-7.5-4.7c-2.2-1.5-3.9-3.3-5.1-5.7c-2.1-3.9-5.2-7-8.8-9.6
		c-1.1-0.8-2.4-1.4-3.1-2.8c-0.3-0.6-1.3-0.9-2-1.3c-4.9-2.7-9.4-5.9-13.3-10c-0.9-0.9-1.8-1.9-2.6-2.9c-0.7-0.9-1.4-1.9-1.8-2.5
		c-0.3-1.9-0.5-3.4-0.7-4.9c-0.3-1.5-0.6-3-0.8-4.5c-0.1-1.1-0.1-2.4,1-3.1c1.1,0.2,1,1,1.1,1.6c0.4,3.7,1.4,7.2,2.4,10.7
		c0.4,1.6,1.2,2.8,2.3,3.9c3.2,3.2,6.7,6,10.5,8.4c2.5,1.6,5,3.1,7.2,5.2c0.8,0.8,1.9,1.3,2.9,2c4.2,2.9,7.5,6.5,9.1,11.4
		c0.4,1.1,0.9,1.9,1.9,2.5c1.1,0.6,2.2,1.3,3.4,1.9c2.9,1.4,5.9,2.4,8.7,4c2,1.1,4.2,1.4,6.5,1.5c5.8,0.1,11.6-0.2,17.3-1.2
		c3-0.5,6.1-0.4,9.2-0.5c0.1-1.1,0.8-1.6,2-1.8c1.9-0.3,3.7-0.6,5.6-0.9c1.1-2,1.6-4,1.4-6.2c-0.2-1.5-0.4-3-0.7-4.6
		c-5.5-3.2-10.9-6.4-16.5-9.7c-0.6,0.8-1.1,1.8-1.8,2.5c-0.7,0.7-1.7,1.3-2.6,1.7c-0.7,0.3-1.4,0-1.9-0.6c-0.5-0.6-0.4-1.4,0-2
		c0.9-1.3,2-2.3,3.4-2.9c0.3-0.1,0.6-0.2,1.1-0.4c-0.6-0.6-1.1-1-1.8-1.7c-1.2,1.7-2.8,2.9-4.7,3.7c-0.5,0.2-1.1,0.4-1.7,0.5
		c-0.8,0.2-1.6-0.2-1.7-0.9c-0.2-0.8,0-1.4,0.7-1.9c0.7-0.4,1.4-0.8,2.2-1.1c1.3-0.5,2.6-1,4-1.6c-0.6-0.9-1.1-1.6-1.8-2.5
		c-0.8,0.5-1.5,0.9-2.2,1.3c-1.8,1.1-3.9,1.6-6,2.1c-0.9,0.2-1.9,0.2-2.8-0.3c-1.1-0.6-1.5-2.1-0.6-3c0.6-0.6,1.5-1.2,2.3-1.5
		c2-0.7,4-1.3,6.3-2c-0.4-0.8-0.8-1.5-1-2.2c-0.3-0.8-0.4-1.6-0.6-2.3c-0.8-0.6-1.4,0-2,0.3c-2.4,0.8-4.8,1.3-7.3,1.2
		c-0.9,0-1.9-0.3-2.7-0.6c-0.8-0.3-1.3-1-1.3-1.9c0-0.9,0.6-1.6,1.4-1.9c0.9-0.3,1.8-0.4,2.7-0.5c2.8-0.3,5.6-0.5,8.1-0.7
		c0.9-0.6,0.7-1.3,0.7-1.8c0-0.6-0.1-1.1-0.1-2c-3.4,1.4-6.9,1.1-10.3,1.4c-1.6,0.1-3.3-0.1-4.9-0.4c-0.6-0.1-1.1-0.7-1.6-1
		c0.1-1.2,0.6-1.8,1.5-1.9c1.1-0.2,2.3-0.4,3.5-0.4c3.6,0,7.3,0,11.1,0c0.4-1.9-0.6-3.5-1-5.3c-0.9-0.2-1.8-0.4-2.7-0.6
		c-0.6-0.1-1.4,0-1.7-0.3c-1.4-1.7-2.9-1-4.5-0.5c-2.6,0.8-5.3,1.1-8,0.9c-1.5-0.1-3.1,0.1-4.6,0.2c-1.8,0.2-3.5,0.2-5.3-0.2
		c-3.6-0.9-5.8-3-6.2-6.8c-0.4-3.7-0.5-7.5-0.8-11.3c0-0.2-0.1-0.4-0.2-0.7c-0.7-0.5-1.2-0.1-1.4,0.4c-0.8,1.8-2.3,2.9-3.9,4
		c-2.4,1.7-4.6,3.7-6.4,6.1c-1.1,1.4-2.5,2.5-3.8,3.6c-1.4,1.1-2.7,2.3-3.4,4c-0.9,2.1-2.7,2.8-4.8,3.2c-0.3,0-0.8-0.2-0.9-0.4
		c-0.1-0.4-0.1-1.1,0.1-1.2c0.8-0.6,1.8-1.1,3-1.8c0.9-2.7,3.2-4.6,5.6-6.3c1-0.7,1.9-1.5,2.5-2.4c2-2.9,4.6-5,7.4-7
		c1.2-0.8,2.2-1.8,3-3c0.7-1.1,1.9-1.3,3.2-1.1c1.3,0.2,1.7,1,1.4,2.6c-0.1,0.4,0,0.8,0,1.3c1.1,0.1,1.4-0.7,1.8-1.1
		c1.2-1.2,2.3-2.3,3.9-2.9c0.6-0.2,1.2-0.8,1.7-1.2c5.7-5.6,11.4-11.3,17.2-16.9c2.8-2.7,5.4-5.6,7.1-9.2c4.5-9.2,11.1-17,17.6-24.8
		c4.3-5,9-9.7,13.4-14.6c4.5-5,10.1-8,16.8-9.3c1-0.2,2-0.5,3-1c-4.3-0.3-8.5-0.5-12.7,0c-0.4,0-0.7,0.1-1.1,0.1
		c-7.1-0.1-14.2,0-21.1-1.7c-0.2-0.1-0.5,0-0.9,0c-0.4,0.3-0.9,0.8-1.5,1.2c-2.1,1.9-4.4,3.5-7,4.7c-2.6,1.2-5,2.7-7.5,4.1
		c-1.9,1-3.8,1.9-5.7,2.8c-4.4,1.8-8.8,3.5-13.1,5.3c-8.6,3.6-17.5,5.6-26.6,7.2c-9.1,1.6-18.2,2.6-27.4,3.7
		c-8.8,1.1-17.6,1.5-26.5,1.5c-2.9,0-5.9,0.5-8.8,0.5c-2.7,0-5.4-0.2-8.1-0.3c-1.3,0-2.6-0.1-3.8,0.2c-2.3,0.4-4.6,1.1-6.9,1.7
		c-0.9,0.2-1.8,0.4-2.8,0.5c-1.1,0.2-2.1,0.2-3.2,0.4c-4.4,1-8.9,1.2-13.4,1.2c-1.3,0-2.6,0.1-3.8,0.5c-6.7,2.2-13.6,3.8-20.5,5.4
		c-7.3,1.6-14.5,3.2-21.8,4.8c-5.4,1.2-11,1.6-16.5,1.7c-2,0.1-4,0.3-5.9,1c-4.5,1.5-9,2.9-13.5,4.4c-2.2,0.8-4.3,1.8-6.3,3.4
		c0.3,2.7-0.7,5-2.1,7.3c-1,1.6-1.9,3.3-1.6,5.3c0,0.1,0,0.3,0,0.3c-1.4,2.3-1.1,5-1.8,7.5c-0.6,1.8-0.8,3.7-0.9,5.6
		c-0.1,2-0.4,4-0.7,6.1c2.2,1.9,4.5,3.9,7.2,5.4c1,0.6,2,1.3,2.9,1.9c0.7,2.2,2.9,3.7,3.3,6.1c0.1,0.9,0.1,1.9-0.2,2.8
		c-0.7,2.2-2.2,3.9-4.1,5.2c-0.5,0.3-1.1,0.5-1.6,0.5c-3.5,0.5-7,1.4-10.5,0.9c-0.3,0-0.7-0.1-1.1,0c-3.7,1.2-7.2-0.3-10.7-1.1
		c-3.2-0.8-6.3-2.1-8.8-4.3c-0.6-0.5-1.3-1-2-1.3c-1.1-0.5-2-1.3-2.6-2.3c-2-3.3-3.5-6.8-3.2-10.7c0.2-2.9-0.7-5.1-2.5-7.1
		c-2.5-2.8-5.2-5.4-8.4-7.5c-1.4-0.9-2.6-2.1-3.6-3.4c-3.8-4.9-6.7-10.3-8.8-16.1c-1.3-3.7-1.4-7.6-0.7-11.6
		c0.2-1.4,1.1-2.3,2.4-2.9c1.2-0.5,2.4-0.9,3.7-1.3c2.4-0.7,4.7-1.7,6.6-3.2c0.3-0.2,0.6-0.5,0.9-0.6c3-0.7,5.2-2.8,7.5-4.6
		c2.1-1.5,4.4-2.4,6.8-2.8c2.8-0.4,5.4,0.4,6.9,3.1c7.5,1.2,14.4-0.8,21.1-3.6c5.8-2.4,11.4-5.1,17.1-7.7c2.8-1.3,5.5-2.7,8.4-3.9
		c2.6-1.1,5.1-2.5,7.4-4.1c1.1-0.7,2.2-1.4,3.2-2.2c8.7-6.4,18.7-9.4,29.2-11.1c6.3-1,12.6-1.6,19-1.5c2.5,0,4.9-0.4,7.4-0.8
		c4.3-0.7,8.7-0.7,13.1-0.6c3.4,0.1,6.6-0.3,9.5-2.2c0.3-0.2,0.6-0.4,0.9-0.5c2.9-0.5,5.2-2.3,7.5-3.8c4.1-2.8,8.5-5.1,13.1-7
		c12.6-5.3,25.1-11.1,37.5-16.8c5.1-2.4,10.5-4.3,15.7-6.5c2.6-1.1,5.1-2.4,7.6-3.7c1.5-0.8,1.8-1.6,1.3-3.2c-2.3-7-1.7-14-0.6-21
		c0.6-3.3,1.8-6.4,3.5-9.2c2.6-4.4,5.5-8.5,8.7-12.5c4.9-6.2,11.3-10.3,18.8-12.7c5.3-1.7,10.7-2.8,16.3-3.1c4.5-0.3,9-0.4,13.5-0.4
		c3.9,0,7.8,0.5,11.4,2.1c0.7,0.3,1.6,0.5,2.4,0.7c5.6,1.1,10.9,3,16.2,5.2c2.2,0.9,4.4,1.7,6.6,2.5c4.3,1.5,8.7,2.1,13.2,2.1
		c5.8,0.1,11.6,0.1,17.4,0.1c3.7,0,7.2-1.2,10.5-2.8c0.5-0.2,1-0.6,1.5-0.9c3.7-2.8,7.6-5.2,11.9-6.8c2.8-1,5.5-2.1,8.3-3.1
		c1.9-0.7,3.6-1.7,5.5-2.4c1.9-0.7,3.8-1.2,5.7-2c5.1-2.1,10.4-3.1,15.8-3.7c5.7-0.7,11.5-0.7,17.3,0.3c8.4,1.5,16.6,3.6,24.5,6.8
		c1.5,0.6,3.1,1,4.7,1.5c1.8,0.6,3.6,1.2,5,2.5c0.7,0.6,1.6,1,2.4,1.5c3,1.6,6.1,3.2,8.8,5.3c0.8,0.7,1.7,1.2,2.9,1.2
		c5,0,9.9,0.1,14.8-1.1c3.2-0.8,5.9-2.2,7.7-5.2c0.3-0.5,0.7-0.9,1-1.3c0.2-0.9-0.4-1.6,0.1-2.5c1.8-2.8,3.4-5.7,5.1-8.5
		c0.7-1.2,1.6-2.4,2.4-3.5c2.1-2.9,4.8-5.1,8.2-6.6c4-1.8,7.9-3.7,12.2-4.8c0.8-0.2,1.5-0.5,2.4-0.9c-1.9-5-0.2-9.1,2.5-13
		c1.1-1.5,2.5-2.8,3.8-4.2c0.5-0.5,1.1-1.1,1.2-1.7c0.1-1.4,1.1-2,2.1-2.6c4.1-2.2,8.2-2,12.1,0.6c1.4,0.9,2.6,2,3.7,3.3
		c3.4,4,6.2,8.4,8.1,13.3c1,2.7,1.7,5.4,1.8,8.3c0,0.5-0.2,1.1-0.3,1.8c-0.3-0.4-0.5-0.6-0.5-0.8c0-3.4-1.4-6.4-3.1-9.3
		c-1.8-2.9-3.6-5.8-5.5-8.7C631.3,16.4,630.2,15.4,629.4,14.3c-1.2-1.8-3-3-5-3.8c-2.7-1.1-5.4-0.9-7.6,1.2c-2.1,2.1-4.1,4.3-6,6.5
		c-1.5,1.7-2.6,3.7-3.2,5.9c-0.5,1.9-0.9,3.9,0.1,5.8c1.7,0.5,3.3-1.1,4.9,0.1c0.3,0.9,0.4,1.8,0,2.8c-0.4,0.9-0.7,1.8-1,2.7
		c-1.5,4.3-2,8.7-2.9,13.1c-0.1,0.6-0.1,1.2-0.3,1.7c-0.2,0.5-0.4,1-0.7,1.6c-0.2-2.3,0-4.6,0.3-6.8c0.3-2.2,0.7-4.4,1.2-7.2
		c-2.3,2.9-3.1,5.7-3.8,8.5c-0.7,2.7-1,5.6-1.5,8.2c-0.2-1.6-0.6-3.3-0.7-5.1c-0.1-1.8,0.2-3.7,0.3-5.9c-1.4,1.3-1.8,2.7-2.3,3.9
		c-0.5,1.3-0.9,2.7-1.5,4c-0.5,1.3-0.1,2.9-1.4,3.9c-0.1-0.2-0.2-0.3-0.2-0.4c0.3-3.6,1-7.2,2.3-10.6c1.6-4.1,4-7.5,7.9-9.7
		c0.9-0.5,1.8-1.2,2.6-1.9c0.3-0.3,0.7-0.7,0.2-1.2c-0.2-0.1-0.5-0.2-0.6-0.2c-2.5,0.6-5,0.9-7,2.9c-1.2,1.2-3.1,1.6-4.7,2.3
		c-4.4,2-5.3,2.7-7.9,6.2l0.1,0.1c0-0.5-0.1-1-0.1-1.5c0.2,0,0.7,0.2,0.4-0.4c-0.1,0.1-0.2,0.3-0.3,0.4c-0.5,0.2-1.1,0.3-1.6,0.7
		c-3.3,2.5-6.3,5.3-9,8.4c-0.1,0.4-0.1,0.7-0.1,1.1c-0.2,4.6-2.1,8.4-5.8,11.3c-3.6,2.9-8,4-12.4,4.9c-0.2,0-0.5,0-0.7,0
		c-1.6,0-3.3-0.1-4.9-0.1c-0.5,0-1.1,0.2-1.6,0.2c0.1,0.7,0,1.1,0.1,1.6c0.9,4.6,0.8,9.2,0.5,13.8c-0.3,4-1.2,7.9-2.7,11.7
		c-0.8,2-1.8,3.9-4.1,4.7c0,1.3-0.7,2.5-0.4,3.8c1.3,0.2,2.5,0.6,3.7,0.6c2.1,0.1,4.2,0.3,6.3,0.1c4-0.3,7.9-1.7,11.9-1
		c0.4,0.1,0.9-0.1,1.4-0.1c2.6-0.2,4.3,0.8,5.3,3.2c0.3,0.8,0.7,1.6,0.7,2.4c0.3,3.1,1.7,5.9,2.6,8.8c0.4,1.2,1.1,2.1,2.3,2.5
		c1.6-0.3,3.3-0.4,4.7-1.4c1.1-0.8,2.4-0.9,3.7-0.6c0.8,0.2,1.6,0.3,2.4,0.4c0.9,0.1,1.6-0.3,2.2-0.8c0.5-0.5,0.7-1.4,0.3-1.9
		c-0.5-0.7-1.1-1.2-1.6-1.8c-0.6-0.8-0.6-1.8-0.1-2.3c0.5-0.5,1.3-0.1,1.9,1c0.3,0.5,0.5,1.1,0.8,1.6c0.3,0.6,0.6,1.3,1,1.9
		c1,1.5,2,1.8,3.6,0.9c0.9-0.5,1.8-1.1,2.6-1.7c0-1.3-0.7-2.6,0.8-3.2c0.9,1.5,1.7,3,2.6,4.5c1,1.5,1.5,3.5,3.7,4
		c0.3-0.3,0.6-0.6,0.7-0.9c2.1-4,5.1-7.4,8.4-10.4c2.1-1.9,4.6-2.9,7.5-2.6c0.7,0.1,1.4,0.1,1.8,0.1c2-1.4,3.7-2.7,5.5-3.7
		c3-1.5,5.6-3.5,8.3-5.4c1.5-1.1,2.9-2.4,4.3-3.6c-0.2-0.5-0.5-0.8-0.4-1.1c0.2-0.9,0.6-1.7,0.9-2.4c-0.5-0.4-0.9-0.8-1.4-1.2
		c0.8-1.3,1.6-2.4,2.2-3.5c0.6-1.3,1-2.7,1.3-4c1.1-4.8,1.3-9.6,0.7-14.4c-0.2-1.3-0.2-2.6-0.3-3.9l-0.1,0.1c1.5,1.2,1.8,3,2.1,4.8
		c0.5,3.1,0.9,6.3,0.3,9.5c-0.1,0.6,0,1.3,0,2.2c1.6-1.9,1.2-4.2,2.6-6.2c0.4,4.4-1.6,7.9-2.6,12.4c2.4-3.4,3.4-6.3,3.5-9.6
		c0-3.6-0.5-7-1.4-10.5c-1-4-3.2-7.3-5.4-10.7c-1.5-2.3-2.9-4.6-4.5-6.8c-2-2.9-3.6-6.1-6.3-8.5c-3.2-2.8-6.6-5.4-10.3-7.4
		c-0.4-0.2-0.8-0.6-1.3-0.2c0.1,0.2,0.1,0.4,0.3,0.6c5.3,4.4,9.4,9.9,13.6,15.3c0.5,0.6,0.8,1.4,1.1,2.1l0.1-0.1
		c-0.8,0-1.2-0.6-1.7-1.2c-2.2-2.5-4.3-5-6.5-7.5c-2.4-2.6-4.8-5.2-7.4-7.6c-3.1-2.9-6.7-4.8-11-4.8c-0.4-0.8-0.7-1.4-1.1-2
		c-1.7-2.5-1.3-4.9,0.3-7.3c1.4-2.1,3.3-3.7,5.5-4.9c2.7-1.5,5.4-2.3,8.4-0.9C628.9,14.5,629.2,14.3,629.4,14.3z M625.7,26.4
		c0.2,0.2,0.5,0.5,0.7,0.7c-0.1,1.1,0.6,1.7,1.2,2.4c0.3,0.3,0.7,0.6,1.1-0.1c-0.7-0.8-1-2.1-2.4-2.3
		C626.4,26.7,626.2,26.4,625.7,26.4c0-0.4-0.3-0.6-0.8-0.7c-0.2-1-1-1.2-1.8-1.3c-0.5-0.1-0.9,0-0.7,0.8c0.9,0.1,1.8,0.3,2.7,0.4
		C625.3,26,625.5,26.2,625.7,26.4z M647.8,252.7c-0.4-0.1-0.8-0.2-0.4-0.1C647,252.5,647.4,252.5,647.8,252.7
		c0.2,0.2,0.4,0.6,0.6,0.7c0.7,0.4,1.5,0.6,2.2,0.9c0.8,0.4,1-0.1,1.1-0.8C650.6,252.4,649.1,252.6,647.8,252.7z M542.7,62
		c0.1-0.3,0.1-0.7-0.4-0.4C542.4,61.7,542.6,61.8,542.7,62c0.8,0.8,1.5,1.7,2.4,2.5c2.6,2.4,4.1,5.4,4.9,8.8c1,4.6,0.8,9.1,0.3,13.7
		c-0.2,2-0.7,3.9-1.8,5.4c0.1,1.8,0.2,3.3,0.3,4.8c0,0.1,0.3,0.2,0.7,0.5c3.9-10.2,4.4-20.6,3.4-31.5c-3.4-0.7-6.2-2.8-9.2-4.3
		C543.4,61.9,543,62,542.7,62z M362,86.7c3.6,0.8,7,2.1,10.4,3.5c1.5,0.6,3,1.3,4.6,1.9c0.5,0.2,1.1,0.2,1.7,0.3
		c0.6-2.4,0.2-4.4-0.5-6.5c-1.2-3.5-2.5-6.9-4.6-10c-1.9-3-3.8-6-5.9-8.8c-2.7-3.9-6-7.2-9.7-10.2c-3.9-0.2-7.6,0.3-11.4,0.8
		c-5.9,0.8-11.6,2-17.2,4.1c-5.8,2.2-10.8,5.3-14.7,10.1c-2.9,3.5-5.5,7.1-8.3,10.6c-1.5,1.9-2.5,4-3.1,6.3c-1,3.4-1.6,6.9-1.5,10.5
		c0,0.4-0.2,0.9,0.4,1.2c2.8-2.9,4.3-4.1,8.4-6.2c2.7-1.4,5.5-2.7,8.4-3.9c6-2.5,12.3-4.2,18.8-4.8c7.4-0.7,14.9-0.9,22.1,1.7
		C360.8,87.6,361.5,87.3,362,86.7L362,86.7z M341,255.5c1.7-2.6,3.3-4.9,4.9-7.2c0.3-0.4,0.6-0.9,0.6-1.2c-0.1-1.4,0.7-2.2,1.6-3
		c5.9-5.9,12.2-11.2,19.2-15.7c7.2-4.6,14.8-8.3,22.2-12.4c6.5-3.6,13.5-6.3,20.5-8.7c4.1-1.4,8.1-3.2,12.1-4.9
		c0.8-0.4,1.7-0.7,2-1.9c0.1-0.3,0.6-0.6,1-0.7c1.5-0.7,3.1-1.2,4.5-2c2.3-1.3,4.4-2.7,6.7-4c0.7-0.4,1.5-1.1,2.2-1.1
		c1.8,0.1,3.1-1,4.5-1.8c2-1.1,3.8-2.3,5.8-3.3c3.9-1.9,6.6-5,8.3-8.8c0.6-1.4,1-2.9,1.5-4.3c0.7-1.9,1.2-3.8,2.2-5.5
		c2-3.3,2.9-7,2-10.9c-0.7-3-1.5-5.9-3.1-8.6c-2.3-4.1-5-8-8.1-11.6c-1.1-1.4-2.4-2.6-3.8-3.6c-8.6-5.9-17.1-11.8-26.1-17
		c-18.2-10.7-37.3-19.4-56.8-27.1c-3-1.2-6.1-2-9.3-2.2c-9.2-0.6-18.4-0.3-27.4,2.5c-6.1,1.9-11.9,4.4-17.7,7.2
		c-3.1,1.5-5.4,3.7-7.5,6.4c-1,1.3-1.3,2.7-1.1,4.3c0.6,3.2,1.1,6.5,1.8,9.7c0.3,1.5,0.9,2.9,1.6,4.3c3.9,7.4,9.3,13.4,16.4,17.7
		c10.2,6.3,20.5,12.1,31.9,16.1c3.8,1.4,7.7,2.2,11.7,2.6c5.9,0.5,11.8,0.8,17.7,1.2c0.5,0,0.9-0.1,1.4-0.1
		c3.4-0.2,6.8-0.4,10.3-0.5c4.8-0.2,9.4,0.9,13.6,3.3c1.9,1.1,3.8,2.4,5.6,3.7c0.3,0.2,0.9,0.4,0.4,1.1c-0.8-0.3-1.5-0.6-2.3-0.9
		c-1.8-0.7-3.5-1.5-5.3-2.1c-1-0.3-2.1-0.5-3.1-0.5c-6.7,0.3-13.1,1.7-19,4.9c-4.2,2.3-7.8,5.4-11.4,8.4c-0.4,0.3-0.6,0.7-0.9,1.1
		c-0.9,1.1-1.7,2.2-2.7,3.3c-1.6,1.9-3.4,3.6-4.9,5.6c-4.6,5.9-9.1,11.8-13.6,17.7c-1.8,2.4-3.5,4.7-5.2,7.1
		c-0.5,0.7-0.9,1.4-1.1,2.2c-0.3,1.3-1,2.4-1.8,3.4c-1.7,2.1-3.4,4.3-5.3,6.2c-5.5,5.4-11.1,10.6-16.7,15.9
		c-1.3,1.2-2.6,2.4-3.8,3.7c-0.6,0.6-1.1,1.3-1.7,1.8c-0.7,0.6-1.5,1-2.4,1.5c0.1,1.8,0.3,3.6,0.3,5.4c0,1.6,0.8,2.6,2.3,3.2
		c2.2,0.9,4.6,1.1,6.9,1.5c1.7,0.2,3.5,0.5,5.2,0.9c0.9,0.2,1.8,0.3,2.8,0.1c2.7-0.7,5.5-1.3,8.5-2c0.1,0,0.6,0.2,1,0.3
		C340.4,255.6,340.7,255.5,341,255.5z M302.3,118.6c-12.7,5-24.8,10.3-36.5,16.4c-7.3,3.8-14.8,7.4-22.5,10.4
		c-3.8,1.5-7.6,3.3-11.3,5.1c-3.7,1.8-7.3,3.8-11,5.8c-2.2,1.2-4.3,2.5-7,2c-0.2,0-0.5,0-0.7,0.1c-4.3,1-8.6,1.2-13,1.3
		c-2.2,0-4.5,0.2-6.7,0.3c-1.4,0.1-2.8,0.5-4.2,0.5c-7.7-0.1-15.3,0.7-22.9,2.1c-7.6,1.4-14.9,3.6-21.8,7.2c-1,0.5-2,1.2-2.8,2
		c-1.7,1.7-3.6,3-5.8,4c-8.2,3.9-16.4,7.8-24.7,11.6c-4.3,2-8.8,3.5-13,5.5c-3.3,1.6-6.7,2.2-10.3,2.2c-2.1,0-4.3,0-6.4,0.1
		c-0.7,0-1.3,0.3-2.1,0.5c0,3.7-0.2,7.2-2.5,10.1c0.8,1.6,2,2.6,3.5,3.1c2.6,0.8,4.9,2.3,7.1,3.9c1.8,1.3,3.9,2.4,6.2,2.3
		c2.4-0.1,4.7-0.4,7-0.6c0.9-0.1,1.9-0.5,2.8-0.4c1.3,0.2,2.3-0.3,3.4-0.8c3.2-1.5,6.4-2.9,9.7-4.3c5.7-2.4,11.5-4.1,17.7-4.6
		c4.7-0.4,9.4-0.9,14-1.8c7-1.3,13.9-2.8,20.8-4.2c6.2-1.3,12.5-2.7,18.7-3.9c1.2-0.2,1.8-1,2.5-1.7c2.2,0,4.3,0,6.4,0
		c2.1,0,4.3,0,6.4-0.2c2.2-0.2,4.5-0.4,6.7-0.7c2.1-0.3,4.2-0.7,6.3-1.2c1.9-0.4,3.9-0.6,5.9-1.5c-2.9-1-6.1-1-7.9-4.1
		c1.7-0.3,3,0.4,4.3,0.7c2.9,0.7,5.7,1.4,8.7,0.7c0.1,0,0.3,0.3,0.5,0.4c0,1.4-1.5,1-2.1,1.9c9.4,1.3,18.7,1.1,28-0.2
		c4.3-0.6,8.7-1.2,13-1.7c11.5-1.4,22.9-3,34.3-4.9c15.5-2.7,30.1-7.9,43.9-15.5c3.4-1.9,7-3.5,9.9-6.1c0.5-0.4,0.9-0.9,1.5-1.7
		c-2.3-0.9-4.2-1.7-6.2-2.4c-10.6-3.6-20.4-8.7-29.8-14.7c-6.9-4.5-12.1-10.4-15.7-17.9C304,122,303.2,120.5,302.3,118.6z
		 M451.6,134.2c0.1-0.4,0.3-0.6,0.2-0.8c-1.5-8.1-3.1-16.2-4.6-24.4c-0.9-4.9-1.7-9.8-2.2-14.7c-0.6-5.9-0.9-11.8-0.6-17.7
		c0.2-4,0.2-8,0.3-12c0-0.4-0.1-0.9-0.2-1.5c-1.6,1-3,1.9-4.4,2.7c-5.4,3.2-11.2,4.9-17.5,4.8c-3-0.1-5.9,0.1-8.9,0
		c-3.5-0.2-7.1-0.4-10.6-0.9c-3.5-0.6-7-1.3-10-3.4c-0.6-0.4-1.3-0.5-2-0.8c-7.1-3-14.4-5.1-21.7-7.5c-1.7-0.5-3.5-0.7-5.2-1
		c-0.5-0.1-1.2-0.3-1.5,0.5c0.2,0.3,0.4,0.6,0.6,0.8c5.1,4.4,8.7,9.9,11.3,16.1c1.3,3.1,2.6,6.1,3.8,9.1c1,2.4,1.4,5,1.4,7.6
		c0,0.8,0,1.6,0.1,2.4c1.5,0.6,2.7,1.2,4.1,1.7c11.2,4.1,22,9.3,32.4,15c12,6.5,23.3,13.9,33.5,23.1
		C450.6,133.5,451.1,133.8,451.6,134.2z M491.4,106.5c-3.3-1.5-4.7-3.9-6-6.5c-0.9-1.8-1.8-3.6-2.8-5.3c-2-3.6-3.3-7.3-3.6-11.4
		c-0.4-5.4-0.3-10.9,0.7-16.2c1.4-7.5,5.6-13.2,11.6-17.6c1.2-0.9,2.6-1.5,4.2-2.3c-2.3-0.3-4.3-0.5-6.3,0c-4.7,1.2-9.4,2-13.9,3.9
		c-1.3,0.5-2.7,1-4,1.4c-7.3,2.7-14.6,5.4-21.9,8.1c-0.7,0.3-1.4,0.7-2.2,1.1c0,1.1,0,2,0,2.9c0,5.9,0.1,11.8-0.6,17.7
		c-0.2,1.5,0,3.1,0.2,4.6c1.1,7.2,2.3,14.4,3.5,21.7c0.8,4.9,1.6,9.8,1.5,14.8c0,2.2,0.3,4.2,1,6.3c0.9,2.8,2.4,5.3,3.6,8
		c2.6-0.3,5.1-0.5,7.3-0.7c1.3,1.1,2.4,2,3.7,3.1c0.6-1.1,1.1-1.9,1.5-2.9c1.7-4.3,4.2-8.2,7-11.8c2.3-3,4.8-5.8,7.2-8.7
		C485.8,113.3,488.4,110.2,491.4,106.5z M104.9,216.7c-2.6,0.3-4.9,0.5-7.2,1c-2.8,0.7-5.1-0.2-7.4-1.6c-0.7-0.4-1.4-0.8-2.1-1.3
		c-0.9-0.6-1.8-1.1-2.8-1.4c-3.7-1.1-6.9-3-9.1-6.3c-0.3-0.4-0.6-0.7-0.8-1c-0.4-3.4,0.5-6.5,0.9-9.6c0.2-1.6,0.9-2.8,2.2-3.8
		c-1.8-1.1-3.5-1.1-5.4-0.3c-2.7,1.1-5,2.5-7.2,4.4c-0.6,0.5-1.3,1.2-2,1.4c-2.1,0.7-4,2-5.9,3.1c-1.9,1.2-4,2-6.2,2.6
		c-1.1,0.3-2.2,0.7-3.3,1c-0.2,4-0.2,7.9,0.4,11.8c0.3,2.3,1,4.3,2.2,6.3c1.8,3,3.9,5.6,6.5,7.9c1.2,1.1,2.8,2,3.6,3.3
		c1.1,2,2.9,3.1,4.6,4.2c2.1,1.4,3.9,3,5.3,5.1c1.9,2.9,2.7,6,1.6,9.4c-0.2,0.7-0.4,1.4-0.3,2.1c0.5,2.3,1.5,4.5,3.3,6.1
		c1.6,1.4,3.3,2.6,5.1,3.8c2,1.4,4.2,2.2,6.5,2.6c3.1,0.5,6.3,1,9.5,0.8c4.3-0.3,8.7-0.6,13.2-0.9c0.4-0.9,0.6-1.8,1-2.6
		c1.1-2.2,0.5-4.1-0.6-6c-0.7-1.2-1.7-1.9-2.8-2.6c-2.9-2.1-5.8-4.1-7.4-7.2c-1.5-0.3-2.9-0.6-4.3-0.9c-0.6-0.1-1.1-0.4-1.1-1.1
		c0.6-1,2.5-0.7,2.7-2.4c-1-0.1-1.8,0-2.6-0.3c-0.8-0.2-1.5-0.7-2.1-1.2c-0.6-0.4-0.5-1.4,0-1.9c0.8-0.8,1.7-1.2,2.8-1.2
		c1.4-0.1,2.8,0,4.3-0.6c0.1-0.7,0.2-1.3,0.3-2.1c-2-0.2-3.7-0.4-5.4-0.6c-1.7-0.2-3.5-0.5-4.8-2.3c1-0.5,1.7-1,2.6-1.3
		c0.9-0.3,1.8-0.5,2.8-0.6c1-0.2,2.1-0.1,3.2-0.3c0.8-0.1,1.7,0.4,2.4-0.6c-4-0.2-8.1-0.1-11.5-3.3c0.6-0.5,1-1,1.5-1.1
		c1.3-0.3,2.6-0.4,3.8-0.5c2.2-0.1,4.5,0,6.7-0.1c0.6,0,1.2-0.3,0.8-1.3c-1.3,0-2.7-0.1-4.1-0.1c-3.4,0-6.5-1-9.4-2.6
		c-0.3-0.2-0.6-0.6-0.9-1c1.4-1,2.7-0.7,3.9-0.3c4.3,1.4,8.6,0.7,13,0.8c0.6-1.1,1.2-2.1,1.8-3.2C106,217.9,105.4,217.3,104.9,216.7
		z M462.5,149.8c1.2-3,3.5-5.1,4.1-8c-1.1-0.7-2.2-1.4-3.3-2c-0.5-0.3-1.1-0.5-1.6-0.5c-1.7,0-3.5-0.2-5.2,0.3c0,0.3-0.1,0.6,0,0.8
		C458.3,143.3,460.3,146.4,462.5,149.8z M625.4,29c-2.4-1.9-2.4-1.9-4-2.2C622.3,29.1,622.3,29.1,625.4,29z M630.4,111
		c0.2-0.6,0.3-1,0.5-1.3c0.2-0.6,0.3-1.1-0.3-1.4c-0.6-0.2-1.1-0.2-1.4,0.6c0.2,0.2,0.5,0.3,0.7,0.6
		C630,109.9,630.1,110.4,630.4,111z M618.4,26.1c0.1,0.2,0.1,0.4,0.3,0.5c0.1,0.1,0.3-0.1,0.5-0.1c-0.1-0.2-0.1-0.5-0.2-0.5
		C618.8,25.9,618.6,26.1,618.4,26.1z M641.6,251.6c-0.1-0.1-0.1-0.2-0.2-0.2c-0.1,0-0.2,0-0.3,0c0.1,0.1,0.1,0.2,0.2,0.3
		C641.4,251.8,641.6,251.7,641.6,251.6z"/>
	<path d="M731.4,461.8c-2-0.4-3.3-1.6-4.4-3.2c-2-2.8-3.5-5.9-4.2-9.3c-0.2-1-0.4-2.1-0.8-3.1c-1.4-4.3-1.6-8.6-0.8-13
		c0-0.3-0.2-0.6-0.3-1.1c-0.3,0.4-0.6,0.7-0.7,1c-0.9,4.9-1.4,9.8-1.4,14.8c0,1.2,0.3,2.3,0.5,3.5c0.1,0.7,0.1,1.4-0.9,1.8
		c-1.3-1.1-2.1-2.5-2.5-4.1c-0.6-2.3-1.1-4.6-1.5-6.9c-0.3-1.4-0.4-2.8-0.5-4.2c-0.1-1.4-0.2-2.8-0.3-4.3c-1.7-0.3-2.9,0.3-4,1.2
		c-2.3,2-4.7,3.9-6.5,6.5c-1.2,1.7-2.7,3.2-4.2,4.8c-0.9,1-2.2,1.1-3.1,0.2c-1-1-1.9-2.1-2.7-3.2c-0.9-1.2-1.8-1.5-3-0.7
		c-1.1,0.6-2.1,1.5-3.2,2.2c0.8,3.5,1.7,6.9,2.2,10.4c0.5,3.6,2,6.6,4.1,9.6c3.8,5.3,7.8,10.4,11.9,15.4c2.5,3,5.2,5.8,7.8,8.7
		c2.4,2.6,4.8,5.2,6.5,8.3c0.7,1.2,1.7,1.9,2.9,2.5c4.4,2.2,8.8,4.5,12.9,7.3c1.4,1,2.7,1.8,3.4,3.5c0.2,0.6,0.9,1.1,1.4,1.6
		c3.6,4.2,6.9,8.7,9.9,13.4c4.6,7.1,9.8,13.6,15.8,19.5c1.2,1.2,2.3,2.3,3.6,3.4c1.4,1.2,2.2,2.5,1.6,4.4c4.4,3.9,8.5,8,13.5,10.9
		c5.1,3,10.4,5.5,16.4,6.2c2.3,0.2,4.6,1,6.9,1.4c1.4,0.3,2.8,0.4,4.2,0.5c2.1,0,4.2,0.2,6.3,0.8c4.8,1.5,9.7,2,14.6,2.8
		c2.9,0.5,5.9,0.6,8.8,0.9c0.5,0,0.9,0.1,1.4,0.1c2.7,0.4,3.2,0.9,4.1,3.8c0.6,0.2,1.4,0.5,2.2,0.6c1.3,0.2,2.1,1.6,2,2.6
		c-0.1,1.2-1.2,2.4-2.6,2.4c-1.1,0-2.1,0-3.2,0c-2.4,0-4.7,0.1-7.2,0.2c0.4,0.7,0.6,1.2,0.9,1.8c-0.4,0.7-0.7,1.4-1.2,2
		c-0.7,0.8-1.7,1.3-2.9,1c-6.5-1.7-13.3-1.9-19.9-3.1c-3.6-0.7-7.3-0.8-10.9-1.2c-1.3-0.1-2.5,0.2-3.8,0.5
		c-5.1,1.3-10.2,1.5-15.3-0.3c-1.5-0.5-2.8-1.3-3.7-2.6c-2.1-3.3-5.2-5.4-8.5-7.3c-0.5-0.3-1.1-0.5-1.5-0.9c-2-2.1-4.7-3.1-7.1-4.5
		c-2.9-1.8-5.9-3.5-8.7-5.4c-6.7-4.4-13.4-8.8-20.2-13.2c-0.8-0.6-1.8-0.9-2.1-2.1c-0.1-0.6-0.9-1-1.5-1.4
		c-6.5-4.8-12.9-9.5-19.4-14.3c-0.9-0.6-1.7-1.3-2.6-1.8c-6.3-4-10.5-9.8-13.7-16.3c-0.7-1.3-1.5-2.3-2.6-3.2
		c-4.4-3.4-8.7-6.9-13-10.4c-2.3-1.9-4.4-3.9-6.6-5.9c-0.7-0.6-1.2-1.4-1.8-2.2c-4.4-6.3-8.9-12.5-13.2-18.9
		c-4-6-7.8-12.1-11.5-18.3c-1.1-1.8-2.5-3.1-4.1-4.5c-2.9,0.3-5.7,1.3-8.5,2.2c-1.3,0.4-2.6,1-4,1.5c-2.6,1-4.8,2.3-6.7,4.5
		c-3.2,3.6-7.1,6.2-11.6,7.9c-1.8,0.7-3.5,1.4-5.5,0.6c-0.4-0.2-0.9-0.1-1.4,0c-3.1,0.7-6.3,1-9.5,0.9c-0.2,0-0.4,0.1-0.7,0.2
		c-0.1,0.2-0.4,0.4-0.4,0.6c0.3,4.3-0.4,8.5-1,12.7c-0.5,3.5-1.2,7-1.7,10.5c-0.2,1.6-0.4,3.3-0.4,4.9c0.1,5.7,0.1,11.3,0.4,17
		c0.1,1.7,0.5,3.5,1,5.2c0.6,2,1.4,4,2.1,6c0.5,1.5,0.9,3.1,1.4,5c0.4,0,1,0.2,1.7,0.2c1.5-0.1,3.1-0.1,4.6-0.5
		c3.7-0.9,7.5-0.9,11.3-0.9c2.1-0.1,4,0.4,5.4,2.1c1.3,1.5,3,2.2,5,2.4c2.7,0.2,5.4,0.5,8.1,0.8c2,0.3,3.9,0.7,5.9,1.2
		c3.4,0.8,6.9,1.8,10.4,1.7c2.1-0.1,4,0.4,5.3,2.2c0.2,0.3,0.3,0.6,0.5,1.1c-0.7,2.3-2.8,3.1-4.8,3.5c-1.8,0.4-3.8,0.5-5.6,0.4
		c-2.7-0.1-5.4-0.4-8.1-0.6c-0.9-0.1-2-0.3-2.8,0c-3.9,1.3-7.7,0.9-11.6-0.2c-0.5,0.4-1,0.7-1.4,1c-0.9,0.7-1.9,0.9-3,0.7
		c-0.9-0.2-1.9-0.1-2.8-0.5c-3.1-1.2-6.3-0.6-9.5-0.7c-0.7,0-1.3,0.3-2,0.5c-0.2,0.1-0.4,0.3-0.6,0.3c-4.5,0.9-9,1.5-13.5-0.3
		c-0.8-0.3-1.5-0.6-2.4-1c-1.4-2-2.6-4.3-4.6-6.1c-0.6-0.5-0.9-1.4-1.3-2.1c-2.6-5.2-5.2-10.4-7.7-15.6c-1.1-2.3-1.9-4.8-2-7.5
		c0-1.4-0.4-2.8-0.8-4.1c-2.2-7.5-4.2-15-5.6-22.7c-0.7-3.7-1.2-7.5-1.1-11.3c0-2.5,0-5,0-7.4c-0.1-4.4,0.4-8.7,1.3-13
		c0.1-0.7,0.1-1.4,0.1-2.2c-1.7-0.4-3.3-0.8-4.9-1.2c-0.1,0-0.2-0.1-0.2-0.1c0.1,0,0.2,0,0.3,0c-0.4,0.9,0.1,1.6,0.3,2.4
		c0.8,3.3,0.9,6.6-0.3,9.8c-0.8,2.1-2,4-3.8,5.4c-1.7,1.4-3.3,2.9-4.2,5.1c-0.3,0.6-0.8,1.1-1.4,1.6c-4.6,4.1-9.8,7-16,7.6
		c-1.4,0.1-2.5,0.7-3.6,1.3c-3.5,1.8-6.9,3.6-10.4,5.4c-5.2,2.6-10.7,4.2-16.5,5c-3.3,0.5-6.6,1.7-9.8,2.8c-3.3,1.2-6.6,2.7-9.8,4
		c-0.3,0.1-0.7,0.3-1,0.5c-3.5,2.2-7,4.4-10.4,6.6c-0.1,0.9,0.6,0.9,1.1,1.3c1.4,1.1,1.7,2.1,1.3,3.7c-0.1,0.4-0.4,0.9-0.6,1.3
		c-0.7,1.3-0.8,2.7-0.6,4.1c0.2,1.3,0,2.5-0.4,3.8c-0.7,2.7-0.1,5.4,1.5,7.7c1.4,2,2.7,4.1,3.2,6.5c2.1,1.5,4.1,3,6.1,4.5
		c1.3,1,2.6,1.5,4.3,1.4c1.5-0.1,3.1-0.1,4.1,1c0.6,2.2,1.2,4.2,1.8,6.3c0.2,0.9,0.4,1.8,0.5,2.8c0.1,1,0,2-0.8,2.6
		c-0.9,0.7-1.1,1.7-1.2,2.5c-1.2,1-2.4,1-3.6,1c-1.8,0-3.5,0-5.3,0c-2.4,0-4.7,0.1-7,0.6c-2.8,0.6-5.6,0.3-8.5-0.1
		c-1.2-0.2-2.3-0.5-3.5-0.5c-3.5-0.1-6.7-1.2-9.6-3.2c-1.9-1.3-3.7-2.9-5.6-4.3c-0.4-0.3-0.7-0.6-1-1c-2.1-3-4.3-5.9-6.3-8.9
		c-0.7-1-1.5-1.8-2.6-2.2c-4.2-1.7-8-4.1-11.7-6.6c-3.8-2.6-7.2-5.7-9.4-9.9c-1.2-2.4-2.9-4.6-3.9-7.1c-1-2.6-1.4-5.2-0.8-8
		c0.1-0.4,0.5-0.7,0.8-1l-0.1-0.1c0.2,0.8,0.6,1.6,0.6,2.4c0.2,3.9,1.7,7.3,3.6,10.6c1.5,2.4,2.9,4.9,4.5,7.2
		c0.5,0.8,1.3,1.4,2.1,1.9c2.3,1.4,4.6,2.9,7,4.1c3.3,1.6,6.6,3.1,9.6,4.4c1.4,1.9,2.5,3.6,3.8,5.1c2.7,3,5.3,6,7.3,9.6
		c0.4,0.7,1,1.3,1.7,1.7c1.4,0.8,2.9,1.6,4.5,2c4.9,1.3,9.9,2.2,15,2c0.5,0,1,0,1.4-0.1c3.9-1.2,7.9-1,12-1c1.3,0,2.6-0.1,3.7-0.1
		c1.3-2.8,1.2-4.9-0.2-10.7c-0.6-0.2-1.4-0.6-2.1-0.6c-2.2,0-4.2-0.8-6-1.9c-2.1-1.4-4-2.9-6-4.4c-0.7-0.6-1.2-1.5-1.6-2.3
		c-0.7-1.1-1.3-2.2-2-3.6c-0.9,0.6-1.7,1.1-2.5,1.5c-1.6,0.8-3.1,1.7-5,1.5c-0.8-0.1-1.4-0.4-1.6-1.2c-0.2-0.7,0-1.5,0.6-1.9
		c0.7-0.5,1.4-0.9,2.2-1.2c1.3-0.5,2.7-0.8,4-1.2c0.5-0.9-0.3-1.3-0.6-1.9c-0.2,0-0.5-0.1-0.6,0c-1.2,0.4-2.4,1-3.7,1.3
		c-1,0.2-2.1,0-3.1-0.2c-1.1-0.2-1.9-1-2-2.2c-0.1-0.9,0.7-1.9,1.9-2.3c0.8-0.3,1.6-0.4,2.4-0.5c1.2-0.1,2.4-0.1,3.5-0.1
		c0.4,0,0.8,0.1,1-0.1c0.2-0.1,0.4-0.5,0.5-0.8c0-0.1-0.2-0.5-0.4-0.5c-0.6-0.1-1.2-0.1-1.7-0.1c-1.2,0.1-2.3,0.2-3.5,0.4
		c-1.1,0.2-2.1-0.1-3-0.7c-1-0.7-1-2,0-2.7c0.4-0.3,0.8-0.5,1.2-0.6c1.5-0.3,3-0.6,4.5-0.8c1.3-0.2,2.6-0.2,3.9-0.3
		c0.6-2,2.1-3.7,0.5-6c-0.6-0.1-1.4-0.2-2.2-0.3c-3.9-0.4-7.7-0.8-11.6-1.3c-2.1-0.3-3.9-1.6-5.5-3c-1.4-1.2-2.8-2.5-4.2-3.8
		c-0.4-0.4-0.7-1-0.8-1.5c-0.9-3.8-2.2-7.5-3.6-11.1c-0.1-0.2,0.1-0.4,0.2-0.6c0.9-0.8,1.4,0.5,2.9,0.4c1.5-0.5,3.8-1.3,6-1.9
		c1.6-0.4,3.2-0.7,4.8-1c0.9-0.2,1.8-0.4,2.7-0.8c5.3-2.1,10-5.2,14.5-8.7c0.6-0.4,1-1,1.5-1.5c4.9-5.6,10.1-11,15.6-16
		c0.1-0.1,0.1-0.2,0.1-0.6c-0.4-0.1-0.8-0.2-1.2-0.2c-8.7,0.4-16.8-1.9-24.9-4.5c-3.9-1.3-3-1.7-6.8,0.8
		c-5.7,3.9-11.5,7.4-17.9,10.1c-1,0.4-1.9,1-2.8,1.5c-3.4,1.9-6.7,3.9-10.1,5.8c-1.6,0.9-3.3,1.8-5.1,2.5c-4.8,2-9.7,3.8-14.5,5.8
		c-7.7,3.1-15.7,5-23.9,6.5c-11.6,2.1-23.3,3.5-35.1,4.7c-6.3,0.6-12.7,0.7-19.1,0.9c-0.7,0-1.4-0.1-2.1,0c-5.8,0.6-11.5,0.5-17.3,0
		c-1.1-0.1-2.4,0.2-3.5,0.4c-6.3,1.6-12.7,2.8-19.1,3.4c-2.2,0.2-4.5,0.2-6.7,0.3c-1.5,0-3,0.3-4.5,0.7c-7.1,1.9-14.1,3.8-21.3,5.5
		c-6.1,1.5-12.2,2.7-18.3,4.1c-5.9,1.3-11.9,2.1-17.9,2c-1.9,0-3.8,0.3-5.6,0.9c-4.7,1.6-9.4,3.1-14.1,4.7c-0.8,0.3-1.6,0.5-2.3,0.9
		c-1.3,0.7-2.5,1.4-3.8,2.2c-0.1,0.6-0.2,1.2-0.2,1.7c0.1,1.5-0.4,2.8-1.1,4c-0.5,0.8-0.9,1.6-1.4,2.5c-0.4,0.7-0.9,1.5-0.9,2.3
		c-0.1,2.1-1.1,4.1-1.4,6.1c-0.3,2-0.7,3.9-1.2,5.9c-0.2,0.7-0.2,1.4-0.3,2.1c-0.2,2.5-0.5,4.9-0.7,7.6c0,0,0.1,0.4,0.4,0.6
		c2.5,1.9,4.9,4.1,7.8,5.4c1.1,0.5,2.1,1.1,2.3,2.4c0.1,0.5,0.7,0.9,1,1.4c0.7,1.2,1.3,2.5,1.9,3.8c0.1,0.3,0.2,0.7,0.2,1
		c0,3.1-3.5,7.1-6.6,7.4c-3.3,0.4-6.5,1.2-9.9,0.8c-0.3,0-0.7-0.1-1.1,0c-3.6,1.3-7-0.2-10.4-1c-3.5-0.8-6.8-2.1-9.5-4.5
		c-0.4-0.4-0.9-0.8-1.4-1c-2.2-0.8-3.3-2.6-4.3-4.5c-1.5-3.1-2.5-6.4-2.1-9.9c0.1-1.2-0.1-2.4-0.8-3.4c-0.8-1.3-1.6-2.7-2.7-3.7
		c-2.4-2.4-4.8-4.8-7.8-6.6c-1.4-0.8-2.5-2.2-3.5-3.5c-3.6-4.7-6.4-9.9-8.5-15.5c-1.4-3.6-1.4-7.4-0.9-11.2c0.2-1.9,1.2-3,2.9-3.7
		c1-0.4,2-0.6,3-1c1.4-0.5,3-0.9,4.3-1.7c3.4-2.1,7.3-3.4,10.3-6.1c1.8-1.7,4-2.4,6.3-3.1c3.3-1.1,6.2,0,8.2,2.9
		c5.1,0.6,10.1,0.2,15-1.5c2.6-0.9,5.1-1.7,7.6-2.9c6.8-3,13.5-6.4,20.3-9.3c5.3-2.3,10.4-5.1,15.1-8.5c7.6-5.5,16.4-8.4,25.5-10.1
		c5.2-1,10.5-1.4,15.8-2c0.1,0,0.2,0,0.4,0c6.6,0.4,13.2-0.9,19.8-1.3c2.2-0.2,4.5-0.1,6.7,0c3.1,0.1,6.1-0.3,8.9-1.9
		c0.5-0.3,1-0.7,1.6-0.8c2.8-0.4,4.9-2.2,7.2-3.7c4.3-2.9,8.9-5.3,13.7-7.3c12.3-5.2,24.4-10.8,36.5-16.4c5.1-2.4,10.5-4.3,15.7-6.5
		c1.6-0.7,3.2-1.5,4.8-2.3c1.7-0.8,3.4-1.7,5.1-2.5c5.1-2.3,10.1-4.5,15.2-6.8c1.3-0.6,2.6-1.2,3.9-1.6c1.3-0.4,2.7-0.6,4.1-0.9
		c0.8-1.3,0.8-2.9,0.8-4.4c0.1-6.7,0.9-13.2,3.1-19.5c0.7-2.1,1.5-4.2,2.9-6c0.7-0.9,1.1-2.1,1.6-3.1c0.7-1.4,1.1-2.8,2.8-3.3
		c0.5-0.2,0.8-0.8,1.2-1.3c4.5-5.6,10.3-9.3,16.9-12c4.5-1.8,9.2-3.1,13.9-4c0.7-0.1,1.4-0.2,2.1-0.2c8.5-0.3,17,0.1,25.3,2.2
		c2.9,0.7,5.6,1.7,8.2,3.1c1,0.6,2.1,1.1,3.2,1.5c5.9,2,11.8,4,18.1,4.8c4.3,0.5,8.5,0.3,12.7,0.2c3.2-0.1,6.4-0.4,9.5-0.4
		c3.3-0.1,6.6,0,9.9,0.1c3.4,0.1,6.8-0.1,10.2-0.9c4.1-1,8.3-1.7,12.4-2.9c2.9-0.8,5.8-2,8.6-3.3c7.6-3.7,15.7-5.8,24-7.1
		c1-0.1,1.8-0.2,2.5,0.8c0.3,0.4,1.1,0.4,1.6,0.4c2.5,0.2,4.9,0.8,7.2,1.6c1.1,0.4,2.3,0.6,3.4,0.7c1.4,0.1,2.8,0,4.3,0.1
		c1.1,0.1,2.3,0,3.1,0.5c2,1.3,4.2,1.4,6.3,2.1c3.2,1.1,5.9,2.9,8.4,5.1c2.2,2,3.9,4.3,5.7,6.7c1.4,1.9,3,3.6,4.5,5.4
		c1,1.1,2,2.2,2.7,3.6c0.9,1.8,3,2.5,5,3c1,0.2,2.1,0.2,3.1,0.5c1.8,0.5,3-0.3,4.1-1.5c0.9-1.1,1.7-2.3,2.5-3.4
		c0.2-0.9-0.5-1.7,0.2-2.7c1.7-2.5,3.2-5.2,4.8-7.8c0.9-1.4,1.8-2.8,2.8-4.1c2.1-2.8,4.7-5,7.9-6.4c3.9-1.7,7.7-3.6,11.8-4.7
		c1-0.3,2-0.7,3.1-1.1c-1.9-5.7,0.2-10.2,3.6-14.4c0.9-1.1,2-2,2.9-3.1c0.4-0.4,1-0.9,1-1.4c0.1-1.8,1.3-2.3,2.6-3
		c3.9-2,7.8-1.7,11.4,0.7c1.5,1,2.8,2.2,4,3.5c3.4,4,6.2,8.3,8.1,13.3c1.1,2.8,1.8,5.6,1.8,8.6c0,0.5-0.1,0.9-0.2,2.2
		c-0.4-1.2-0.6-1.7-0.6-2.1c-0.2-2.6-1-5.1-2.4-7.4c-2.4-3.9-4.9-7.8-7.5-11.6c-0.9-1.3-2.2-2.5-3.4-3.6c-0.9-0.8-1.9-1.4-3-1.9
		c-3.3-1.4-5.8-0.9-8.4,1.7c-1.8,1.9-3.6,3.7-5.3,5.7c-1.8,2.1-3,4.5-3.7,7.2c-0.4,2-0.4,2.7,0.4,4.8c1.6,0.3,3.2-1.1,4.8-0.1
		c0.2,1,0.4,2,0,3.1c-1.8,4.3-2.6,8.8-3.4,13.4c-0.3,1.7-0.7,3.4-1.2,5.1c-0.8-4.3,0.7-8.5,1.2-13.2c-1.6,1.6-2,3.2-2.5,4.7
		c-0.6,1.5-0.9,3.2-1.4,4.7c-0.5,1.5-0.3,3.2-1.1,5.2c-0.9-3.2-0.9-4.4-0.4-9.1c-1.9,1.8-2.3,2.8-4.9,11.9c-0.2-0.4-0.5-0.6-0.5-0.8
		c0.5-2.7,0.9-5.4,1.6-8c1.4-5.2,4.1-9.5,8.8-12.3c0.8-0.5,1.6-1,2.3-1.6c0.4-0.3,0.9-0.8,0.5-1.7c-1.4,0-2.6,0.5-4,0.9
		c-1.4,0.4-2.6,0.8-3.7,1.9c-0.8,0.9-2.2,1.3-3.4,1.8c-7.7,3.5-14.6,8.1-20.2,14.9c-0.1,2.9-0.7,5.9-2.4,8.5
		c-1.8,2.7-4.3,4.7-7.3,6.3c-6.8-0.8-11.4-5.1-15.3-10.3c-2.6-0.2-5.1-0.3-7.6-0.4c-0.2,0-0.4,0.2-0.8,0.4c0.1,0.4,0.1,0.9,0.3,1.2
		c1.1,1.4,2.4,2.5,4.2,3.1c1.8,0.6,3.4,1.6,5,2.5c4.1,2.4,7.7,5.4,11.3,8.6c1.2,1,1.9,2.3,2.6,3.7c2.1,4.8,3.7,9.7,5.1,14.7
		c0.1,0.3,0.4,0.6,0.5,0.8c0.8-0.1,0.6-0.7,0.6-1c0-1.9,0.5-3.8,1.3-5.5c1.7-3.7,4.4-6.1,8.4-6.9c0.1,0,0.2,0.1,0.4,0.2
		c-0.2,0.3-0.3,0.6-0.5,0.7c-5.4,2.6-7.8,7-8,12.8c0,1.2,0.2,2.1,1.2,2.8c0.7,0.6,1.4,1.2,2.1,1.9c4.7,4.2,8.8,8.9,11.7,14.6
		c0.4,0.7,0.8,1.6,1.4,2c1.9,1.1,2.7,2.9,3.7,4.6c0.4,0.7,0.9,1.3,1.3,2c1.8-0.2,2.9-1.4,4.2-2.1c0.7-1.1-0.5-2.8,1.2-3.6
		c1.7,3.1,3.1,6.5,6.2,9.1c0.9-1.5,1.5-2.6,2.2-3.7c0.7-1.1,1.5-2.1,2.4-3.1c1.2-1.4,2.5-2.8,3.8-4.2c2.5-2.7,5.5-4,9.2-3.5
		c0.3,0,0.7,0,1.3,0c1.2-0.9,2.4-2,3.8-2.9c1.4-0.9,3-1.5,4.4-2.4c3.4-2.3,6.8-4.6,9.9-7.5c-1-1.2-0.3-2.2,0.6-3.2
		c-0.5-0.5-1-1-1.4-1.5c4.3-6.4,4.8-13.6,4.1-21c-0.2-2.1-0.6-4.2-1-6.3l-0.1,0.1c3.2,4.2,3.2,9.2,3.2,14.2c0,1.2-0.2,2.3-0.3,3.8
		c1.7-1.9,1.3-4.3,2.6-6.1c0.6,2.2-0.2,4.1-0.7,6c-0.4,1.9-1.2,3.7-1.6,5.7c2.2-2.5,3.1-5.4,3.2-8.6c0.1-4.5-0.6-9-2.2-13.2
		c-1.1-2.7-2.7-5.2-4.3-7.7c-2.5-4-5.1-7.9-7.8-11.8c-1.8-2.7-4.1-4.9-6.7-6.8c-2.3-1.7-4.7-3.1-7.1-4.7c-0.4-0.2-0.8-0.3-2-0.8
		c0.9,0.9,1.1,1.3,1.4,1.5c5.1,4.4,9.2,9.8,13.3,15.1c0.3,0.3,0.3,0.9,0.4,1.3l0.1-0.1c-1.4-0.3-2-1.6-2.8-2.5
		c-3.1-3.4-6.1-6.9-9.2-10.3c-1-1.1-2.2-2.2-3.3-3.2c-3.1-2.7-6.6-4.6-10.8-4.6c-0.5-0.9-1-1.7-1.5-2.5c-1-1.7-1.1-3.4-0.2-5.1
		c2.4-4.6,6.1-7.4,11.3-8.2c1-0.1,2.1,0.3,3.1,0.5c0.2,0.1,0.4,0.5,0.8,1.1c-3.6-0.8-6.3,0.6-8.8,2.4c-2.3,1.6-4.6,3.4-5.3,6.3
		c0.6,0.9,1.2,0.8,1.9,0.3c0.8-0.6,1.6-1.4,2.5-2c1.6-1.2,3.4-1.5,5.3-0.9c3.9,1.2,6.1,4.3,5.9,8.6c0,0.3,0,0.7,0,1.3
		c1.2,0.8,2.4,1.7,3.8,2.4c4.7,2.3,8.5,5.5,11.5,9.8c2.8,4.1,5.6,8.2,7.6,12.7c0.9,2.1,2.2,4.2,3.4,6.2c0.7,1.2,1,2.4,1,3.7
		c0.1,4.1,0.2,8.3,0.2,12.4c0,1.1-0.4,2.3-0.7,3.4c-0.6,2.1-1.5,4.2-2.1,6.4c-0.5,2-1.6,3.7-3.1,5c-1.2,1.1-2.5,2.2-3.7,3.3
		c0.2,3.1,0.2,6.2-0.3,9.2c-0.5,2.9-0.9,5.8-1.5,8.7c-0.6,2.9-1.5,5.8-2.7,8.6c-0.5-1.7-0.1-3.3,0.2-4.9c0.9-4.6,1.7-9.3,2.3-14
		c0.3-1.8,0-3.7,0-5.8c-1.7,0.3-2.6,1.5-3.9,2.5c0.1,2.6,0.3,5.2,0.3,7.7c0.1,2.7,0.1,5.4,0.1,8.2c0,2.6,0.1,5.2-1.2,8.3
		c-0.5-4.3-0.6-7.9-0.9-11.5c-0.3-3.5,0.1-7.1-0.7-10.6c-1.3,0.1-1.9,1.2-2.7,1.7c-0.8,0.5-1.5,1.1-2.1,1.6c-1.2,8,0.7,15.2,3.7,23
		c0.1-1,0.1-1.3,0.1-1.7c0-0.3-0.2-0.7-0.2-1c-1.3-6.1-2.2-12.3-1.6-18.6c0.1-0.8-0.2-1.7,1-2.1c0.4,1.5,0.3,3,0.2,4.5
		c-0.2,3.6,0,7.1,0.7,10.6c0.4,1.9,0.5,3.7,0.8,5.6c0.2,0.9,0.5,1.8,0.7,2.7c0.1,0.4,0.4,1,0.3,1.3c-0.7,1.3,0,2.3,0.7,3.3
		C729.7,459.6,730.5,460.7,731.4,461.8L731.4,461.8z M712.9,351.2c0.1,0.4,0.2,0.8,0.8,0.7c-0.1,1.4,0.8,2,1.9,2.8
		c-0.5-1.8-0.5-1.8-2-2.8C713.7,351.4,713.5,351.1,712.9,351.2c0-0.5-0.3-0.7-0.8-0.6c-1.3-1.7-1.6-1.8-2.9-1c1,0.3,2,0.6,3,0.9
		C712.5,350.8,712.7,351,712.9,351.2z M649.1,542c-0.8-0.9-1.8-0.5-2.7-0.2C647.3,541.8,648.3,541.9,649.1,542
		c0.1,0.1,0.1,0.5,0.3,0.5c0.9,0.4,1.9,0.7,2.8,1c0.2-0.3,0.3-0.5,0.3-0.7c0-0.2-0.2-0.4-0.4-0.5C651.2,541.8,650.2,541.7,649.1,542
		z M165.5,498.6l0.1,0.2L165.5,498.6c-1.4-0.8-2.9-1.4-4.4-0.8c-2.1,0.8-4.2,1.5-6,2.9c-2.3,1.8-4.5,3.9-7.5,4.6
		c-0.4,0.1-0.8,0.5-1.1,0.8c-2.9,1.9-6,3.3-9.3,4.1c-0.7,0.2-1.3,0.3-2.1,0.5c-0.1,3.9-0.1,7.6,0.4,11.4c0.4,3.5,1.9,6.3,3.8,9
		c1.9,2.7,4.3,5,6.8,7.2c0.7,0.6,1.7,1.1,2,1.9c0.8,1.8,2.3,2.6,3.8,3.6c1.1,0.8,2.4,1.6,3.4,2.5c3.7,3.6,5.8,7.7,4,13
		c-0.2,0.5-0.2,1.2-0.1,1.7c0.6,2.2,1.4,4.3,3.2,5.8c1.8,1.5,3.7,2.9,5.7,4.2c1.6,1.1,3.3,1.7,5.2,2.1c7.9,1.6,15.7,0.8,23.6-0.1
		c0.3-0.9,0.6-1.7,0.9-2.4c1.3-2.6,0.3-4.8-1.3-6.9c-0.6-0.7-1.4-1.2-2.2-1.8c-2.9-2.1-5.7-4.1-7.4-7.2c-1.6-0.3-3-0.6-4.3-1
		c-0.5-0.1-1.1-0.4-1-1.2c0.9-0.6,1.8-1.2,3.1-2.1c-0.9-0.1-1.4-0.2-1.9-0.3c-0.9-0.2-1.8-0.4-2.7-0.9c-0.4-0.2-0.9-0.9-1-1.4
		c-0.2-0.8,0.4-1.4,1.1-1.6c1-0.4,2-0.6,3.1-0.8c1-0.2,2.1-0.2,3-0.3c0.7-0.9,1-1.6,0.3-2.5c-1.1,0-2.2-0.1-3.4-0.1
		c-1.8-0.1-3.5-0.4-5.1-1.2c-0.4-0.3-0.8-0.7-1.4-1.3c1.9-1.2,3.6-1.7,5.5-1.9c1.8-0.2,3.6-0.5,6.1-0.9c-8.9-0.7-9.8-1-11.8-3.4
		c0.4-0.9,1.1-1.1,2-1.3c0.8-0.1,1.6-0.1,2.5-0.1c2.4,0,4.7,0,7.1,0c0.7,0,1.1-0.3,1.2-1.2c-5.1-0.4-10.3-0.2-14.9-4
		c1-0.3,1.6-0.7,2.2-0.7c1,0.1,2.1,0.4,3.1,0.6c1.3,0.2,2.6,0.5,3.8,0.6c2.6,0.1,5.2,0,7.7,0c0.4-0.5,0.7-0.8,1-1.2
		c0.4-0.6,0.6-1.2,0.9-1.7c-0.6-2-1.8-2.5-3.6-2.1c-2,0.4-4,0.3-5.9,0.8c-1.8,0.5-3.2,0.2-4.7-0.6c-1.5-0.8-2.9-1.6-4.3-2.5
		c-0.7-0.4-1.4-1-2.2-1.1c-4.5-1-7.9-3.6-10.3-7.5c-0.4-3.3,0.5-6.5,1-9.8C163.3,500.5,164,499.3,165.5,498.6z M540.6,468.9
		c-0.7-0.2-1.3-0.3-2-0.6c-2.1-0.7-4.2-1.5-6.3-2.2c-5.4-1.7-11-2.7-16.6-3.7c-4.3-0.8-8.6-1.4-13-0.6c-3.7-0.4-6.6,1.2-9,3.9
		c-0.5,0.5-1,1-1.5,1.5c-4.9,5-9.6,10.1-14.9,14.6c-6.7,5.7-13.9,10.1-22.8,11.5c-2.2,0.3-4.5,0.5-6.6,1.6c0.8,2.8,1.8,5.6,2.5,8.4
		c0.4,1.6,1.3,2.8,2.5,3.7c2.6,1.9,5.4,3.3,8.7,3.6c1.2,0.1,2.4,0.2,3.5,0.4c2,0.3,4,0.2,5.6-0.2c1.7-1.6,3-3.2,4.6-4.4
		c5.5-4.1,11.5-7.4,18.3-8.9c1.5-0.3,3-0.7,4.4-1.2c0.8-0.3,1.9-0.4,2.3-1.7c-1.3-0.2-2.6,0.2-4.1-0.8c0.8-0.3,1.2-0.5,1.7-0.5
		c2.7-0.4,5.4-0.8,8.1-1.1c0.6-0.1,1.3-0.1,1.7,0.2c1.2,0.7,2.2,0.4,3.4,0.1c5.7-1.7,11-4.1,16.2-7.1c0.6-0.3,1.3-0.7,1.9-0.8
		c1.7-0.5,3.4-0.9,4.9-1.2c2.4-3.5,5.4-6.7,6.9-7.6c0,0.2,0.2,0.5,0.1,0.6c-1.4,1.9-2.8,3.8-4.2,5.6c0.1,0,0.4,0.2,0.6,0.1
		c3.6-1,6.9-2.5,10-4.4c0.4-0.2,0.9-0.5,1.1-0.9c1.7-2.9,4.6-4.8,6.5-7.5c0.1-0.2,0.4-0.2,0.6-0.4c0.4,0,0.9,0.1,1.4,0.2
		c0.4-0.9,1-1.7,1.2-2.6c1.2-4.5,1-8.9-0.8-13.2c-0.5-1.3-1.4-2.1-2.7-2.6c-1.4-0.5-2.9-1-4.4-1.5c-5.6-1.9-11.1-3.9-17-4.9
		c-3.9-0.7-7.8-1.7-11.5-3.3c-0.9-0.4-2-0.7-3.1-0.7c-2.8,0.1-5.7,0.2-8.5,0.5c-4.7,0.6-9.3,1.8-13.7,3.5c-2.6,1-5.2,2.4-7.9,2.9
		c-4.7,1-9.4,2.2-14.3,2.1c-0.6,0-1.2,0.2-1.7,0.4c-1.2,0.5-5.4,3.9-7.1,5.6c1.7,0.5,3.3,0.9,4.8,1.4c4.7,1.4,9.4,2,14.3,2
		c4.1,0,8.3,0.1,12.4,0.1c2.8,0,5.7-0.3,8.5-0.2c8.7,0.4,17.1,2.1,25.4,4.5c3,0.9,5.7,2.4,8.3,4
		C539.9,467.8,540.6,468.1,540.6,468.9L540.6,468.9z M467,419.9c-1.2-0.5-1.2-0.5-0.8-2l-0.1,0.1c0.7,0.2,1.2,0.4,2,0.2
		c4.3-1.1,8.7-2.1,13.1-3.2c0.9-0.2,1.8-0.6,2.7-0.9c-0.1-0.8-0.1-1.6-0.3-2.2c-0.5-1.6-1-3.1-1.6-4.7c-1.6-4.2-3.2-8.4-4.8-12.6
		c-2.3-6-4.3-12-4.4-18.5c-0.1-4.4,0-8.7,2.2-12.7c0.1-0.2,0-0.4,0-0.8c-2.1-0.1-4.2-0.3-6.3-0.4c-4.6-0.2-9.2-0.1-13.8,0.6
		c-11.3,1.7-21.4,6.5-30.3,13.6c-2.3,1.8-4,4-5.1,6.7c-0.4,1-0.8,2-1.3,2.9c-2.1,3.9-3,8.2-3.7,12.5c-0.1,0.3,0.1,0.7,0.2,1.3
		c0.9-2.1,1.7-3.9,2.6-5.7c2.9-6.1,6.7-11.4,12.1-15.5c3.2-2.5,6.6-4.6,9.9-6.8c2-1.3,4.2-1.9,7.4-2c-1.3,0.8-1.8,1.1-2.4,1.4
		c-1.6,0.8-3.3,1.5-4.7,2.5c-3.5,2.5-7.1,5.1-10.2,8.2c-4.3,4.2-7.7,9-10.1,14.4c-2,4.4-3.5,9-4.8,13.7c-0.3,1.1-0.6,2.1-1,3.3
		c-0.4-0.5-0.6-0.7-1-1.1c0,0.9-0.1,1.7-0.1,2.5c-0.8,0.6-1.5,1.3-2.5,2.1c0.8,0.9,1.4,1.8,2.2,2.5c3.5,3.3,7.1,6.6,10.7,9.9
		c3,2.7,5.9,5.4,7.9,9c0.3,0.6,0.8,1.2,1.2,1.7c4.5,5.8,8.9,11.6,13.4,17.4c1.4,1.7,3.1,3.1,5,4.6c6.2-4.2,12.3-8.2,18.4-12.3
		c1.2-0.8,2.4-1.4,3.8-1.9c2-0.8,4.1-0.9,6.3-1c3-0.1,5.8-0.6,8.6-1.4c0.5-6.3-1.6-25.9-3.3-30.1c-0.1,0-0.2-0.1-0.3-0.1
		c-5.1,1.3-10.3,2.5-15.4,3.8C467.7,419,467.3,419.6,467,419.9L467,419.9z M559.8,449.8c0.3,0.8,1,0.9,1.8,0.9
		c1.4,0.2,2.8,0.2,4.2,0.5c2.6,0.6,5.2,1.3,7.9,2c3.2,6.8,8.8,10.7,16.1,12.4c0.8,0.2,1.6,0.4,2.4,0.5c4.4,0.9,8.9,0.6,13.4,0.8
		c1.6,0.1,3.3,0,5-0.1c1.6,0,3-0.4,4.3-1.4c1.7-1.3,3.5-2.4,5.2-3.7c1.8-1.6,3.7-2.9,5.9-3.8c1.3-0.5,2.5-1.3,3.6-2.3
		c1.1-1,2.3-1.7,3.6-2.2c1.8-0.8,3.7-1.5,5.6-2.3c0.4-0.2,0.9-0.3,0.9-0.9c-0.7-1.1-1.7-1.1-2.8-1.1c-1.9,0.1-3.8,0.1-5.7,0.1
		c-5.2,0-10.3-1.3-15.3-2.7c-0.9-0.3-1.8-0.6-2.7-0.2c-1.5,0.6-2.8,0-4.1-0.7c-2.4-1.2-4.3-2.9-5.9-5c-3.9-5.2-7.5-10.6-10.2-16.6
		c-1.2-2.6-1.8-5.3-1.9-8.2c-0.2-6.8,2.3-12.4,7.3-17c9.5-8.5,20.6-11.2,32.9-9.1c6.9,1.2,13.2,4.4,19.4,7.5
		c0.9,0.4,1.5,1.1,2.1,1.8c0.7,0.9,1,0.9,2.7,1c-0.7-1.8-1.3-3.5-3-4.7c-3.4-2.4-6.6-4.9-10.1-7.2c-1.8-1.2-3.7-2.1-5.7-2.8
		c-1.3-0.4-2.3-1.1-3.2-2c-2.3-2.4-2.4-2.5-1-5.5c0.1-0.2,0.3-0.3,0.7-0.6c1,0,2.2-0.1,3.4-0.2c1.1-0.1,2.3,0.4,3.6-0.2
		c-1-2-1.8-4.1-3.3-5.5c-3.2-3.1-6.8-6-11.2-7.2c-4.9-1.4-9.7-3.1-14.8-3.1c-0.9,0-1.9-0.3-2.8-0.5c-3.2-0.9-6.3-1.9-9.5-2.9
		c-1.8,0.4-3.7,0.9-5.5,1.3c-7.1,1.8-14.1,4-20.8,7c-4.2,1.9-8.5,3.5-13,4.4c-0.8,0.2-1.5,0.6-2.2,0.8c0.1,0.7,0.1,1.1,0.1,1.6
		c1.8,9.4,3.1,18.9,4.4,28.3c1.5,10.6,1.5,21.2,1.1,31.8c-0.2,5.2-1,10.3-1.5,15.5C561,449.5,560.4,449.7,559.8,449.8
		c-0.2-3.6,0.1-7.2,0.6-10.8c0.3-2.2,0.5-4.5,0.5-6.7c0-4.6-0.2-9.2-0.4-13.8c-0.2-5.4-0.3-10.9-1-16.3c-1.1-9.6-2.7-19.2-4-28.8
		c-0.1-0.6-0.4-1.3-0.7-1.9c-2.1,0.3-3.9,0.7-5.8,0.8c-6.7,0.2-13.5,0.2-20.2,0.3c-3.1,0.1-6.1,0.5-9.2,0.6c-3.6,0.1-7.3,0.6-10.9,0
		c-3.8-0.7-7.7-1.2-11.3-2.9c-2-1-4-2-5.9-3.1c-2.8-1.6-5.7-2.8-8.9-3.5c-5.2-1.2-5.8-1-7.1,4.7c0,0.1,0,0.2,0,0.4
		c-0.4,4.4-0.5,8.7,0.7,13c0.3,1.1,0.4,2.3,0.5,3.5c0.3,2.9,0.4,5.9,2.2,8.5c0.4,0.6,0.5,1.3,0.8,2c1.2,3,2.1,6,3.5,8.9
		c1.8,3.5,2.6,7.3,3.5,11.1c0.6,2.6,1,5.3,1.6,8c1.5,6.1,2.1,12.3,2.1,18.6c0,0.7,0,1.4,0,2.4c0.8-0.4,1.3-0.6,1.8-0.9
		c2.2-1.4,4.6-2.4,7.2-3c3-0.8,6-1.4,9-2c1.1-0.2,2.4,0,2.8-1.6c0.1-0.2,0.6-0.5,0.9-0.5c1.2-0.2,2.3-0.3,3.5-0.4
		c1.1-0.1,2.1-0.6,3.7-0.1c-1.5,0.9-2.6,1.5-4,2.2c1.5,0.2,2.8,0.4,4,0.7c4.2,0.9,8.4,1.4,12.6,1.9c2.9,0.3,5.8,0.9,8.7,1.6
		c4.7,1.1,9.1,3.2,13.5,5.4C555.9,448.6,557.7,449.8,559.8,449.8z M440.1,453.2l0,0.3L440.1,453.2c-4.1-5.3-8.2-10.6-12.3-16
		c-1.3-1.7-2.8-3.2-4.5-4.5c-5.7-4.3-10.8-9.1-14.6-15.3c-0.2-0.3-0.5-0.5-0.7-0.7c-1.7-0.5-3.1,0.2-4.4,1
		c-4.3,2.4-8.8,4.5-13.4,6.4c-2.3,0.9-4.6,2-6.9,2.8c-11.1,4.3-21.9,9.4-32.5,14.9c-6.3,3.3-12.6,6.4-19.3,8.9
		c-5,1.9-9.8,4.1-14.5,6.6c-3.4,1.8-6.9,3.7-10.3,5.5c-1.9,1-3.6,2.3-6,1.5c-0.3-0.1-0.7,0.1-1,0.2c-3.5,0.8-7,1-10.6,1.1
		c-2.8,0.1-5.7,0-8.5,0.5c-3.2,0.6-6.3,0.6-9.5,0.6c-6.8,0-13.4,0.9-20,2.3c-6.9,1.5-13.7,3.5-20,6.9c-0.8,0.4-1.8,0.9-2.3,1.5
		c-2.1,2.4-4.8,3.8-7.6,5.1c-3.2,1.5-6.5,2.9-9.6,4.5c-9.4,4.8-19,9-28.7,12.9c-1.4,0.6-3,0.8-4.5,1c-2.5,0.2-5,0.2-7.4,0.3
		c-1.5,0-3,0-4.6,0.5c-0.4,3.5,0,7.2-2.7,10.1c0.8,1.5,1.8,2.7,3.3,3.1c2.7,0.9,5.1,2.4,7.4,4c2.1,1.4,4.3,2.6,6.9,2.3
		c3.6-0.3,7.3-0.7,10.8-1.4c1.8-0.4,3.4-1.5,5.2-2.3c2.3-1,4.5-2,6.8-2.9c3.6-1.4,7.2-2.9,11.1-3.5c2.9-0.5,5.9-0.6,8.8-1
		c5.6-0.8,11.3-1.4,16.8-2.5c11.6-2.3,23.1-5,34.6-7.4c1.1-0.2,0.8-1.4,1.6-1.4c5.3-0.1,10.6-0.1,15.9-0.6
		c7.4-0.7,13.4-2.2,15.9-3.5c-0.9-0.1-1.7-0.2-2.5-0.3c-1.7-0.4-3.4-0.9-4.7-2.2c-0.3-0.3-0.4-0.7-0.7-1.2c1.9-0.3,3.3,0.6,4.8,0.8
		c1.4,0.2,2.8,0.6,4.2,0.7c1.5,0.1,3,0,4.5,0c0.2,1.6-1.8,1.3-2,2.4c5,0.3,9.9,0.5,14.9,0.8c0.5,0,0.9,0.1,1.4,0
		c4.6-0.5,9.2-0.9,13.7-1.5c8.5-1.1,17.1-2.2,25.6-3.4c8.5-1.2,17.1-2.4,25.5-4.2c12.5-2.7,24.4-7.2,35.8-13.2
		c5.8-3.1,11.6-6.4,17.4-9.6c0.4-0.2,0.6-0.6,0.9-0.9c-2.7-3.2-6.2-5.3-8.6-8.7C439.5,453.9,439.8,453.5,440.1,453.2z M623.4,438.4
		c3.6,0.6,6.5,2.3,9.2,4.4c0.9,0.7,1.8,1.5,2.9,2.1c4.6,2.6,8.4,6.1,12,9.8c1,1,1.8,2.2,2.3,3.5c0.7,1.7,1.6,3.1,2.6,4.6
		c5,7.8,10.6,15.1,16.1,22.4c2.3,3.1,4.9,6.1,7,9.4c1.4,2.2,3.1,3.8,5.1,5.4c3.3,2.5,6.6,5,9.8,7.5c2.3,1.7,4.5,3.4,6.7,5.2
		c1.7,1.4,3.1,2.9,3.4,5.2c0.1,0.9,0.8,1.7,1.2,2.5c1.4,2.3,2.9,4.6,4.3,6.9c0.9,1.4,2,2.6,3.4,3.5c2.8,1.9,5.6,3.9,8.4,5.9
		c7.2,5.3,14.4,10.7,21.6,16c4.8,3.5,9.5,7,14.7,9.8c4.2,2.2,8.2,4.6,12.3,7c2.3,1.3,4.5,2.7,6.1,4.7c0.9,1.1,1.8,1.8,3,2.3
		c2.7,1.2,4.9,2.8,6.5,5.2c0.2,0.3,0.5,0.5,0.7,0.8c1.1,1.8,2.8,2.4,4.8,2.4c3.5-0.1,7.1,0.3,10.6-0.3c1.7-0.3,3.5-0.4,5.3-0.7
		c3.4-0.6,6.8-0.1,10.2,0.4c4.8,0.7,9.5,1.8,14.1,3.1c2.7,0.8,5.4,1.6,8.4,1c-0.2-0.2-0.3-0.4-0.5-0.4c-3.4-1.1-6.9-1.6-9.8-4
		c-0.5-0.4-1.3-0.3-2-0.5c-2.3-0.4-4.7-0.8-6.7-2c-0.5-0.3-0.9-0.7-1.8-1.3c1.2,0,2-0.2,2.6,0c2.4,0.7,4.8,1.3,7.3,1.3
		c0.8,0,1.6,0.4,2.3,0.8c0.7,0.4,1.3,0.9,1.8,1.2c1.6,0,2.8,0,4.1,0c2.7,0,5.4,0.2,8.1-0.4c1.5-0.3,3-0.3,4.6,0.2
		c0.7,0.2,1.4,0.2,2.1,0.1c0.2,0,0.4-0.4,0.6-0.7c-0.2-0.2-0.4-0.5-0.6-0.5c-4.4-0.3-8.6-1.3-12.9-1.9c-3.5-0.4-6.9-1.4-10.5-1.3
		c-0.9,0-1.9-0.1-2.8-0.3c-1.2-0.3-2.5-0.7-3.7-1.2c-0.3-0.1-0.5-0.7-1.2-1.7c3.7,0.6,6.8,1.3,10,0.4c-3.1-0.1-6.1-0.9-9-1.9
		c-4.2-1.4-8.5-1.7-12.9-2c-2.5-0.2-5-0.3-7.4-0.8c-5.2-1.2-10.3-2.6-14.6-6.1c-0.4-0.4-1-0.7-1.6-0.8c-1.7-0.3-2.9-1.4-4.2-2.5
		c-5.8-4.5-10.4-10.3-15-15.9c-0.2-0.3-0.4-0.6-0.6-0.9c-1.9-2.7-3.8-5.4-5.7-8.1c-0.5-0.6-1-1.4-1.7-1.6c-1-0.3-1.6-1-2.1-1.8
		c-1.4-2.2-2.8-4.3-4.3-6.5c-3.5-5.5-7.3-10.8-11.6-15.6c-3.9-4.3-8.4-7.6-13.4-10.2c-0.5-0.3-1.1-0.6-1.6-0.6
		c-3.3-0.4-6-2.1-8.3-4.4c-1.5-1.5-2.9-3.1-4.2-4.8c-3.2-4.3-6.3-8.6-9.3-12.9c-1.6-2.2-3-4.5-4.1-7c-1.2-2.5-3-4.8-4.6-7.1
		c-0.1-0.2-0.4-0.4-0.5-0.4c-1.2,0.1-1.6-0.9-1.9-1.7c-0.9-2.2-1.9-4.3-2.5-6.6c-0.9-3.2-1.6-6.4-2.2-9.7c-0.6-3.1-1.8-5.8-3.5-8.5
		c-2.7-4.3-6-8.2-9.4-12c-4.1-4.6-8.7-8.7-13.9-12c-2.2-1.4-4.6-2.4-6.9-3.7c-0.5-0.3-1.3-0.5-1.1-1.6c1.9,0.3,3.6,0.9,5.3,1.7
		c0.8,0.4,1.7,0.7,2.6,1c0.6,0.2,1.3,0.3,1.9,0.5c0.1-0.4,0.2-0.6,0.2-0.8c-0.4-1.1-0.9-2.2-1.3-3.3c-0.9-2.5-2.3-4.6-4.8-5.9
		c-1.1-0.6-2.2-1.2-2.6-2.7c-0.1-0.5-1-1-1.6-1.3c-4.2-1.7-8.3-3.5-12.5-4.8c-10.6-3.4-20.8-2.1-30.3,3.5
		c-6.4,3.8-11.1,9.2-13.1,16.5c-0.5,1.7-0.8,3.4-1.2,5.2c0.3,0.7,0.7,1.2,1,1.9c1.9,5.1,5,9.3,8.3,13.6c2,2.7,4.5,4.8,7.4,6.6
		c1.8,1.1,3.5,2.3,5.4,3.6c1.7,0.3,3.6,0.6,5.4,0.9c3.8,0.8,7.6,1.5,11.4,2.3c1.5,0.3,3,0.5,5,0.2c-0.9-0.4-1.5-0.5-2-0.8
		c-0.6-0.4-1.2-0.8-1.7-1.3c-1.3-1.2-2.5-2.5-3.9-3.6C626.4,440.6,624.9,439.5,623.4,438.4z M595.7,534.2c-0.6-1.2-1.2-2.1-1.6-3
		c-0.4-1-0.6-2-0.9-3.1c-0.3-1.3-0.4-2.6-0.9-3.8c-1.5-4.1-1.6-8.3-2-12.5c-0.8-8.7,0.6-17.4,0.8-26.2c0-0.5,0.1-0.9,0.2-1.4
		c0.5-3.9,1-7.7,1.5-11.6c0.1-0.7-0.1-1.3-0.1-2c-0.8-0.2-1.3-0.3-1.9-0.4c-6.9-1.8-12.4-5.6-16.2-11.8c-0.2-0.3-0.4-0.6-0.6-0.9
		c-1.4-2.2-3.3-3.2-6.1-2.3c-0.1,0.7-0.2,1.4-0.3,2.1c-0.8,7.1-0.8,14.1-0.9,21.2c0,4.5,0.6,9,1.2,13.4c0.2,1.3,0.2,2.6,0.7,3.8
		c1,2.4,1.3,5,1.8,7.5c1.3,6,2.7,12,5.4,17.5c2.2,4.6,3.6,9.5,6.5,13.8c0.5,0.8,0.7,1.7,1.1,2.6c0.1,0.3,0.3,0.6,0.5,0.9
		c0.6,0.2,1.1,0.4,1.7,0.6c0.9,1.3,1.3,2.7,1.6,4.2c0.2,1,0.8,1.6,1.7,2.1c1.3,0.7,2.7,0.9,4.1,0.8c3.9-0.1,7.8-0.3,11.5-1.6
		c3.1-1.1,6.2-1.3,9.2,0.5c1.4,0.8,3.1,1.1,4.8,0.9c1.1-0.1,1.5-0.7,1.4-2.4c-4.2-1.5-8.8-2.5-12.4-5.5c-2.5-0.4-4.7,0.6-7,1.1
		c-0.4,0.1-1,0.2-0.9-0.7c1.9-0.5,3.8-1.1,5.7-1.6c1.5-0.4,3-0.6,4.3,0.7c0.3,0.3,0.8,0.4,1.3,0.5c3.1,1,6.3,2,9.4,3
		c0.8,1.1,1.5,2.2,2.3,3.2c0.7,1,1.5,1.4,2.7,1.3c1.8-0.2,3.6-0.2,5.3-0.6c2.6-0.7,5.1-0.1,7.7-0.1c1.5,0,3,0.6,4.5,0.8
		c1.2,0.1,2.3,0.1,3.5,0.1c0.3,0,0.7-0.5,1.1-0.8c-0.6-0.2-0.9-0.4-1.2-0.4c-2.5-0.5-5.1-1-7.6-1.6c-3-0.7-5.9-1.7-8.9-2.3
		c-2.9-0.5-5.5-1.2-7.7-3.2c-0.3-0.2-0.6-0.4-0.9-0.5c-2.6-0.9-5.1-1.8-7.7-2.7c-0.6-0.2-1.3-0.5-1.7-0.3c-2,0.9-4.2,0.5-6.3,0.9
		C602.4,535.1,599.1,534.8,595.7,534.2z M712.1,353c-1.1-0.6-2.1-1.3-3.2-1.9c-0.1-0.1-0.4,0.1-0.6,0.1
		C709.1,353.5,709.1,353.5,712.1,353z M840.4,578.5c1.6,1.2,1.6,1.2,3.9,0.7C843.2,578.2,843.2,578.2,840.4,578.5z M718,433.4
		c-0.8,0.1-1.3,0.2-1.8,0.3c0.5,0.7,1,1.3,1.5,2C717.8,435,717.9,434.4,718,433.4z M641.9,540.7c0,0.1,0,0.2,0,0.3
		c0.4,0,0.8,0.1,1.2,0.1c0-0.1,0-0.2,0-0.3C642.7,540.8,642.3,540.8,641.9,540.7z M834.2,577.9c0.1,0,0.2,0,0.3-0.1
		c-0.1,0-0.2-0.1-0.3-0.1c-0.1,0-0.2,0-0.3,0.1C834.1,577.8,834.1,577.8,834.2,577.9z M706.2,350.8c-0.2-0.1-0.4-0.1-0.6-0.1
		c-0.1,0-0.2,0.1-0.2,0.2c0.2,0.1,0.3,0.2,0.5,0.3C705.9,351.2,706.1,350.9,706.2,350.8z"/>
	<path d="M681.1,386.6c-0.5,0.6-1.1,1.2-1.5,1.9c-1.1,1.9-2.5,3.4-4.7,4.1c-0.4,0.1-0.6,0.6-0.9,0.9c1,1.1,2.8,0.1,3.4,1.9
		c-0.7,1-1.8,0.9-2.8,0.8c-1.1-0.1-2-0.6-2.7-1.6c-0.4-0.5-0.3-1.4,0.2-1.9c0.9-0.8,1.7-1.8,2.7-2.2c1.2-0.5,1.9-1.4,2.5-2.4
		c0.6-1,1.2-2,1.8-3c0-0.1,0-0.2,0-0.4c-0.9-1.3-2.2,0.6-3.3-0.4c0.3-0.3,0.5-0.7,0.9-0.8c1.4-0.5,2.4-1.3,3.2-2.6
		c0.6-1,1.2-2.3,2.7-2.6l0,0c-0.2,0.5-0.3,1.1-0.6,1.6c-0.6,1-1.3,1.9-2.2,3.2c0.8,0,1.4,0.2,1.6,0c1.7-1.7,3.5-1.4,5.5-0.8
		c2.4,0.7,4.4,2.1,6.7,2.8c0.2,1.6-0.2,3-0.9,4c-1.4,2-1.1,4-0.3,6c0.2,0.4,0.3,0.9,0.5,1.3c-0.8,0.9-1.5,0.3-2.2,0
		c-0.7-0.4-0.9-1.1-0.8-1.8c0.3-1.8,0.4-3.7,1.3-5.5c0.4-0.7,0.5-1.6,0.7-2.4c0-0.2-0.4-0.4-0.7-0.7l0.1,0.1c-0.8-0.9-2-0.7-3-0.8
		l0.1,0.1c-0.6-0.8-1.5-0.6-2.3-0.8l0.2,0.1c-0.5-0.9-1.3-0.8-2-0.6c-1.1,0.3-2.2,0.7-2.4,2.1l0.1-0.1c-0.6,0-0.8,0.4-0.8,0.8
		L681.1,386.6z"/>
	<path d="M415.8,508.7c0.4-1.1,1.3-1.6,2.3-2c2-0.9,4.1-1.9,6.1-2.9c0.8-0.4,1.7-0.8,2.4-1.5c1.6-1.5,3.3-2.6,5.4-3.2
		c0.8-0.2,1.5-1.1,2.1-1.7c1.3-1.5,2.6-3.1,3.8-4.7c1.4-1.9,3.2-2.2,5.3-1.6c0.4,0.1,0.7,0.6,1.1,1c-1.4,0.3-2.9,0.3-3.9,0.9
		c-0.9,0.6-1.3,1.9-2,2.8c-1,1.3-2,2.7-3.2,3.8c-0.9,0.9-2.1,1.5-3.3,1.9c-1.2,0.4-2.1,0.9-3,1.7c-2.8,2.5-6.3,3.6-9.5,5.4
		C418.2,509.5,417,508.8,415.8,508.7L415.8,508.7z"/>
	<path d="M712.1,398.3c-1.1,0.2-1.5,0.4-1.8,0.3c-2.1-0.7-4-1.8-5.6-3.5c-2.2-2.2-3.9-4.5-4.1-7.9c-0.3-3.3-1.1-6.5-1.6-9.8
		c-0.4-2.6-0.1-5.2,0.7-7.9c0.6,1.5,0.4,2.9,0.4,4.2c0,3.9,0.5,7.7,2,11.4c0.8,2,1.7,3.9,3.1,5.5c0.4,0.4,0.6,0.9,1.1,1.5
		c-2.1,0.2-2.3-1.8-3.5-2.3c-0.6,0.2-0.5,0.6-0.3,1c0.6,1,1.6,1.8,2.7,2.2c0.8,0.4,1.7,0.7,2.6,1.1c-0.3,0.5-0.6,1-0.9,1.5
		C708.1,397.2,710,397.4,712.1,398.3z"/>
	<path d="M691,385.9c-0.5,2.7-1.9,5-3.6,7.3c-1-0.2-2-0.4-3.3-0.6c-0.5,0.4-1.3,1.1-2,1.8c-1.1-0.6-2.2-1.2-3.3-1.8
		c0.5-1,1.2-1.9,1.6-2.9c0.4-1,0.5-2,0.8-3.1l-0.1,0.1c0.5,0,0.8-0.3,0.8-0.8l-0.1,0.1c1.5-0.5,2.9-1,4.4-1.4l-0.2-0.1
		c0.8,0.3,1.5,0.5,2.3,0.8l-0.1-0.1c0.8,0.9,2,0.7,3,0.8L691,385.9z M684.8,386c-2.2,0.9-2.8,2.6-3.1,4.5c0,0.1,0.2,0.3,0.3,0.5
		c0.6-0.3,1.2-0.7,1.8-1c1,0.7,1.8,1.3,2.8,2c0.4-0.7,0.8-1.4,1-1.9c-0.4-1-1.6-1.3-1.3-2.5c0.8,0.4,1.4,0.6,2,0.9
		C688.5,387.2,688.5,387.2,684.8,386z"/>
	<path d="M712.5,429.5c-1.8,0.4-2.7-1.2-3.8-1.8c-2,0-3.6,0-5.4,0c-0.3,0.3-0.9,0.6-1.4,1.1c-0.7-2.2,0.2-4.1,0.5-6.2
		c1,0,0.7,1.1,1.5,1.5c0.3,0,1-0.1,1.7-0.1c-0.1-0.4,0-0.7-0.2-0.8c-0.9-0.8-1.8-1.4-2.7-2.2c-0.3-0.3-0.6-0.7,0-1.4
		c0.7,0.5,1.3,1.1,2.1,1.6c0.8,0.5,1.7,0.9,2.4,1.5c0.9,0.8,1.7,1.6,2.4,2.6C710.6,426.6,711.5,428.1,712.5,429.5z"/>
	<path d="M684.6,363.9c-1.3,2.3-2.5,4.3-3.7,6.3c-0.2,0.4-0.7,0.9-0.6,1.2c0.2,2.1-1.4,3.4-2.3,4.9c-1.6,2.5-3.2,4.9-4.7,7.4
		c-0.3,0.4-0.7,0.8-1.5,1.8c0.2-1.2,0.1-1.7,0.3-2c0.9-1.8,1.9-3.5,2.9-5.2c1.1-1.9,2.2-3.8,3.3-5.8c1.4-2.4,2.7-4.9,4.2-7.3
		C682.9,364.6,683.3,363.7,684.6,363.9z"/>
	<path d="M714.5,395.9c-0.1,0.4,0.2,0.9-0.5,1.4c-2.5-1.1-4.3-3.2-6.8-5.2c1.9-0.3,2.6,1.2,3.9,1.4c0.6-1-0.5-1.9-0.2-2.8
		c0.2-0.9,0-1.9,0-2.8c0-1,0-2.1,0.2-3.2c0.7,1.2,1,2.5,1.2,3.7c0.1,0.6,0.1,1.2,0.2,1.7c0.4,2,1,3.9,3.1,4.8
		c0.2,0.1,0.3,0.3,0.5,0.5c0.1,0.1,0,0.2,0.1,0.5C715.5,395.9,714.9,395.9,714.5,395.9c-0.2,0-0.2,0-0.3-0.1
		C714.3,395.8,714.4,395.8,714.5,395.9z"/>
	<path d="M732.5,400.5c1.6,3.4,2,6.7,1.8,10c0,0.6-0.6,1.2-0.9,1.8c-1.6-1.5-1.8-3.1-1.3-5c0.2-0.8,0.4-1.6,0.6-2.9
		c-1,1.2-1.7,1.9-2.4,2.7c0,0-0.2-0.1-0.5-0.2c0.1-1.1,0.9-2.1,1.3-3.1C731.6,402.8,732,401.9,732.5,400.5z"/>
	<path d="M712.6,361.5c1-0.7,1.4,0.1,1.9,0.5c4.2,3.7,7.2,8.2,9.5,13.3c-2.4-1.9-3.6-4.7-5.5-7C716.5,366.1,714.6,363.8,712.6,361.5
		z"/>
	<path d="M717.4,429.1c-0.9-2.1-1.6-4-2.6-5.9c-0.9-1.8-2-3.4-2.3-5.5c0.8-0.4,1,0.3,1.3,0.6c1,1.3,2,2.6,2.8,4
		c1.2,1.9,1.5,4.1,1.2,6.3C717.9,428.7,717.8,428.8,717.4,429.1z"/>
	<path d="M722.2,395.8c-0.8-0.7-1.6-1.3-2.3-2c-0.8-3.1-0.9-3.3-0.4-6.6c0.1,0,0.3,0,0.3,0.1c0.2,0.5,0.4,1.1,0.6,1.6
		c1.2-0.6,0.8-2,1.6-3.1C721.7,389.4,721.8,392.6,722.2,395.8L722.2,395.8z"/>
	<path d="M721.5,351.8c-0.4-0.2-0.9-0.4-1.1-0.7c-2.6-3.3-5.9-5.3-9.8-6.5c-0.3-0.1-0.6-0.4-0.9-0.6c0.2-0.2,0.3-0.5,0.4-0.5
		c4.3,0.8,7.9,2.9,10.6,6.4C721.1,350.5,721.2,351.3,721.5,351.8L721.5,351.8z"/>
	<path d="M634.3,27.1c-0.3-0.2-0.7-0.2-0.9-0.5c-2.7-3.4-6.2-5.4-10.2-6.6c-0.2-0.1-0.3-0.3-0.5-0.4c0.1-0.2,0.3-0.5,0.4-0.5
		c4.2,0.8,7.7,2.7,10.4,6.1C633.9,25.8,634,26.5,634.3,27.1L634.3,27.1z"/>
	<path d="M481.8,544.4c0,0.7,0,1.1-0.1,1.3c-0.9,1.4-2.3,2.3-4,2.6c-0.5,0.1-1.1-0.2-1.6-0.4c-0.5-0.3-0.6-1.2-0.1-1.5
		c0.4-0.2,0.8-0.5,1.2-0.6C478.6,545.3,480,544.9,481.8,544.4z"/>
	<path d="M475.9,539.6c-1.2,1.8-3,2.5-4.8,3c-0.9-0.7-0.9-1.5-0.5-2.3c0.9-1.5,2.9-2.2,4.6-1.6C475.5,538.8,475.6,539.2,475.9,539.6
		z"/>
	<path d="M695.5,389.3c2.5,1.9,4.8,3.8,7.3,5.7c0,0.6-0.4,1-1.1,0.7c-2.8-1.2-5-3-6.3-5.8C695.3,389.8,695.4,389.5,695.5,389.3z"/>
	<path d="M698.8,397.8c-2.2,0.7-3.2-0.7-4.3-1.9c-1-1.2-1.6-2.6-1.7-4.1c0-0.4,0.2-0.8,0.3-1.6c1,1.6,1.6,3,2.5,4.1
		C696.5,395.6,697.7,396.6,698.8,397.8z"/>
	<path d="M725.8,386.1c0.5,5.4,1.7,10.8,0.5,16.5c-0.8-1.4-0.8-1.4-0.8-3.2c0-1.1,0-2.1,0-3.2c0-1.2,0-2.3,0-3.5
		c0-1.1,0-2.1,0.1-3.2C725.6,388.4,725.7,387.2,725.8,386.1z"/>
	<path d="M677.5,367.5c-0.3,0.6-0.5,1.3-0.8,1.8c-0.9,1.5-2,2.9-3,4.3c-1.2,1.8-2.1,3.8-2.6,6l0.1-0.1c-0.3-0.3-0.8-0.7-0.7-1
		c0-0.8,0.2-1.6,0.6-2.3c1.5-3,3.3-5.8,5.6-8.3C676.8,367.7,677.2,367.7,677.5,367.5L677.5,367.5z"/>
	<path d="M553.3,171.4c0-0.7-0.1-1-0.1-1.3c0.5-2.6,1-5.2,1.5-8.1c0.8,2,0.8,2,0.8,3.2c0,1.8-0.4,3.5-1.2,5.1
		C554.2,170.6,553.8,170.8,553.3,171.4z"/>
	<path d="M671.1,381c0,0.1,0.1,0.3,0,0.3c-1.4,2.3-2.8,4.6-4.3,6.9c-0.4,0.7-1.1,1.2-2.1,0.4c0.6-0.6,1.2-1.1,1.7-1.7
		c0.4-0.6,0.6-1.3,1.1-1.8C668.5,383.6,669.2,381.8,671.1,381L671.1,381z"/>
	<path d="M510.3,56.1c1.4-1.5,3-1.2,4.4-1.2c1.6,0,3.2,0.2,4.5,1.5c-0.3,0.2-0.5,0.4-0.7,0.4C515.9,56.7,513.2,56.4,510.3,56.1z"/>
	<path d="M410.8,252.7c0.5-0.5,1-1.1,1.6-1.6c0.4-0.4,0.6-1.2,1.4-1.2l-0.1-0.1c-0.6,2.9-1.7,5.1-3.9,7.5c-0.1-0.5-0.3-0.9-0.3-1.3
		c0.1-0.7,0.4-1.3,0.7-2l-0.1,0.1c0.3-0.5,0.5-1,0.8-1.6L410.8,252.7z"/>
	<path d="M487.8,123.3c-1.3,2-2.4,4.2-4.1,6c-0.8-1.4,0.1-2.2,0.6-3.1C485.3,124.4,485.9,123.9,487.8,123.3z"/>
	<path d="M467.4,169.7c-0.9-1.2-1.9-2.4-1.2-4.3c0.5,0.3,0.8,0.4,1,0.7C467.8,167.2,467.8,168.4,467.4,169.7z"/>
	<path d="M730.3,397.6c0.3,2,1,4.1-0.8,6.4C729.4,401.5,730.2,399.5,730.3,397.6z"/>
	<path d="M715.7,392.5c2.2,0.3,3,2.3,4.5,3.7c-0.3,0-0.7,0.1-0.8,0C718.2,395,717,393.7,715.7,392.5L715.7,392.5z"/>
	<path d="M707.7,383.9c0.3,1.7,0.5,3.4,0.9,5.8C707,387.5,707.6,385.6,707.7,383.9z"/>
	<path d="M709.5,361.8c-0.3-0.3-0.7-0.6-0.9-0.9c-0.4-0.6-0.8-1.3-1.3-2.3C709.1,359.8,709.1,359.8,709.5,361.8L709.5,361.8z"/>
	<path d="M730.6,377.5c-0.8-0.8-2-1.5-2-2.9l-0.1,0.1C729.9,375.1,730.3,376.3,730.6,377.5L730.6,377.5z"/>
	<path d="M541.9,78.3c-0.5-1.1-0.8-1.6-1-2.1c0.7-0.4,0.9,0.1,1,0.5C542,76.9,541.9,77.3,541.9,78.3z"/>
	<path d="M505.9,57.5c-0.5,0-1,0-1.5,0.1c0-0.1,0-0.2,0-0.4c0.5,0,1,0,1.5,0C505.9,57.3,505.9,57.4,505.9,57.5z"/>
	<path d="M716.1,397.7c0.7-0.5,1,0.2,1.3,0.6C716.7,398.8,716.5,398.1,716.1,397.7z"/>
	<path d="M552.8,172.6c0.2,0.3,0.4,0.4,0.3,0.6c0,0.5-0.6,0.8-0.9,0.6c-0.1-0.1-0.2-0.4-0.1-0.5C552.3,173,552.5,172.9,552.8,172.6z
		"/>
	<path d="M590.7,247.4c0.3-0.7,0.7-1,1.4-0.7C591.9,247.5,591.4,247.8,590.7,247.4z"/>
	<path d="M683.3,377.6c0.1-0.4,0.2-0.8,0.3-1.5c0.2,0.5,0.3,0.7,0.3,0.8C683.7,377.1,683.4,377.3,683.3,377.6L683.3,377.6z"/>
	<path d="M671.2,381.1c0-0.5,0-1,0-1.5l-0.1,0.1c0.3,0.1,0.9,0.1,0.9,0.2C672.1,380.5,671.7,380.9,671.2,381.1L671.2,381.1z"/>
	<path d="M423.4,230.9c-0.1,0-0.1,0-0.2,0c0.1-0.2,0.1-0.3,0.2-0.5c0,0,0.2,0,0.2,0.1C423.6,230.6,423.5,230.8,423.4,230.9z"/>
	<path d="M737.1,386.7c-0.3-0.3-0.6-0.5-1.2-1C737,385.8,736.9,386.4,737.1,386.7L737.1,386.7z"/>
	<path d="M722.1,353.5c0.2,0.4,0.5,0.7,0.7,1.1c-0.1,0.1-0.2,0.1-0.3,0.2C722.4,354.3,722.3,353.8,722.1,353.5L722.1,353.5z"/>
	<path d="M636.1,31.7c-0.1,0.2-0.1,0.3-0.2,0.5c0-0.1-0.1-0.2-0.1-0.3c0-0.2,0.1-0.3,0.2-0.4C636.1,31.5,636.1,31.6,636.1,31.7z"/>
	<path d="M634.8,28.7c0.2,0.2,0.4,0.3,0.2,0.2C635.2,29.1,635,28.9,634.8,28.7L634.8,28.7z"/>
	<polygon points="729,452.7 728.8,452.7 728.9,452.4 	"/>
	<path d="M634.2,27.2c0.7,0.3,0.6,1,0.6,1.6l0.1-0.1C634.7,28.1,634.5,27.6,634.2,27.2L634.2,27.2z"/>
	<polygon points="691.3,379.5 691.2,379.8 691.2,379.5 	"/>
	<path d="M494.2,83.4c-0.1,0-0.1-0.1-0.2-0.1c0.1-0.1,0.2-0.1,0.3-0.2C494.3,83.2,494.3,83.3,494.2,83.4z"/>
	<polygon points="481.4,135.7 481.6,135.7 481.5,136 	"/>
	<path d="M710.1,363.3c-0.2-0.5-0.4-1-0.6-1.5l-0.1,0.1C710.1,362.1,710,362.8,710.1,363.3L710.1,363.3z"/>
	<polygon points="723.3,356.8 723.2,357 723.1,356.8 	"/>
	<path d="M721.5,351.9c0.2,0.5,0.4,1,0.6,1.6l0.1-0.1C722,352.9,721.8,352.4,721.5,351.9L721.5,351.9z"/>
	<path d="M699.3,351.6c-0.1,0-0.2,0.1-0.3,0c-0.1,0-0.1-0.2-0.1-0.3c0.1,0,0.3-0.1,0.4-0.1C699.3,351.4,699.3,351.5,699.3,351.6z"/>
	<polygon points="715.8,392.4 715.7,392.3 715.7,392.5 	"/>
	<path d="M551.2,176.5c-0.1,0.1-0.2,0.2-0.3,0.2c-0.1,0-0.1-0.1-0.2-0.2c0.1-0.1,0.2-0.2,0.3-0.2C551,176.3,551.1,176.4,551.2,176.5
		z"/>
	<path d="M413.8,249.9c0-0.1,0-0.2,0-0.3C413.8,249.7,413.7,249.8,413.8,249.9L413.8,249.9z"/>
	<path d="M722.1,395.9C722.2,395.9,722.2,395.9,722.1,395.9L722.1,395.9z"/>
	<path d="M682.5,378.2c0-0.5,0.2-0.8,0.8-0.6l-0.1-0.1C683.1,377.9,683,378.2,682.5,378.2L682.5,378.2z"/>
	<polygon points="730.6,377.5 730.8,377.6 730.6,377.5 	"/>
	<polygon points="710,363.3 710.3,363.4 710.1,363.3 	"/>
	<path d="M731.3,461.9C731.7,462.1,731.4,461.8,731.3,461.9L731.3,461.9z"/>
	<path d="M678.3,366.9c0-0.1,0-0.2,0-0.3C678.3,366.7,678.3,366.8,678.3,366.9L678.3,366.9z"/>
	<path d="M677.5,367.6c0-0.5,0.3-0.7,0.8-0.7l-0.1-0.1C678,367.1,677.7,367.3,677.5,367.6L677.5,367.6z"/>
	<path d="M391.4,181.7c0-0.4,0-0.5,0-0.6c2.8-3.2,6.3-5.2,10.3-6.6c0.6-0.2,1.4,0,2,0c0.2,0,0.3,0.3,0.4,0.5c-1.5,0.7-3,1.2-4.5,2
		c-1.4,0.7-2.7,1.5-4,2.3C394.3,180.1,393,181.1,391.4,181.7z"/>
	<path d="M315.9,253.6c0.6-2.7,1.1-5,1.6-7.5c1.3-0.2,1.9-2.2,3.8-1.8c-0.3,1.4-1.5,1.6-2.2,2.3c-0.3,2.3,0,4.7-1.8,6.6
		C317,253.4,316.6,253.4,315.9,253.6z"/>
	<path d="M418.3,201.2c0.1-0.3,0.2-0.6,0.3-0.7c2-2.1,4-4.1,6-6.2c0.2,0.2,0.3,0.3,0.3,0.4c-0.7,2.7-2.3,4.8-4.5,6.4
		C419.7,201.7,419,201.9,418.3,201.2z"/>
	<path d="M331.9,236.6c0,0.5,0.2,0.8,0.1,0.9c-0.4,0.7-0.9,1.3-1.6,2.4c-0.1-0.8-0.2-1.2-0.2-1.6
		C330.4,237.5,330.7,236.8,331.9,236.6z"/>
	<path d="M324.3,243.5c0.6-1.9,0.9-3,2.6-3.2C326.5,241.8,326.5,241.8,324.3,243.5z"/>
	<path d="M448.7,169.5c-1.8-0.2-2.1-0.7-1.3-3C447.9,167.6,448.3,168.5,448.7,169.5z"/>
	<path d="M338.8,233.9c-1.3,0.8-1.9,1.2-2.6,1.7c-0.8-0.5-0.4-1-0.1-1.4C336.7,233.5,337.4,233.5,338.8,233.9z"/>
	<path d="M386.7,185.6c-0.4,1.1-1.3,1.5-2.4,1.8C385.1,185.3,385.1,185.3,386.7,185.6z"/>
	<path d="M371.4,199.1c-0.2-0.1-0.2-0.2-0.3-0.2c0.2-0.2,0.4-0.5,0.6-0.7c0,0,0.2,0.1,0.3,0.2C371.8,198.6,371.6,198.9,371.4,199.1z
		"/>
	<path d="M428.9,181.4c0-0.1-0.1-0.2,0-0.3c0,0,0.1-0.1,0.2-0.1c0,0.1,0.1,0.2,0.1,0.3C429.1,181.3,428.9,181.4,428.9,181.4z"/>
	<polygon points="427.6,186.3 427.5,186 427.7,186 	"/>
	<path d="M379.1,191.2c0,0.1,0,0.2,0,0.2c-0.1,0.1-0.2,0.1-0.3,0.1c0-0.1,0-0.3,0-0.4C378.9,191.2,379,191.2,379.1,191.2z"/>
	<path d="M375.4,195.2c-0.1,0.1-0.2,0.2-0.3,0.3c0-0.1,0-0.1,0.1-0.2C375.3,195.3,375.4,195.3,375.4,195.2L375.4,195.2z"/>
	<path d="M455.5,168.9c-0.1,0.2-0.1,0.4-0.2,0.5C454.8,169,455.4,169.1,455.5,168.9L455.5,168.9z"/>
	<path d="M375.5,195.3c0-0.1,0.1-0.2,0.1-0.3C375.5,195.1,375.4,195.2,375.5,195.3L375.5,195.3z"/>
	<path d="M455.6,169c0.1-0.1,0.2-0.2,0.3-0.3c0,0.1,0,0.1-0.1,0.2C455.7,168.9,455.6,168.9,455.6,169L455.6,169z"/>
	<polygon points="442.5,158.5 442.5,158.7 442.4,158.7 	"/>
	<path d="M88.1,201.5c0,1.9-0.6,3.4-1.4,4.9c-0.3,0.5-0.7,0.9-1.2,1.3c-0.2,0.2-0.7,0.2-1,0.1c-0.3-0.1-0.6-0.6-0.6-0.8
		c0.4-2.2,1-4.3,3.2-5.5C87.3,201.3,87.6,201.4,88.1,201.5z"/>
	<path d="M190.5,172.2c-3.6,0.7-7.3,1.4-10.9,2.1c-0.4-0.9,0.2-0.9,0.6-1c2.9-1,5.8-1.9,8.9-1.9c0.5,0,1,0.3,1.5,0.4
		C190.6,171.9,190.5,172,190.5,172.2z"/>
	<path d="M93.1,201.2c-0.7,1.3-1.8,1.2-3.1,1.2C90.9,200.9,90.9,200.9,93.1,201.2z"/>
	<path d="M103.8,198.3c0.6-0.4,1-0.7,1.3-0.8c0.3-0.1,0.7,0.1,1.2,0.2C105.7,198.7,105,198.8,103.8,198.3z"/>
	<path d="M101.3,198.3c-0.5,0.1-0.8,0.2-1.2,0.2c-0.1,0-0.2-0.3-0.3-0.4c0.4-0.2,0.7-0.4,1.1-0.5C100.9,197.7,101.1,198,101.3,198.3
		z"/>
	<path d="M189,188.7c0.3-0.9,0.8-1.2,1.7-1C190.2,188.8,190.2,188.8,189,188.7z"/>
	<path d="M206.8,183.7c-0.2-0.1-0.3-0.2-0.5-0.3c0.1-0.1,0.3-0.4,0.3-0.4c0.3,0.1,0.5,0.3,0.7,0.5
		C207.2,183.5,207,183.6,206.8,183.7z"/>
	<path d="M158,181.6c-0.1,0.1-0.3,0.3-0.4,0.5c-0.1-0.1-0.2-0.2-0.3-0.3c0.2-0.1,0.3-0.2,0.5-0.3C157.9,181.3,158,181.5,158,181.6z"
		/>
	<path d="M97,199.8c-0.1,0.1-0.1,0.2-0.2,0.2c-0.4,0-0.8,0-1.2,0c0,0,0-0.2,0-0.2c0.4-0.1,0.8-0.2,1.3-0.2
		C96.8,199.5,96.9,199.7,97,199.8z"/>
	<path d="M174.1,176.8c0.2-0.3,0.4-0.7,0.7-0.9c0,0,0.3,0.1,0.5,0.2c0,0,0,0.3-0.1,0.3C174.8,176.5,174.4,176.6,174.1,176.8
		L174.1,176.8z"/>
	<path d="M167,179.1c0.1,0,0.2,0.1,0.3,0.1c-0.1,0.1-0.3,0.2-0.4,0.2c0,0-0.1-0.1-0.2-0.2C166.8,179.2,166.9,179.2,167,179.1z"/>
	<path d="M212.7,184.2c0,0.1,0,0.2,0,0.2c-0.2,0-0.4,0-0.6,0.1c0-0.1,0-0.3,0-0.4C212.3,184.1,212.5,184.1,212.7,184.2z"/>
	<path d="M174,176.8c-0.1,0.1-0.2,0.2-0.3,0.3c0-0.1,0-0.2,0.1-0.2C173.9,176.8,174,176.8,174,176.8L174,176.8z"/>
	<path d="M601.7,60.6c-0.7-0.4-1.5-0.7-2.2-1.1c-1.6-0.8-3-0.3-4.2,0.9c-0.8,0.8-1.6,1.8-2.1,2.8c-1.3,2.2-2.9,4-5.4,4.8
		c-0.2,0.1-0.3,0.3-0.5,0.5c-0.1,0.1-0.1,0.2-0.1,0.3c0.9,1,2.7-0.1,3.4,1.5c-0.3,1.2-1.3,1.1-2.2,1.1c-1.7,0-2.9-0.7-3.5-2.3
		c0.4-1.6,1.7-2.6,2.8-3.1c1.9-0.9,2.8-2.4,3.8-4c0.4-0.6,0.6-1.2,1.1-2.1c-1.3,0-2.2,0-3.2,0c-0.3-0.9,0.4-1.1,0.9-1.3
		c1.2-0.4,1.9-1.2,2.6-2.2c1.1-1.6,2.5-3.1,3.8-4.7c0.6,0.8-0.1,1.2-0.3,1.6c-0.3,0.6-0.8,1.2-1.2,1.7c-0.4,0.5-0.7,0.9-1.1,1.4
		c-0.3,0.5-0.6,1-1,1.5c0.5,0.2,0.8,0.4,1.1,0.4c0.3,0,0.6-0.3,0.9-0.6c1.2-1.1,2.5-1.1,4-0.6c0.9,0.3,1.9,0.4,2.7,0.8
		c1.6,0.7,3.2,1.5,4.8,2.3c0.3,2.3-1,4.1-1.9,6.3c0.4,1.5,0.8,3.2,1.2,4.9c-0.5,0.7-1.2,0.3-1.8,0c-0.7-0.3-1.1-1-1-1.7
		c0.2-1.6,0.5-3.2,0.9-4.8c0.3-1.1,0.8-2.2,1.3-3.5c-0.6-0.2-1-0.3-1.4-0.4l0.1,0.1c-0.5-0.9-1.5-0.6-2.3-0.8L601.7,60.6z"/>
	<path d="M621.5,72.5c-0.5-0.1-1,0-1.3-0.2c-0.6-0.3-1.2-0.8-1.6-1.3c-1.2-1.3-2.5-2.5-3.6-3.9c-1.1-1.3-0.8-3.1-1.1-4.7
		c-1.2-5.2-2.2-10.4-1.4-15.7c0-0.3,0.1-0.7,0.2-1.1c1,0.5,1,1.3,0.8,2.1c-0.4,2.6,0,5.2,0.5,7.7c0.7,3.9,2,7.5,4.6,10.5
		c0.3,0.3,0.5,0.8,0.7,1.2c-0.5,0.5-0.9,0.3-1.2,0c-0.7-0.6-1.3-1.3-1.9-1.9c-0.6,0.7-0.2,1.2,0.2,1.6c1.5,1.5,3.1,2.4,5.3,2.3
		l-0.1-0.1c-0.4,0.6-0.7,1.2-1.2,1.9C620.6,71.4,621,72,621.5,72.5L621.5,72.5z"/>
	<path d="M603.7,61.1c0,0.7,0.1,1.5-0.1,2c-0.8,1.7-1.7,3.3-2.4,4.7c-1.6,1-2.7,0-3.9-0.2c-0.5,0.6-1,1.2-1.7,2
		c-1.2-0.6-2.3-1.2-3.6-1.8c0.5-0.8,1.1-1.5,1.5-2.3c0.4-0.7,0.5-1.6,0.8-2.3c0.9-2,2.5-3,4.7-3c0.9,0,1.9,0.2,2.8,0.3l-0.1-0.1
		c0.5,1,1.5,0.6,2.3,0.8L603.7,61.1z M602.1,63c-1.3-1-2.7-1.5-4-1.7c-2.3,0.8-2.7,2.7-3.2,4.5c0,0.2,0.1,0.4,0.2,0.6
		c0.7-0.4,1.4-0.8,2.1-1.2c0.9,0.7,1.8,1.3,2.7,2c0.4-0.7,0.8-1.2,1-1.6c-0.1-1.2-1.6-1.4-1.2-2.5C600.5,62.8,601.2,64.6,602.1,63z"
		/>
	<path d="M615.1,103.4c-0.6-2,0.1-3.8,0.4-6.3c0.7,1,1,1.5,1.4,2.2c0.6-0.1,1.2-0.1,1.8-0.2c-0.3-2.2-3.4-1.9-3.4-4.6
		c3,2.2,6.3,3.6,7.9,7c0.3,0.6,0.8,1.1,1.2,1.7c0.3,0.4,1.1,0.5,0.9,1.3c-1.9-0.4-1.9-0.4-4-2c-1.4,0.2-2.9,0.6-4.4,0.2
		C616.6,102.5,615.8,103.1,615.1,103.4z"/>
	<path d="M586.7,76.5c-0.4,0.3-0.8,0.6-1.1,0.8c-4.8,2.7-7.2,6.9-7.3,12.4c0,1.5,0.3,3-0.4,4.6c-0.3-0.2-0.8-0.3-0.8-0.6
		c-0.7-3.4-0.7-6.8,0.5-10.1c1.4-3.9,4.2-6.4,8.2-7.5C586.1,76.2,586.3,76.4,586.7,76.5z"/>
	<path d="M597.8,39.4c-1.3,2.2-2.5,4.2-3.7,6.3c-0.2,0.4-0.6,0.9-0.6,1.3c0.3,1.8-1,2.8-1.8,4c-1.8,2.6-3.5,5.3-5.2,8
		c-0.3,0.5-0.6,0.9-1.1,1.7c-0.2-0.7-0.4-1-0.3-1.2c0.9-1.9,1.9-3.8,2.9-5.6c1.1-2,2.4-4.1,3.5-6.1c1.3-2.3,2.6-4.7,4-7.1
		C596,40,596.4,39.1,597.8,39.4z"/>
	<path d="M627.2,71.2c0.1,0.3,0.4,0.7,0.3,1c-0.2,0.5-0.8,0.4-1.2,0.1c-1.1-0.9-2.2-1.8-3.3-2.6c-0.4-0.3-1-0.5-1.5-0.7l0.1,0.1
		c-0.3-0.6-0.6-1.2-1-2c1.4-0.1,2.2,1.2,3.6,1.6c-0.1-2.8-0.2-5.5-0.3-8.2c0.8-0.2,0.9,0.2,1,0.7c0.3,1.5,0.5,3,0.7,4.5
		c0.3,1.8,0.9,3.4,2.8,4.2c0.3,0.1,0.6,0.4,1.5,0.9C628.3,71.1,627.7,71.2,627.2,71.2C627.1,71.3,626.9,71,627.2,71.2z"/>
	<path d="M646.2,87.3c-1.2-1.3-1.7-2.8-1.2-4.5c0.2-0.9,0.4-1.8,0.6-2.8c-1.3,0.4-1.2,2.1-2.5,2.3c-0.5-0.9,0.2-1.4,0.4-2
		c0.3-0.8,0.7-1.5,1-2.2c0.3-0.6,0.5-1.3,0.7-2.1c0.9,0.8,1.2,1.7,1.4,2.7c0.2,1,0.3,2.1,0.5,3.1c0.1,0.9,0.3,1.9,0.3,2.8
		C647.4,85.6,647.3,86.7,646.2,87.3z"/>
	<path d="M626,36.8c5.5,3.4,8.5,8.8,11.3,14.3c-1.1-0.6-1.8-1.6-2.5-2.6c-0.7-1-1.3-2-2-2.9c-0.8-1-1.6-2.1-2.4-3.1
		c-0.7-0.9-1.5-1.8-2.3-2.7C627.5,38.9,626.3,38.3,626,36.8z"/>
	<path d="M638.9,60c0.4,6.1,1.5,11.6,0.5,17.1c-0.1,0.3-0.3,0.6-0.7,1.2C638.3,74.4,638.3,64.1,638.9,60z"/>
	<path d="M632.3,62.1c0.5,0.9,0.9,1.5,1.5,2.5c0.3-1.1,0.5-1.9,0.8-2.7c0.1,0.2,0.2,0.4,0.2,0.5c0.1,2.9-0.3,5.8,0.9,9.2
		c-1.3-1.2-2.1-1.9-2.8-2.7c-0.3-0.4-0.5-1.1-0.5-1.6C632.3,65.7,632.3,64.1,632.3,62.1z"/>
	<path d="M625.7,92.4c0.7,0.7,1.1,1,1.5,1.5c0.8,1.1,1.7,2.2,2.4,3.4c1.2,1.9,1.6,4.1,1.4,6.3c0,0.1-0.4,0.2-0.8,0.4
		c-0.5-1.3-0.9-2.6-1.5-3.8c-0.5-1.2-1.2-2.3-1.8-3.4C626.4,95.6,625.8,94.3,625.7,92.4z"/>
	<path d="M612,73c-1.8,0.8-2.8-0.3-3.7-1.3c-1.5-1.6-2.6-3.4-2-6.3c1,1.7,1.7,3,2.6,4.2C609.7,70.8,610.8,71.8,612,73z"/>
	<path d="M590.3,43.5c-0.3,0.6-0.5,1.2-0.9,1.8c-1.2,1.9-2.4,3.7-3.6,5.6c-0.7,1.2-1.2,2.5-1.3,3.9l0.1-0.1c-0.8,0.1-1.1-0.4-1-1.1
		c0.1-0.8,0.3-1.6,0.7-2.3c1.6-2.5,3.3-5,5-7.5C589.5,43.7,590,43.6,590.3,43.5L590.3,43.5z"/>
	<path d="M608.7,64.8c1.6,0.4,2.2,2,3.5,2.8c1.3,0.8,2.5,1.7,3.9,2.6c-0.4,0.4-0.7,0.8-0.8,0.8C612.1,69.8,609.5,68.3,608.7,64.8
		L608.7,64.8z"/>
	<path d="M583.9,56.9c0,0.1,0.1,0.3,0,0.3c-1.3,2.1-2.5,4.2-3.8,6.3c-0.4,0.7-1.2,1.2-2.2,0.3c0.6-0.5,1.2-1,1.7-1.6
		c0.4-0.5,0.6-1.3,1-1.8C581.7,59.2,582.2,57.5,583.9,56.9L583.9,56.9z"/>
	<path d="M574.3,66.8c-1.7,2.5-4.4,3-7.2,3.5c-0.1-0.2-0.2-0.3-0.1-0.4c0-0.1,0.1-0.2,0.2-0.3c0.1-0.1,0.2-0.2,0.3-0.2
		C569.7,68.6,572,67.7,574.3,66.8z"/>
	<path d="M633.2,71.1c-2.4-0.8-2.4-0.8-4.4-3.5c0.8-0.2,1.1,0.6,1.6,0.9c0.5,0.3,0.9,0.7,1.3,1.1C632.3,70.1,632.8,70.6,633.2,71.1z
		"/>
	<path d="M643,73.5c0.6,1.7,1,3.6-0.8,5.1c0.2-0.9,0.4-1.8,0.5-2.6C642.8,75.1,642.9,74.3,643,73.5z"/>
	<path d="M621.8,65.4c-1.4-1.8-1-3.3-0.6-4.8C621.3,62,621.5,63.4,621.8,65.4z"/>
	<path d="M621.4,72.6c1,0.1,2.1,0.2,3.1,0.3c0.2,0.8-0.3,1-0.7,0.9C622.9,73.6,622,73.5,621.4,72.6L621.4,72.6z"/>
	<path d="M620.7,34.3c0.4,0.2,0.9,0.4,1,0.7c0.5,0.9,0.8,1.8,1.2,2.8l0.1-0.1C621.5,37,621.1,35.7,620.7,34.3L620.7,34.3z"/>
	<path d="M642,50.6c1,0.4,1.3,1.2,1.3,2.2l0.1-0.1C642.8,52,642,51.6,642,50.6L642,50.6z"/>
	<path d="M612.4,27c-0.2-0.1-0.3-0.2-0.5-0.2c0.1-0.1,0.2-0.2,0.2-0.2c0.2,0,0.4,0.1,0.5,0.2C612.5,26.9,612.5,27,612.4,27z"/>
	<path d="M622.9,37.8c0.1,0.2,0.3,0.5,0.1,0.2C623.1,38.3,623,38,622.9,37.8L622.9,37.8z"/>
	<path d="M649.8,62c0.7,0.3,0.6,0.9,0.7,1.4l0.1-0.1C650.3,62.9,650.1,62.4,649.8,62L649.8,62z"/>
	<path d="M649.9,61.9c-0.1-0.1-0.3-0.3-0.4-0.4c-0.1-0.1,0-0.2-0.1-0.3c0.1,0.1,0.3,0.1,0.3,0.2C649.8,61.6,649.8,61.8,649.9,61.9
		L649.9,61.9z"/>
	<path d="M630.1,73.2c-0.2,0-0.4,0-0.6,0c-0.1,0-0.2-0.1-0.3-0.2c0.2-0.1,0.4-0.3,0.5-0.2C629.8,72.9,629.9,73.1,630.1,73.2
		L630.1,73.2z"/>
	<path d="M584.6,54.8c0.8,0.5,0.8,0.9,0,1.4l0.1,0.1C584.7,55.8,584.7,55.3,584.6,54.8L584.6,54.8z"/>
	<path d="M590.3,43.5c0-0.5,0.3-0.8,0.8-0.6l-0.1-0.1C591,43.2,590.8,43.5,590.3,43.5L590.3,43.5z"/>
	<polygon points="595.3,50.5 595.4,50.4 595.2,50.5 	"/>
	<polygon points="595.2,50.5 595.1,50.7 595.3,50.5 	"/>
	<path d="M620.8,34.2c-0.2-0.1-0.3-0.2-0.5-0.3C620.9,33.6,620.7,34.1,620.8,34.2L620.8,34.2z"/>
	<path d="M608.8,64.7c-0.1-0.1-0.2-0.2-0.3-0.4c0.1,0,0.2,0,0.2,0.1C608.7,64.6,608.7,64.7,608.8,64.7L608.8,64.7z"/>
	<path d="M630,73.3c0.2,0.1,0.3,0.2,0.5,0.3C629.9,73.8,630.1,73.4,630,73.3L630,73.3z"/>
	<polygon points="643.3,52.8 643.5,52.8 643.4,52.7 	"/>
	<path d="M583.9,57c0-0.5,0.2-0.8,0.8-0.6l-0.1-0.1C584.6,56.7,584.4,57,583.9,57L583.9,57z"/>
	<path d="M433,113.3c-1.9,1.3-3.8,1.9-6.2,1.4c0.2-0.4,0.3-0.7,0.4-0.7C429.2,113.5,431.1,113.2,433,113.3z"/>
	<path d="M436.4,112.4c0.7,0,1.2-0.1,2.3-0.1C437.6,113.1,437.1,113.1,436.4,112.4z"/>
	<path d="M476.3,83.1c-1.6,2-3.7,1.3-5.2,2C472.4,83.5,474,83.1,476.3,83.1z"/>
	<path d="M464.9,87.2c-0.1,0-0.2,0.1-0.3,0.1c0,0,0-0.1-0.1-0.2c0.1,0,0.2-0.1,0.3,0C464.8,87,464.8,87.1,464.9,87.2z"/>
	<path d="M354.1,78.9c-1.6-0.8-3.1-1.5-4.7-2.4c-0.1-0.1-0.1-0.4-0.1-0.6l-0.1,0.1c1.6,0.8,3.1,1.5,4.7,2.3
		C354,78.5,354,78.8,354.1,78.9L354.1,78.9z"/>
	<path d="M359.2,81.7c-1.5-0.1-2.7-0.8-3.5-2.1l-0.1,0.1C357.1,79.8,358.2,80.6,359.2,81.7L359.2,81.7z"/>
	<path d="M352.8,81.7c-1.4,0.1-2.5-0.6-3.5-1.4l-0.1,0.1C350.5,80.3,351.7,80.9,352.8,81.7L352.8,81.7z"/>
	<path d="M360.5,86c-0.9-0.3-1.8-0.5-2-1.5l-0.1,0.1c0.8,0.3,1.8,0.5,2,1.5L360.5,86z"/>
	<path d="M362.7,78.3c0.8,0.5,1.4,1.1,1.3,2.1l0.1-0.1C363.3,79.8,362.8,79.1,362.7,78.3L362.7,78.3z"/>
	<path d="M347.8,79.6c-0.8,0-1.6,0.1-2.1-0.7l-0.1,0.1C346.4,79.1,347.2,78.8,347.8,79.6L347.8,79.6z"/>
	<path d="M347.8,75.3c-0.6,0-1.2,0-1.3-0.7l-0.1,0.1C346.9,74.8,347.5,74.8,347.8,75.3L347.8,75.3z"/>
	<path d="M347.7,75.4c0.6,0,1.2,0.1,1.5,0.7l0.1-0.1C348.6,76.1,348,76.2,347.7,75.4L347.7,75.4z"/>
	<path d="M346.5,74.6c-0.5-0.2-1-0.4-1.4-0.6l-0.1,0C345.4,74.2,345.9,74.5,346.5,74.6L346.5,74.6z"/>
	<path d="M369,82.6c0.2,0.2,0.4,0.3,0.2,0.2C369.2,83,369.1,82.8,369,82.6L369,82.6z"/>
	<path d="M357,83.8c-0.6,0-1.2,0.1-1.4-0.7l-0.1,0.1C356.1,83.3,356.7,83.2,357,83.8L357,83.8z"/>
	<path d="M358.5,84.5c-0.7,0.1-1.3,0.2-1.5-0.6l-0.1,0.1C357.4,84.1,357.9,84.4,358.5,84.5L358.5,84.5z"/>
	<path d="M362.1,86.6c-0.7,0.2-1.2,0-1.6-0.6l-0.1,0.1C361,86,361.6,86.1,362.1,86.6L362.1,86.6z"/>
	<path d="M347.7,79.7c0.6,0.1,1.3-0.1,1.5,0.7l0.1-0.1C348.7,80.2,348,80.4,347.7,79.7L347.7,79.7z"/>
	<path d="M355.6,79.6c-0.6,0.1-1.2,0-1.5-0.6L354,79C354.7,78.9,355.3,78.9,355.6,79.6L355.6,79.6z"/>
	<path d="M364.8,81.1c0.1,0.2,0.3,0.4,0.1,0.2C365,81.5,364.9,81.2,364.8,81.1L364.8,81.1z"/>
	<path d="M369,82.5c-0.1-0.2-0.3-0.4-0.2-0.2C368.8,82.1,368.9,82.3,369,82.5L369,82.5z"/>
	<path d="M345.7,78.9c-0.2,0-0.4,0-0.7-0.1c-0.1,0-0.2-0.1-0.3-0.1c0.2-0.1,0.4-0.2,0.5-0.2C345.4,78.6,345.5,78.8,345.7,78.9
		L345.7,78.9z"/>
	<path d="M354.2,82.4c-0.6,0-1.2,0-1.4-0.7l-0.1,0.1C353.2,81.9,353.9,81.7,354.2,82.4L354.2,82.4z"/>
	<path d="M355.7,83.1c-0.6,0-1.2,0.1-1.5-0.7l-0.1,0.1C354.7,82.5,355.3,82.5,355.7,83.1L355.7,83.1z"/>
	<polygon points="342.7,77.8 343,77.8 342.9,77.9 	"/>
	<polygon points="361.2,76.8 361.1,76.7 361.1,76.9 	"/>
	<path d="M362,77.4c-0.2-0.2-0.5-0.5-0.7-0.7l-0.1,0.1C361.4,77.1,361.6,77.3,362,77.4L362,77.4z"/>
	<path d="M362.7,78.2c-0.3-0.2-0.5-0.5-0.8-0.7l-0.1,0.1C362.1,77.8,362.4,78,362.7,78.2L362.7,78.2z"/>
	<path d="M359.1,81.8c0.1,0.1,0.2,0.2,0.3,0.3c-0.1,0-0.2,0-0.2-0.1C359.2,81.9,359.2,81.8,359.1,81.8L359.1,81.8z"/>
	<polygon points="345,74 344.8,73.9 345,74 	"/>
	<path d="M364.9,81c-0.5,0.1-0.7-0.2-0.8-0.7l-0.1,0.1C364.3,80.6,364.5,80.8,364.9,81L364.9,81z"/>
	<path d="M174.4,507.1c0.2,2.7-0.5,4.7-2.1,6.3c-0.2,0.3-1,0.3-1.3,0.1c-0.3-0.2-0.6-0.8-0.5-1.2c0.4-1.6,1-3.2,2.2-4.4
		C173.1,507.6,173.6,507.5,174.4,507.1z"/>
	<path d="M266,480.3c3.2-2.5,7.5-3.3,11-2.5c-0.1,0.1-0.3,0.4-0.4,0.5C273.1,478.9,269.6,479.6,266,480.3z"/>
	<path d="M176.2,508.1c0.9-1.1,1.9-1.7,3.4-1C178,508.6,178,508.6,176.2,508.1z"/>
	<path d="M183.7,505.3c-0.6,0.9-1.2,1.3-2.1,0.8C181.9,505.2,182.6,505.1,183.7,505.3z"/>
	<path d="M192.9,504.2c-0.8,0.1-1.4,0.2-2.3,0.4C191.6,503.3,191.6,503.3,192.9,504.2z"/>
	<path d="M277.7,493.9c-0.6,0.5-1,0.8-1.3,1c-0.2,0.1-0.5-0.1-0.8-0.2c0.2-0.3,0.3-0.7,0.5-0.7C276.5,493.8,276.9,493.9,277.7,493.9
		z"/>
	<path d="M261.9,482.3c-0.5,0.3-0.9,0.5-1.5,0.8c-0.1-1.2,0.7-1,1-1.4C261.6,481.9,261.7,482.1,261.9,482.3z"/>
	<path d="M299.6,490.8c-0.4-0.1-0.7-0.2-1.1-0.3c0,0,0.1-0.4,0.1-0.5c0.4,0.2,0.7,0.3,1.1,0.5C299.7,490.6,299.7,490.7,299.6,490.8z
		"/>
	<path d="M187.8,504.3c-0.5,0-1,0-1.4,0c0-0.1,0-0.2,0-0.4c0.5,0,1,0,1.4,0C187.8,504,187.8,504.2,187.8,504.3z"/>
	<path d="M293.2,488.9c0.1,0.1,0.2,0.2,0.4,0.3c-0.2,0.1-0.4,0.1-0.6,0.2c-0.1,0-0.2-0.1-0.2-0.2C292.9,489.1,293.1,489,293.2,488.9
		z"/>
	<polygon points="237.2,490.5 237.2,490.7 236.9,490.6 	"/>
	<path d="M243.9,487.7c0.1,0,0.2-0.1,0.3-0.1c0,0.1,0.1,0.3,0.1,0.4c-0.1,0-0.2,0-0.3,0C243.9,487.9,243.9,487.7,243.9,487.7z"/>
	<path d="M719.3,514c-0.3,0.2-0.7,0.7-1.1,0.7c-0.9,0.1-1.9,0.2-2.8,0c-1.9-0.6-3.7-1.3-5.6-2.1c-0.3-0.1-0.6-0.7-0.7-1.1
		c0-0.7,0.5-1,1.1-1.1c0.3-0.1,0.7-0.1,1,0c2.5,0.9,5,1.9,7.5,2.9C719,513.4,719.1,513.7,719.3,514z"/>
	<path d="M650.6,446.8c-4-2.1-6.2-4.3-7-6.7c0.3-0.1,0.7-0.4,0.9-0.3c1.5,0.3,2.3,1.5,3.3,2.5C649,443.4,650.2,444.6,650.6,446.8z"
		/>
	<path d="M771.6,569.8c2.6,0.9,4.9,1.9,7.5,4C775.4,573.8,773.2,572.2,771.6,569.8z"/>
	<path d="M661.3,455.1c1.9-0.6,2.5,0.6,3.7,1.5C663.1,457.1,662.3,456.1,661.3,455.1z"/>
	<path d="M659.4,454.5c-1.2,0.4-2-0.1-2.7-1.2C658.1,453.4,658.1,453.4,659.4,454.5z"/>
	<path d="M653,450c1-0.3,1.4,0.3,1.7,1.1C653.7,451.1,653.7,451.1,653,450z"/>
	<path d="M641.3,433.7c0.2,0.5,0.4,0.9,0.4,1.3c0,0.1-0.3,0.4-0.5,0.3c-0.5-0.1-0.7-0.5-0.6-1C640.8,434.1,641,434,641.3,433.7z"/>
	<path d="M641.4,403.2c0.4,0.3,0.8,0.6,1.2,0.9C641.7,404.6,641.4,404.1,641.4,403.2z"/>
	<path d="M767.4,567.3c-0.2,0.2-0.5,0.4-0.5,0.4c-0.2-0.2-0.4-0.4-0.6-0.6c0.1-0.1,0.2-0.2,0.3-0.2
		C766.9,567,767.1,567.1,767.4,567.3z"/>
	<path d="M707.7,509.1c0.1-0.1,0.3-0.3,0.4-0.3c0.1,0,0.3,0.2,0.4,0.3c-0.1,0.1-0.2,0.2-0.2,0.2
		C708.1,509.2,707.9,509.2,707.7,509.1z"/>
	<path d="M614.3,432.9c0.3,0,0.6,0.1,0.9,0.1c-0.1,0.1-0.1,0.3-0.2,0.4C614.8,433.2,614.6,433,614.3,432.9L614.3,432.9z"/>
	<path d="M607.7,430.2c-0.1,0-0.1-0.1-0.2-0.1c0.1-0.1,0.2-0.1,0.2-0.2C607.8,430.1,607.8,430.2,607.7,430.2z"/>
	<path d="M725.4,516.9c-0.1,0-0.2,0.1-0.3,0.1c0-0.1-0.1-0.3-0.1-0.4c0.1,0,0.2,0,0.3,0.1C725.4,516.7,725.4,516.8,725.4,516.9z"/>
	<path d="M763.1,565c0,0.1-0.1,0.1-0.1,0.2c-0.1-0.1-0.2-0.1-0.3-0.2c0.1-0.1,0.2-0.2,0.2-0.2C763,564.8,763.1,565,763.1,565z"/>
	<path d="M614.4,432.8c-0.2-0.1-0.3-0.2-0.5-0.3C614.4,432.2,614.4,432.5,614.4,432.8L614.4,432.8z"/>
	<path d="M553.9,375.3c0,0.2,0.1,0.6,0.1,0.6c-3.8,2.1-8,2.1-12.2,2.2c0.1-0.4,0.2-0.7,0.3-0.8C543.8,376.5,550.8,375.3,553.9,375.3
		z"/>
	<path d="M556.4,426.3c-0.2-1.8,0.8-2.9,2-4.1c0.2,0.5,0.5,0.8,0.4,1C558.3,424.4,557.8,425.6,556.4,426.3z"/>
	<path d="M548.3,428.1c0.6-1.4,0.8-2,1.1-2.8C550.1,426.7,550.1,426.7,548.3,428.1z"/>
	<path d="M535.2,379.5c-0.8,0-1.5,0-2.3,0c0-0.1,0-0.2-0.1-0.3c0.3-0.1,0.6-0.2,0.9-0.2c0.4,0,0.9,0,1.3,0.1
		C535.1,379.2,535.1,379.3,535.2,379.5z"/>
	<path d="M524.5,379.7c1.2,0,1.9,0,2.7,0C526.2,380.1,526.2,380.1,524.5,379.7z"/>
	<path d="M535.6,429.1c-0.2,0.3-0.3,0.6-0.4,0.6c-0.3,0-0.6-0.1-0.9-0.2c0.1-0.2,0.2-0.5,0.3-0.5C535,428.9,535.3,429,535.6,429.1z"
		/>
	<path d="M516.7,378.8c-0.4,0-0.8-0.1-1.2-0.1c0-0.1,0-0.2,0-0.3c0.4,0,0.8,0.1,1.2,0.1C516.7,378.5,516.7,378.6,516.7,378.8z"/>
	<path d="M520.6,379.2c0.4,0,0.8,0,1.1,0c0,0.1,0,0.2,0,0.2c-0.4,0-0.8,0-1.1,0C520.6,379.4,520.6,379.3,520.6,379.2z"/>
	<path d="M554.5,429.6c0.1,0.1,0.2,0.2,0.2,0.2c0,0.2-0.1,0.4-0.2,0.5c-0.1-0.1-0.2-0.2-0.2-0.2
		C554.4,429.9,554.5,429.8,554.5,429.6z"/>
	<path d="M614.1,375.6c4-0.5,9.9,1,12.8,3.1c-0.1,0.6-0.5,0.7-1,0.7c-0.2,0-0.5,0-0.7,0C621.4,378.6,617.8,377.5,614.1,375.6z"/>
	<path d="M608,362.6c-1.4-0.3-2.5,0.7-3.7,1.3c-0.3-1,0.5-1,0.8-1.3c0.4-0.4,0.7-0.8,1-1.2C607,361.5,608,361.5,608,362.6L608,362.6
		z"/>
	<path d="M581.6,421c1.6-0.6,3.1-0.5,5-0.2C584.6,421.7,584.6,421.7,581.6,421z"/>
	<path d="M608.5,373.7c1.2-0.7,2.1,0.1,3.4,0.7C610.4,374.4,609.3,374.8,608.5,373.7z"/>
	<path d="M602.5,365.1c-1.1,0.4-1.8,0.2-2.2-0.9C601.3,363.8,602,364,602.5,365.1z"/>
	<path d="M596.9,376.1c-0.5,0.1-1,0.2-1.6,0.4c0-0.2-0.1-0.6-0.1-0.6c0.5-0.2,1-0.3,1.6-0.5C596.8,375.7,596.8,375.9,596.9,376.1z"
		/>
	<path d="M600.8,375.2c-0.7,0-1.3,0-2,0c0-0.1,0-0.2,0-0.4c0.7-0.1,1.4-0.1,2-0.2C600.8,374.9,600.8,375,600.8,375.2z"/>
	<path d="M575.2,421c-0.2,0.1-0.5,0.3-0.5,0.2c-0.2-0.2-0.2-0.4-0.3-0.7c0.2,0,0.4-0.2,0.6-0.1C575.1,420.5,575.1,420.8,575.2,421z"
		/>
	<path d="M604.6,374.2c0,0.1,0.1,0.1,0.1,0.2c-0.1,0-0.2,0.1-0.3,0.1c0,0-0.1-0.1-0.1-0.2C604.4,374.3,604.5,374.2,604.6,374.2z"/>
	<path d="M608,362.6c0.1,0,0.2,0,0.3,0C608.2,362.6,608.1,362.6,608,362.6L608,362.6z"/>
	<path d="M471.2,441.2c-1.6-1.8-2.1-4-2.2-6.3L469,435c0.7-0.6,0.7-1.4,0.8-2.2l-0.1,0.1c0.1,0.2,0.4,0.4,0.4,0.5
		C470,436.1,470.8,438.6,471.2,441.2L471.2,441.2z"/>
	<path d="M466.9,420c1.4,2.7,2.2,5.5,2.1,8.5l0.1-0.1c-0.1,0-0.3-0.1-0.3-0.1c-0.6-2.6-1.3-5.1-1.9-7.7
		C466.9,420.4,467,420.1,466.9,420L466.9,420z"/>
	<path d="M450.8,369c-0.6,0.5-1.3,1-1.9,1.4c-0.6-0.5-0.3-1,0.1-1.2c0.5-0.3,1-0.5,1.5-0.7C450.6,368.6,450.7,368.8,450.8,369z"/>
	<path d="M469,428.5c0.2,0.4,0.6,0.8,0.6,1.2c0.1,1,0.1,2.1,0.1,3.1l0.1-0.1c-0.3,0-0.5,0-0.8,0l0.1,0.1
		C469.1,431.3,469.1,429.9,469,428.5L469,428.5z"/>
	<path d="M455.6,425c0.4-0.5,0.9-0.9,1.3-1.4l-0.1,0.1c0.3,0.3,0.5,0.6,1.1,1.2C456.8,424.9,456.1,424.9,455.6,425L455.6,425z"/>
	<path d="M457.6,368.2c-0.5,0.5-1.1,0.9-1.8,1.5C455.8,368.3,455.8,368.3,457.6,368.2L457.6,368.2z"/>
	<path d="M469.1,434.9c-0.9-1-0.9-1,0-2.1l-0.1-0.1C469,433.5,469,434.2,469.1,434.9L469.1,434.9z"/>
	<path d="M456.3,421.4c0.2,0.8,0.4,1.5,0.5,2.3l0.1-0.1C456.8,422.9,456.6,422.1,456.3,421.4L456.3,421.4z"/>
	<path d="M461.3,417.8c-0.3-0.7-0.5-1.3-0.8-2l-0.1,0.1C461.3,416.3,460.9,417.2,461.3,417.8L461.3,417.8z"/>
	<path d="M459.7,413.7c1.1,0.5,0.7,1.4,0.7,2.2l0.1-0.1C459.8,415.2,459.8,414.4,459.7,413.7L459.7,413.7z"/>
	<path d="M459.8,413.6c-0.9-0.5-0.8-1.3-0.7-2.1l-0.1,0.1C460.1,412,459.8,412.9,459.8,413.6L459.8,413.6z"/>
	<path d="M471.1,441.3c0.9,0.5,0.6,1.4,0.7,2.2l0.1-0.1C471,442.9,471.1,442,471.1,441.3L471.1,441.3z"/>
	<path d="M461.2,417.8c0.1,0.2,0.2,0.4,0.4,0.6c-0.1-0.1-0.1-0.2-0.2-0.3C461.4,418,461.3,417.9,461.2,417.8L461.2,417.8z"/>
	<path d="M466.2,417.9c-0.2-0.1-0.4-0.3-0.5-0.4c0-0.1,0.1-0.3,0.2-0.5c0,0.1,0.1,0.2,0.1,0.3C466.1,417.5,466.1,417.8,466.2,417.9
		L466.2,417.9z"/>
	<path d="M465.1,415c0,0,0.1,0.1,0.1,0.1c0,0.1,0,0.2,0,0.3c0,0-0.1-0.1-0.1-0.1C465,415.1,465,415,465.1,415z"/>
	<path d="M459.1,411.5c-0.5-0.2-0.7-0.5-0.2-1.3C459,410.9,459,411.2,459.1,411.5L459.1,411.5z"/>
	<path d="M471.8,443.4c0.2,0.1,0.4,0.2,0.5,0.4c0.1,0.1-0.1,0.3-0.2,0.5c0-0.1-0.1-0.2-0.1-0.3C471.9,443.8,471.9,443.6,471.8,443.4
		L471.8,443.4z"/>
	<path d="M458,426.2c0,0,0.1,0.1,0.1,0.1c-0.1,0.1-0.1,0.1-0.2,0.2C458,426.3,458,426.2,458,426.2z"/>
	<path d="M455.5,424.9c-0.4,0.5-0.4,0.5-1,0.3C454.9,425.1,455.3,425.1,455.5,424.9L455.5,424.9z"/>
	<polygon points="456.4,421.4 456.2,421.3 456.3,421.4 	"/>
	<path d="M457.7,368.3c0.1-0.1,0.2-0.2,0.3-0.3c0,0.1,0,0.2-0.1,0.2C457.9,368.2,457.7,368.2,457.7,368.3L457.7,368.3z"/>
	<path d="M454.3,503.7c-0.1-0.5-0.3-1-0.1-1.3c0.7-1.6,1.2-2.1,3.1-2.8C457.2,501.5,456.5,502.5,454.3,503.7z"/>
	<path d="M458.4,498.7c0.8-1.4,1.9-1.6,3.3-1.2C460.4,498.8,460.4,498.8,458.4,498.7z"/>
	<path d="M465.4,495.7c-0.3,0.3-0.4,0.5-0.7,0.7c-0.1,0-0.3-0.2-0.5-0.3c0.1-0.2,0.2-0.4,0.4-0.5
		C464.8,495.5,465.1,495.6,465.4,495.7z"/>
	<path d="M492.6,493.5c-0.1,0-0.2,0.1-0.3,0.1c-0.1,0-0.2-0.1-0.2-0.1C492.3,493.5,492.5,493.5,492.6,493.5z"/>
	<polygon points="468.3,493.8 468.2,493.9 468.4,493.9 	"/>
	<path d="M468.4,493.9c0-0.2,0.1-0.4,0.1-0.6c0.1,0,0.2,0.1,0.3,0.1c-0.2,0.1-0.3,0.2-0.5,0.4L468.4,493.9z"/>
	<path d="M471.8,491.3c-0.1,0.1-0.2,0.1-0.2,0.2c0-0.2,0-0.3,0-0.5C471.6,491.2,471.7,491.2,471.8,491.3z"/>
	<polygon points="544.6,469.9 544.7,470.1 544.4,470.1 	"/>
	<polygon points="540.5,469 540.7,469 540.6,468.9 	"/>
	<path d="M591.7,536.3c-0.3,0.2-0.5,0.4-0.2,0.1C591.1,536.4,591.4,536.4,591.7,536.3L591.7,536.3z"/>
	<path d="M591.8,536.4c0.1-1,0.8-0.7,1.4-0.7l-0.1-0.1C592.8,536.3,592.2,536.2,591.8,536.4L591.8,536.4z"/>
	<path d="M593.2,535.7c0.1-0.1,0.2-0.2,0.3-0.3c0,0.1,0,0.2-0.1,0.2C593.3,535.6,593.2,535.6,593.2,535.7L593.2,535.7z"/>
</g>
</svg>
