<?xml version="1.0" encoding="utf-8"?>
<!-- Generator: Adobe Illustrator 21.0.0, SVG Export Plug-In . SVG Version: 6.00 Build 0)  -->
<svg version="1.2" baseProfile="tiny" id="Layer_2" xmlns="http://www.w3.org/2000/svg" xmlns:xlink="http://www.w3.org/1999/xlink"
	 x="0px" y="0px" viewBox="0 0 900 600" xml:space="preserve">
<svg style="overflow: visible;" viewBox="00 900 600" xmlns="http://www.w3.org/2000/svg"><g fill="#e6e6e6"><path d="m206.8 163.6c0-5.1 4.1-9.2 9.3-9.2s9.2 4.2 9.2 9.2-4.1 9.2-9.3 9.2-9.2-4.1-9.2-9.2zm17.3-.1c0-4.5-3.5-8.2-8.2-8.2s-8.2 3.7-8.2 8.3c0 4.5 3.5 8.2 8.2 8.2s8.2-3.7 8.2-8.3zm-13 0c0-2.8 2.1-5.1 5.1-5.1 1.9 0 2.9.6 3.9 1.5l-1.4 1.7c-.8-.7-1.5-1.1-2.5-1.1-1.7 0-2.8 1.4-2.8 3.1s1.1 3 2.8 3c1.1 0 1.7-.5 2.5-1.1l1.4 1.4c-1.1 1.1-2.1 1.7-4 1.7-2.9 0-5-2.3-5-5.1z"/><path d="m226.6 154.7h3.4l4.2 13.2 4.4-13.3h2.6l4.4 13.3 4.2-13.2h3.3l-6.2 18h-2.7l-4.4-12.8-4.4 12.8h-2.7z"/><path d="m252.8 165.8c0-3.9 3.1-7 7.2-7 4.2 0 7.2 3.2 7.2 7s-3.1 7-7.3 7c-4 0-7.1-3.1-7.1-7zm11.3 0c0-2.3-1.7-4.3-4.2-4.3s-4.1 2-4.1 4.3 1.7 4.3 4.1 4.3c2.7.1 4.2-1.9 4.2-4.3z"/><path d="m269.5 159.1h3.1v3c.8-2 2.4-3.4 4.8-3.3v3.2h-.2c-2.7 0-4.6 1.7-4.6 5.4v5.1h-3.1z"/><path d="m279.1 153.9h3.1v11.1l5.6-6h3.8l-5.4 5.5 5.5 8h-3.5l-4.1-5.8-1.9 2v3.9h-3.1z"/><path d="m291.7 165.8c0-3.9 3.1-7 7.2-7 4.2 0 7.2 3.2 7.2 7s-3.1 7-7.3 7c-4 0-7.1-3.1-7.1-7zm11.3 0c0-2.3-1.7-4.3-4.2-4.3s-4.1 2-4.1 4.3 1.7 4.3 4.1 4.3c2.6.1 4.2-1.9 4.2-4.3z"/><path d="m308.2 167.6v-8.6h3.1v7.6c0 2.1 1.1 3.3 2.9 3.3s3-1.3 3-3.3v-7.6h3.1v13.4h-3.1v-2.1c-.8 1.3-2.1 2.3-4.2 2.3-3.1.2-4.8-1.8-4.8-5z"/><path d="m323.9 168.8v-7.1h-1.7v-2.6h1.7v-3.7h3.1v3.7h3.6v2.6h-3.6v6.6c0 1.2.6 1.7 1.7 1.7.7 0 1.3-.2 1.9-.5v2.5c-.8.5-1.7.7-2.8.7-2.3 0-3.9-.9-3.9-3.9z"/><path d="m333.2 154.7h3.2v15h9.4v2.9h-12.5v-17.9z"/><path d="m356 172.5v-1.7c-.9 1.1-2.3 2-4.4 2-2.6 0-4.8-1.4-4.8-4.2 0-3 2.3-4.4 5.4-4.4 1.7 0 2.6.2 3.7.5v-.2c0-1.9-1.2-2.9-3.3-2.9-1.5 0-2.6.3-3.9.8l-.8-2.5c1.5-.7 2.9-1.1 5.1-1.1 4 0 5.9 2.1 5.9 5.7v8zm.1-5.6c-.8-.3-1.9-.5-3.1-.5-2 0-3.1.8-3.1 2.1s1.1 2 2.6 2c2 0 3.5-1.1 3.5-2.9z"/><path d="m364.9 170.5v2.1h-3.1v-18.7h3.1v7.4c1-1.4 2.4-2.5 4.5-2.5 3.2 0 6.3 2.5 6.3 7s-3.1 7-6.3 7c-2.1 0-3.5-1.1-4.5-2.3zm7.7-4.7c0-2.6-1.7-4.3-3.9-4.3s-3.9 1.7-3.9 4.4c0 2.6 1.8 4.3 3.9 4.3s3.9-1.7 3.9-4.4z"/><path d="m376.9 170.8 1.4-2.1c1.4 1.1 3 1.7 4.4 1.7s2.1-.5 2.1-1.5-1.3-1.4-2.8-1.8c-.1 0-.2-.1-.2-.1-2-.6-4.2-1.4-4.2-4s2.1-4.1 4.8-4.1c1.7 0 3.5.6 5 1.5l-1.2 2.2c-1.3-.8-2.6-1.3-3.8-1.3s-1.9.5-1.9 1.4 1.3 1.4 2.8 1.8c.1 0 .2.1.2.1 2 .6 4.2 1.5 4.2 4 0 2.9-2.2 4.2-5 4.2-1.9 0-4-.7-5.8-2z"/><path d="m505.6 163.6c0-5.1 4.1-9.2 9.3-9.2s9.2 4.2 9.2 9.2-4.1 9.2-9.3 9.2-9.2-4.1-9.2-9.2zm17.4-.1c0-4.5-3.5-8.2-8.2-8.2s-8.2 3.7-8.2 8.3c0 4.5 3.5 8.2 8.2 8.2s8.2-3.7 8.2-8.3zm-13.1 0c0-2.8 2.1-5.1 5.1-5.1 1.9 0 2.9.6 3.9 1.5l-1.4 1.7c-.8-.7-1.5-1.1-2.5-1.1-1.7 0-2.8 1.4-2.8 3.1s1.1 3 2.8 3c1.1 0 1.7-.5 2.5-1.1l1.4 1.4c-1.1 1.1-2.1 1.7-4 1.7-2.9 0-5-2.3-5-5.1z"/><path d="m525.4 154.7h3.4l4.2 13.2 4.4-13.3h2.6l4.4 13.3 4.2-13.2h3.3l-6.2 18h-2.7l-4.4-12.8-4.4 12.8h-2.7z"/><path d="m551.7 165.8c0-3.9 3.1-7 7.2-7 4.2 0 7.2 3.2 7.2 7s-3.1 7-7.3 7c-4.1 0-7.1-3.1-7.1-7zm11.2 0c0-2.3-1.7-4.3-4.2-4.3s-4.1 2-4.1 4.3 1.7 4.3 4.1 4.3c2.7.1 4.2-1.9 4.2-4.3z"/><path d="m568.3 159.1h3.1v3c.8-2 2.4-3.4 4.8-3.3v3.2h-.2c-2.7 0-4.6 1.7-4.6 5.4v5.1h-3.1z"/><path d="m577.9 153.9h3.1v11.1l5.6-6h3.8l-5.4 5.5 5.5 8h-3.5l-4.1-5.8-1.9 2v3.9h-3.1z"/><path d="m590.6 165.8c0-3.9 3.1-7 7.2-7 4.2 0 7.2 3.2 7.2 7s-3.1 7-7.3 7c-4.1 0-7.1-3.1-7.1-7zm11.2 0c0-2.3-1.7-4.3-4.2-4.3s-4.1 2-4.1 4.3 1.7 4.3 4.1 4.3c2.6.1 4.2-1.9 4.2-4.3z"/><path d="m607 167.6v-8.6h3.1v7.6c0 2.1 1.1 3.3 2.9 3.3s3-1.3 3-3.3v-7.6h3.1v13.4h-3.1v-2.1c-.8 1.3-2.1 2.3-4.2 2.3-3 .2-4.8-1.8-4.8-5z"/><path d="m622.7 168.8v-7.1h-1.7v-2.6h1.7v-3.7h3.1v3.7h3.6v2.6h-3.6v6.6c0 1.2.6 1.7 1.7 1.7.7 0 1.3-.2 1.9-.5v2.5c-.8.5-1.7.7-2.8.7-2.3 0-3.9-.9-3.9-3.9z"/><path d="m632 154.7h3.2v15h9.4v2.9h-12.6z"/><path d="m654.8 172.5v-1.7c-.9 1.1-2.3 2-4.4 2-2.6 0-4.8-1.4-4.8-4.2 0-3 2.3-4.4 5.4-4.4 1.7 0 2.6.2 3.7.5v-.2c0-1.9-1.2-2.9-3.3-2.9-1.5 0-2.6.3-3.9.8l-.8-2.5c1.5-.7 2.9-1.1 5.1-1.1 4 0 5.9 2.1 5.9 5.7v8zm.1-5.6c-.8-.3-1.9-.5-3.1-.5-2 0-3.1.8-3.1 2.1s1.1 2 2.6 2c2 0 3.5-1.1 3.5-2.9z"/><path d="m663.7 170.5v2.1h-3.1v-18.7h3.1v7.4c1-1.4 2.4-2.5 4.5-2.5 3.2 0 6.3 2.5 6.3 7s-3.1 7-6.3 7c-2.1 0-3.5-1.1-4.5-2.3zm7.8-4.7c0-2.6-1.7-4.3-3.9-4.3-2.1 0-3.9 1.7-3.9 4.4 0 2.6 1.8 4.3 3.9 4.3s3.9-1.7 3.9-4.4z"/><path d="m675.8 170.8 1.4-2.1c1.4 1.1 3 1.7 4.4 1.7s2.1-.5 2.1-1.5-1.3-1.4-2.8-1.8c-.1 0-.2-.1-.2-.1-2-.6-4.2-1.4-4.2-4s2.1-4.1 4.8-4.1c1.7 0 3.5.6 5 1.5l-1.2 2.2c-1.3-.8-2.6-1.3-3.8-1.3s-1.9.5-1.9 1.4 1.3 1.4 2.8 1.8c.1 0 .2.1.2.1 2 .6 4.2 1.5 4.2 4 0 2.9-2.2 4.2-5 4.2-2 0-4.1-.7-5.8-2z"/><path d="m61 298.6c0-5.1 4.1-9.2 9.3-9.2s9.2 4.2 9.2 9.2-4.1 9.2-9.3 9.2c-5.1 0-9.2-4.2-9.2-9.2zm17.4-.1c0-4.5-3.5-8.2-8.2-8.2s-8.2 3.7-8.2 8.3c0 4.5 3.5 8.2 8.2 8.2s8.2-3.7 8.2-8.3zm-13.1-.1c0-2.8 2.1-5.1 5.1-5.1 1.9 0 2.9.6 3.9 1.5l-1.4 1.7c-.8-.7-1.5-1.1-2.5-1.1-1.7 0-2.8 1.4-2.8 3.1s1.1 3 2.8 3c1.1 0 1.7-.5 2.5-1.1l1.4 1.4c-1.1 1.1-2.1 1.7-4 1.7-2.8.1-5-2.2-5-5.1z"/><path d="m80.9 289.7h3.4l4.2 13.2 4.4-13.3h2.6l4.4 13.3 4.2-13.2h3.3l-6.2 18h-2.7l-4.4-12.8-4.4 12.8h-2.7z"/><path d="m107.1 300.8c0-3.9 3.1-7 7.2-7s7.2 3.2 7.2 7-3.1 7-7.3 7c-4 0-7.1-3.1-7.1-7zm11.3 0c0-2.3-1.7-4.3-4.2-4.3s-4.1 2-4.1 4.3 1.7 4.3 4.1 4.3c2.6.1 4.2-1.9 4.2-4.3z"/><path d="m123.7 294h3.1v3c.8-2 2.4-3.4 4.8-3.3v3.2h-.2c-2.7 0-4.6 1.7-4.6 5.4v5.1h-3.1z"/><path d="m133.4 288.9h3.1v11.1l5.6-6h3.8l-5.4 5.5 5.5 8h-3.5l-4.1-5.8-1.9 1.9v3.9h-3.1z"/><path d="m146 300.8c0-3.9 3.1-7 7.2-7s7.2 3.2 7.2 7-3.1 7-7.3 7c-4.1 0-7.1-3.1-7.1-7zm11.2 0c0-2.3-1.7-4.3-4.2-4.3s-4.1 2-4.1 4.3 1.7 4.3 4.1 4.3c2.6.1 4.2-1.9 4.2-4.3z"/><path d="m162.4 302.6v-8.6h3.1v7.6c0 2.1 1.1 3.3 2.9 3.3s3-1.3 3-3.3v-7.6h3.1v13.4h-3.1v-2.1c-.8 1.3-2.1 2.3-4.2 2.3-3 .2-4.8-1.8-4.8-5z"/><path d="m178.1 303.8v-7.1h-1.7v-2.7h1.7v-3.7h3.1v3.7h3.6v2.6h-3.6v6.6c0 1.2.6 1.7 1.7 1.7.7 0 1.3-.2 1.9-.5v2.5c-.8.5-1.7.7-2.8.7-2.3.1-3.9-.9-3.9-3.8z"/><path d="m187.4 289.7h3.2v15h9.4v2.9h-12.5v-17.9z"/><path d="m210.2 307.5v-1.7c-.9 1.1-2.3 2-4.4 2-2.6 0-4.8-1.4-4.8-4.2 0-3 2.3-4.4 5.4-4.4 1.7 0 2.6.2 3.7.5v-.2c0-1.9-1.2-2.9-3.3-2.9-1.5 0-2.6.3-3.9.8l-.8-2.5c1.5-.7 2.9-1.1 5.1-1.1 4 0 5.9 2.1 5.9 5.7v8zm.1-5.6c-.8-.3-1.9-.5-3.1-.5-2 0-3.1.8-3.1 2.1s1.1 2 2.6 2c2 0 3.5-1.1 3.5-2.9z"/><path d="m219.2 305.5v2.1h-3.1v-18.7h3.1v7.4c1-1.4 2.4-2.5 4.5-2.5 3.2 0 6.3 2.5 6.3 7s-3.1 7-6.3 7c-2.2 0-3.6-1.1-4.5-2.3zm7.7-4.7c0-2.6-1.7-4.3-3.9-4.3s-3.9 1.7-3.9 4.4c0 2.6 1.8 4.3 3.9 4.3s3.9-1.7 3.9-4.4z"/><path d="m231.2 305.8 1.4-2.1c1.4 1.1 3 1.7 4.4 1.7s2.1-.5 2.1-1.5-1.3-1.4-2.8-1.8c-.1 0-.2-.1-.2-.1-2-.6-4.2-1.4-4.2-4s2.1-4.1 4.8-4.1c1.7 0 3.5.6 5 1.5l-1.2 2.2c-1.3-.8-2.6-1.3-3.8-1.3s-1.9.5-1.9 1.4 1.3 1.4 2.8 1.8c.1 0 .2.1.2.1 2 .6 4.2 1.5 4.2 4 0 2.9-2.2 4.2-5 4.2-2 0-4.1-.7-5.8-2z"/><path d="m360.6 298.6c0-5.1 4.1-9.2 9.3-9.2s9.2 4.2 9.2 9.2-4.1 9.2-9.3 9.2-9.2-4.2-9.2-9.2zm17.4-.1c0-4.5-3.5-8.2-8.2-8.2s-8.2 3.7-8.2 8.3c0 4.5 3.5 8.2 8.2 8.2s8.2-3.7 8.2-8.3zm-13.1-.1c0-2.8 2.1-5.1 5.1-5.1 1.9 0 2.9.6 3.9 1.5l-1.4 1.7c-.8-.7-1.5-1.1-2.5-1.1-1.7 0-2.8 1.4-2.8 3.1s1.1 3 2.8 3c1.1 0 1.7-.5 2.5-1.1l1.4 1.4c-1.1 1.1-2.1 1.7-4 1.7-2.8.1-5-2.2-5-5.1z"/><path d="m380.5 289.7h3.4l4.2 13.2 4.4-13.3h2.6l4.4 13.3 4.2-13.2h3.3l-6.2 18h-2.7l-4.4-12.8-4.4 12.8h-2.7z"/><path d="m406.7 300.8c0-3.9 3.1-7 7.2-7 4.2 0 7.2 3.2 7.2 7s-3.1 7-7.3 7c-4.1 0-7.1-3.1-7.1-7zm11.3 0c0-2.3-1.7-4.3-4.2-4.3s-4.1 2-4.1 4.3 1.7 4.3 4.1 4.3c2.7.1 4.2-1.9 4.2-4.3z"/><path d="m423.3 294h3.1v3c.8-2 2.4-3.4 4.8-3.3v3.2h-.2c-2.7 0-4.6 1.7-4.6 5.4v5.1h-3.1z"/><path d="m433 288.9h3.1v11.1l5.6-6h3.8l-5.4 5.5 5.5 8h-3.5l-4.1-5.8-1.9 2v3.9h-3.1z"/><path d="m445.6 300.8c0-3.9 3.1-7 7.2-7 4.2 0 7.2 3.2 7.2 7s-3.1 7-7.3 7c-4.1 0-7.1-3.1-7.1-7zm11.3 0c0-2.3-1.7-4.3-4.2-4.3s-4.1 2-4.1 4.3 1.7 4.3 4.1 4.3c2.6.1 4.2-1.9 4.2-4.3z"/><path d="m462.1 302.6v-8.6h3.1v7.6c0 2.1 1.1 3.3 2.9 3.3s3-1.3 3-3.3v-7.6h3.1v13.4h-3.1v-2.1c-.8 1.3-2.1 2.3-4.2 2.3-3.1.2-4.8-1.8-4.8-5z"/><path d="m477.8 303.8v-7.1h-1.8v-2.7h1.7v-3.7h3.1v3.7h3.6v2.6h-3.6v6.6c0 1.2.6 1.7 1.7 1.7.7 0 1.3-.2 1.9-.5v2.5c-.8.5-1.7.7-2.8.7-2.2.1-3.8-.9-3.8-3.8z"/><path d="m487.1 289.7h3.2v15h9.4v2.9h-12.5v-17.9z"/><path d="m509.9 307.5v-1.7c-.9 1.1-2.3 2-4.4 2-2.6 0-4.8-1.4-4.8-4.2 0-3 2.3-4.4 5.4-4.4 1.7 0 2.6.2 3.7.5v-.2c0-1.9-1.2-2.9-3.3-2.9-1.5 0-2.6.3-3.9.8l-.8-2.5c1.5-.7 2.9-1.1 5.1-1.1 4 0 5.9 2.1 5.9 5.7v8zm.1-5.6c-.8-.3-1.9-.5-3.1-.5-2 0-3.1.8-3.1 2.1s1.1 2 2.6 2c2 0 3.5-1.1 3.5-2.9z"/><path d="m518.8 305.5v2.1h-3.1v-18.7h3.1v7.4c1-1.4 2.4-2.5 4.5-2.5 3.2 0 6.3 2.5 6.3 7s-3.1 7-6.3 7c-2.2 0-3.5-1.1-4.5-2.3zm7.7-4.7c0-2.6-1.7-4.3-3.9-4.3s-3.9 1.7-3.9 4.4c0 2.6 1.8 4.3 3.9 4.3s3.9-1.7 3.9-4.4z"/><path d="m530.8 305.8 1.4-2.1c1.4 1.1 3 1.7 4.4 1.7s2.1-.5 2.1-1.5-1.3-1.4-2.8-1.8c-.1 0-.2-.1-.2-.1-2-.6-4.2-1.4-4.2-4s2.1-4.1 4.8-4.1c1.7 0 3.5.6 5 1.5l-1.2 2.2c-1.3-.8-2.6-1.3-3.8-1.3s-1.9.5-1.9 1.4 1.3 1.4 2.8 1.8c.1 0 .2.1.2.1 2 .6 4.2 1.5 4.2 4 0 2.9-2.2 4.2-5 4.2-1.9 0-4.1-.7-5.8-2z"/><path d="m659.5 298.6c0-5.1 4.1-9.2 9.3-9.2s9.2 4.2 9.2 9.2-4.1 9.2-9.3 9.2-9.2-4.2-9.2-9.2zm17.3-.1c0-4.5-3.5-8.2-8.2-8.2s-8.2 3.7-8.2 8.3c0 4.5 3.5 8.2 8.2 8.2 4.8 0 8.2-3.7 8.2-8.3zm-13-.1c0-2.8 2.1-5.1 5.1-5.1 1.9 0 2.9.6 3.9 1.5l-1.4 1.7c-.8-.7-1.5-1.1-2.5-1.1-1.7 0-2.8 1.4-2.8 3.1s1.1 3 2.8 3c1.1 0 1.7-.5 2.5-1.1l1.4 1.4c-1.1 1.1-2.1 1.7-4 1.7-2.9.1-5-2.2-5-5.1z"/><path d="m679.3 289.7h3.4l4.2 13.2 4.4-13.3h2.6l4.4 13.3 4.2-13.2h3.3l-6.2 18h-2.6l-4.4-12.8-4.4 12.8h-2.7z"/><path d="m705.5 300.8c0-3.9 3.1-7 7.2-7 4.2 0 7.2 3.2 7.2 7s-3.1 7-7.3 7c-4 0-7.1-3.1-7.1-7zm11.3 0c0-2.3-1.7-4.3-4.2-4.3s-4.1 2-4.1 4.3 1.7 4.3 4.1 4.3c2.7.1 4.2-1.9 4.2-4.3z"/><path d="m722.1 294h3.1v3c.8-2 2.4-3.4 4.8-3.3v3.2h-.2c-2.7 0-4.6 1.7-4.6 5.4v5.1h-3.1z"/><path d="m731.8 288.9h3.1v11.1l5.6-6h3.8l-5.4 5.5 5.5 8h-3.5l-4.1-5.8-1.9 2v3.9h-3.1z"/><path d="m744.4 300.8c0-3.9 3.1-7 7.2-7 4.2 0 7.2 3.2 7.2 7s-3.1 7-7.3 7c-4.1 0-7.1-3.1-7.1-7zm11.3 0c0-2.3-1.7-4.3-4.2-4.3s-4.1 2-4.1 4.3 1.7 4.3 4.1 4.3c2.6.1 4.2-1.9 4.2-4.3z"/><path d="m760.9 302.6v-8.6h3.1v7.6c0 2.1 1.1 3.3 2.9 3.3s3-1.3 3-3.3v-7.6h3.1v13.4h-3.1v-2.1c-.8 1.3-2.1 2.3-4.2 2.3-3.1.2-4.8-1.8-4.8-5z"/><path d="m776.6 303.8v-7.1h-1.7v-2.7h1.7v-3.7h3.1v3.7h3.6v2.6h-3.6v6.6c0 1.2.6 1.7 1.7 1.7.7 0 1.3-.2 1.9-.5v2.5c-.8.5-1.7.7-2.8.7-2.3.1-3.9-.9-3.9-3.8z"/><path d="m785.9 289.7h3.2v15h9.4v2.9h-12.5v-17.9z"/><path d="m808.7 307.5v-1.7c-.9 1.1-2.3 2-4.4 2-2.6 0-4.8-1.4-4.8-4.2 0-3 2.3-4.4 5.4-4.4 1.7 0 2.6.2 3.7.5v-.2c0-1.9-1.2-2.9-3.3-2.9-1.5 0-2.6.3-3.9.8l-.8-2.5c1.5-.7 2.9-1.1 5.1-1.1 4 0 5.9 2.1 5.9 5.7v8zm.1-5.6c-.8-.3-1.9-.5-3.1-.5-2 0-3.1.8-3.1 2.1s1.1 2 2.6 2c2 0 3.5-1.1 3.5-2.9z"/><path d="m817.6 305.5v2.1h-3.1v-18.7h3.1v7.4c1-1.4 2.4-2.5 4.5-2.5 3.2 0 6.3 2.5 6.3 7s-3.1 7-6.3 7c-2.1 0-3.5-1.1-4.5-2.3zm7.7-4.7c0-2.6-1.7-4.3-3.9-4.3-2.1 0-3.9 1.7-3.9 4.4 0 2.6 1.8 4.3 3.9 4.3 2.2 0 3.9-1.7 3.9-4.4z"/><path d="m829.6 305.8 1.4-2.1c1.4 1.1 3 1.7 4.4 1.7s2.1-.5 2.1-1.5-1.3-1.4-2.8-1.8c-.1 0-.2-.1-.2-.1-2-.6-4.2-1.4-4.2-4s2.1-4.1 4.8-4.1c1.7 0 3.5.6 5 1.5l-1.2 2.2c-1.3-.8-2.6-1.3-3.8-1.3s-1.9.5-1.9 1.4 1.3 1.4 2.8 1.8c.1 0 .2.1.2.1 2 .6 4.2 1.5 4.2 4 0 2.9-2.2 4.2-5 4.2-1.9 0-4-.7-5.8-2z"/><path d="m206.3 434.2c0-5.1 4.1-9.2 9.3-9.2s9.2 4.2 9.2 9.2-4.1 9.2-9.3 9.2-9.2-4.1-9.2-9.2zm17.4-.1c0-4.5-3.5-8.2-8.2-8.2s-8.2 3.7-8.2 8.3c0 4.5 3.5 8.2 8.2 8.2s8.2-3.7 8.2-8.3zm-13.1-.1c0-2.8 2.1-5.1 5.1-5.1 1.9 0 2.9.6 3.9 1.5l-1.4 1.7c-.8-.7-1.5-1.1-2.5-1.1-1.7 0-2.8 1.4-2.8 3.1s1.1 3 2.8 3c1.1 0 1.7-.5 2.5-1.1l1.4 1.4c-1.1 1.1-2.1 1.7-4 1.7-2.9.1-5-2.2-5-5.1z"/><path d="m226.1 425.3h3.4l4.2 13.2 4.4-13.3h2.6l4.4 13.3 4.2-13.2h3.3l-6.2 18h-2.7l-4.4-12.8-4.4 12.8h-2.7z"/><path d="m252.4 436.4c0-3.9 3.1-7 7.2-7 4.2 0 7.2 3.2 7.2 7s-3.1 7-7.3 7c-4.1 0-7.1-3.1-7.1-7zm11.2 0c0-2.3-1.7-4.3-4.2-4.3s-4.1 2-4.1 4.3 1.7 4.3 4.1 4.3c2.7.1 4.2-1.9 4.2-4.3z"/><path d="m269 429.7h3.1v3c.8-2 2.4-3.4 4.8-3.3v3.2h-.2c-2.7 0-4.6 1.7-4.6 5.4v5.1h-3.1z"/><path d="m278.6 424.5h3.1v11.1l5.6-6h3.8l-5.4 5.5 5.5 8h-3.5l-4.1-5.8-1.9 2v3.9h-3.1z"/><path d="m291.3 436.4c0-3.9 3.1-7 7.2-7 4.2 0 7.2 3.2 7.2 7s-3.1 7-7.3 7c-4.1 0-7.1-3.1-7.1-7zm11.2 0c0-2.3-1.7-4.3-4.2-4.3s-4.1 2-4.1 4.3 1.7 4.3 4.1 4.3c2.6.1 4.2-1.9 4.2-4.3z"/><path d="m307.7 438.2v-8.6h3.1v7.6c0 2.1 1.1 3.3 2.9 3.3s3-1.3 3-3.3v-7.6h3.1v13.4h-3.1v-2.1c-.8 1.3-2.1 2.3-4.2 2.3-3 .2-4.8-1.8-4.8-5z"/><path d="m323.4 439.4v-7.1h-1.7v-2.6h1.7v-3.7h3.1v3.7h3.6v2.6h-3.6v6.6c0 1.2.6 1.7 1.7 1.7.7 0 1.3-.2 1.9-.5v2.5c-.8.5-1.7.7-2.8.7-2.3 0-3.9-.9-3.9-3.9z"/><path d="m332.7 425.3h3.2v15h9.4v2.9h-12.5v-17.9z"/><path d="m355.5 443.1v-1.7c-.9 1.1-2.3 2-4.4 2-2.6 0-4.8-1.4-4.8-4.2 0-3 2.3-4.4 5.4-4.4 1.7 0 2.6.2 3.7.5v-.2c0-1.9-1.2-2.9-3.3-2.9-1.5 0-2.6.3-3.9.8l-.8-2.5c1.5-.7 2.9-1.1 5.1-1.1 4 0 5.9 2.1 5.9 5.7v8zm.1-5.6c-.8-.3-1.9-.5-3.1-.5-2 0-3.1.8-3.1 2.1s1.1 2 2.6 2c2 0 3.5-1.1 3.5-2.9z"/><path d="m364.4 441.1v2.1h-3.1v-18.7h3.1v7.4c1-1.4 2.4-2.5 4.5-2.5 3.2 0 6.3 2.5 6.3 7s-3.1 7-6.3 7c-2.1 0-3.5-1.1-4.5-2.3zm7.7-4.7c0-2.6-1.7-4.3-3.9-4.3-2.1 0-3.9 1.7-3.9 4.4 0 2.6 1.8 4.3 3.9 4.3 2.2 0 3.9-1.7 3.9-4.4z"/><path d="m376.5 441.4 1.4-2.1c1.4 1.1 3 1.7 4.4 1.7s2.1-.5 2.1-1.5-1.3-1.4-2.8-1.8c-.1 0-.2-.1-.2-.1-2-.6-4.2-1.4-4.2-4s2.1-4.1 4.8-4.1c1.7 0 3.5.6 5 1.5l-1.2 2.2c-1.3-.8-2.6-1.3-3.8-1.3s-1.9.5-1.9 1.4 1.3 1.4 2.8 1.8c.1 0 .2.1.2.1 2 .6 4.2 1.5 4.2 4 0 2.9-2.2 4.2-5 4.2-2 0-4.1-.7-5.8-2z"/><path d="m505.1 434.2c0-5.1 4.1-9.2 9.3-9.2s9.2 4.2 9.2 9.2-4.1 9.2-9.3 9.2-9.2-4.1-9.2-9.2zm17.4-.1c0-4.5-3.5-8.2-8.2-8.2s-8.2 3.7-8.2 8.3c0 4.5 3.5 8.2 8.2 8.2s8.2-3.7 8.2-8.3zm-13.1-.1c0-2.8 2.1-5.1 5.1-5.1 1.9 0 2.9.6 3.9 1.5l-1.4 1.7c-.8-.7-1.5-1.1-2.5-1.1-1.7 0-2.8 1.4-2.8 3.1s1.1 3 2.8 3c1.1 0 1.7-.5 2.5-1.1l1.4 1.4c-1.1 1.1-2.1 1.7-4 1.7-2.9.1-5-2.2-5-5.1z"/><path d="m525 425.3h3.4l4.2 13.2 4.4-13.3h2.6l4.4 13.3 4.2-13.2h3.3l-6.2 18h-2.7l-4.4-12.8-4.4 12.8h-2.7z"/><path d="m551.2 436.4c0-3.9 3.1-7 7.2-7 4.2 0 7.2 3.2 7.2 7s-3.1 7-7.3 7c-4.1 0-7.1-3.1-7.1-7zm11.2 0c0-2.3-1.7-4.3-4.2-4.3s-4.1 2-4.1 4.3 1.7 4.3 4.1 4.3c2.7.1 4.2-1.9 4.2-4.3z"/><path d="m567.8 429.7h3.1v3c.8-2 2.4-3.4 4.8-3.3v3.2h-.2c-2.7 0-4.6 1.7-4.6 5.4v5.1h-3.1z"/><path d="m577.5 424.5h3.1v11.1l5.6-6h3.8l-5.4 5.5 5.5 8h-3.5l-4.1-5.8-1.9 2v3.9h-3.1z"/><path d="m590.1 436.4c0-3.9 3.1-7 7.2-7 4.2 0 7.2 3.2 7.2 7s-3.1 7-7.3 7c-4.1 0-7.1-3.1-7.1-7zm11.2 0c0-2.3-1.7-4.3-4.2-4.3s-4.1 2-4.1 4.3 1.7 4.3 4.1 4.3c2.6.1 4.2-1.9 4.2-4.3z"/><path d="m606.5 438.2v-8.6h3.1v7.6c0 2.1 1.1 3.3 2.9 3.3s3-1.3 3-3.3v-7.6h3.1v13.4h-3.1v-2.1c-.8 1.3-2.1 2.3-4.2 2.3-3 .2-4.8-1.8-4.8-5z"/><path d="m622.2 439.4v-7.1h-1.7v-2.6h1.7v-3.7h3.1v3.7h3.6v2.6h-3.6v6.6c0 1.2.6 1.7 1.7 1.7.7 0 1.3-.2 1.9-.5v2.5c-.8.5-1.7.7-2.8.7-2.3 0-3.9-.9-3.9-3.9z"/><path d="m631.5 425.3h3.2v15h9.4v2.9h-12.5v-17.9z"/><path d="m654.3 443.1v-1.7c-.9 1.1-2.3 2-4.4 2-2.6 0-4.8-1.4-4.8-4.2 0-3 2.3-4.4 5.4-4.4 1.7 0 2.6.2 3.7.5v-.2c0-1.9-1.2-2.9-3.3-2.9-1.5 0-2.6.3-3.9.8l-.8-2.5c1.5-.7 2.9-1.1 5.1-1.1 4 0 5.9 2.1 5.9 5.7v8zm.1-5.6c-.8-.3-1.9-.5-3.1-.5-2 0-3.1.8-3.1 2.1s1.1 2 2.6 2c2 0 3.5-1.1 3.5-2.9z"/><path d="m663.3 441.1v2.1h-3.1v-18.7h3.1v7.4c1-1.4 2.4-2.5 4.5-2.5 3.2 0 6.3 2.5 6.3 7s-3.1 7-6.3 7c-2.2 0-3.6-1.1-4.5-2.3zm7.7-4.7c0-2.6-1.7-4.3-3.9-4.3s-3.9 1.7-3.9 4.4c0 2.6 1.8 4.3 3.9 4.3s3.9-1.7 3.9-4.4z"/><path d="m675.3 441.4 1.4-2.1c1.4 1.1 3 1.7 4.4 1.7s2.1-.5 2.1-1.5-1.3-1.4-2.8-1.8c-.1 0-.2-.1-.2-.1-2-.6-4.2-1.4-4.2-4s2.1-4.1 4.8-4.1c1.7 0 3.5.6 5 1.5l-1.2 2.2c-1.3-.8-2.6-1.3-3.8-1.3s-1.9.5-1.9 1.4 1.3 1.4 2.8 1.8c.1 0 .2.1.2.1 2 .6 4.2 1.5 4.2 4 0 2.9-2.2 4.2-5 4.2-2 0-4.1-.7-5.8-2z"/></g></svg><g>
	<path d="M140.8,109c0.3-2.7,0.7-5.5,0.8-8.2c0.2-3.6,0.3-7.2,0.4-10.8c0-1.4-0.2-2.8-1.1-4.4c-0.1,0.9-0.1,1.5-0.1,2.1
		c0,4.8-0.4,9.6-1.3,14.3c-0.2,1.3-0.2,2.6-0.3,3.9c-0.1,1.1-0.2,2.1-1.2,3.2c-0.1-1.1-0.2-2-0.2-2.9c0-2.9,0-5.8,0-8.6
		c0.1-9.7-1-19.3-3.2-28.8c-1.1-4.7-1.8-9.4-2.3-14.2c-0.4-3.8-0.3-7.7-0.2-11.5c0.1-5.1,0.4-10.3,0.7-15.4c0.2-3.1,1.2-6.1,2.5-8.9
		c1-2.1,2.8-3.2,4.2-4.6c2.5-0.5,4.7,0.2,6.9,0.6c2.2,0.4,4.4,1,6.6,1.5c0.5-0.6,0.8-1.3,1.3-1.7c2.7-1.8,4.9-4.2,7.3-6.3
		c1.9-1.7,4-3,6.5-3.8c4.6-1.6,9.4-2.9,14.3-3.4c2-0.2,4-0.5,6-1c1.1-0.3,2.1-0.2,3.2,0.1c3.3,1.1,6.6,2.1,9.9,3.2
		c0.7,0.2,1.4,0.5,1.9,1c2.3,1.8,4.6,3.5,6.7,5.4c0.9,0.9,1.7,2.1,2.2,3.2c0.9,2.1,1.6,4.2,2.4,6.4c0.2,0.4,0.4,0.9,0.4,1.4
		c0.2,3,1.3,5.8,2.1,8.7c0.8,2.5,0.9,4.9,0,7.4c-0.6,1.4-0.4,2.7,0.1,4.1c0.9,2.4,1.9,4.6,3.2,6.8c0.9,1.4,1.7,2.9,2.5,4.3
		c0.5,1,0.2,1.9-0.8,2.4c-0.8,0.5-1.7,0.8-2.6,1.2c-0.5,0.2-1.1,0.4-1.4,0.5c-1.5,1.7,0.1,3.2-0.2,4.9c-0.5,0.6-1.1,1.3-1.6,1.9
		c0.3,1.2,0.8,2.4,0.7,3.5c-0.1,1-1,1.8-1.6,2.7c0.5,2.1,0.6,4.2,0.1,6.3c-1.8,2-4.1,2.7-6.6,2.7c-2.8,0-5.7-0.1-8.7-0.2
		c-0.2,0.4-0.5,0.9-0.6,1.5c-0.5,2.2-0.9,4.5-1.2,6.7c-0.7,4.4-1.2,8.8-2,13.1c-0.3,1.8-0.1,3.5,0.5,5.3c0.6,1.9,1.1,3.9,1.7,6.3
		c1.9,1.7,4.3,3.7,6.5,5.9c3.7,3.6,7.2,7.3,10.9,10.9c1.5,1.5,3.1,2.9,4.8,4.3c3.9,3,7.2,6.6,9.7,10.9c0.8,1.4,1.7,2.6,2.9,3.6
		c1.6,1.3,2.7,3.1,3.3,5c2.5,7.7,1.8,15-3.3,21.4c-2.7,3.3-5.8,6.4-9.5,8.7c-0.3,0.2-0.6,0.4-0.9,0.7c0.1,2.5,0.2,5,0.4,7.5
		c0.1,2.4,0.3,4.8,0.5,7.2c0.5,5.2-0.3,10.3-1.9,15.2c-0.9,2.7-1.9,5.4-2.9,8.1c-0.7,1.8-1,3.7-1,5.6c0,6.3-0.1,12.7-0.2,19
		c0,1.3,0,2.6-0.7,3.8c-0.4,0.6-0.3,1.6-0.4,2.4c-0.3,2.4-0.4,4.8-0.8,7.1c-1.1,5.8-2.4,11.5-3.7,17.2c-0.2,1.1-0.3,2.1,0.1,3.2
		c2.1,5.5,3,11.3,4.1,17.1c0.6,3.3,1,6.6,1.5,9.9c0.1,0.6,0.2,1.2,0.3,1.8c1,3.4,2.2,6.8,3.1,10.3c0.5,2.1,0.7,4.2,1,6.4
		c0.1,0.6,0.1,1.2-0.1,1.8c-0.8,2.2-0.8,4.5-0.9,6.7c-0.2,2.2-0.7,4.3-2.2,5.9c-0.8,0.9-1.1,2-1.2,3.3c-1.4,13.4-4.4,26.4-7.4,39.5
		c-1.3,5.5-2.5,11-4,16.4c-1.3,4.9-2.9,9.6-5.2,14.1c-0.8,1.5-0.9,3.2-1.2,4.9c-0.5,3.1-1.1,6.1-1.6,9.2c-0.1,0.3-0.2,0.7-0.4,1
		c-2,3.4-3.9,6.9-6.1,10.1c-2.1,3.1-3,6.5-3,10.1c0,3.7,0.1,7.4,0.1,11.1c0,2.9-0.2,5.7-0.3,8.6c-0.1,1.7-0.2,3.4-0.2,5
		c0.2,6.9-0.5,13.6-1.7,20.4c-0.1,0.7-0.3,1.4-0.4,2.1c-0.8,9.8-1.7,19.6-1.6,29.4c0,3.7,0.5,7.4,1.7,11c1.1-0.4,2.1-0.7,3.2-1
		c1.3-0.3,2.3,0,2.7,1.2c0.5,1.4,1.4,2.2,2.4,3.1c1.7,1.5,3.3,3.2,4.4,5.2c0.7,1.3,1.7,2.3,2.8,3.2c2.6,2.1,5.3,4.2,8.2,5.8
		c0.3,0.2,0.7,0.3,0.9,0.5c3.8,3.8,9.1,4.6,13.7,6.7c3.1,0.1,6.2,0.1,9.3,0.2c0.7,0,1.4-0.1,2.3-0.2c1.3,2.6,2.9,4.9,3.9,7.6
		c1,3,0.6,4.5-1.9,6.6c-0.5,0.4-0.9,0.7-1.6,1.2c0.6,2.7,0.9,5.6,1.8,8.3c0.8,2.3,0.5,4.2-0.7,6.1c-0.7,0-1.4-0.5-1.9,0.3
		c-0.5,0.7-1.1,1.3-1.7,1.8c-1.4,1.4-3.1,2.2-5,2.7c-3.4,0.9-6.7,1.7-10.1,2.5c-6.3,1.6-12.7,2.4-19.2,1.9c-2.2-0.2-4.3-0.5-6.2-1.6
		c-3.4-1.9-7.1-2.9-10.6-3.9c-3.9,0.7-7.7,1.4-11.5,2c-4.4,0.6-8.8,0.6-13.2-0.3c-2.4-0.5-4.5-1.6-6.1-3.6c-0.3-0.3-0.4-0.8-0.5-1.1
		c0.5-0.6,1-0.6,1.4-0.3c3,2.6,6.7,3.1,10.4,3c4.7-0.1,9.3-0.2,14-0.4c1.4-0.1,2.8-0.5,4.2-0.9c0.8-0.2,1.6-0.4,2.4-0.1
		c3.2,1,6.4,1.9,9.6,2.9c2.2,0.7,4.4,1.1,6.7,1.2c4.9,0.2,9.8-0.1,14.7-1c3.8-0.7,7.5-1.3,11.3-2c2.6-0.5,5-1.6,6.8-3.7
		c0.8-0.9,1.6-1.8,2.4-2.7c0.2-3.7-0.5-7.1-1.8-10.7c-0.5-0.1-1.1-0.3-1.7-0.3c-5.4,0.1-10.4-1.2-15.2-3.7c-0.2-0.1-0.4-0.1-0.8-0.2
		c-1.4,0.9-1.7,3.2-4.1,3.4c-0.1-0.5-0.4-1.2-0.2-1.6c0.4-1.1,1.1-2.1,1.8-3.4c-0.4-0.4-1-1-1.5-1.5c-0.4,0.1-0.7,0.1-0.8,0.3
		c-0.7,0.8-1.4,1.7-2.1,2.4c-0.6,0.6-1.3,1-2.2,1.7c-0.1-0.9-0.4-1.4-0.3-1.9c0.2-0.7,0.6-1.3,1-1.9c0.6-0.9,1.3-1.7,1.9-2.5
		c-0.6-2-2-1.9-3.5-1.7c-1.6,2-2.1,5.1-5.6,5.5c-0.9-3.4,2.4-4.8,3.1-7.6c-0.3-0.3-0.7-0.8-1.2-1.3c-0.3,0.2-0.6,0.3-0.7,0.4
		c-1.3,1.9-2.6,3.7-4.6,5c-1.4,0.9-2.9,1.8-4.9,0.9c0.2-0.6,0.2-1.2,0.5-1.6c0.9-1.1,2-2,2.9-3.1c1.1-1.3,2.1-2.6,3-4
		c0.2-0.3,0.2-1,0.1-1.4c-0.1-0.4-0.5-0.8-0.8-1.2c-3,3.5-5.8,7-10.1,8.4c-0.8-0.9-0.6-1.5-0.4-2c0.7-1.5,1.8-2.5,3-3.5
		c1.9-1.6,3.8-3.3,5.4-5.2c-1.1-3-3.9-4-5.8-6c-2.6-0.1-4.3,1-5.3,3.5c-0.8,2-1.6,4-1.5,6.2c0,0.8-0.2,1.6-0.4,2.7
		c-3.7,2-7.4,4.2-11.3,6.1c-2.1,1-4.4,1.1-6.3-0.8c-0.7-0.7-1.5-1.2-2.1-1.9c-1-1-1.9-2.2-2.1-3.7c-0.1-0.6-0.4-1.1-0.5-1.6
		c-2.3-0.1-2.8,0.1-2.9,1.7c-0.2,2.7-0.4,5.5-0.4,8.2c-0.1,6-0.9,11.9-3,17.6c-0.3,0.8-0.6,1.6-1,2.3c-0.1,0.2-0.6,0.3-1,0.5
		c-1.1-3.3,1.2-6.1,1.3-9.3c-1.4-1.2-2.9-2.2-5-2.4c0.3-2.1,1.2-3.9,2-5.5c1.4-2.6,1.9-5.4,1.9-8.3c0.1-5.2,1.6-10.1,3.8-14.9
		c0.1-0.3,0.4-0.6,0.7-1c1.1,0.3,2.2,0.7,3.6,1.1c-0.1-1,0-1.8-0.2-2.6c-1.4-7-2.1-14-2.1-21.1c0-3.3-0.3-6.7-0.4-10
		c0-0.8-0.1-1.7-0.4-2.5c-2.4-8-3.8-16.3-5.3-24.6c-0.2-1.2-0.5-2.2-1.2-3.3c-1.3-2-1.6-4.5-1.8-6.9c-0.4-8.1-0.4-16.3,1.4-24.3
		c1.2-5.1,2.4-10.3,4-15.3c2.1-6.7,4.6-13.4,6.8-20c0.6-1.8,1.1-3.7,1.3-5.6c0.7-5.7,0.6-11.5,0.5-17.2c0-1.4-0.2-2.9-0.4-4.3
		c-0.7-5.8-1.4-11.6-2.2-17.5c-0.2-1.9-0.5-3.8-1-5.6c-3.3-12-4.8-24.2-4.7-36.6c0.1-5,0.6-10,0.9-15.1c0-0.8,0.1-1.7,0.1-2.6
		c-0.5-0.4-0.9-0.8-1.4-1.1c-8-5.9-12.7-13.9-14.8-23.4c-1.6-7.3-0.9-14.6,1.6-21.6c2.3-6.2,4.5-12.4,7.7-18.1c2-3.6,4-7.1,6.2-10.5
		c3.8-6.1,6.2-12.7,8-19.5c0.6-2.3,0.8-4.7,0.4-7.1c-0.2-1.2-0.2-2.4-0.3-3.6c-0.3-5-0.5-10-0.8-15.1c0-0.5-0.2-0.9-0.3-1.4
		c-0.9-3.7-1.8-7.4-2.6-11.2c-0.4-1.8-1.5-3.3-2.6-4.7c-2.7-3.5-5.1-7.3-7.2-11.1c-1.5-2.7-2.5-5.7-3.2-8.7
		c-0.3-1.1-0.2-2.4-0.2-3.5c0-1.4,0-2.9-0.1-4.3c-0.1-1.5-0.3-3.1-0.4-4.6c-0.1-2.5-0.2-5-0.1-7.5c0-1.8,0.1-3.6,0.5-5.4
		c0.7-3.1,0.9-6.4,2.6-9.2c0.5-0.9,0.7-2,0.9-3.1c0.6-4.1,2.2-7.8,4.3-11.3c2.1-3.6,4.4-7.2,6.6-10.7c1.3-2,1.8-4,1.7-6.4
		c-0.1-3.5,0.3-6.9,0.5-10.4c0.2-3,0.5-6,0.9-8.9c0.4-3-1-5.3-2.6-7.6c-4.2-2.4-6.4-6.7-9.5-10c-0.1-0.1-0.2,0-0.5-0.1
		c-0.5,2.4,0.4,4.7,0.6,7c0.2,2.2,0.8,4.4,1.3,6.8c-3.2-2.2-4.1-5.5-5.5-9.2c-0.4,2.5-0.1,4.2,0.3,6c0.9,4.3,1.8,8.7,2.7,13
		c0.6,3.2,0.8,6.4,0.7,9.7c0,1.2-0.2,2.4-0.1,3.6c0.3,2.6-0.3,5-1.6,7.2c-1.1,1.8-1.9,3.6-2.5,5.6c-0.1,0.3-0.4,0.5-1,1.1
		c0-2.2,0-3.9-0.1-5.6c0-1.8,0-3.6-0.1-5.4c-0.1-1.7-0.4-3.3-0.6-5c-0.2-1.7-0.6-3.4-1.2-5.9c-0.8,2.8-0.7,4.8-0.9,6.8
		c-0.3,4.3-0.5,8.6-0.8,12.9c-0.2,2.1-0.6,4.3-0.8,6.3C142,108.5,141.4,108.7,140.8,109L140.8,109z M206.1,9l0.1,0.2L206.1,9
		c-0.3-0.2-0.5-0.4-0.8-0.6c-2.1-2.7-3-3.3-6.2-4c0.2,0.4,0.3,0.8,0.5,1.2c-1.3,0-1.9-0.8-2.1-2c-4.7-1.2-9.4-1.4-14.2-0.2
		c-3.2,0.9-6.5,1.6-9.7,2.5c-2,0.5-4,1-5.8,1.8c-3.7,1.6-7.3,3.6-10.2,6.4c-0.3,0.3-0.5,0.6-0.8,0.9c0.8,0.1,1.3-0.2,1.8-0.5
		c2.2-1,4.3-2,6.5-2.9c0.8-0.3,1.8-0.2,2.8-0.4l-0.1-0.1c-0.2,0.2-0.4,0.6-0.6,0.7c-5.1,1.9-10,4.3-14.2,7.8c-0.1,0.1-0.2,0-0.3,0
		l0.1,0.1c0-0.6,0.1-1.2,0.1-1.8c-3.3-1.2-6.6-1.5-9.9-2.2c-0.3-0.1-0.7,0-1.1,0.1c-2.2,0.6-4.1,1.6-5,3.8
		c-1.9,4.6-3.8,9.3-3.2,14.5c0.1,1.1-0.1,2.1-0.1,3.2c-0.1,2.3-0.2,4.5-0.3,6.8c-0.3,9,1.1,17.9,2.4,26.8c0.1,0.9,0.2,2,0.6,2.8
		c0.9,1.5,1,3.2,1.2,4.8c0.4,2.9,0.7,5.9,1,8.8c0.6-3.9,0.6-7.9,0.2-11.8c-0.5-4.4-1-8.8-1.5-13.2c-0.6-5.3-0.3-10.5-0.1-15.8
		c0-0.1,0.1-0.1,0.4-0.3c0.6,0.7,0.5,1.5,0.5,2.3c0.1,4.5,0.2,9.1,0.4,13.6c0.1,1.7,0.3,3.4,0.9,4.9c1.4,3.4,2.1,6.9,2.6,10.4
		c0.2,1.1,0.3,2.3,1.1,3.3c0.3-6.5-0.5-12.9-1-19.4c1.4,4.1,2,8.3,2.2,12.5c0.1,2.4,0.3,4.7,1.5,6.9c0.7,1.2,0.8,2.7,1.1,4.1
		c0.6,2.9,1.1,5.9,1.6,8.8c0.5-4.5,0.6-9,0.1-13.5c-0.3-2.7-0.8-5.5-0.7-8.2c0-2.2,0-4.3-0.4-6.4c-1.2-5.4-1.4-10.9-0.8-16.4
		c0.2-1.8,0.2-3.6-0.7-5.2c-0.3-0.5-0.4-1.2-0.4-1.7c-0.3-5.6,0.3-11,2.8-16.1c0.2-0.4,0.5-0.7,0.9-1.1c0.2,0.6,0.3,0.9,0.4,1.2
		c-0.7,0.6-0.7,1.4-0.7,2.3c-0.3,0.4-0.6,0.7-0.8,1.1c-1.2,4.2-1.5,8.4-1.4,12.7c0,0.5,0,1.1,0.3,1.3c1.4,1,1.1,2.6,1.3,3.9
		c0.4,2.6,0.7,5.2,1.1,7.8c0.1,0.6,0.3,1.2,1.1,1.4c0.4-1.3,0.2-2.5,0.1-3.8c-0.3-2.6-0.6-5.2-0.9-7.8c-0.2-2.7-0.3-5.4-0.8-8.1
		c-0.5-2.8-0.2-5.7-0.2-8.5c0.9-0.6,0.4-1.5,0.7-2.3c1.1-0.5,2.1-0.1,2.9,0.6c3.7,3.1,8,5.5,12.1,7.9c0.4,0.2,0.8,0.4,0.7,1l0.1-0.1
		c-1-0.4-2-0.7-3-1.2c-1.1-0.5-2.1-1.1-3.2-1.6c-0.9-0.4-1.6-1.3-3.3-1.2c1.3,1.2,2.2,2.2,3.2,3c1,0.8,2.1,1.6,3.2,2.3
		c1,0.7,2.1,1.3,3.2,1.9c-0.8,0.3-1.5,0.2-2.2,0c-0.8-0.2-1.6-0.7-2.4-0.8c-0.6-0.1-1.1-1-2-0.2c1.1,1.1,2.2,2.1,3.3,3.2
		c0.6,0.6,1.1,1.2,1.7,1.7l0.1-0.1c-0.2,0-0.5,0.1-0.7,0c-5-2.4-8.6-5.9-10.2-11.3c-0.3-1-0.5-2.1-0.8-3.1c-0.2-0.5-0.3-1.2-1.2-1
		c-0.7,1.5-0.4,3-0.6,4.6c-0.1,0.4,0,1,0.3,1.4c0.8,1,0.8,2.2,0.9,3.4c0.1,3.1,0.8,6.1,1.5,9.2c0.9,4.1,2.6,7.9,4.6,11.4
		c0.4,0.2,0.6,0.4,0.8,0.5c5.4,2.3,8,6.6,8.2,12.4c0.1,2.1,0,4.3-0.3,6.4c-0.5,4.4-1.2,8.8-1.6,13.2c-0.2,2.4-0.2,4.7-0.7,7.1
		c-0.2,0.3-0.5,0.5-0.7,0.8c-2.3,3.8-4.6,7.7-6.9,11.5c-0.2,0.4-0.2,0.9-0.3,1.3c-0.3,0-0.7,0-0.3,0.4c0.1-0.2,0.1-0.3,0.2-0.5
		c1.2,0.1,1.9-0.9,2.7-1.5c2.8-1.9,5.8-3.4,9.2-3.9c2.1-0.3,4.1,0.1,6.1,0.2c3.5,0.3,6.8,1.4,9.7,3.4c1.4,1,2.9,1.5,4.6,1.8
		c2.1,0.3,4.2,0.6,6,2.1c3.1,2.7,4.9,6,5.3,10.8c-0.7-0.8-1-1.1-1.2-1.5c-1-1.5-1.8-3.1-2.9-4.5c-2.3-3-4.9-5.5-9-5.8
		c-0.6,0-1.2-0.3-1.7-0.6c-3.1-2.3-6.6-3.2-10.3-3.8c-4.7-0.7-9.1,0.1-13,2.7c-2.5,1.6-4.9,3.4-7.3,5.2c-0.6,0.5-1.3,1.1-1.6,1.9
		c-1,2.8-2,5.6-2.1,8.7c-0.1,1.9-0.4,3.8-0.7,5.7c-0.8,4.4-1.6,8.7-1.5,13.2c0,0.8,0,1.9,0.4,2.4c1.2,1.4,1.4,3,1.9,4.6
		c0.8,2.3,1.9,4.4,3.3,6.3c1.6,2.1,3.7,3.5,6.3,4.6c0-4.2,0.1-8.1,0.1-12.1c0-1.2,0-2.4,0.2-3.6c0-0.3,0.5-0.6,1.1-1.3
		c0.1,1.6,0.3,2.7,0.3,3.7c0,6.2,0.3,12.5,0,18.7c-0.4,7.6,0.3,15,2.3,22.4c1.3,4.6,2,9.3,2.1,14.2c0.1,4.2,0.7,8.3,0.9,12.5
		c0.1,2.9,0.8,5.4,2.8,7.5c0.5,0.5,1.3,1.2,0.7,2.2c-0.5,0-1.1,0-1.8,0c0.1,0.6,0.1,1,0.3,1.5c1,3.7,2.1,7.4,3,11.1
		c0.9,3.5,2,6.9,3.4,10.2c1.7,3.7,3.4,7.4,5,11.1c2.5,5.9,5.5,11.7,7.2,18c1.1,4,2.5,7.7,4.9,11.1c0.4,0.6,0.7,1.2,1.1,1.9
		c1.4,2.6,2.3,5.3,2.9,8.1c0.5,2.7,0.6,5.4-0.3,8.1c-0.6,1.8-1,3.7-2.1,5.3c-1.4,2-1.6,4.5-2,6.8c-0.3,1.7,0.1,3.6,0.5,5.3
		c1.3,5.1,0.4,10.2,0.5,15.4c-0.8,2.3,0,4.5,0.4,6.7c0.2,1.6,0.8,2.1,2.6,2.9c0.4-1.7,0.8-3.3,1.3-5.2c0.2,1.7,0.4,3.1,0.5,4.5
		c0,2.4-0.1,4.8-0.2,7.2c-1.1-1-0.4-2.5-1.1-3.7c-1.5-1.2-3-2.5-4.7-3.9c-1-5.9-1.8-11.9-0.8-18c0.2-0.9,0.2-1.9,0-2.8
		c-0.7-2.3-0.7-4.7-0.8-7.1c0-0.6-0.2-1.1-0.3-1.8c-2.8,0-5.4,0-8,0c-2.5,0-5,0-7.5-0.2c-2.6-0.1-5.2-0.5-7.9-0.5
		c-2.6-0.1-5.2-0.4-7.8,0.1c-0.1,0.4-0.4,0.8-0.4,1.1c0,6.3-0.3,12.7,0.1,19c0.4,7.2,1.3,14.3,2.2,21.4c0.8,6.9,2.3,13.7,2.9,20.6
		c0.1,1.6,0.6,3,1.1,4.5c0.7,1.9,1.1,3.9,1.3,5.9c1.2,9.1,0.4,18.2-1.4,27.1c-0.9,4.5-1.9,8.9-3.2,13.3c-1.6,5.5-3.3,11-6.2,16
		c-0.7,1.2-1.1,2.6-1.5,4c-1.2,4.3-1.7,8.7-1.9,13.1c-0.2,3.8-0.4,7.6,0.5,11.4c2.2,10.1,4.4,20.1,6.3,30.2
		c1.4,7.4,2.7,14.8,3.6,22.3c0.6,4.6,1,9.3,0.5,14c-0.2,1.5-0.1,3.1,0.4,4.6c0.3,0.9,0.3,1.9,0.4,2.8c0.3,3.1-0.1,6.2-0.6,9.2
		c0.8,1.9,2.2,3.2,3.5,4.6c1.5,1.6,3.1,1.7,4.9,0.9c2.6-1.2,5.2-2.4,7.8-3.7c1.7-0.8,2.6-2.1,2.7-3.9c0.1-2.1,0.7-4,1.4-5.9
		c0.3-0.9,0.6-1.8,0.9-2.6c1-0.8,1.9-1.5,2.7-2.1c0-0.4,0.1-0.5,0-0.6c-0.1-0.5-0.3-0.9-0.4-1.4c-1.8-6.6-3.4-13.2-3.8-20.1
		c-0.5-9,0-18,0.9-26.9c0.6-5.6,1.5-11.1,2.1-16.7c0.5-5.4,0.8-10.7,0.6-16.1c-0.2-5.6-0.2-11.3-0.1-16.9c0-3.8,0.8-7.5,2.9-10.6
		c2.3-3.4,4.3-6.9,6.3-10.4c1.7-3,2.5-6.2,2.4-9.6c0-1.8,0-3.6,1.1-5.2c0.4-0.5,0.3-1.4,0.5-2.1c0.2-0.8,0.3-1.7,0.5-2.4
		c2-5.9,3.9-11.8,6-17.7c2.8-7.8,4.6-15.8,5.8-24c0.2-1.7,0.4-3.4,0.7-5.2c-0.9,0.3-1.3,1.1-1.8,1.4c-0.6,0.3-1.5,0.2-2.3,0.2
		c-0.2,0.5-0.4,1.1-0.7,1.6c-0.6,1.3-1.8,1.9-3.2,2c-0.9,0.1-1.6-0.3-2-1.2c-0.2-0.4-0.3-0.9-0.4-1.4c-0.2-1.1-0.9-1.7-1.9-1.7
		c-1.5,0-2.1-1-2.3-2.3c-0.2-0.9-0.2-1.9-0.3-2.9c0.5,0.9,1.1,1.8,1.7,2.7c0.4,0.5,0.9,0.8,1.7,0.4c0.4-2.4,0.8-4.8,1.1-7.3
		c0.3-2.5,0.5-5,0.8-7.5c0.1-0.5,0.2-0.9,1-0.9c0.1,0.4,0.3,0.8,0.3,1.3c-0.1,2,0,4.1-0.4,6.1c-0.7,3.5-0.1,7.1-0.7,10.6
		c-0.1,0.6,0.3,1.4,0.7,2c0.3,0.6,0.9,0.7,1.6,0.5c0.9-0.2,1.5-0.9,1.6-1.7c0.2-0.9,0.1-1.9,0.2-2.9c0.2-2.8-0.7-5.7,1.2-8.3
		c0.3-0.4,0.1-1.2,0.2-1.8c0.1-2.2,0.1-4.3,0.2-6.5c0-1.4,0.1-2.9,0.2-4.3c0-0.5,0.3-0.9,0.9-0.7c0.1,0.2,0.3,0.4,0.3,0.6
		c-0.1,3.9-0.1,7.9-0.2,11.8c0,1.2-0.4,2.4-0.8,3.5c-0.6,1.5-0.4,3.1-0.2,4.6c0,0.4,0.5,0.9,0.9,1c0.3,0.1,1-0.2,1.1-0.5
		c0.7-1.4,1.3-2.8,1.8-4.3c1.1-3.4,1.5-7,1.5-10.6c0-3,0.4-5.9,2.3-8.5c0.4-0.6,0.6-1.3,0.9-1.9c1-2,1.5-4,1-6.2
		c-0.2-0.7,0-1.6,0-2.4c0.9,0.3,1,0.9,1,1.5c0.1,1.4,0,2.9,0.1,4.3c0.1,1.4-0.1,2.5-0.9,3.7c-0.7,1.1-1.4,2.2-1.2,3.6
		c-0.1,0.1-0.2,0.1-0.2,0.2c0.1-0.1,0.1-0.2,0.2-0.3c2.4-1.2,2.8-3.5,2.8-5.8c0.1-2.7,0.6-5.2,1.3-7.6c-0.4-1.6-1-3.1-1.2-4.6
		c-0.8-5-2.3-9.8-4.4-14.4c-0.3-0.7-0.7-1.7-1.3-2.1c-0.9-0.6-1.2-1.5-1.4-2.4c-0.6-2.4-1.5-4.8-1.7-7.3c-0.2-2.5-1.2-4.9-2.3-7.1
		c-0.7-1.4-1.5-2.8-1.9-4.2c-0.8-2.7-1.5-5.5-2.2-8.3c-0.5-2.2-0.9-4.5-1.4-6.7c-0.2-1-1.2-2.1-1-2.9c0.4-1.9-0.3-3.6-0.5-5.3
		c-0.6-4-1-8.1-2.1-12c-1.4-4.8-2.3-9.8-2.7-14.8c-0.1-0.9-0.3-1.9-0.6-2.8c-1.3-4.1-2.6-8.2-4.2-12.2c-0.9-2.2-1.1-4.4-0.8-6.7
		c0.4-3.6,0.7-7.1,1.1-10.7c0.6-4.7,0.7-9.6,2.4-14.1c0.2-0.6,0-1.4,0-2.1c-1.1-9-1.8-18.1-1.8-27.2c0-2.2,0.5-4.3,1.3-6.3
		c0.7-1.8,1.9-3.4,3.5-4.5c0.7-0.5,1.4-0.3,1.6,0.7c-0.1,0.2-0.3,0.5-0.4,0.6c-2,0.6-2.7,2.1-2.8,4c-0.1,1.2-0.3,2.4-0.6,3.5
		c-0.4,1.5-0.3,3,0.3,4.3c0.4,0.1,0.5,0.1,0.6,0.1c0.2,0,0.5-0.1,0.7-0.1c3.6-1.3,6-3.9,7.5-7.3c1-2.3,2-4.6,2.8-7
		c1-3,1.4-6,0.5-9.2c-0.3-1-0.5-2.1-0.7-3.1c-0.9-4.3-3-8.1-6.1-11.2c-0.5-0.5-1.2-0.9-1.2-1.7c1-0.3,1.1-0.3,1.5,0
		c3.3,2.4,5.9,5.3,7.1,9.2c0.8,2.7,1.6,5.5,1.9,8.4c0.3,2.9,0.6,6-1.1,8.7c-0.1,0.2-0.1,0.5-0.2,0.7c-0.9,3.3-2.7,6.1-4.5,8.9
		c-1.6,2.5-3.8,4.2-6.7,5.1c-0.7,0.2-1.3,0.5-2.1,0.9c0.2,3.2,0.3,6.3,0.5,9.3c0.2,3.2,0.6,6.4,0.8,9.7c0.2,3.1,0.2,6.1,0.3,9.4
		c2,0.3,3.9,0.1,5.8,0.1c2,0,4.1-0.1,6.1-0.1c1.9,0,3.8,0.3,5.7,0.4c2,0.1,4,0.3,6.2-0.2c0.4-2.8-0.1-5.6,0.4-8.4
		c2.5-2.2,5-4.5,7.5-6.6c2.1-1.7,3.1-3.9,3.5-6.5c0.9-5,1.2-10,1-15c-0.1-1.7-0.6-3.3-1.7-4.6c-2.9-3.5-5.7-7.1-8.7-10.5
		c-3.3-3.7-6.7-7.2-10.1-10.7c-5-5.1-10.2-10.2-15.2-15.3c-2-2.1-4.3-3.8-6.9-5.1c-2.8-1.4-5.5-2.9-8.4-4.1
		c-4.9-2.1-9.8-3.7-15.1-4.5c-1-0.1-2.1-0.6-3-1.1c-0.3-0.2-0.5-0.7-0.8-1.1c1.7,0.1,3.4,0.1,5,0.3c1.5,0.2,3.1,0.6,4.6,0.9
		c1.6,0.4,3.3,0.7,4.9,1.2c1.5,0.4,3,1,4.4,1.6c1.5,0.7,3,1.4,4.5,2.2c1.4,0.8,2.6,1.7,4,2.5c1.4,0.8,2.5,2,4.5,2.9
		c-0.3-1.3-0.4-2.1-0.8-2.8c-1-2-1-4.2-0.6-6.3c1.1-6.6,2.3-13.2,3.6-19.8c0.4-2.1,1.6-2.9,3.8-2.9c2.9,0,5.7,0,8.6,0
		c1.1,0,2.1-0.2,3-1.1c0.5-1.3,0.6-2.7,0.3-4.1c-0.2-1.3,0-2.6,0.8-3.7c0.5-0.6,0.8-1.5,1-2.3c0.2-1-0.8-1.9-1.8-1.7
		c-0.6,0.1-1.1,0.5-1.7,0.6c-0.7,0.2-1.4,0.3-1.9-0.5c-0.3-0.6,0.4-1.2,1.6-1.4c0.8-0.1,1.7-0.1,2.5-0.4c0.8-0.2,1.4-0.7,2.3-1.2
		c-0.3-1.4-0.6-2.7-0.8-3.8c-1-0.6-1.7-1-2.7-1.6c3.1-1.2,6.4-0.7,8.9-2.8c-1.2-1.6-2.3-2.9-3.3-4.4c-1-1.6-1.9-3.3-2.8-5
		c-1.4-2.7-1.5-5.5-0.5-8.3c0.2-0.4,0.4-0.9,0.5-1.1c-0.4-1.8-0.9-3.4-1.2-5.1c-0.7-4.3-1.9-8.4-3.5-12.3c-0.7-0.4-1.5-0.6-1.9-1.1
		c-0.8-1-1.5-0.1-2.4-0.2c-1.9-3.2-5.1-5.1-8.4-6.7c-2.5-1.2-5.1-2.1-7.8-2.6c-0.9-0.2-1.8-0.5-2.7-0.7c1.1-0.4,2.1-0.5,3.1-0.4
		c1.2,0.1,2.4,0.4,3.5,0.6c1,0.3,2,0.7,3.1,1c1,0.3,2,1.1,3.3,1c-0.7-0.8-1.2-1.4-1.7-2c1.4-0.2,2.2,0.8,3.2,1.4
		c0.9,0.5,1.5,1.6,2.7,1.4C205.4,8.8,205.6,9,206.1,9z M209,561.2c-0.2-1.9,0.1-3.7,1.5-5.4c-0.7-0.4-1.3-0.7-2.1-1.2
		c-0.8,1.6-1.5,3-2.2,4.4C207,560.1,207.7,561,209,561.2c0.1,0.2,0.1,0.4,0.2,0.6c1.8,3.5,5,5.4,8.2,7.2c5.1,2.9,10.7,4,16.5,4.3
		c1.6,0.1,2.7-0.6,3.8-1.6c0.7-0.6,0.9-1.5,0.6-2.3c-0.9-2.2-1.8-4.4-2.7-6.7c-2.9-0.1-5.7,0.1-8.4-0.3c-2.7-0.5-5.2-1.6-8-2.5
		c-0.4,0.5-0.7,1.1-1.2,1.6c-0.4,0.5-0.8,0.9-1.2,1.3c-0.5,0.4-1.1,0.6-1.6,0.2c-0.3-0.3-0.5-0.9-0.4-1.3c0.3-1.1,0.8-2.2,1.4-3.4
		c-0.9-0.4-1.7-0.8-2.5-1.2c-0.3,0.9-0.5,1.6-0.8,2.2C211.9,561.5,211.5,561.7,209,561.2z M174.5,252c0,0.1,0.1,0.1,0.1,0.2
		C174.6,252.1,174.5,252.1,174.5,252c-0.2-0.5-0.2-1.1-0.3-1.7c-0.6-1.9-1.4-3.8-1.9-5.8c-1.4-5.2-2.8-10.4-4-15.6
		c-0.4-1.7-1.1-3.4-0.7-5.3c0.1-0.6-0.2-1.4-1.3-1.5c-2.5,8.7-7,16.5-10.3,24.9c0.2,0.2,0.2,0.3,0.3,0.3c5.5,1.5,11,3.1,16.5,4.6
		C173.3,252.1,173.9,252,174.5,252z M198.2,201c-0.7-0.2-1.3-0.3-2.1-0.6c-0.8,1.7-0.7,3.4-0.8,5.1c0.7,1.4,2,2.3,1.8,4.1
		c-0.7-0.3-1.4-0.6-2.3-1c-0.5,2.2-0.9,4.3-1.3,6.3c0.2,0.6,0.4,1,0.6,1.5c2,5.4,4.2,10.7,6.1,16.1c0.8,2.2,1.6,4.5,0.9,7
		c-0.1,0.5,0.1,1.2,0.3,1.7c0.5,2,1,3.9,1.5,5.9c1.2,4.6,2.3,9.3,2.5,14.1c0.1,1.4,0.5,2.8,0.8,4c3.5,2.2,3.5,2.2,5.8,2.4
		c1.5-5.7,2.5-11.4,2.7-17.3c0.2-4.3,0.4-8.6,0.6-12.9c0.1-1.8,0.2-3.6,1.2-5.2c0.4-0.6,0.3-1.6,0.3-2.4c0.1-2.8,0-5.5,0.1-8.3
		c0-0.8,0.1-1.7,0.5-2.4c1.8-2.8,2.4-5.9,2.8-9.1c0.1-1.1,0.2-2.2,0.4-3.2c0.9-4,1.1-8.1,1.1-12.1c0-0.7-0.1-1.4-0.2-2.1
		c-8-0.6-15.8-1.9-23.8-1.4c-0.3,0.4-0.5,0.8-0.8,1.2c-1.1,2-1.2,4,0,6.1C197.6,199.2,197.8,200.2,198.2,201L198.2,201z
		 M191.1,316.7c1.3-3.4,2.6-6.8,3.8-10.1c0.6-1.7,0.7-3.5,0.2-5.3c-1.1-3.8-2.2-7.6-4-11.1c-1.3-2.6-2.6-5.1-3.4-7.9
		c-0.4-1.5-1-2.9-1.7-4.4c-2.8-6.5-5.7-12.9-8.5-19.4c-0.4-0.9-0.9-1.7-1.3-2.5c-6.7-2.3-13.2-4.6-19.8-6.8
		c-0.5-0.2-1.1-0.2-1.8-0.2c-0.9,1.6-1.6,3.1-2.4,4.6c-0.6,1.2-1.2,2.3-2,3.4c-2.9,4.2-5,8.8-6.3,13.6c-2,7.2-2,14.4,0.8,21.5
		c1.8,4.6,4.1,8.9,6.6,13.1c1,1.7,2.3,3.1,3.9,4.2c1.2,0.8,2.2,1.8,3.3,2.7c1,0.9,1.5,1.8,0.6,3.1c-0.2,0.3,0.1,1.1,0.2,1.7
		c1,0,1.9,0,2.7,0c4.3,0.1,8.6,0.2,12.9,0.3c1.4,0,2.9,0,4.3,0c0.5,0,1.1-0.3,1.6-0.4c-0.1-2.4-0.3-4.5-0.4-6.6
		c0-0.5,0.2-0.9,0.9-0.7c0.6,2.4-0.1,4.9,0.8,7.4C185.1,317.1,188.1,317.1,191.1,316.7z M160.6,176.5c0.5-4.8,0.3-10-0.2-12.7
		c-1.6-0.8-3.2-1.3-4.5-2.3c-1.4-1.1-2.6-2.5-3.6-3.9c-1-1.3-1.6-2.8-2.6-4.6c-0.6,2.2-0.5,3.9,0.5,5.5c1.5,2.6,3,5.1,4.6,7.7
		C156.6,169.4,159,172.2,160.6,176.5z M206.8,267.4c0.4,2.1,0.6,3.4,0.8,4.6c0.9,4.1,1.8,8.1,2.8,12.2c0.5,1.9,1.3,3.7,2.8,5.2
		c-0.4-3.4-0.3-6.9-1.8-10.1c-0.4-0.9-0.6-1.8-0.5-2.7c0.2-2.2,0.4-4.5,0.6-6.9C210.1,269,208.8,268.4,206.8,267.4z M192.2,547.7
		c1.1-1.9,2.1-3.8,3.2-5.7c-1.7-1.7-3.3-3.2-4.9-4.7c-0.1-0.1-0.2,0-0.6-0.1c-0.6,0.3-1.3,0.8-2.1,1.2c0.6,2.6,1.1,5.1,1.7,7.6
		C190.2,546.5,191.1,547,192.2,547.7z M161.4,556.6c0-2.2,0-4.1,0-6.1c-0.9-0.2-1.6-0.4-2.4-0.6c-2.6,4.1-4.1,10-3.3,13.5
		c1.4-1.9,0.9-4.5,2.5-6.3C159.2,556.9,160.1,556.8,161.4,556.6z M205.9,552.7c-1.3-1.3-2.3-2.6-3.9-3.5c-0.9,1.3-2.1,2.3-2.8,3.7
		c1.5,1.1,2.5,2.7,4.3,3.4C204.3,555.1,205,554,205.9,552.7z M197.8,551.6c0.8-1.7,1.5-3.1,2.3-4.6c-0.8-1.1-1.5-2.2-2.9-2.8
		c-0.9,1.5-1.7,2.8-2.6,4.3C195.7,549.6,196.7,550.6,197.8,551.6z M155,575.5c0.5-2.2,0.9-4.3,0.5-7.1c-1.2,2.4-2.3,4.1-2.7,6.2
		c0.5,0.3,0.7,0.6,1,0.7C154.2,575.5,154.5,575.4,155,575.5z M148.3,56.5C148.3,56.1,148.3,56.3,148.3,56.5
		C148.3,56.3,148.3,56.1,148.3,56.5z"/>
	<path d="M514.6,301.7c-0.3-0.1-0.6-0.2-1.1-0.4c0.3-7.4,0.1-14.8-2.4-22.5c-0.5,9.4-0.6,18.1-2.1,26.9c-0.6,0.3-1.3,0.6-2.2,1
		c1.6-7.4,1.6-14.9,0.7-22.4c-0.1,0.6-0.3,1.2-0.3,1.9c-0.1,6.2-1.3,12.4-1.9,18.5c-0.1,0.7-0.1,1.5-0.8,1.9l0.1,0.1
		c-0.1-0.9-0.3-1.9-0.4-2.8c-0.1-4.8-0.3-9.6-0.3-14.3c0-7.2-1.1-14.3-2.7-21.3c-1.1-5.3-2.3-10.5-2.6-15.9c0-0.4-0.1-0.7-0.1-1.1
		c-0.2-8.6,0-17.2,0.6-25.8c0.1-1.1,0.2-2.1,0.5-3.2c1.1-5,2.3-6.9,6.6-10.5c4.4-0.2,8.8,1.2,13,2.2c1.3-1.2,2.5-2.2,3.6-3.2
		c1.1-0.9,2.2-1.8,3.2-2.9c2.9-3,6.2-5.1,10.2-6.3c4.4-1.3,8.7-2.5,13.3-2.8c1.7-0.1,3.4-0.3,4.9-0.8c1.5-0.5,2.8-0.3,4.2,0.1
		c3.1,1,6.1,2,9.2,3c0.7,0.2,1.4,0.5,1.9,0.9c2.3,1.7,4.5,3.5,6.7,5.4c1.1,0.9,1.8,2.2,2.3,3.6c1.2,3.5,2.7,6.9,3.3,10.6
		c0.3,1.9,1,3.7,1.5,5.5c0.8,2.6,1,5.1,0,7.7c-0.5,1.2-0.4,2.5,0.1,3.8c1,2.6,2.1,5.1,3.6,7.4c0.6,1,1.5,1.9,1.4,3.2
		c-0.4-0.1-1-0.2-1.2-0.4c-1.4-1.9-2.8-3.9-4-5.9c-2.1-3.7-3-7.6-0.8-11.1c-0.5-2.2-1-3.9-1.3-5.6c-0.7-4.1-1.9-8.1-3.5-11.9
		c-0.6-0.3-1.4-0.4-1.6-0.8c-0.7-1.3-1.6-0.4-2.7-0.4c-1.7-3-4.5-4.7-7.5-6.2c-2.7-1.4-5.4-2.4-8.4-3c-1.2-0.2-2.3-0.6-3.7-0.9
		c3.7-0.9,6.9,0.2,10.1,1.2c1.2,0.4,2.5,0.8,3.7,1.2c0.1,0.1,0.1,0.1,0.2,0.2c-0.1,0-0.2-0.1-0.2-0.1c-0.5-0.5-0.9-1-1.4-1.5
		c-0.5-0.5-1-1-1.4-1.5c1.8,0.1,3,1.3,4.3,2.2c1.1,0.7,2,1.5,3,2.3c-1.7-2.8-4-4.8-7.4-5.1c-0.1-0.1-0.1-0.2-0.2-0.3
		c-4.3-1.3-8.6-1.8-13-0.8c-4.6,1.1-9.2,2.4-13.8,3.5c-5.2,1.3-9.6,3.9-13.5,7.4c-0.2,0.2-0.2,0.6-0.3,0.9c-0.1,0-0.2-0.1-0.3,0
		c-0.1,0-0.1,0.2-0.1,0.2c0.1-0.1,0.3-0.2,0.4-0.3c2.6-1.1,5.2-2.3,7.9-3.3c2.6-1,5.2-1.7,7.8-2.6c0.6-0.2,1.2-0.3,1.8-0.4
		c-2.4,1.4-5,2.4-7.5,3.3c-5.5,2-10.8,4.3-15,8.7l0.1,0.1c0.2-0.8,0.3-1.6,0.5-2.6c-0.5-0.2-0.9-0.4-1.3-0.5
		c-2.8-0.6-5.6-1.2-8.4-1.8c-0.6-0.1-1.2,0-1.7,0.2c-2.4,0.6-4,2.1-4.9,4.3c-1.7,4.5-3.4,9-2.9,13.9c0.1,1.2,0,2.4,0,3.6
		c-0.4,7.9-0.4,15.8,0.8,23.7c0.7,4.6,0.6,9.3,2.7,13.6c0.2,0.5,0.2,1.2,0.3,1.8c0.5,4.1,1.1,8.2,1.7,13c0.5-6.7,0-12.6-0.7-18.6
		c-0.5-4.3-1-8.6-1.2-12.9c-0.2-3.5,0-6.9,0.1-10.4c0-1.4,0.1-2.9,0.2-4.3c0.4,3,0.5,6,0.6,9c0.2,3.9,0.4,7.9,0.7,11.8
		c0.1,0.9,0.3,1.9,0.7,2.8c1.1,2.6,1.7,5.2,2.2,7.9c0.3,1.9,0.7,3.8,1,5.6c0.6-4.2,0.4-8.4,0.1-12.5c-0.2-2-0.3-4.1-0.4-6.1
		l-0.1,0.1c0.2,0.1,0.5,0.3,0.5,0.4c0.9,4.1,1.7,8.2,1.8,12.4c0,1.7,0,3.3,1.1,4.8c0.7,0.9,0.8,2.2,1.1,3.4c0.9,3.6,1.5,7.3,1.8,11
		c0.3-2,0.5-4.1,0.4-6.1c-0.3-6.9-0.7-13.9-1-20.8c0-0.5-0.1-0.9-0.2-1.4c-1.1-4.6-1.3-9.2-1.1-13.9c0.1-2.9,0.7-6-0.7-8.8
		c0-2.5-0.1-5,0-7.5c0.2-3.5,1.1-6.8,2.8-9.9c0.1-0.2,0.4-0.4,0.9-0.9c-0.1,1-0.1,1.4-0.1,1.9c-0.5,1.3-1,2.7-1.4,4
		c-1.1,4.1-0.9,8.3-1.1,12.3c1.5,1.8,1.5,1.8,1.7,3.2c0.3,2.2,0.5,4.5,0.8,6.7c0.1,1.3,0.4,2.5,1.5,3.9c0.4-2.6,0.1-4.7-0.1-6.8
		c-0.2-2.1-0.4-4.3-0.6-6.4c-0.1-1.2,0.1-2.4-0.2-3.6c-1-3.3-0.5-6.6-0.6-9.9c-0.1-1.2,0-2.4,0.1-3.6c1.6-1.2,1.8-1.2,3,0.2l0.1-0.1
		c-0.4,0.1-0.9,0.3-1.5,0.5c0.2,2.4-0.8,4.8,0.6,7.1c0.2,0.3,0.1,0.7,0.1,1.1c0.3,3.2,0.8,6.4,1.4,9.6c0.9,4.4,2.7,8.4,4.6,12.2
		c1.1,0.6,2.1,1,3,1.6c3.6,2.3,5.6,5.6,5.9,9.8c0.3,3.5,0.3,6.9-0.4,10.4c-0.3,1.5-0.7,3.1-0.7,4.6c0,2-0.7,3.8-1.8,5.3
		c-1.2,1.8-2.4,3.6-4.3,4.7c-0.4,0.2-0.6,0.6-1.2,1.3c1.5,0.1,2.5,0.1,3.5,0.2c2,0.2,4,0.4,6.1,0.6c4.7,0.6,9,2.4,12.9,5.2
		c2.1,1.5,4.2,2.8,6.8,2.8c1.5-1,3-2.1,4.2-2.9c1-2.8,1.7-5.3,2.7-7.7c1.3-3,2.2-6,2.7-9.3c0.2-1.5,0.6-3.1,1-4.6
		c0.6-2.2,1.6-3,3.8-3c2.9,0,5.7,0,8.6,0c1.1,0,2.1-0.3,3-1c0.5-1.3,0.7-2.7,0.4-4.2c-0.3-1.4,0-2.6,0.8-3.7
		c0.4-0.6,0.7-1.3,0.9-1.9c0.4-1.4-0.6-2.4-2-2c-0.3,0.1-0.6,0.3-1,0.4c-1.2,0.4-1.9,0.3-2.3-0.3c-0.4-0.6,0.5-1.2,1.9-1.5
		c1.5-0.3,3.2-0.1,4.4-1.7c-0.2-1.1-0.4-2.4-0.6-3.6c-0.9-0.5-1.7-1-2.6-1.5c0.4-0.3,0.6-0.4,0.8-0.5c2.4-0.5,5-0.7,7.3-1.8
		c0.2-0.1,0.3-0.4,0.5-0.6c0-0.4,0-0.8,0-1.3c1.7,1.6,1.7,2.5-0.1,3.4c-1.3,0.6-2.6,1.1-4.1,1.7c-0.1,0.7-0.3,1.5-0.2,2.1
		c0.5,1.8,0.5,3.3-1.3,4.3c0.3,1.2,0.8,2.3,0.8,3.3c-0.1,1-0.8,1.9-1.4,3.3c-0.1,1.8,0.5,4-0.1,6.2c-1.7,1.8-3.8,2.6-6.2,2.6
		c-3,0-5.9-0.1-9.1-0.1c-0.9,2.4-1.4,5-1.7,7.5c-0.3,2.8-1.2,5.4-2.1,7.9c-0.5,1.3-1,2.7-1.5,4c0.5,0.7,0.9,0.3,1.3,0.1
		c3.8-1.5,7.8-2.3,11.9-2.4c4.4-0.1,8.8-0.2,13.2,0.8c2.7,0.6,5.5,0.3,8.1-1c0.9-0.4,1.7-0.8,2.6-1.3c4.8-2.7,9.8-4.9,15.1-6.6
		c0.9-0.3,1.9-0.6,2.6-1.2c2.4-1.9,5.4-2.4,8.3-3.3c3.1-1,6.2-1.8,9.3-2.7c0.6-0.2,1-0.6,1.5-0.9c0.5-0.4,0.9-0.8,1.4-1.2
		c8.9-8.6,19.9-13,31.8-15.7c1-0.2,2.1-0.5,3.1-0.8c0.6-0.2,1.3-0.3,1.6-0.7c1.1-1.6,2.8-1.7,4.3-2.3c2.3-0.8,4.5-1.6,6.7-2.5
		c3.8-1.4,7.6-2.9,11.4-4.3c1-0.4,2-0.7,2.8-1.4c3.5-2.9,7-5.8,10.5-8.7c0.7-0.6,1.6-1.1,2.5-1.3c3.2-0.8,6.1-2,8.9-3.8
		c0.4-0.3,0.8-0.6,1.3-0.7c3.8-0.7,6.7-3,9.7-5.2c1.5-1.1,3-1.9,4.8-2.3c1.2-0.2,2.2-0.7,3.2-1.5c1.1-0.9,2.4-1.5,3.6-2.3
		c2-1.2,4.1-2.5,6.1-3.7c1.2-0.7,2.5-1.3,3.9-1.9c1.7-0.7,3.2-1.5,4.5-2.9c1.3-1.3,3-2.4,4.5-3.5c0.4-0.3,0.9-0.3,1.4-0.5
		c1,0.8,2,1.6,3.2,2.5c-0.1,0.5-0.3,1.3-0.3,2.1c0.1,2.8-1.2,4.8-3,6.7c-1.1,1.1-2.2,2.1-3.5,3.3c-0.4-0.6-0.7-1-1.1-1.6
		c-2.7,1.6-5.4,3-7.9,4.9c-3.9,2.9-8.2,5.3-12.7,7c-0.9-0.7-0.6-1.2,0-1.5c2.7-1.4,5.5-2.9,8.3-4.3c1.7-0.9,3.4-1.8,4.7-3.3
		c1.6-1.8,3.9-2.3,5.7-3.6c0.8-0.5,1.7-0.9,2.6-1.4c0.3,0.1,0.6,0.1,0.9,0.2c0.3,0.1,0.7,0.2,1.1,0.4c0.8-1,1.7-2.1,2.5-3
		c1-1.1,1-2.3,0.5-3.9c-0.6,0.4-1.1,0.7-1.6,1.1c-0.7,0.5-1.3,1.1-2,1.5c-4.6,2-8.6,5.3-13.5,6.6c-0.6,0.2-1.1,0.8-1.7,1.2
		c-1.5,1.2-3,2.4-4.5,3.5c-0.4,0.3-0.9,0.4-1.4-0.2c0.3-1.2,1.5-1.6,2.4-2.3c1-0.7,2.1-1.2,3.1-1.8c0-0.8-0.5-0.8-1-0.6
		c-1.7,0.9-3.4,1.8-5,2.8c-0.4,0.2-0.8,0.5-1.3,0.7c-3.4,1.1-5.9,3.5-8.7,5.5c-1.5,1-2.7,2.2-3.7,3.8c-1.1,1.6-3,2.7-4.6,4
		c-0.8,0.7-1.8,1.1-2.8,1.7c-2.1,1.2-4.1,2.3-6.2,3.5c-2.1,1.2-4.2,2.3-6.3,3.4c-4.1,2.1-8.2,4.3-12.9,5c-1,0.2-2,0.7-3,1.2
		c-4.5,2.3-9.1,4.3-13.8,6.1c-6.3,2.5-12.6,5.1-19,7.6c-1.8,0.7-3.4,1.6-4.9,2.9c-1.9,1.8-4.2,3.2-6.3,4.7c-3.2,2.3-6.4,4.6-9.6,6.9
		c-0.9,0.6-1.7,1.2-2.9,0.9c-0.6-0.2-1.4,0.1-2.1,0.4c-5.5,1.9-11,3.9-16.6,5.8c-5.9,1.9-11.3,4.6-16.1,8.5c-1,0.9-2,1.5-3.5,1.5
		c-0.8,0-1.6,0.5-2.5,0.8c-2.6-0.9-5.3-1.8-8-2.7c-0.9-0.3-1.9-0.3-2.8-0.3c-2.9,0-5.7,0-8.6,0.1c-5.7,0.1-11.1,1.6-16.2,4.3
		c-2.5,1.3-5.1,2.6-7.9,3.3c-0.4,0.1-0.9,0.1-1.7,0.3c0.8-1.6,2.5-1.6,3.4-2.6c-8.1-6.9-17.6-8.5-27.9-8.7c-1.4,1.9-2.8,3.7-4.1,5.6
		c-2.3,3.2-4.5,6.5-7.3,9.4c-1,1-1.7,2.3-2.3,3.6c-1.4,3.2-2.8,6.3-4,9.6c-1.6,4.4-3,8.8-4.3,13.3c-0.6,2-0.8,4.2-1.1,6.3
		c-0.1,0.5,0,1-0.1,1.4c-0.9,6-1.8,12.1-2.7,18.1c-0.5,3.5-1,7.1-3,10.4c0.7,0.6,1.2,1.1,1.8,1.5c5.4,3.2,11,5.7,16.9,7.8
		c6.9,2.4,13.8,4.8,20.9,6.6c1.1,0.3,2.3,0.6,3.5,0.6c4.3,0,8.6-0.2,12.9-0.3c0.8,0,1.5,0.2,2.3,0.4c1.1-1.5,2.2-3,3.3-4.5
		c0.8,0,1.4-0.1,2-0.1c4.2,0.2,8-1.3,11.5-3.6c1.7-1.1,3.3-2.4,4.9-3.6c1.4-1.1,2.2-2.5,2.7-4.1c1.4-5.2,2.1-10.6,1.5-16
		c-0.1-1.2-0.4-2.4-0.8-3.5c-1.4-3.9-2.9-7.9-4.4-11.8c-0.8-2-1.5-4-2.3-6c-0.2-0.6-0.4-1.3-0.6-1.9c1-0.6,1.3,0.1,1.6,0.5
		c3,4.3,5,9,6.4,14c0.7,2.7,1.5,5.3,2,8c0.5,2.1,0.8,4.2,1,6.4c0.3,2.9-0.1,5.7-1.7,8.3c-0.2,0.3-0.3,0.6-0.4,1
		c-1.7,6.2-6.2,9.8-11.6,12.5c-2.7,1.4-5.8,1.5-8.8,1.6c-0.9,0.1-1.9,0-3.1,0c-0.8,0.7-1.5,1.6-1.8,2.8c-0.4,1.8-1.3,3.4-2.3,4.8
		c-3.9,5.3-7.4,10.9-10.8,16.5c-1.2,2-2.8,3.8-4.2,5.7c0,0.1-0.1,0.1-0.1,0.2c0-0.1,0-0.2,0.1-0.2c1.5,0,3.1,0,4.6-0.1
		c2.7-0.2,5.5-0.5,8.2-0.6c5,0,10.1-0.1,15.1,0.2c7.5,0.4,15,1.2,22.3,3.2c1.1,0.3,2.3,0.7,3.4,1c0.6,0.2,1.2,0.6,1.7,0.5
		c2.6-0.4,4.3,1,6.1,2.4c1.9,1.5,3.3,3.4,4,5.8c0.2,0.7,0.5,1.3,0.7,2c0.5,0.2,0.9,0.5,1.3,0.6c3,0.8,4.9,2.7,6.6,5.2
		c0.9,1.4,2,2.7,3.1,4c1.7,2,2.7,4.1,2.9,6.8c0.4,5-0.2,9.7-2.2,14.4c-1,2.3-1.4,4.8-2.2,7.2c-0.4,1.2-0.8,2.5-1.4,3.7
		c-0.4,0.7-0.9,1.5-1.6,1.9c-1.3,0.8-2.1,1.9-3,3c-2.2,2.7-4.4,5.3-6.6,8c-0.8,1-1.6,2.1-2.1,3.3c-3.4,8-8.5,15-13.6,22
		c-1.7,2.3-3.7,4.4-6.1,6.1c-1.3,0.9-2.4,2-3.3,3.3c-3.4,4.7-7.4,8.8-12,12.3c-0.6,0.4-1.1,0.9-1.6,1.5c-2.5,3-4.8,6.3-7,9.5
		c1.9,3.1,4.5,5.1,7.5,6.7c1.2,0.6,2.3,1.2,2.8,2.6c0.2,0.6,0.9,1.1,1.5,1.5c1,0.7,2,1.2,3.1,1.9c0.8,0.5,1.7,0.5,2.7,0.5
		c4.5,0,9.1-0.2,13.7,0.6c1.1,1.8,2.2,3.4,3.1,5.2c2,3.9,1.2,6.8-2.3,9.4c-0.8,0.6-1.6,1-2.5,1.6c1.1,0.4,2,0.8,2.6,1.8
		c1.3,2,2.6,4,3.9,6c0.9,1.4,1.7,2.9,2,4.7c-1.2,2.9-3.2,5-6.1,6.2c-1.1,0.4-2.2,1-3.3,1.4c-4.5,1.4-8.8,3.6-13.8,3.5
		c-2.3,0-4.5,0.4-6.8,0.5c-2.5,0.1-5,0-7.5,0c-4,0-7.9-0.5-11.6-1.9c-1.2-0.4-2.2-0.4-3.5,0c-6.1,2.1-12.3,2.8-18.7,2
		c-2.7-0.3-5.5-0.2-8.3-0.3c-1.5-0.1-3.1-0.3-4.6-0.6c-1.5-0.3-2.9-1.2-4.1-2.2c-2.2-1.9-3.1-4.1-1.8-7c0.7-1.6,0.9-3.4,1.4-5.2
		c-0.6-0.9-1.1-1.7-1.6-2.6c0.1-1.1,0.4-2.2,0.4-3.4c0.1-2.5,0.9-4.7,2.4-6.7c1.1-1.5,1.8-3.1,2.1-4.9c0.5-2.8,1.4-5.5,1.5-8.4
		c0.1-2.4,1-4.6,2.6-6.6c1.4-1.7,2.9-2.9,5.3-2.1c0.4-1,0.7-1.9,1.1-2.7c1-2.4,1.9-4.9,3.2-7.2c2.8-5.2,5-10.6,7-16.1
		c1.3-3.4,2.5-6.7,3.7-10.1c0.5-1.6,1-3.2,1.3-4.8c1.4-6.1,2.6-12.2,4.7-18.1c1.9-5.6,4.2-11,7.8-15.7c-0.6-0.7-1.1-0.2-1.6,0
		c-3.6,1.6-7.4,2.8-11.1,4c-5.4,1.6-10.7,3.6-16,5.3c-9.7,3.1-19.7,3.8-29.8,2.6c-4.9-0.6-9.8-0.8-14.6-1.7
		c-9.6-1.6-18.5-5.1-25.8-11.7c-2.6-2.3-4.8-5-7-7.7c-0.9-1.1-1.3-2.5-1.8-3.9c-1.3-3.8-2-7.7-2.1-11.6c0-1.4,0-2.9,0.4-4.3
		c3.2-12.5,9.3-23.3,19.3-31.6c3.5-2.9,7.4-5.2,11.5-7.2c1.3-0.6,2.5-1.4,3.7-2.2c1.7-1.2,3.2-2.5,4.8-3.7
		c5.4-4.1,9.1-9.4,11.8-15.6c0.9-2.1,1.7-4.2,2.4-6.4c1.2-3.4,2.3-6.8,3.6-10.2c1.7-4.5,2.9-9.1,3.8-13.8c1.1-6.5,2.3-13,3.6-19.4
		c2-9.5,5.4-18.3,11-26.3C512.4,305.4,514,303.8,514.6,301.7c1.2-0.7,1.6-2,2.4-3c2.9-4.1,6-8,9.9-11.3c0.5-0.4,0.9-0.8,1.3-1.2
		c0.9-0.8,1.5-1.8,1.6-3.1c0.5-5.1,1-10.2,1.4-15.3c0.1-1.5-0.2-2.9-1-4.1c-0.8-1.2-1.2-3-3-3.3c-0.4-0.1-0.8-0.6-1.1-0.9
		c-2.2-2.7-4.4-5.4-6.5-8.1c-0.3-0.3-0.6-0.6-1.4-1.2c0.6,4.2,0.9,7.8,1.7,11.4c0.2,1.1,0.2,2.4,0.2,3.5l0.1,0
		c-2.9-2.7-4.2-6.3-5.4-10c-0.1,1.4-0.1,2.8,0.1,4.1c0.7,3.5,1.5,7,2.2,10.5c1,5.1,1.9,10.1,1.6,15.3c-0.1,1.2-0.1,2.4,0,3.6
		c0.1,1.7-0.2,3.3-1,4.9c-0.5,1.1-1.1,2.1-1.7,3.2C515.2,298.2,514.5,299.9,514.6,301.7z M554,553.3c0,0.1-0.1,0.2-0.1,0.2
		C553.9,553.4,553.9,553.3,554,553.3c0-0.1,0.1-0.1,0.2-0.1c0.1,0,0.1-0.1,0.1-0.2C554.3,553.1,554.2,553.2,554,553.3z M505.9,570.6
		c-0.1,0-0.2,0-0.3,0.1c-0.1,0-0.1,0.1-0.1,0.2C505.6,570.8,505.7,570.7,505.9,570.6l0.1-0.2L505.9,570.6z M700,249.1
		c0.5-0.2,1-0.5,1.4-0.7c1.5-0.7,3.1-1.2,4.5-2.2c1.6-1.1,3-2.3,4.9-2.9c0.4-0.1,0.9-0.4,1.2-0.7c2.3-2,5-3.2,7.7-4.4
		c1.1-0.5,2.2-1,3.3-1.5c0.1-0.6,0.2-1.1,0.3-2.1c-0.9,0.3-1.4,0.4-1.9,0.6c-1.7,0.8-3.4,1.7-5.1,2.5c-1.8,0.8-4,1-5.1,3
		c-0.1,0.2-0.4,0.3-0.6,0.4c-3.2,1.3-5.3,4-8,5.9c-0.5,0.3-0.7,1-1,1.4c-0.5,0.2-1,0.5-1.4,0.7c-0.6,0.1-1.2,0-1.5,0.7
		c-1.2-0.1-2.1,0.4-3.6,1.5c1.7-0.3,2.9-0.4,3.5-1.6C699.1,249.9,699.7,249.9,700,249.1z M753.9,218.3c-0.6,0-1.3-0.2-1.4,0.7
		c-1.2-0.1-2.4,0-2.8,1.5c-0.2,0-0.4,0-0.6,0c-0.1,0-0.2,0.1-0.3,0.1c0.2,0.1,0.4,0.2,0.5,0.2c0.2-0.1,0.2-0.3,0.3-0.5
		c1.2,0,2.2-0.3,2.9-1.4C753.1,219.1,753.6,219,753.9,218.3c0.2-0.2,0.4-0.3,0.7-0.4c-0.1,0-0.2-0.1-0.3-0.1
		C754.2,218,754,218.2,753.9,218.3z M555.5,551.1c0.2-0.1,0.4-0.2,0.6-0.4c0.6-0.7,0.6-1.6,0.2-1.3c-0.3,0.2-0.6,0.7-0.8,1.1
		C555.5,550.7,555.6,550.9,555.5,551.1c0,0.1-0.1,0.1-0.2,0.1c-0.1,0-0.1,0.1-0.1,0.2C555.3,551.3,555.4,551.2,555.5,551.1z
		 M504.5,573.6c-0.7,0.5-0.8,1.2-0.4,2.5C504.3,574.8,504.4,574.2,504.5,573.6c0-0.4,0.2-0.6,0.1-0.4
		C504.7,572.9,504.6,573.2,504.5,573.6z M758.2,216.1c2.1-0.4,3.5-1.8,4.8-3.3c0.2-0.2,0-0.8-0.1-1.6c-2.1,1.2-3.7,2.5-4.8,4.3
		C758.1,215.7,758.3,216,758.2,216.1C758.3,216.1,758.1,216.3,758.2,216.1z M663.3,263.6c-0.9,0.2-1.9,0.2-2.8,0.5
		c-5.4,1.6-10.3,4.3-15.5,6.5c-0.4,0.2-0.9,0.4-1.2,0.7c-2.4,2.4-4.8,4.9-7.3,7.3c-1.3,0.3-2.6,0.5-3.8,0.9c-6.9,2.2-14,4-20.7,7.1
		c-4.1,1.9-8.3,3.6-12.4,5.7c-2.1,1.1-4.4,1.8-6.7,2.5c-1.8,0.6-3.8,0.6-5.7,0.2c-4.9-1-9.7-0.4-14.6-0.1c1.7,0.6,3.5,0.4,5.3,0.5
		c3.2,0.1,6.4,0.4,9.5,1.7c1.3,0.6,2.7,1,4,1.5c0.5,0.2,1.3,0.4,1.7,0.2c2-0.9,4.3-1.2,5.9-3.1c1.5-1.8,3.5-2.9,5.5-3.9
		c3.5-1.9,7.2-3.3,11-4.4c4.6-1.4,9.2-2.7,13.8-4c1.3-0.4,2.6-0.5,4-0.8c0.8-0.8,1.7-1.7,2.6-2.7c0.3-0.3,0.3-0.8,0.5-1.2
		c1,0.1,1.8-0.5,2.6-1.1c2.8-2,5.7-3.9,8.9-5.3c0.5-0.2,1.2-0.5,1.5-1c1-1.8,2.9-2.4,4.6-3.2c2.4-1.1,4.8-2,7.2-3.1
		C662,264.6,663,264.5,663.3,263.6c0.3-0.1,0.6-0.2,1.2-0.2C663.8,262.9,663.5,263.1,663.3,263.6z M489.4,434
		c-0.2-0.4-0.5-0.7-0.7-1.1c2-2,3.9-4,5.8-5.9c0.3-0.3,0.9-0.2,1.3-0.3c-0.8,1.6-1.6,3.2-2.5,4.7c-3.2,5.7-5.4,11.7-6.2,18.2
		c-1.2,9.8-2,19.5-0.6,29.3c0.1,0.9,0.1,1.9,1.1,2.9c2.1,0.1,4.5,0.3,6.9,0.2c3.6,0,7.2,0.1,10.8-0.3c8.1-0.9,16-3.1,23.8-5.5
		c0.5-0.1,0.9-0.3,1.3-0.5c1.4-0.6,2.9-1.1,4.3-1.7c2.4-0.9,4.7-1.7,7.1-2.6c2.5-1,5-2.2,7.5-3.4c6-2.6,12.1-4.4,18.7-4.9
		c4-0.3,8-0.8,12.1-1.2c-1.2,1.4-2.3,2.8-3.9,3.8c-2,1.2-4,2.7-5.9,4.1c-3.8,2.8-7.4,5.7-10.2,9.5c-5,6.8-10.1,13.7-13.4,21.6
		c-1.4,3.3-2.9,6.6-4.1,10c-3.4,9.6-7.5,18.9-12.4,27.9c-1.2,2.2-2.3,4.5-3.4,6.7c-2.5,4.6-4.9,9.3-8.2,13.7c0.4,1,0.7,2.1,1.2,3.2
		c0.5,1.1,1.1,2.1,1.5,3c0.5,0.1,0.7,0.3,1,0.2c6.2-1.4,10.4-3.1,13.6-8.8c0.6-1.1,1-2.4,1.4-3.5c3.4-1.2,6.6-2.3,9.7-3.3
		c0.5-0.8,0.8-1.5,1.2-2.1c3.6-6.1,7.2-12.1,12.5-17c1-0.9,1.7-2,2.6-3c1.4-1.5,2.6-3.2,4.3-4.3c1.6-1,2.7-2.3,3.8-3.7
		c3.5-4.6,7-9.1,11.2-13.1c1-1,2.2-1.9,3-3c2.9-4.1,5.8-8.2,8.6-12.4c0.9-1.4,1.7-2.9,2.4-4.4c0.7-1.6,2.2-2.5,3.2-3.8
		c2.9-3.8,5.8-7.7,8.7-11.4c0.8-1.1,1.5-2.1,1.9-3.4c0.9-3.2,1.7-6.5,3-9.6c1.9-4.4,1.3-8.9,0.8-13.4c-0.1-1-0.6-2.1-1.2-2.9
		c-1.1-1.7-2.3-3.3-3.5-5c-1.1-1.6-2.2-3.2-4-4.1c-1.9-0.9-3.9-1.8-5.9-2.4c-2.5-0.7-5.1-1.2-7.7-1.7c-7.2-1.4-14.3-2.9-21.5-4.3
		c-10.7-2.1-21.5-3.3-32.5-3.2c-4.2,0-8.4,0.3-12.6,0.3c-7.9,0-15.8,1.1-23.6,1.9c-1.7,0.2-3.3,0.5-4.7,0.7c-0.5,0.8-0.9,1.4-1.3,2
		c0.1-0.7,0.5-1.4-0.5-1.9c-3,0.3-6.1,0.7-9,1c-2.8-3.4-6.8-3.1-10.8-3.9c1.3-0.2,2.3-0.4,3.9-0.7c-1.6-0.1-2.4-0.2-3.2-0.3
		c-0.8-0.1-1.7,0-2.9-0.5c3.4-1.1,6.3-0.4,9.1,0.6c0.4,0.2,0.8,0.5,1.1,0.9c0.9,1.3,2.2,1.8,3.5,2.5c1.6-0.3,3.2-0.6,4.8-0.9
		c-0.1-0.4-0.1-0.7-0.3-0.8c-2.8-2.1-5.4-4.3-8.5-5.9c-5.9-3-11.8-5.9-17.3-9.4c-0.2-0.1-0.5-0.1-0.9-0.2
		c-5.8,3.6-11.2,7.9-15.2,13.7c-2.1,3-4.1,6.2-5.8,9.5c-3.9,7.6-5.4,15.8-5.2,24.3c0,1.6,0.4,3.1,1.3,4.4c3.2,5.2,7.1,9.6,12.4,12.7
		c3.6,2.1,7.5,3.7,11.5,5c5,1.7,10.2,2.6,15.3,3.7c1.6,0.3,3.3,0.6,5,0.8c0.5,0.1,1.1-0.1,1.8-0.2c-0.1-1.2-0.2-2.1-0.3-3
		c-0.8-4.2-1.5-8.5-1.4-12.8c0.1-3.3,0.1-6.7,0.4-10c0.5-6.7,1.7-13.3,4.5-19.5C489.1,435.3,489.2,434.6,489.4,434
		c0.4,0,0.7-0.1,0.2-0.5C489.5,433.6,489.4,433.8,489.4,434z M551.7,573.2c-0.3-0.6-0.6-1-0.6-1.4c-0.2-1.2,0.1-2.4,0.8-3.4
		c1.1-1.7,2.4-3.3,3.5-5c0.2-0.3,0-0.8,0-1.8c-0.8,1.1-1.1,1.7-1.6,2.3c-1.8,2.4-4,4.5-6.7,5.8c-0.5,0.3-1.1,0.4-1.6-0.3
		c0.3-1.5,1.3-2.4,2.4-3.4c1.4-1.3,2.8-2.6,4.1-4c0.8-0.9,1.5-1.9,1.4-3.3c-0.4-0.7-0.8-1.6-1.3-2.4c-1.1-2-2.8-2.9-5-2.7
		c-1.1,0.1-2.1,0.3-3.2,0.5c-1.9,0.3-3.7,0.6-5.6,0.9c-0.2,0.8-0.4,1.6-0.8,2.3c-2.8,4.6-6.3,8.4-11.6,10.1
		c-1.8,0.6-3.5,0.7-5.1,0.1c-2.7-2.7-4-5.9-4.5-9.3c-1.1-0.8-2-1.6-3.4-1.1c-2.1,2.2-3.1,4.8-2.7,7.9c0.4,2.5-0.2,4.8-1.8,6.7
		c-0.8,1-1.1,2-1.4,3.2c-1,4.6-1.9,9.1-3.4,13.5c-0.3,0.8-0.5,1.5-0.8,2.5c1,0.7,1.8,1.6,2.7,1.9c2.4,0.7,4.9,1.5,7.4,1.5
		c3.6,0,7.1,1.1,10.7,0.5c4.5,0.7,9.1,0.2,13.6-0.2c0.8-0.1,1.9,0,2.4-0.5c1.2-1.3,2.6-1,4-0.7c4,0.9,8,1.2,12.1,1.2c3,0,6,0,9,0.1
		c3,0.1,6-0.2,8.9-0.9c4.2-1,8.3-2.5,12.1-4.4c1.4-0.7,2.8-1.3,3.6-2.9c-1.6-3.9-3.5-7.6-5.7-10.8c-3.7-0.6-7.1-1.1-10.7-1.6
		c-0.4,0.8-0.8,1.8-1.4,2.7c-0.5,0.8-1.1,1.6-1.8,2.2c-0.5,0.4-1.3,0.8-1.8-0.1c0.6-1.9,2.4-3.3,2.6-5.6c-1-0.5-1.9-0.9-2.8-1.3
		c-1.2,1-1.5,2.3-2.3,3.4c-0.5,0.8-1.1,1.6-1.8,2.2c-0.5,0.5-1.3,0.8-2,0.2c-0.4-0.3-0.7-1-0.7-1.5c-0.1-1.2,0.4-2.3,1-3.4
		c0.5-0.9,1-1.8,1.6-2.9c-0.5-0.4-0.8-0.6-1.3-0.9c-2.1,2.3-2.1,6.1-5.5,7.2c-1.3-1-1.1-2.3-0.6-3.4c0.9-1.8,2-3.5,2.9-5.3
		c0.1-0.2,0-0.4,0-0.7c-0.3-0.1-0.6-0.2-0.9-0.3C556.2,568.7,555.8,572.4,551.7,573.2z M525.4,419.7c3.5-2.3,6.3-4.3,9.2-6.1
		c1.9-1.1,3.4-2.6,4.5-4.5c0.5-0.8,0.9-1.7,1.3-2.5c2.1-4.2,4.6-8.1,7.7-11.7c1-1.2,2-2.4,3-3.6c0.2-0.2,0.2-0.5,0.2-0.8
		c-1.5,0-2.8,0-4.1,0c-2.7-0.1-5.5-0.2-8.2-0.4c-1.9-0.1-3.8,0-5.7-0.3c-2.8-0.4-5.6-1.1-8.4-1.7c-0.2,0-0.4,0.1-0.6,0.2
		c-0.6,0.8,0.1,2-0.6,3c-1.3-1.1-0.5-2.7-1-3.6c-5.1-1.9-10.1-3.7-15-5.7c-4.9-2-9.3-4.9-13.6-7.6c-0.4,0.2-0.6,0.3-0.7,0.5
		c-2.2,3.8-4.5,7.6-6,11.8c-2.2,6.1-6.1,10.8-11.4,14.4c-2,1.4-4.1,2.5-6.1,3.7c-0.6,0.4-1.1,0.8-2,1.3c1.2,0.5,2.1,0.8,2.9,1.2
		c6.4,2.5,12.3,5.9,17.2,10.8c1.1,1.1,2.2,2.2,3.4,3.2c0.8,0.7,1.6,1.4,2.5,2.2C504.4,421.7,515,420,525.4,419.7z M520,552.9
		c0.3-0.2,0.6-0.3,0.7-0.4c1.9-3,3.8-6,5.1-9.4c1.1-3,2.6-5.9,4-8.8c2.4-4.8,4.9-9.6,7.3-14.4c0.4-0.8,0.8-1.7,1.1-2.7
		c2.2-7.9,5.3-15.4,9.3-22.5c1.9-3.4,4.1-6.7,6.1-10.1c4.3-7.1,9.9-12.9,16.8-17.5c0.9-0.6,1.8-1.2,3.1-2.1c-1,0-1.5,0-1.9,0
		c-3.1,0.4-6.1,1-9.2,1.2c-3.3,0.2-6.3,1.1-9.4,2.3c-1.5,0.6-2.7,1.4-3.7,2.7c-3,3.7-5.7,7.7-7.4,12.2c-2.5,6.5-4.9,13-7.3,19.5
		c-0.4,1.1-0.9,2.2-0.1,3.4c0.2,0.4,0,1.1-0.2,1.7c-2.8,8.8-5.6,17.5-9.6,25.9c-2.4,5.1-4.5,10.3-6.2,15.7c0.3,0.5,0.6,1.1,0.8,1.6
		C519.5,551.6,519.7,552.3,520,552.9z M559.5,551.7c-1.3,2.4-1.9,5-4,6.8c0.5,0.7,0.8,1.2,1.2,1.6c1.3,1.4,2.8,2.7,3.8,4.3
		c1.1,1.9,2.8,2.8,4.7,3.6c1.2,0.5,2.4,1.1,3.6,1.6c3.2,1.5,6.5,2.2,9.9,2.8c0.8,0.1,1.7,0.1,2.4-0.2c1.6-0.8,3.2-1.7,4.6-2.7
		c1.1-0.7,2.1-1.6,2.2-3.2c-1.4-2.5-2.2-5.4-3.9-8c-2.9,0.7-5.7,0.6-8.6,0.5c-1.3,0-2.6,0.3-3.7,1.1c-0.4,0.3-0.7,0.7-1.2,0.2
		c-0.2-1.6-0.2-1.6-2-2.1c-0.3,0.6-0.6,1.2-1,1.8c-0.4,0.6-0.9,1.1-1.4,1.6c-0.2,0.2-0.8,0.3-1,0.2c-0.4-0.2-0.8-0.7-0.8-1
		c0-0.7,0.2-1.4,0.4-2.1c0.3-0.9,0.7-1.7,1.1-2.6c-0.7-0.5-1.3-1-2-1.5c-0.4,0.6-0.7,1-1,1.5c-0.5,0.9-0.9,1.9-1.4,2.9
		c-0.4,0.7-1,1-1.8,0.7c-0.7-1.9-0.8-2.5,0-4c0.4-0.8,1-1.6,1.5-2.4c0.1-0.2,0-0.4,0-0.8C560.5,552.2,560,552,559.5,551.7z
		 M600.9,429.5c-1.9-2-3.4-3.7-4.9-5.4c-1.1-1.3-2.6-2-4.3-2.4c-9.3-2.3-18.8-3.5-28.4-4c-7-0.4-14.1-0.3-21.2-0.2
		c-3,0-6,0.5-8.9,0.8c-0.5,0.1-0.9,0.6-1.8,1.3c4.1,0,7.6,0,11.1,0c6.6-0.1,13.1,0.7,19.6,1.8c8,1.3,16,3,23.8,5.3
		C590.6,428,595.3,429.3,600.9,429.5z M516.8,550.8c-0.4-0.4-1.1-1.1-1.9-1.6c-0.7-0.5-1.7-0.3-2.2,0.4c-1.3,2-2.2,4.2-1.8,6.8
		c2.8-1.2,2.8-1.1,5.3,0.1c0.5,0.3,1.1,0.5,1.6,0.7c0.2,0.1,0.4,0,0.8,0c0.2-0.6,0.4-1.3,0.4-1.6
		C518.3,553.8,517.6,552.5,516.8,550.8z M552.7,545.5c-0.9,1.4-1.8,2.9-2.8,4.4c-0.5,0.8-0.3,1.5,0.4,2.1c0.4-0.1,0.8-0.2,1-0.4
		c0.9-1.3,1.9-2.7,2.6-4.1C554.3,546.6,553.9,545.9,552.7,545.5z M504.2,577.7c-0.1,0-0.2,0-0.2,0.1c0,0.1,0,0.2-0.1,0.3
		c0.1,0,0.2-0.1,0.3-0.1C504.3,577.8,504.2,577.7,504.2,577.7z"/>
	<path d="M554.8,344.7c-1.3,0.9-2.1,1.5-3,2.2c-0.5-0.9,0.2-1.2,0.5-1.6c3.1-3.7,6.7-6.8,10.5-9.8c1-0.8,2.4-1.1,2.7-2.7
		c1.2-0.6,2.3-1.3,3.5-1.6c1.4-0.4,2.8-0.5,4.3-0.6c10.7-0.4,20.8-3.3,30.7-7c3.5-1.3,6.9-2.8,10.2-4.4c5.4-2.5,10.8-5.2,16.1-7.8
		c2.2-1.1,4.4-2.4,6.5-3.8c1.3-0.9,2.7-1.6,4.3-1.5c2.8,0.2,5.1-0.8,7.3-2.4c5.8-4.3,12.4-7.2,18.7-10.6c2.8-1.6,5.7-3,8.5-4.6
		c2.3-1.4,4.6-2.9,6.8-4.5c2.2-1.7,4.2-3.5,6.3-5.3c3.5-3,6.9-5.9,10.3-8.9c3.3-2.9,6.7-5.8,10-8.7c2.3-2,4.7-3.7,7.5-4.9
		c0.4-0.2,0.8-0.1,1.8-0.2c-0.7,0.8-1,1.4-1.5,1.6c-3.7,2.3-6.7,5.4-10,8.2c-6.4,5.6-13,11-19.5,16.5c-0.5,0.4-1,0.7-1.4,1.1
		c-10.1,7.1-20.2,14.2-31.5,19.2c-2,0.9-4,2-5.7,3.6c-1.6,1.5-3.8,2-6,2.1c-1.3,0-2.6,0-4.2,0c-4.6,4.3-10.6,6.8-16.4,9.7
		c-6.5,3.3-13.1,6.5-20,8.9c-4.2,1.4-8.4,2.6-12.8,3.3c-5.2,0.7-10.3,2-15.6,2.1c-1.1,0-2.1,0.3-3.2,0.5c-0.6,0.1-1.1,0.4-1.6,0.7
		c-4.3,3-8.5,6.2-12.5,10c0.1,2.6-1,5-2.3,7.3c-0.9,1.7-2.1,3.2-3,4.9c-1.4,2.6-3.7,4.1-6.5,4.6c-5.9,1-11.9,1.5-17.8-0.1
		c-4-1.1-7.5-3.1-10.5-5.9c-3.1-2.9-4.9-6.4-6.2-10.4c-0.9-2.7-0.8-5.4-0.9-8.1c0-3.8,0.2-7.7,1.1-11.4c0.9-4,2.6-7.7,5.3-10.9
		c3.4-4.1,7.5-7.4,12.3-9.8c4.6-2.3,9.4-2.6,14.3-1.2c1.3,0.4,2.5,0.8,3.7,1.1c0.1,0.9-0.3,1-0.8,0.8c-2.2-1-4.4-1.7-6.9-1.8
		c-3.7-0.1-7.1,0.9-10.2,2.8c-4.1,2.5-7.9,5.5-10.4,9.7c-4.2,4.5-5.4,10.3-6.5,16.1c-0.6,3-0.3,6,0.3,8.9c0.2,1.2,0.7,2.3,0.9,3.5
		c0.3,2,1.2,3.6,2.8,4.8c0.6,0.5,1.1,1.2,1.7,1.9c3.5,3.9,7.8,6.4,12.8,7.4c2.9,0.6,5.9,1.2,8.9,0.9c0.5,0,1-0.1,1.4,0.1
		c1.6,0.9,3,0.3,4.4-0.4c1.2-0.6,2.3-1.2,3.5-1.9c0.6-0.4,1.3-0.8,1.6-1.3c1.8-2.8,3.5-5.7,5.3-8.6
		C554.8,346.1,554.7,345.7,554.8,344.7z"/>
	<path d="M758.9,225.9c-0.4,0.5-0.8,1.1-1.2,1.6c-2.4,2.4-4.9,4.5-6.8,7.4c-0.7,1-1.9,1.8-3,2.5c-1.4,1.1-2.7,2.3-3.8,3.7
		c-2.4,2.9-5.2,5.5-7.5,8.5c-0.9,1.3-2.6,2.1-4.1,2.8c-2.2,1.1-4.6,1.9-7,2.7c-2.2,0.8-4.4,0.1-7.1-0.6c0.8-0.5,1-0.8,1.3-0.9
		c0.2-0.1,0.5-0.1,0.7,0c3.6,0.8,6.5-1,9.3-2.9c0.3-0.2,0.7-0.4,0.8-0.7c0.8-1.9,2.6-2.8,4.1-3.9c1.9-1.4,3.9-2.7,5.9-4.1
		c1.2-0.8,2.3-1.6,3-2.9c0.6-1.1,1.8-1.9,2.8-2.7c1.8-1.4,3.4-2.9,4.9-4.7c1.7-2.1,3.9-3.9,5.9-5.7
		C757.5,225.7,758,225.2,758.9,225.9z M734.5,249.2c-1.1-0.2-1.9,0.2-2.2,1.3l-0.1,0.1l0.1-0.2C733.3,250.4,734.1,250.2,734.5,249.2
		c0-0.1,0.1-0.1,0.2-0.2c0,0,0.1-0.1,0.1-0.2C734.7,249,734.6,249.1,734.5,249.2z"/>
	<path d="M575,320.6c-2.8,3.1-6.2,4.5-9.9,4c0.1-0.3,0.1-0.8,0.3-0.9c3.1-1.1,6.2-2.2,9.3-3.3C574.8,320.4,574.9,320.5,575,320.6z"
		/>
	<path d="M645.8,288.3c-0.5,2-1.6,3.3-2.7,4.8c-0.4,0.5-0.9,0.8-1.6,0.5c-0.6-0.3-0.8-0.9-0.7-1.5c0.1-1.3,0.9-2.2,1.8-2.9
		C643.5,288.5,644.3,287.8,645.8,288.3z"/>
	<path d="M542.1,357c1.2-1.7,4.6-5.3,6.2-6.5c0.5,1-0.3,1.5-0.7,2.1C545.5,355.5,544.3,356.4,542.1,357z"/>
	<path d="M543.4,312c-1.9,1.6-3.5,1.5-5.1,0.8c-0.7-0.3-1.1-1.2-0.8-1.8c0.3-0.6,0.9-0.8,1.5-0.6C540.3,310.8,541.6,311.3,543.4,312
		z"/>
	<path d="M715.7,250.9c-1.9,3.8-2.6,4.4-4.6,4.5c1-1.9,2.1-3.5,3.7-4.7C714.9,250.6,715.4,250.8,715.7,250.9z"/>
	<path d="M508.6,336c-1.4-2-1.4-3.9-1.2-6.3c0.5,0.6,0.9,0.9,1,1.2C508.6,332.5,509.2,334.1,508.6,336z"/>
	<path d="M639.5,304.9c0.8-1.9,2.2-2.6,4.6-2.5C642.5,303.8,641.1,304.5,639.5,304.9z"/>
	<path d="M607,313.5c1.2-1.2,2.5-2,4.1-2.4c0.3,0.9-0.3,1.2-0.7,1.4c-0.9,0.5-1.8,1-2.7,1.4C607.5,313.9,607.3,313.7,607,313.5z"/>
	<path d="M531.5,365.4c-1.2,1.2-2.4,2.1-4.4,2.5C529.2,365.7,529.6,365.4,531.5,365.4z"/>
	<path d="M508.5,338.8c0.7,1.6,0.8,3.2-0.1,5C507.8,341.9,507.6,340.3,508.5,338.8z"/>
	<path d="M648.6,284.2c-0.3,0.5-0.7,1.1-1.1,1.7C647,284.7,647,284.7,648.6,284.2z"/>
	<path d="M554.8,382.8c-1.6-0.3-1.6-0.3-2-1.4C553.8,381.2,554.4,381.6,554.8,382.8z"/>
	<path d="M546.9,376.7c1-0.1,1.4,0.7,1.8,1.5c-0.3,0.1-0.7,0.3-0.9,0.1C547.2,378,546.5,377.6,546.9,376.7z"/>
	<path d="M506.9,349.5c0-0.6-0.1-0.9,0-1.2c0-0.1,0.3-0.2,0.5-0.3c0.1,0.2,0.2,0.4,0.2,0.6C507.4,348.8,507.2,349,506.9,349.5z"/>
	<path d="M547.7,309c0.2,0.2,0.3,0.2,0.3,0.3c-0.2,0.2-0.5,0.4-0.7,0.6c-0.1-0.1-0.2-0.2-0.2-0.3C547.3,309.5,547.5,309.3,547.7,309
		z"/>
	<path d="M614.2,308.6c-0.3,0.1-0.6,0.2-0.9,0.3c0-0.2-0.2-0.5-0.1-0.5c0.1-0.1,0.4-0.2,0.6-0.2C613.9,308.2,614,308.4,614.2,308.6z
		"/>
	<path d="M577.6,318c-0.1-0.2-0.3-0.4-0.3-0.5c0.1-0.2,0.2-0.4,0.4-0.5c0.1,0,0.3,0.1,0.5,0.2C578,317.5,577.8,317.7,577.6,318z"/>
	<path d="M705.7,261c-0.4,0.4-0.7,0.7-1,1.1C704.2,261,704.5,260.7,705.7,261z"/>
	<path d="M708.5,258.9c-0.1-0.2-0.3-0.3-0.3-0.3c0.2-0.2,0.4-0.4,0.6-0.6c0,0,0.2,0.1,0.3,0.2C708.9,258.5,708.7,258.7,708.5,258.9z
		"/>
	<path d="M545.6,310.7c-0.2,0.1-0.4,0.2-0.6,0.3c0,0-0.1-0.2-0.2-0.3c0.2-0.1,0.4-0.2,0.6-0.2C545.4,310.4,545.5,310.6,545.6,310.7z
		"/>
	<polygon points="504.4,306.6 504.3,306.8 504.5,306.7 	"/>
	<polygon points="140.7,109 140.6,109.1 140.8,109 	"/>
	<path d="M523.8,371.4c-0.1,0.1-0.2,0.3-0.3,0.4c0-0.1,0-0.2,0.1-0.2C523.7,371.5,523.8,371.5,523.8,371.4L523.8,371.4z"/>
	<path d="M523.9,371.4c0.1-0.1,0.2-0.2,0.3-0.3c0,0.1,0,0.2-0.1,0.2C524,371.3,523.9,371.3,523.9,371.4L523.9,371.4z"/>
	<path d="M181.8,224c-1.7-0.8-4.4-2.9-5.2-4.1c-0.2-0.2-0.2-0.8,0-1c0.3-0.3,0.9-0.6,1.2-0.5C180.2,219.2,181.6,221.1,181.8,224z"/>
	<path d="M197.8,333.7c1,1.6,1.2,3.5,1,7.4c0,0.7,0.1,1.5-0.9,1.7C197.2,340.2,197.1,335.9,197.8,333.7z"/>
	<path d="M209.4,324.4c1.2,2.1,1.2,3.3-0.1,4.7c-0.2-0.5-0.6-0.9-0.6-1.2C208.8,327,209,326.1,209.4,324.4z"/>
	<path d="M200.7,128.4c-0.4-1.6-0.3-3.1,0.7-4.9C202.1,125.5,201.5,127,200.7,128.4z"/>
	<path d="M199.8,296.5c-1.9-0.3-2.1-1.6-2.2-3.1c1,0,1.2,0.7,1.5,1.2C199.3,295.2,199.5,295.9,199.8,296.5z"/>
	<path d="M216.5,319c1.1,0.9,1.2,1.6,0.7,2.6C216.2,321.1,216.1,320.3,216.5,319z"/>
	<path d="M203.7,337.8c0,0.9,0,1.7,0,2.6c-0.1,0-0.1,0-0.2,0c0-0.9,0-1.8,0-2.7C203.6,337.8,203.6,337.8,203.7,337.8z"/>
	<path d="M195.6,286.4c0-0.5,0-0.9,0-1.3c0.2,0,0.5,0,0.5,0.1c0.1,0.3,0.2,0.6,0.2,0.9C196.3,286.1,195.9,286.2,195.6,286.4z"/>
	<path d="M185.7,233.5c0.1,0.7,0.1,1.4,0.2,2.1c-0.1,0-0.3,0-0.4,0c-0.1-0.7-0.2-1.4-0.2-2.1C185.4,233.5,185.5,233.5,185.7,233.5z"
		/>
	<path d="M216.7,317.4c-0.8,0-1.2-0.4-0.7-1.1C216.3,316.7,216.5,317,216.7,317.4z"/>
	<path d="M182.8,110.4c-0.9,0.9-1.6,1-2.6,0.1C181.2,110.5,181.8,110.5,182.8,110.4z"/>
	<path d="M184.6,228.7c-0.1,0.2-0.2,0.4-0.3,0.6c-0.2-0.2-0.4-0.5-0.5-0.7c0-0.1,0.2-0.3,0.4-0.5
		C184.4,228.3,184.5,228.5,184.6,228.7z"/>
	<path d="M176.4,112.7c-0.1,0.1-0.2,0.3-0.4,0.4c-0.1-0.1-0.2-0.3-0.3-0.4c0.2-0.1,0.3-0.2,0.5-0.3
		C176.3,112.5,176.3,112.6,176.4,112.7z"/>
	<polygon points="196.6,289.1 196.9,289 196.8,289.2 	"/>
	<polygon points="195.2,281.3 194.9,281.4 195,281.1 	"/>
	<path d="M169.1,466.7c-0.7-4.8-0.5-9.2-0.5-13.5c0-0.3,0.3-0.5,0.5-0.8c1.2,2.8,1.2,3.2,1.1,9.1
		C170.1,463.1,170.3,464.8,169.1,466.7z"/>
	<path d="M199.3,402.4c1.1,2,0.5,3.4,0,4.6c-1,2.5-2,5.1-4.5,7c-0.2-1.7,0.8-2.7,1.3-3.8c0.6-1.2,1.2-2.3,1.7-3.6
		C198.3,405.5,198.7,404.2,199.3,402.4z"/>
	<path d="M169.7,407.2c-0.4-2.4-0.1-4.7-0.1-7.1c0-1.2,0.2-2.3,0.4-3.5c0-0.3,0.3-0.6,0.8-1.3c0.1,4.2,0.8,8-0.3,11.7
		C170.4,407.2,170,407.2,169.7,407.2z"/>
	<path d="M186.5,438.9c-1.4-2.5-1.3-4.5-0.2-9.1c0.3,0.2,0.7,0.4,0.7,0.6C187.2,433.3,187.1,436.1,186.5,438.9z"/>
	<path d="M191.2,417.9c-0.1-0.4-0.2-0.8-0.2-1.1c0.1-0.3,0.4-0.5,0.7-0.7c0.1-0.1,0.6,0.1,0.6,0.2c0,0.3,0,0.7-0.2,0.9
		C191.9,417.4,191.6,417.6,191.2,417.9z"/>
	<path d="M186.2,427.6c0-0.3,0-0.6,0-0.9c0.1,0,0.2,0,0.2,0.1c0,0.3,0,0.6,0,0.8C186.4,427.6,186.3,427.6,186.2,427.6z"/>
	<path d="M169.2,474.2c0,0.1-0.1,0.2-0.1,0.3c-0.1-0.1-0.2-0.3-0.2-0.4c0,0,0.1-0.1,0.2-0.2C169.1,474.1,169.2,474.2,169.2,474.2z"
		/>
	<path d="M168.4,482.2c-0.1,0-0.1,0-0.2,0.1c0-0.1,0-0.2-0.1-0.3c0.1,0,0.2,0,0.3-0.1C168.5,482,168.5,482.1,168.4,482.2z"/>
	<polygon points="184.2,422.3 184.1,422.1 184.3,422.1 	"/>
	<path d="M171.8,49.9c0.1,0.4,0,1,0.3,1.3c1.3,1.5,2.1,3.2,2,5.2c0,0.2,0.3,0.3,0.6,0.7c0.6-0.7,1.1-1.4,1.6-2.1
		c0.9,0.1,1.1,0.6,1,1.2c-0.4,1.7-1.4,2.6-3.1,2.8c-1.3-0.8-1.6-2.1-1.7-3.1c-0.2-2.4-1.7-3.8-3.5-5.4c-0.5,0.8-0.8,1.4-1.4,2.4
		c-0.1-1.8-0.7-3.2-1.6-4.4c-0.1-0.2,0-0.5,0-0.7l-0.1,0.1c0.6,0.4,1.1,0.8,1.9,1.3c0.1-0.3,0.4-0.6,0.3-0.9c-0.5-1.7,0-3,1-4.3
		c1.3-1.8,2.7-3.3,4.3-4.6c2,0.5,2.9,2.1,4.4,3.3c1.3,0.2,2.7,0.3,4.1,0.5c0.4,0.9-0.2,1.5-0.8,1.8c-0.5,0.2-1.2,0.2-1.7-0.1
		c-1.2-0.7-2.4-1.5-3.6-2.3c-0.7-0.5-1.3-1-1.9-1.4c-0.8,0.2-0.8,0.6-0.7,1.1c-0.5-0.1-0.7,0.2-0.9,0.6l-0.2,0.2l0.1-0.3
		c0.3-0.2,0.6-0.4,0.9-0.6c0.4,0.1,1,0,1.3,0.2c1.3,1.2,2.6,2.4,3.6,4.2c-0.5,0.8-1.1,1.7-1.6,2.5c1.4,2.1,1.4,2.1-1.3,3.8
		c-0.5-0.5-1.1-1.1-1.7-1.6C172.8,50.8,172.2,50.5,171.8,49.9c-0.4-0.1-0.6-0.4-0.9-0.6c0-0.7-0.1-1.4-0.1-2.1
		c-0.1-0.6,0.3-1.3-0.4-1.9c-1,1.6-0.7,2.8,0.6,3.9C171,49.7,171.2,50,171.8,49.9z M174.5,50c0,0.1,0,0.2,0.1,0.3
		c0,0,0.1,0.1,0.2,0.1C174.7,50.3,174.6,50.2,174.5,50c-0.1-0.4-0.2-1,0-1.3c0.6-0.8,1.4-1.4,2-2c-0.4-1.8-1.8-0.8-2.6-1.2
		c-0.1-0.5,0.9-0.9,0-1.5c-0.9,0.9-2,1.6-2.4,2.9C172,48.5,172.7,49.8,174.5,50z"/>
	<path d="M152.8,19.7c-0.3,1.3-1.2,2.9-2.1,3.7l0.1,0.1c-0.4-1.2-0.4-1.2-1.4-0.7l0.1,0.1c-0.7-1.7-2.2-2.1-3.8-2.1
		c-1.6,0.1-2.7,1-3.4,2.3c-0.9,1.7-1.4,3.5-1.6,5.5c-0.2,2.5-0.4,5-0.6,7.5c-0.1,1.1-0.2,2.1-0.4,3.2c-0.4-4.4-0.9-8.7,0.2-13.1
		c0.2-0.9,0.5-1.9,0.8-2.7c1.3-3,3.5-4.2,6.6-3.5c0.9,0.2,1.6,0.9,2.5,1.4C151,21.3,151.9,20.5,152.8,19.7L152.8,19.7z"/>
	<path d="M185.9,32.1c-1.3,1.7-3.4,2-5.2,2.7c-0.3,0.1-0.7,0-1.1,0c-3.4-0.6-6.8-1.2-10.2-1.9c-2.1-0.4-4.1-1.1-6.4-2.7
		c0.9,0.1,1.4,0.1,1.8,0.2c2.3,0.6,4.6,1.2,6.9,1.9c2.7,0.8,5.4,0.5,8.1-0.2c0.7-0.2,1.3-0.4,2.2-0.7c-0.2,0.7-0.3,1.1-0.5,1.5
		c-0.6,0.1-1.3-0.2-1.7,0.5c1,0.6,1,0.6,1.6-0.6c1.4,0.2,1.9-1.1,2.8-1.9C185,31.3,185.5,31.7,185.9,32.1L185.9,32.1z"/>
	<path d="M213.2,37.1c-0.2,0.4-0.2,0.9-0.5,1.2c-0.5,0.5-1.1,0.8-1.8,1.4c0.4,1.8-1.9,3.1-0.7,5.3c-2.1-0.3-3.5-1.1-4.7-2.2
		c-0.1-0.1-0.1-0.4-0.2-0.7c0.5,0,1,0.2,1.4,0.1c0.7-0.2,0.8-0.8,0.3-1.4c-0.9,0-1.6,0.3-1.6,1.4c-0.6,0-1.2-0.1-1.8-0.1
		c3-2.8,3.4-3.6,6.9-4.3C211.5,37.6,212.4,37.4,213.2,37.1L213.2,37.1z"/>
	<path d="M154.2,40.9c0.9,1,1.7,1.9,2.6,2.8c0.9,0.9,1.4,2.2,2.9,2.5c0.6,0.1,1,1,1.4,1.5c2,2.6,4.1,5.3,6.1,7.9
		c-0.4,0.8-0.8,0.2-1.1,0c-1.1-1.1-2.2-2.2-3.1-3.5c-1.3-1.9-2.8-3.5-4.5-5.1c-1.1-1.1-2.2-2.2-3.2-3.4c-0.6-0.7-1-1.6-1.6-2.4
		C153.9,41.3,154.1,41.1,154.2,40.9z"/>
	<path d="M180.4,59.8c0.3,1.1,0.5,1.8,0.7,2.6c1.2,3.7,3.6,6.4,7.3,7.7c0.9,0.3,1.8,0.6,2.7,1c0.4,0.2,0.7,0.5,1.1,0.9
		c-0.4,0.2-0.6,0.3-0.8,0.3c-2.9-0.3-5.6-1.3-7.8-3.2C181.1,66.7,179.6,63.9,180.4,59.8z"/>
	<path d="M188.9,25.7c-0.1,0.4-0.2,1-0.5,1.2c-1.6,1.3-3.3,2.5-5.3,3l0.1,0.1c0.4-0.7,0.8-1.3,1.2-2c-2-1.2-4.4-1.3-6.9-3
		c2,0.3,3.4,0.5,4.8,0.8c1.9,0.4,3.5,0.3,5-1.1c0.1-0.1,0.4-0.1,0.7-0.1c0.1,0.3,0.1,0.7,0.2,1c0,0.1-0.1,0.1-0.1,0.2
		c0-0.1,0-0.2,0.1-0.3C188.4,25.6,188.7,25.7,188.9,25.7L188.9,25.7z"/>
	<path d="M206,15.5c-2.7,0.5-2.7,0.5-6-1.3c0.5,0.9,0.8,1.6,1.2,2.2c-0.3,0.1-0.6,0.2-0.7,0.1c-1.2-1.1-2.4-2.2-3.9-3.6
		c2.5-0.7,4.8,0.1,6.9,0.6C204.5,13.9,205.5,14.3,206,15.5z"/>
	<path d="M160.1,17.4c1.8-1.9,4.1-2.9,6.5-3.5c2.1-0.6,4.2-1.5,6.8-0.9C168.7,14.3,164.3,15.5,160.1,17.4z"/>
	<path d="M214.6,32.6c-2.9,0.3-5.7,0.7-8.6,1c-0.5,0-0.9-0.1-1.9-0.2c2.6-1.4,4.9-2.1,7.4-2C212.5,31.4,213.8,31.3,214.6,32.6z"/>
	<path d="M185.3,14.8c3.8,0.3,8.3,1.9,10.9,3.8c-0.2,0.1-0.3,0.4-0.4,0.3c-3.3-1.1-6.5-2.3-9.7-3.5C185.8,15.4,185.6,15,185.3,14.8
		L185.3,14.8z"/>
	<path d="M188.3,21.2c-2-0.3-4.1-0.6-5.9-1.6c0.8-0.4,1.6-0.8,2.3-1.2l-0.1,0.1c1.7,0.3,3.3,0.7,5,1.1c-0.6,0.6-1.7,0.7-1.5,1.8
		L188.3,21.2z"/>
	<path d="M177.2,40.9c3-0.2,5.3-0.8,7.4-2.6c0.1,0.7,0.2,1.1,0.1,1.2c-1.5,1.9-3.5,2.8-6,2.3C178.4,41.8,178.2,41.5,177.2,40.9z"/>
	<path d="M184.3,35.4c-2.1,2.1-4.2,3.6-7.3,3.8c0.6-1.1,1.6-1.1,2.3-1.6c0.8-0.5,1.6-1.1,2.4-1.5C182.5,35.7,183,34.5,184.3,35.4z"
		/>
	<path d="M168,11.3c0.2-0.2,0.4-0.6,0.7-0.7c2.4-0.8,4.6-2,7.2-2.2l-0.1-0.1C173.2,10.1,170.4,11.1,168,11.3L168,11.3z"/>
	<path d="M145.7,27.8c-0.1,0.7-0.2,1.4-0.4,2.1c-0.4,1.9-0.8,3.7-1.2,5.6c-0.1,0.5-0.4,1-0.7,1.6l0.1,0.1c-0.1-2.7,0.1-5.4,1.2-8
		C145,28.6,145,27.9,145.7,27.8L145.7,27.8z"/>
	<path d="M163.8,55.7c-1-0.2-2.2,0.4-3-0.4c-1.2-1.1-2.7-2-2.8-3.8l-0.1,0.1c1.2,0.4,1.7,1.5,2.5,2.3c0.8,0.7,1.5,1.4,2.7,1.2
		C163.3,55,163.5,55.5,163.8,55.7L163.8,55.7z"/>
	<path d="M165.1,58c1.6,0.9,2.5,2.3,3.4,3.8c0.1,0.2,0,0.6,0,1.1C166.8,61.2,165.6,59.6,165.1,58L165.1,58z"/>
	<path d="M176.1,28.2c0.9-0.1,1.1-0.3,1.3-0.2c1,0.2,2,0.5,3.2,0.8C179,29.5,178,28.4,176.1,28.2z"/>
	<path d="M188.1,21.3c0.3,0.1,0.7,0.1,1,0.2c-0.9,1.1-0.9,1.1-2.5,1.7c-0.3-0.7,0.5-0.7,0.8-1.1c0.3-0.3,0.6-0.6,0.9-1L188.1,21.3z"
		/>
	<path d="M164.4,42.9c0.4,0.1,1,0.1,1.3,0.3c0.4,0.3,1.1,0.3,1.2,1.3C165.8,44.2,164.9,44,164.4,42.9L164.4,42.9z"/>
	<path d="M158,51.5c-1.4-0.4-1.7-1.7-2.2-2.8l-0.1,0.1C157.1,49.1,157.6,50.3,158,51.5L158,51.5z"/>
	<path d="M157.3,20.6c0.8-0.8,1.7-0.6,2.6-0.2C159,20.4,158.1,20.5,157.3,20.6L157.3,20.6z"/>
	<path d="M165.2,57.9c-1.1-0.4-1.5-1.2-1.4-2.2l-0.1,0.1C164.6,56.2,165.1,56.9,165.2,57.9L165.2,57.9z"/>
	<path d="M141.6,17.8c0.4-1.2,1.3-0.4,2-0.4C142.9,17.5,142.2,17.6,141.6,17.8L141.6,17.8z"/>
	<path d="M196,14.9c0.9-0.2,1.5,0.1,2,1.2C197,15.9,196.3,15.8,196,14.9L196,14.9z"/>
	<path d="M165.9,47.9c-1.2-0.2-1.3-1.1-1.5-2.1l-0.1,0.1C165.3,46.2,165.8,46.9,165.9,47.9L165.9,47.9z"/>
	<path d="M143.5,37c0,0.7,0,1.4,0,2.1C143.1,38.4,143.1,37.7,143.5,37L143.5,37z"/>
	<path d="M147.8,24.1c0,1-0.4,1.8-1.4,2.2l0.1,0.1C146.5,25.3,146.9,24.6,147.8,24.1L147.8,24.1z"/>
	<path d="M141.7,59.6c0-0.4,0-0.7,0.1-1c0.1,0.2,0.2,0.4,0.2,0.7C141.9,59.3,141.8,59.4,141.7,59.6z"/>
	<path d="M185.3,14.8c-0.5,0-1.1,0-1.9,0C184.4,14,184.9,14.2,185.3,14.8L185.3,14.8z"/>
	<path d="M194.7,14.1c0.5,0.1,1.2-0.1,1.3,0.8l0.1-0.1C195.5,14.8,194.8,14.9,194.7,14.1L194.7,14.1z"/>
	<path d="M194.8,14c-0.3,0-0.6-0.1-0.4,0C194.2,13.9,194.4,14,194.8,14L194.8,14z"/>
	<path d="M167.8,39.7c0-0.1,0.1-0.2,0.1-0.2c0.1,0,0.2,0,0.3,0.1c0,0.1-0.1,0.2-0.1,0.2C168,39.7,167.9,39.7,167.8,39.7z"/>
	<path d="M145.8,27.8c-0.1-0.7-0.1-1.3,0.7-1.5l-0.1-0.1C146.5,26.9,146.5,27.5,145.8,27.8L145.8,27.8z"/>
	<path d="M188.2,29.9c0-0.2,0-0.5,0.1-0.7c0-0.1,0.2-0.2,0.4-0.2c0,0.1,0.1,0.3,0.1,0.3C188.5,29.5,188.3,29.7,188.2,29.9
		L188.2,29.9z"/>
	<path d="M175.9,8.4c0.2-0.1,0.3-0.3,0.5-0.4c0.1-0.1,0.2,0,0.3,0c-0.1,0.1-0.1,0.3-0.2,0.3C176.2,8.3,176,8.3,175.9,8.4L175.9,8.4z
		"/>
	<path d="M157.2,20.5c-0.1,0.2-0.3,0.4-0.5,0.5c-0.1,0-0.3-0.1-0.5-0.2c0.1,0,0.2-0.1,0.3-0.1C156.8,20.7,157.1,20.6,157.2,20.5
		L157.2,20.5z"/>
	<path d="M184.7,18.3c-0.4,0-0.7,0-0.2,0C184,18.1,184.3,18.2,184.7,18.3L184.7,18.3z"/>
	<path d="M165.7,35.8c0.3,0,0.6,0,0.3,0C166.3,35.9,166,35.8,165.7,35.8L165.7,35.8z"/>
	<path d="M146.4,18.4c-0.2-0.1-0.5-0.1-0.7-0.2C145.9,18.3,146.2,18.4,146.4,18.4L146.4,18.4z"/>
	<path d="M141.5,17.7c-0.2,0.1-0.5,0.2-0.3,0.1C141,17.9,141.3,17.9,141.5,17.7L141.5,17.7z"/>
	<path d="M155.1,47.2c0.7,0.3,0.7,0.9,0.6,1.5l0.1-0.1C155.2,48.3,155,47.8,155.1,47.2L155.1,47.2z"/>
	<path d="M164.4,45.8c-0.2-0.2-0.3-0.4-0.2-0.2C164.2,45.3,164.3,45.6,164.4,45.8L164.4,45.8z"/>
	<path d="M148.7,23.5c-0.1-0.6,0.2-0.8,0.7-0.7l-0.1-0.1C149.1,23,148.9,23.2,148.7,23.5L148.7,23.5z"/>
	<path d="M148.6,23.5c-0.3,0.2-0.5,0.4-0.8,0.7l0.1,0.1C148,23.7,148.2,23.4,148.6,23.5L148.6,23.5z"/>
	<path d="M150.7,23.4c0,0.1-0.1,0.2-0.1,0.3C150.7,23.6,150.8,23.5,150.7,23.4L150.7,23.4z"/>
	<polygon points="146.4,18.4 146.6,18.5 146.4,18.4 	"/>
	<path d="M186,32.1c0.2-0.3,0.4-0.5,0.7-0.8l-0.1-0.1C186.7,31.9,186.4,32,186,32.1L186,32.1z"/>
	<path d="M213.3,37.2c0.1-0.1,0.2-0.2,0.3-0.3c0,0.1,0,0.2-0.1,0.2C213.4,37.1,213.3,37.1,213.3,37.2L213.3,37.2z"/>
	<path d="M155.2,47.1c-0.2-0.1-0.3-0.2-0.5-0.2c0.1,0,0.2,0,0.2,0C155,47,155,47.1,155.2,47.1L155.2,47.1z"/>
	<path d="M189.7,24.9c0.1-0.1,0.2-0.2,0.3-0.4c0,0.1,0,0.2-0.1,0.2C189.8,24.8,189.7,24.8,189.7,24.9L189.7,24.9z"/>
	<path d="M189,25.8c0.2-0.3,0.5-0.6,0.7-0.8l-0.1-0.1C189.3,25.1,189.1,25.4,189,25.8L189,25.8z"/>
	<path d="M183.1,29.9C182.9,30.2,183.1,30,183.1,29.9L183.1,29.9z"/>
	<path d="M188.1,29.8c0,0.5-0.2,0.7-0.8,0.7l0.1,0.1C187.7,30.4,187.9,30.2,188.1,29.8L188.1,29.8z"/>
	<path d="M187.3,30.5c0.1,0.6-0.1,0.8-0.7,0.7l0.1,0.1C186.9,31.1,187.2,30.9,187.3,30.5L187.3,30.5z"/>
	<path d="M181.2,282c-0.7-3.1-0.1-5.9-0.1-8.7c0-0.5,0.3-1,0.6-1.8C182.6,273.8,182.4,276.6,181.2,282z"/>
	<path d="M167.4,311.4c-2.1,1.2-4.4,1.6-6.9,1.5c1-1.2,2.3-1,3.4-1.2C165.1,311.6,166.2,311.5,167.4,311.4z"/>
	<path d="M210.7,266.5c-0.3-0.7-0.7-1.2-0.7-1.7c-0.2-2.7-0.7-5.3-0.6-8c1.3,0.2,1.4,1.2,1.5,1.9c0.3,2.3,0.5,4.7,0.6,7
		C211.4,265.8,211,266.1,210.7,266.5z"/>
	<path d="M205.5,240.8c0-0.5,0-1.1,0-1.6c0.1,0,0.2,0,0.3,0c0.1,0.5,0.2,1.1,0.2,1.6C205.9,240.7,205.7,240.8,205.5,240.8z"/>
	<path d="M207.1,246.6c0-0.4,0-0.7,0-1c0.1,0.2,0.2,0.5,0.3,0.7C207.3,246.3,207.2,246.4,207.1,246.6z"/>
	<path d="M199.8,211.6c-0.1,0-0.2,0.1-0.3,0.1c0-0.1-0.1-0.3-0.1-0.4c0.1,0,0.2,0,0.3,0.1C199.8,211.4,199.8,211.5,199.8,211.6z"/>
	<path d="M208.2,251.2c-0.1,0.2-0.2,0.4-0.2,0.5c-0.1-0.1-0.2-0.2-0.2-0.3c0-0.2,0.1-0.4,0.2-0.5C208.1,251,208.1,251.1,208.2,251.2
		z"/>
	<path d="M201,204c0.3,0.1,0.6,0.1,0.9,0.2c-0.1,0-0.2,0.2-0.2,0.1c-0.2-0.1-0.4-0.3-0.5-0.4L201,204z"/>
	<path d="M201.1,203.9c-0.1-0.1-0.2-0.3-0.3-0.4c0.1,0.1,0.2,0.1,0.2,0.2c0,0.1,0,0.2,0,0.3L201.1,203.9z"/>
	<path d="M198.2,201c0.1,0.1,0.2,0.2,0.3,0.3c-0.1,0-0.2,0-0.2-0.1C198.2,201.2,198.2,201.1,198.2,201L198.2,201z"/>
	<path d="M582.8,489.4c0.7-3,4.7-12,6.3-14.3c0.1,0,0.3,0.1,0.3,0.1c0.6,1.4-0.3,2.5-0.7,3.7C586.2,485.3,585.2,487.1,582.8,489.4z"
		/>
	<path d="M525.2,554.8c0.6,2.8-0.3,4.6-2.1,6.2c-0.3,0.2-1,0.2-1.3,0c-0.3-0.2-0.4-0.9-0.3-1.2C522.4,558,523.4,556.4,525.2,554.8z"
		/>
	<path d="M542.2,463.1c2.7-2.7,5.2-2.6,7.8-2.3C547.9,462.4,545.6,463.4,542.2,463.1z"/>
	<path d="M599.4,477.3c-0.4-2.7,0.8-4.7,0.7-6.8c0.9-0.2,1.1,0.2,1,0.7c-0.2,1.6-0.5,3.2-0.8,4.9
		C600.4,476.3,599.9,476.6,599.4,477.3z"/>
	<path d="M606.5,439.3c1.8-0.1,1.8-0.1,3.2,1.2c-0.2,0.6-0.6,0.6-1.1,0.3C608,440.4,607.4,439.9,606.5,439.3z"/>
	<path d="M526.3,553.4c-0.1-0.2-0.3-0.5-0.3-0.6c0.2-0.3,0.5-0.6,0.8-0.9c0,0,0.4,0.3,0.4,0.3c-0.2,0.4-0.4,0.7-0.7,1
		C526.5,553.4,526.4,553.4,526.3,553.4z"/>
	<path d="M573.3,505.4c-0.1,0.3,0,0.7-0.2,0.9c-0.1,0.2-0.5,0.4-1.3,0.9c0.5-1.1,0.7-1.5,0.9-2C573,505.3,573.1,505.3,573.3,505.4z"
		/>
	<path d="M556.4,458.4c-0.2,0.8-0.7,1-1.2,0.8c-0.1,0-0.1-0.4-0.2-0.6C555.5,458.6,555.9,458.5,556.4,458.4z"/>
	<path d="M602.5,437.9c-0.2,0.1-0.4,0.2-0.6,0.1c-0.1-0.1-0.2-0.3-0.3-0.5c0.2,0,0.4-0.2,0.5-0.1
		C602.3,437.5,602.4,437.7,602.5,437.9z"/>
	<path d="M580.5,493.4c-0.2,0.2-0.4,0.5-0.6,0.7c-0.1-0.1-0.3-0.2-0.4-0.4c0.2-0.2,0.5-0.5,0.7-0.7
		C580.3,493.1,580.4,493.2,580.5,493.4z"/>
	<path d="M531.5,546c-0.2,0.2-0.5,0.4-0.7,0.6c0,0-0.2-0.1-0.2-0.2c0.1-0.3,0.1-0.6,0.3-0.8c0-0.1,0.4,0,0.6,0.1
		C531.5,545.7,531.5,545.9,531.5,546z"/>
	<path d="M588.3,459.5c0,0.1,0.1,0.2,0.1,0.3c-0.1,0-0.3,0.1-0.4,0.1c0-0.1,0-0.2,0.1-0.3C588,459.5,588.2,459.5,588.3,459.5z"/>
	<path d="M560.6,458.2c-0.1,0-0.2-0.1-0.3-0.1c0.1-0.1,0.2-0.2,0.4-0.3c0,0,0.2,0.1,0.3,0.2C560.8,458.1,560.7,458.1,560.6,458.2z"
		/>
	<path d="M584.7,460.8c0.1,0,0.2-0.1,0.3-0.1c0,0.1,0,0.2,0.1,0.3c-0.1,0-0.2,0-0.3,0C584.8,460.9,584.8,460.8,584.7,460.8z"/>
	<path d="M536.2,464.6c-0.1,0-0.2,0-0.3,0c0,0,0-0.1-0.1-0.2c0.1,0,0.2,0,0.3,0C536.1,464.4,536.1,464.5,536.2,464.6z"/>
	<path d="M600.5,464.9c-0.1,0-0.1,0.1-0.2,0.1c0-0.1-0.1-0.2-0.1-0.3c0,0,0.1-0.1,0.2-0.1C600.5,464.7,600.5,464.8,600.5,464.9z"/>
	<path d="M576.8,500.3c-0.1,0-0.2,0.1-0.2,0.1c0-0.1-0.1-0.2-0.1-0.3c0.1,0,0.2-0.1,0.4-0.1C576.8,500.1,576.8,500.2,576.8,500.3z"
		/>
	<path d="M528.7,549.9c-0.1,0-0.2,0.1-0.2,0.1c0-0.1-0.1-0.2-0.1-0.3c0.1,0,0.3-0.1,0.4-0.1C528.8,549.7,528.7,549.8,528.7,549.9z"
		/>
	<polygon points="565.9,456.4 566,456.6 565.8,456.6 	"/>
	<path d="M531.8,241.3c-6.3-2.3-10.7-6.4-12.2-13.1c-0.3-1.1-0.4-2.3-0.7-3.4l-0.1,0.1c0.4,0.2,0.9,0.3,1.3,0.5
		c3.8,2.4,7.6,4.8,11.3,7.2c0.4,0.2,0.7,0.6,1.1,0.9l0.1-0.1c-1.2,0.3-2.1-0.3-3-0.8c-2-1-4-2-5.9-3.1c-0.6,0.6,0,0.9,0.3,1.2
		c1.7,1.8,3.8,3.2,5.9,4.5c0.8,0.5,1.5,1,2.7,1.7c-2.8,0.3-4.7-1.2-7.5-2c2,2.4,3.7,3.9,5.6,5.3
		C531.1,240.4,531.8,240.6,531.8,241.3L531.8,241.3z"/>
	<path d="M532.4,246.4c0.5,0.2,1.1,0.4,1.9,0.6c-0.1-1.5-0.2-2.9-0.3-4.2l-0.1,0.1c0.7-0.6,1.4-1.2,2-2c1.1-1.5,2.4-2.6,3.8-3.9
		c1,0.7,2.1,1.1,2.7,1.9c1.1,1.4,2.4,1.8,4,1.9c0.6,0,1.1,0.1,2,0.2c-0.4,0.7-0.6,1.3-1,1.6c-0.4,0.2-1.1,0.2-1.7,0.1
		c-1.1-0.4-2.2-0.9-3.3-1.4l0.1,0.1c-0.3-0.3-0.6-0.6-0.9-0.9l0.1,0.1c0-0.5-0.3-0.8-0.8-0.8l0.1,0.1c-0.4-0.4-0.7-0.8-1.2-1.3
		c-0.4,0.5-0.8,0.9-1.1,1.3l0.1-0.1c-0.3,0.5-0.5,1-0.8,1.6l0.1-0.1c-0.3,0.3-0.5,0.5-0.8,0.8l0.1-0.1c-0.3,0.3-0.8,0.6-1,1
		c-0.7,1.2-0.9,2.4,0.3,3.4l-0.1-0.2c0.3,0.5,0.5,1.1,0.8,1.6l-0.1-0.1c0.3,0.3,0.6,0.6,0.8,0.8l-0.1-0.1c1.1,1.9,2.6,3.7,2.2,6.1
		c1.7,0.3,1.1-2.2,2.7-1.8c0.6,0.9,0.3,1.8-0.2,2.6c-0.6,1-1.5,1.5-2.7,1.4c-1.2-0.9-1.5-2.2-1.7-3.4c-0.3-2.3-1.8-3.5-3.4-5.1
		c-0.4,0.9-0.7,1.5-0.9,2.2c-1.1-0.5-0.6-1.5-0.9-2.2C533.1,247.6,532.8,246.9,532.4,246.4L532.4,246.4z"/>
	<path d="M554.1,228.4c-1.6,2.3-4.3,2.9-6.7,4c-0.4,0.2-0.9,0.2-1.4,0.1c-3.4-0.6-6.8-1.2-10.2-1.9c-2.5-0.5-4.8-1.4-6.9-2.9l0,0.1
		c1,0.2,2.1,0.4,3.1,0.7c2.4,0.6,4.8,1.4,7.2,1.9c2.7,0.5,5.4,0.2,8-0.9c0.7-0.3,1.4-0.4,1.8,0.5c-0.5,0-0.8,0.2-0.7,0.8
		c-0.7,0.1-1.3,0.2-2,0.3c0,0-0.1,0.2,0,0.3c0,0.1,0.1,0.3,0.2,0.3c0.8,0.1,1.4-0.3,1.7-1c0.2-0.3,0.5-0.5,0.7-0.8
		c0.6-0.4,1.2-0.7,1.9-1.1c0.2,0.2,0.5,0.5,0.8,0.8c1,0,1.4-1.4,2.6-0.9L554.1,228.4z"/>
	<path d="M542.5,241.2c0.5,1,1.1,2,1.7,3.2c-0.5,0.8-1,1.5-1.4,2.3c1.3,2.3,1.3,2.3-1.4,3.8c-1.1-0.6-1.6-2.1-3.1-2l0.1,0.1
		c-0.3-0.3-0.6-0.6-0.8-0.8l0.1,0.1c-0.3-0.5-0.5-1.1-0.8-1.6l0.1,0.2c-0.2-1.5,0.1-3,0.7-4.4l-0.1,0.1c0.3-0.3,0.5-0.5,0.8-0.8
		l-0.1,0.1c0.3-0.5,0.5-1,0.8-1.6l-0.1,0.1c0.8,0,1.5,0,2.3,0c0,0-0.1-0.1-0.1-0.1c0,0.5,0.3,0.8,0.8,0.8l-0.1-0.1
		c0.3,0.3,0.6,0.6,0.9,0.9L542.5,241.2z M539.7,242.8c-0.9,0.1-1.6,0.7-1.7,1.5c0,0.7,0.3,1.6,0.7,2.2c0.4,0.6,1.2,1,1.9,1.5
		c0.2-0.9,0.1-1.7,0.5-2.3c0.4-0.6,1.2-0.9,2.1-1.5c-0.9-0.6-1.5-1.1-2.1-1.5c-0.3-0.3-0.7-0.5-1-0.8
		C540,242.2,539.8,242.5,539.7,242.8z"/>
	<path d="M515.3,218.9c-0.7-0.1-1.4-0.3-2.1-0.4c-2.2-0.3-3.7,0.4-4.7,2.4c-0.5,1.1-1,2.2-1.1,3.4c-0.4,2.1-0.6,4.3-0.7,6.4
		c-0.2,2.3-0.1,4.5-0.2,7.2c-1.2-5.3-1.3-8.5-0.5-13.2c0.3-1.5,0.7-3.1,1.5-4.4c1.6-2.9,3.3-3.2,6.7-2.5
		C514.5,217.8,514.8,218.6,515.3,218.9L515.3,218.9z"/>
	<path d="M572.1,238.4c0.5-2,2.3-2.2,3.8-2.8c1.2-0.4,2.5-0.6,3.8-0.9c0,1.5-1.6,1.6-2.4,2.7c0.4,1.7-1.7,3-1.2,5.3
		c-1.9-0.7-3.7-1.1-4.7-2.9l-0.1,0.1c0.7,0.1,1.3,0.1,2,0.2c0.1-0.3,0.3-0.5,0.3-0.8C573.6,238.1,572.6,238.6,572.1,238.4
		L572.1,238.4z"/>
	<path d="M546.4,257.5c0.4,1,0.8,1.8,1,2.6c1.3,4.1,4,6.7,8.1,8c0.7,0.2,1.4,0.4,2,0.7c0.4,0.2,0.7,0.5,1.2,0.9
		c-3.6,0.1-7.2-1.3-9.5-3.8C547.1,263.7,545.8,261.1,546.4,257.5z"/>
	<path d="M533.5,253.6c-1.8-0.3-2.7-1.6-3.6-2.8c-1.7-2.5-3.7-4.7-5.9-6.7c-1.2-1.1-2.2-2.5-3.2-3.8c-0.3-0.3-0.3-0.8-0.5-1.2
		c0.8-0.4,0.9,0.3,1.1,0.6c1.6,1.6,2.7,3.7,4.8,4.8c0.5,0.3,0.8,0.8,1.2,1.3C529.4,248.3,531.5,250.9,533.5,253.6z"/>
	<path d="M548.9,227.5c0.6-0.5,1.2-1.1,2-1.8c-0.8-0.3-1.5-0.6-2.2-0.9c-0.8-0.3-1.6-0.5-2.3-0.8c-0.4-0.2-0.7-0.5-1-0.8l-0.1,0.1
		c1.1,0.1,2.1,0,3.2,0.2c1.9,0.4,3.5,0.3,4.9-1.1c0.4-0.3,0.9-0.4,1.2,0.2l0.1-0.1c-0.3,0.2-0.6,0.5-0.9,0.7l-0.1,0.1l0-0.2
		c0.3,0.1,0.6,0.2,1,0.2l-0.1-0.1c0.1,0.3,0.2,0.7,0.3,1.3c-1.7,1-3.4,2-5.1,3C549.7,227.7,549.2,227.5,548.9,227.5L548.9,227.5z"/>
	<path d="M567.1,212.5c0.1,0.6,0.2,1.2,0.3,1.9c-0.4-0.1-0.7-0.1-0.8-0.2c-1.2-1.1-2.4-2.3-3.7-3.6c3-0.4,5.5,0.2,7.9,1.1
		c0.6,0.2,1.4,0.6,1.1,1.6c-1.2,0.5-2.4,0.5-3.6-0.3C567.9,212.8,567.4,212.7,567.1,212.5c-0.2-0.1-0.1-0.7-0.5-0.1
		C566.7,212.4,566.9,212.4,567.1,212.5z"/>
	<path d="M526.4,215.2c0.9-1.6,2.4-2.1,3.9-2.7c3.7-1.5,6.3-2,9.5-1.8C535.1,211.9,530.7,213.2,526.4,215.2z"/>
	<path d="M562.1,216.8c-4-1.5-8-2.9-12.6-4.6C553.8,212.3,559.8,214.4,562.1,216.8z"/>
	<path d="M570.6,231c5.1-2.4,8.2-2.5,10.2-0.6c-2.9,0.3-5.8,0.6-8.7,0.9C571.7,231.3,571.4,231.1,570.6,231z"/>
	<path d="M550.4,216.2c1.7,0.3,3.4,0.6,5.4,0.9c-0.8,0.7-1.5,1.2-2.2,1.7c-1.6-0.4-3.2-0.8-5.1-1.3
		C549.4,216.9,549.9,216.5,550.4,216.2L550.4,216.2z"/>
	<path d="M551.2,236.2c-0.4,2.2-1.8,2.6-3,3.1c-1.5,0.6-3,0.7-4.5-0.5c1.4-0.3,2.6-0.5,3.8-0.9C548.6,237.5,549.7,236.9,551.2,236.2
		z"/>
	<path d="M542.7,236.9c2.9-1.7,5-3,7.2-4.3c0.2,0.3,0.4,0.6,0.3,0.7C548.4,235.4,546.2,236.8,542.7,236.9z"/>
	<path d="M537.3,271.1c0.7,2,1.5,4.1,1.7,6.6c-0.6-0.4-1-0.5-1.1-0.7c-0.6-1.7-1.1-3.3-1.6-5C536.2,271.4,536.6,271.1,537.3,271.1z"
		/>
	<path d="M529.7,252.8c1.5,2,3.1,3.9,4.6,5.9c0.3,0.4,0.4,1,0.8,2.3c-2.3-2.6-4-4.6-5.1-6.9c-0.2-0.4-0.2-0.9-0.2-1.4L529.7,252.8z"
		/>
	<path d="M510.9,228.3c0,0.5,0.1,1,0,1.4c-0.4,2.8-0.8,5.7-1.1,8.3c-0.4-2.9-0.2-6,0.6-9C510.4,228.8,510.7,228.6,510.9,228.3
		L510.9,228.3z"/>
	<path d="M555,277.5c-1.6-1.5-2.5-3.4-2.3-6.1C554.6,273.2,554.8,275.3,555,277.5z"/>
	<path d="M515.2,219c0.8-0.2,1.6-0.3,2.4-0.5c0.5-0.1,0.9-0.1,1.4-0.2l-0.1-0.1c-0.5,1-1,2.1-1.5,3.3c-0.1-0.2-0.6-1.5-0.6-1.5
		c-0.6,0.1-1.1,0.2-1.7,0.2l0.1,0.1C515.2,219.9,515.2,219.4,515.2,219L515.2,219z"/>
	<path d="M515.1,220.3c0,0.3,0.1,0.8-0.1,1c-0.9,1.1-1.3,2.6-2.7,3.4l0.1,0.1c0.1-2,1.5-3.1,2.8-4.4L515.1,220.3z"/>
	<path d="M560.5,211.9c2.4,0.3,2.4,0.3,3.6,2.2C562.7,213.1,561.4,212.8,560.5,211.9L560.5,211.9z"/>
	<path d="M512.3,224.7c0.1,1.4-0.5,2.6-1.4,3.6l0.1,0.1C510.7,226.9,511.2,225.7,512.3,224.7L512.3,224.7z"/>
	<path d="M523.1,247.8c1.3,0.5,1.9,1.6,2.2,2.8l-0.1,0.1C524,250.1,523.3,249.1,523.1,247.8L523.1,247.8z"/>
	<path d="M508.8,260c-0.8-0.8-0.5-1.7-0.6-2.9C508.9,258.2,508.6,259.2,508.8,260L508.8,260z"/>
	<path d="M571.3,239.8c-0.6,0-1.2,0.3-1.7-0.2c0.7-0.7,1.5-1.2,2.5-1.2l-0.1-0.1c-0.3,0.5-0.5,1-0.8,1.5L571.3,239.8z"/>
	<path d="M525.3,250.6c1.1,0.3,1.8,1.1,2.1,2.2l0,0C526.1,252.7,525.5,251.9,525.3,250.6L525.3,250.6z"/>
	<path d="M507.4,215.4c0.7-0.9,1.7-0.4,2.6-0.2C509.1,215.2,508.2,215.3,507.4,215.4L507.4,215.4z"/>
	<path d="M524,218.4c0.8-1,1.7-0.6,2.7-0.3C525.7,218.1,524.8,218.2,524,218.4L524,218.4z"/>
	<path d="M558.2,285.1c0,0.5-0.1,1-0.1,1.5c-0.1,0-0.2,0-0.4,0c0-0.5-0.1-1-0.1-1.6C557.8,285.1,558,285.1,558.2,285.1z"/>
	<path d="M523.2,247.7c-1-0.3-1.4-1.1-1.5-2.1l-0.1,0.1C522.6,246,523,246.8,523.2,247.7L523.2,247.7z"/>
	<path d="M530.9,244.3c1.3,0.2,1.6,1,1.5,2.1l0.1-0.1C531.6,245.9,531.1,245.2,530.9,244.3L530.9,244.3z"/>
	<path d="M554.2,228.5c0.1-0.6,0.3-1.2,0.4-2.1c0.8,1.2-0.1,1.5-0.5,2L554.2,228.5z"/>
	<path d="M544.7,226.2c0.7,0,1.4,0.1,2.3,0.1C545.8,226.7,545.8,226.7,544.7,226.2L544.7,226.2z"/>
	<path d="M523.9,218.3c-0.4,0.4-0.9,0.7-1.7,0.2C522.9,218.4,523.4,218.4,523.9,218.3L523.9,218.3z"/>
	<path d="M544.8,226.1c-0.5,0-1-0.1-1.8-0.1C543.9,225.5,544.3,225.6,544.8,226.1L544.8,226.1z"/>
	<path d="M545.5,223.2c-0.5,0-1-0.1-1.4-0.1c0-0.1,0.1-0.3,0.1-0.4C544.6,222.9,545,223.1,545.5,223.2L545.5,223.2z"/>
	<polygon points="557,281.1 556.9,281.3 556.7,281.2 	"/>
	<path d="M533.2,241.9c-0.6,0.1-1.2,0.1-1.5-0.6l-0.1,0.1C532.3,241.2,532.9,241.3,533.2,241.9L533.2,241.9z"/>
	<path d="M521.1,244.1c0.2,0.5,0.4,1.1,0.5,1.6l0.1-0.1C520.9,245.3,521.1,244.7,521.1,244.1L521.1,244.1z"/>
	<path d="M543,205.8c0-0.1,0.1-0.1,0.1-0.2c0.1,0.1,0.1,0.2,0.2,0.2C543.2,205.8,543.1,205.8,543,205.8z"/>
	<path d="M554.8,219.8c0.2-0.2,0.3-0.4,0.5-0.6c0.1,0.1,0.2,0.2,0.3,0.3C555.3,219.6,555,219.6,554.8,219.8L554.8,219.8z"/>
	<path d="M553.4,220.5c0.2-0.8,0.8-0.9,1.4-0.7l-0.1-0.1C554.6,220.6,553.9,220.5,553.4,220.5L553.4,220.5z"/>
	<path d="M560.6,211.8c-0.3-0.1-0.5-0.2-0.3-0.1C560.1,211.5,560.3,211.7,560.6,211.8L560.6,211.8z"/>
	<path d="M553.3,220.4c-0.1,0.5-0.4,0.8-1,0.3C552.7,220.6,553.1,220.5,553.3,220.4L553.3,220.4z"/>
	<path d="M527.5,252.8c0.5,0,0.9,0,1.4,0l-0.1-0.1c-0.1,0.2-0.2,0.6-0.4,0.7C527.9,253.5,527.5,253.3,527.5,252.8L527.5,252.8z"/>
	<polygon points="507.6,254.9 507.7,254.9 507.7,255.1 	"/>
	<path d="M550.5,216.1c-0.5-0.2-0.9-0.5-1.4-0.7l-0.1,0.1C549.5,215.6,550.3,215.3,550.5,216.1L550.5,216.1z"/>
	<path d="M530.3,242.8c0.6,0.3,0.7,0.9,0.6,1.5l0.1-0.1C530.8,243.7,530.6,243.2,530.3,242.8L530.3,242.8z"/>
	<path d="M534.1,237.2c0,0.1,0.1,0.1,0.1,0.2c-0.1,0-0.3-0.1-0.4-0.1C533.9,237.2,534,237.2,534.1,237.2z"/>
	<path d="M564.9,201.7c0,0.3,0,0.6,0,0.8c-0.3-0.1-0.6-0.2-1.2-0.5C564.2,201.9,564.6,201.8,564.9,201.7z"/>
	<path d="M555.6,222.6c0.2-0.2,0.5-0.3,0.3-0.2c0.3,0,0,0-0.3,0.1L555.6,222.6z"/>
	<path d="M540,280.3c0.1,0.2,0.1,0.4,0.2,0.6c0,0.1-0.1,0.1-0.2,0.2c-0.1-0.2-0.1-0.4-0.2-0.6C539.8,280.5,540,280.4,540,280.3z"/>
	<polygon points="528.9,227.6 528.8,227.5 528.9,227.7 	"/>
	<polygon points="548.9,227.4 548.9,227.7 548.9,227.5 	"/>
	<polygon points="549.1,215.4 548.9,215.3 549,215.5 	"/>
	<path d="M506.7,216.1c0.2-0.2,0.5-0.5,0.7-0.7l-0.1-0.1C507.1,215.6,506.8,215.8,506.7,216.1L506.7,216.1z"/>
	<polygon points="506.6,216.1 506.5,216.2 506.7,216.1 	"/>
	<path d="M554.7,222.6c0.3,0,0.6,0,0.9,0l-0.1-0.1c-0.3,0.3-0.5,0.5-0.8,0.8l0.1,0.1C554.8,223.1,554.8,222.8,554.7,222.6
		L554.7,222.6z"/>
	<path d="M521.2,244c-0.1,0-0.2,0-0.3,0C520.9,244.1,521,244.1,521.2,244L521.2,244z"/>
	<path d="M528.8,252.7c0.3,0,0.6,0,0.8,0l0.1-0.1C529.4,252.6,529.1,252.6,528.8,252.7L528.8,252.7z"/>
	<polygon points="541.3,285.5 541.6,285.4 541.5,285.6 	"/>
	<path d="M532.4,233.4c0.1,0.1,0.2,0.1,0.3,0.2C532.7,233.4,532.6,233.4,532.4,233.4L532.4,233.4z"/>
	<path d="M530.4,242.7c-0.1,0-0.2-0.1-0.3-0.1C530.2,242.6,530.3,242.7,530.4,242.7L530.4,242.7z"/>
	<path d="M533.2,242c0.2,0.3,0.5,0.6,0.7,0.8l0.1-0.1C533.7,242.5,533.5,242.2,533.2,242L533.2,242z"/>
	<path d="M481.5,426.3c-4.7,1-9.3,2-13.6,2.9c1.2-1.2,2.4-1.8,6.2-2.4C476.4,426.5,478.9,425.6,481.5,426.3z"/>
	<path d="M475,436.8c0-0.2,0-0.5,0.1-0.6c2.1-1.5,4.2-3,6.3-4.4c0.2-0.1,0.5,0,0.7,0l0,0c-0.3,0.3-0.5,0.8-0.8,1
		c-1.7,1.2-3.4,2.4-5.1,3.6C475.8,436.6,475.4,436.6,475,436.8L475,436.8z"/>
	<path d="M484.4,430.4c0.3-1.1,1.3-1.4,2.2-2C486.2,429.7,485.5,430.3,484.4,430.4L484.4,430.4z"/>
	<path d="M474.9,436.8c-0.5,0.6-1,1.2-1.9,2.5C473.7,437.4,473.7,437.4,474.9,436.8L474.9,436.8z"/>
	<path d="M484.3,430.3c-0.3,1.1-1,1.5-2.2,1.4l0,0C482.5,430.8,483.3,430.3,484.3,430.3L484.3,430.3z"/>
	<path d="M505.2,419.5c-0.6-1.8,0-3.4,0.2-5.1c0.1-0.5,0.4-1,0.9-2C507,415.3,507,417.5,505.2,419.5z"/>
	<path d="M514.7,395.4c-2.4-1.6-2.4-1.7-1.7-3.5C513.7,393.1,514.2,394.3,514.7,395.4z"/>
	<path d="M526,395.9c-0.8-0.9-1.1-1.2-1.2-1.5c-0.1-0.2,0.2-0.6,0.3-0.8c0.2,0.1,0.5,0.2,0.6,0.4C525.8,394.3,525.8,394.7,526,395.9
		z"/>
	<path d="M516.9,398.1c-0.2,0.1-0.5,0.3-0.6,0.3c-0.2-0.1-0.3-0.3-0.3-0.5c0-0.1,0.2-0.3,0.2-0.5
		C516.5,397.7,516.7,397.9,516.9,398.1z"/>
	<path d="M506.8,405.4c0.1,0.1,0.3,0.3,0.3,0.4c0,0.2-0.2,0.3-0.3,0.4c-0.1-0.1-0.2-0.2-0.2-0.2
		C506.6,405.8,506.7,405.7,506.8,405.4z"/>
	<polygon points="520.1,265.1 520.3,265.1 520.2,265.1 	"/>
	<path d="M539.6,242.7c0.5,0,1,0,1.6,0C540.6,243.7,540.4,243.7,539.6,242.7z"/>
</g>
</svg>
