<?xml version="1.0" encoding="utf-8"?>
<!-- Generator: Adobe Illustrator 19.1.0, SVG Export Plug-In . SVG Version: 6.00 Build 0)  -->
<svg version="1.2" baseProfile="tiny" id="Layer_2" xmlns="http://www.w3.org/2000/svg" xmlns:xlink="http://www.w3.org/1999/xlink"
	 x="0px" y="0px" width="900px" height="600px" viewBox="144 97 900 600" xml:space="preserve">
<svg style="overflow: visible;" viewBox="-144 -97 900 600" xmlns="http://www.w3.org/2000/svg"><g fill="#e6e6e6"><path d="m206.8 163.6c0-5.1 4.1-9.2 9.3-9.2s9.2 4.2 9.2 9.2-4.1 9.2-9.3 9.2-9.2-4.1-9.2-9.2zm17.3-.1c0-4.5-3.5-8.2-8.2-8.2s-8.2 3.7-8.2 8.3c0 4.5 3.5 8.2 8.2 8.2s8.2-3.7 8.2-8.3zm-13 0c0-2.8 2.1-5.1 5.1-5.1 1.9 0 2.9.6 3.9 1.5l-1.4 1.7c-.8-.7-1.5-1.1-2.5-1.1-1.7 0-2.8 1.4-2.8 3.1s1.1 3 2.8 3c1.1 0 1.7-.5 2.5-1.1l1.4 1.4c-1.1 1.1-2.1 1.7-4 1.7-2.9 0-5-2.3-5-5.1z"/><path d="m226.6 154.7h3.4l4.2 13.2 4.4-13.3h2.6l4.4 13.3 4.2-13.2h3.3l-6.2 18h-2.7l-4.4-12.8-4.4 12.8h-2.7z"/><path d="m252.8 165.8c0-3.9 3.1-7 7.2-7 4.2 0 7.2 3.2 7.2 7s-3.1 7-7.3 7c-4 0-7.1-3.1-7.1-7zm11.3 0c0-2.3-1.7-4.3-4.2-4.3s-4.1 2-4.1 4.3 1.7 4.3 4.1 4.3c2.7.1 4.2-1.9 4.2-4.3z"/><path d="m269.5 159.1h3.1v3c.8-2 2.4-3.4 4.8-3.3v3.2h-.2c-2.7 0-4.6 1.7-4.6 5.4v5.1h-3.1z"/><path d="m279.1 153.9h3.1v11.1l5.6-6h3.8l-5.4 5.5 5.5 8h-3.5l-4.1-5.8-1.9 2v3.9h-3.1z"/><path d="m291.7 165.8c0-3.9 3.1-7 7.2-7 4.2 0 7.2 3.2 7.2 7s-3.1 7-7.3 7c-4 0-7.1-3.1-7.1-7zm11.3 0c0-2.3-1.7-4.3-4.2-4.3s-4.1 2-4.1 4.3 1.7 4.3 4.1 4.3c2.6.1 4.2-1.9 4.2-4.3z"/><path d="m308.2 167.6v-8.6h3.1v7.6c0 2.1 1.1 3.3 2.9 3.3s3-1.3 3-3.3v-7.6h3.1v13.4h-3.1v-2.1c-.8 1.3-2.1 2.3-4.2 2.3-3.1.2-4.8-1.8-4.8-5z"/><path d="m323.9 168.8v-7.1h-1.7v-2.6h1.7v-3.7h3.1v3.7h3.6v2.6h-3.6v6.6c0 1.2.6 1.7 1.7 1.7.7 0 1.3-.2 1.9-.5v2.5c-.8.5-1.7.7-2.8.7-2.3 0-3.9-.9-3.9-3.9z"/><path d="m333.2 154.7h3.2v15h9.4v2.9h-12.5v-17.9z"/><path d="m356 172.5v-1.7c-.9 1.1-2.3 2-4.4 2-2.6 0-4.8-1.4-4.8-4.2 0-3 2.3-4.4 5.4-4.4 1.7 0 2.6.2 3.7.5v-.2c0-1.9-1.2-2.9-3.3-2.9-1.5 0-2.6.3-3.9.8l-.8-2.5c1.5-.7 2.9-1.1 5.1-1.1 4 0 5.9 2.1 5.9 5.7v8zm.1-5.6c-.8-.3-1.9-.5-3.1-.5-2 0-3.1.8-3.1 2.1s1.1 2 2.6 2c2 0 3.5-1.1 3.5-2.9z"/><path d="m364.9 170.5v2.1h-3.1v-18.7h3.1v7.4c1-1.4 2.4-2.5 4.5-2.5 3.2 0 6.3 2.5 6.3 7s-3.1 7-6.3 7c-2.1 0-3.5-1.1-4.5-2.3zm7.7-4.7c0-2.6-1.7-4.3-3.9-4.3s-3.9 1.7-3.9 4.4c0 2.6 1.8 4.3 3.9 4.3s3.9-1.7 3.9-4.4z"/><path d="m376.9 170.8 1.4-2.1c1.4 1.1 3 1.7 4.4 1.7s2.1-.5 2.1-1.5-1.3-1.4-2.8-1.8c-.1 0-.2-.1-.2-.1-2-.6-4.2-1.4-4.2-4s2.1-4.1 4.8-4.1c1.7 0 3.5.6 5 1.5l-1.2 2.2c-1.3-.8-2.6-1.3-3.8-1.3s-1.9.5-1.9 1.4 1.3 1.4 2.8 1.8c.1 0 .2.1.2.1 2 .6 4.2 1.5 4.2 4 0 2.9-2.2 4.2-5 4.2-1.9 0-4-.7-5.8-2z"/><path d="m505.6 163.6c0-5.1 4.1-9.2 9.3-9.2s9.2 4.2 9.2 9.2-4.1 9.2-9.3 9.2-9.2-4.1-9.2-9.2zm17.4-.1c0-4.5-3.5-8.2-8.2-8.2s-8.2 3.7-8.2 8.3c0 4.5 3.5 8.2 8.2 8.2s8.2-3.7 8.2-8.3zm-13.1 0c0-2.8 2.1-5.1 5.1-5.1 1.9 0 2.9.6 3.9 1.5l-1.4 1.7c-.8-.7-1.5-1.1-2.5-1.1-1.7 0-2.8 1.4-2.8 3.1s1.1 3 2.8 3c1.1 0 1.7-.5 2.5-1.1l1.4 1.4c-1.1 1.1-2.1 1.7-4 1.7-2.9 0-5-2.3-5-5.1z"/><path d="m525.4 154.7h3.4l4.2 13.2 4.4-13.3h2.6l4.4 13.3 4.2-13.2h3.3l-6.2 18h-2.7l-4.4-12.8-4.4 12.8h-2.7z"/><path d="m551.7 165.8c0-3.9 3.1-7 7.2-7 4.2 0 7.2 3.2 7.2 7s-3.1 7-7.3 7c-4.1 0-7.1-3.1-7.1-7zm11.2 0c0-2.3-1.7-4.3-4.2-4.3s-4.1 2-4.1 4.3 1.7 4.3 4.1 4.3c2.7.1 4.2-1.9 4.2-4.3z"/><path d="m568.3 159.1h3.1v3c.8-2 2.4-3.4 4.8-3.3v3.2h-.2c-2.7 0-4.6 1.7-4.6 5.4v5.1h-3.1z"/><path d="m577.9 153.9h3.1v11.1l5.6-6h3.8l-5.4 5.5 5.5 8h-3.5l-4.1-5.8-1.9 2v3.9h-3.1z"/><path d="m590.6 165.8c0-3.9 3.1-7 7.2-7 4.2 0 7.2 3.2 7.2 7s-3.1 7-7.3 7c-4.1 0-7.1-3.1-7.1-7zm11.2 0c0-2.3-1.7-4.3-4.2-4.3s-4.1 2-4.1 4.3 1.7 4.3 4.1 4.3c2.6.1 4.2-1.9 4.2-4.3z"/><path d="m607 167.6v-8.6h3.1v7.6c0 2.1 1.1 3.3 2.9 3.3s3-1.3 3-3.3v-7.6h3.1v13.4h-3.1v-2.1c-.8 1.3-2.1 2.3-4.2 2.3-3 .2-4.8-1.8-4.8-5z"/><path d="m622.7 168.8v-7.1h-1.7v-2.6h1.7v-3.7h3.1v3.7h3.6v2.6h-3.6v6.6c0 1.2.6 1.7 1.7 1.7.7 0 1.3-.2 1.9-.5v2.5c-.8.5-1.7.7-2.8.7-2.3 0-3.9-.9-3.9-3.9z"/><path d="m632 154.7h3.2v15h9.4v2.9h-12.6z"/><path d="m654.8 172.5v-1.7c-.9 1.1-2.3 2-4.4 2-2.6 0-4.8-1.4-4.8-4.2 0-3 2.3-4.4 5.4-4.4 1.7 0 2.6.2 3.7.5v-.2c0-1.9-1.2-2.9-3.3-2.9-1.5 0-2.6.3-3.9.8l-.8-2.5c1.5-.7 2.9-1.1 5.1-1.1 4 0 5.9 2.1 5.9 5.7v8zm.1-5.6c-.8-.3-1.9-.5-3.1-.5-2 0-3.1.8-3.1 2.1s1.1 2 2.6 2c2 0 3.5-1.1 3.5-2.9z"/><path d="m663.7 170.5v2.1h-3.1v-18.7h3.1v7.4c1-1.4 2.4-2.5 4.5-2.5 3.2 0 6.3 2.5 6.3 7s-3.1 7-6.3 7c-2.1 0-3.5-1.1-4.5-2.3zm7.8-4.7c0-2.6-1.7-4.3-3.9-4.3-2.1 0-3.9 1.7-3.9 4.4 0 2.6 1.8 4.3 3.9 4.3s3.9-1.7 3.9-4.4z"/><path d="m675.8 170.8 1.4-2.1c1.4 1.1 3 1.7 4.4 1.7s2.1-.5 2.1-1.5-1.3-1.4-2.8-1.8c-.1 0-.2-.1-.2-.1-2-.6-4.2-1.4-4.2-4s2.1-4.1 4.8-4.1c1.7 0 3.5.6 5 1.5l-1.2 2.2c-1.3-.8-2.6-1.3-3.8-1.3s-1.9.5-1.9 1.4 1.3 1.4 2.8 1.8c.1 0 .2.1.2.1 2 .6 4.2 1.5 4.2 4 0 2.9-2.2 4.2-5 4.2-2 0-4.1-.7-5.8-2z"/><path d="m61 298.6c0-5.1 4.1-9.2 9.3-9.2s9.2 4.2 9.2 9.2-4.1 9.2-9.3 9.2c-5.1 0-9.2-4.2-9.2-9.2zm17.4-.1c0-4.5-3.5-8.2-8.2-8.2s-8.2 3.7-8.2 8.3c0 4.5 3.5 8.2 8.2 8.2s8.2-3.7 8.2-8.3zm-13.1-.1c0-2.8 2.1-5.1 5.1-5.1 1.9 0 2.9.6 3.9 1.5l-1.4 1.7c-.8-.7-1.5-1.1-2.5-1.1-1.7 0-2.8 1.4-2.8 3.1s1.1 3 2.8 3c1.1 0 1.7-.5 2.5-1.1l1.4 1.4c-1.1 1.1-2.1 1.7-4 1.7-2.8.1-5-2.2-5-5.1z"/><path d="m80.9 289.7h3.4l4.2 13.2 4.4-13.3h2.6l4.4 13.3 4.2-13.2h3.3l-6.2 18h-2.7l-4.4-12.8-4.4 12.8h-2.7z"/><path d="m107.1 300.8c0-3.9 3.1-7 7.2-7s7.2 3.2 7.2 7-3.1 7-7.3 7c-4 0-7.1-3.1-7.1-7zm11.3 0c0-2.3-1.7-4.3-4.2-4.3s-4.1 2-4.1 4.3 1.7 4.3 4.1 4.3c2.6.1 4.2-1.9 4.2-4.3z"/><path d="m123.7 294h3.1v3c.8-2 2.4-3.4 4.8-3.3v3.2h-.2c-2.7 0-4.6 1.7-4.6 5.4v5.1h-3.1z"/><path d="m133.4 288.9h3.1v11.1l5.6-6h3.8l-5.4 5.5 5.5 8h-3.5l-4.1-5.8-1.9 1.9v3.9h-3.1z"/><path d="m146 300.8c0-3.9 3.1-7 7.2-7s7.2 3.2 7.2 7-3.1 7-7.3 7c-4.1 0-7.1-3.1-7.1-7zm11.2 0c0-2.3-1.7-4.3-4.2-4.3s-4.1 2-4.1 4.3 1.7 4.3 4.1 4.3c2.6.1 4.2-1.9 4.2-4.3z"/><path d="m162.4 302.6v-8.6h3.1v7.6c0 2.1 1.1 3.3 2.9 3.3s3-1.3 3-3.3v-7.6h3.1v13.4h-3.1v-2.1c-.8 1.3-2.1 2.3-4.2 2.3-3 .2-4.8-1.8-4.8-5z"/><path d="m178.1 303.8v-7.1h-1.7v-2.7h1.7v-3.7h3.1v3.7h3.6v2.6h-3.6v6.6c0 1.2.6 1.7 1.7 1.7.7 0 1.3-.2 1.9-.5v2.5c-.8.5-1.7.7-2.8.7-2.3.1-3.9-.9-3.9-3.8z"/><path d="m187.4 289.7h3.2v15h9.4v2.9h-12.5v-17.9z"/><path d="m210.2 307.5v-1.7c-.9 1.1-2.3 2-4.4 2-2.6 0-4.8-1.4-4.8-4.2 0-3 2.3-4.4 5.4-4.4 1.7 0 2.6.2 3.7.5v-.2c0-1.9-1.2-2.9-3.3-2.9-1.5 0-2.6.3-3.9.8l-.8-2.5c1.5-.7 2.9-1.1 5.1-1.1 4 0 5.9 2.1 5.9 5.7v8zm.1-5.6c-.8-.3-1.9-.5-3.1-.5-2 0-3.1.8-3.1 2.1s1.1 2 2.6 2c2 0 3.5-1.1 3.5-2.9z"/><path d="m219.2 305.5v2.1h-3.1v-18.7h3.1v7.4c1-1.4 2.4-2.5 4.5-2.5 3.2 0 6.3 2.5 6.3 7s-3.1 7-6.3 7c-2.2 0-3.6-1.1-4.5-2.3zm7.7-4.7c0-2.6-1.7-4.3-3.9-4.3s-3.9 1.7-3.9 4.4c0 2.6 1.8 4.3 3.9 4.3s3.9-1.7 3.9-4.4z"/><path d="m231.2 305.8 1.4-2.1c1.4 1.1 3 1.7 4.4 1.7s2.1-.5 2.1-1.5-1.3-1.4-2.8-1.8c-.1 0-.2-.1-.2-.1-2-.6-4.2-1.4-4.2-4s2.1-4.1 4.8-4.1c1.7 0 3.5.6 5 1.5l-1.2 2.2c-1.3-.8-2.6-1.3-3.8-1.3s-1.9.5-1.9 1.4 1.3 1.4 2.8 1.8c.1 0 .2.1.2.1 2 .6 4.2 1.5 4.2 4 0 2.9-2.2 4.2-5 4.2-2 0-4.1-.7-5.8-2z"/><path d="m360.6 298.6c0-5.1 4.1-9.2 9.3-9.2s9.2 4.2 9.2 9.2-4.1 9.2-9.3 9.2-9.2-4.2-9.2-9.2zm17.4-.1c0-4.5-3.5-8.2-8.2-8.2s-8.2 3.7-8.2 8.3c0 4.5 3.5 8.2 8.2 8.2s8.2-3.7 8.2-8.3zm-13.1-.1c0-2.8 2.1-5.1 5.1-5.1 1.9 0 2.9.6 3.9 1.5l-1.4 1.7c-.8-.7-1.5-1.1-2.5-1.1-1.7 0-2.8 1.4-2.8 3.1s1.1 3 2.8 3c1.1 0 1.7-.5 2.5-1.1l1.4 1.4c-1.1 1.1-2.1 1.7-4 1.7-2.8.1-5-2.2-5-5.1z"/><path d="m380.5 289.7h3.4l4.2 13.2 4.4-13.3h2.6l4.4 13.3 4.2-13.2h3.3l-6.2 18h-2.7l-4.4-12.8-4.4 12.8h-2.7z"/><path d="m406.7 300.8c0-3.9 3.1-7 7.2-7 4.2 0 7.2 3.2 7.2 7s-3.1 7-7.3 7c-4.1 0-7.1-3.1-7.1-7zm11.3 0c0-2.3-1.7-4.3-4.2-4.3s-4.1 2-4.1 4.3 1.7 4.3 4.1 4.3c2.7.1 4.2-1.9 4.2-4.3z"/><path d="m423.3 294h3.1v3c.8-2 2.4-3.4 4.8-3.3v3.2h-.2c-2.7 0-4.6 1.7-4.6 5.4v5.1h-3.1z"/><path d="m433 288.9h3.1v11.1l5.6-6h3.8l-5.4 5.5 5.5 8h-3.5l-4.1-5.8-1.9 2v3.9h-3.1z"/><path d="m445.6 300.8c0-3.9 3.1-7 7.2-7 4.2 0 7.2 3.2 7.2 7s-3.1 7-7.3 7c-4.1 0-7.1-3.1-7.1-7zm11.3 0c0-2.3-1.7-4.3-4.2-4.3s-4.1 2-4.1 4.3 1.7 4.3 4.1 4.3c2.6.1 4.2-1.9 4.2-4.3z"/><path d="m462.1 302.6v-8.6h3.1v7.6c0 2.1 1.1 3.3 2.9 3.3s3-1.3 3-3.3v-7.6h3.1v13.4h-3.1v-2.1c-.8 1.3-2.1 2.3-4.2 2.3-3.1.2-4.8-1.8-4.8-5z"/><path d="m477.8 303.8v-7.1h-1.8v-2.7h1.7v-3.7h3.1v3.7h3.6v2.6h-3.6v6.6c0 1.2.6 1.7 1.7 1.7.7 0 1.3-.2 1.9-.5v2.5c-.8.5-1.7.7-2.8.7-2.2.1-3.8-.9-3.8-3.8z"/><path d="m487.1 289.7h3.2v15h9.4v2.9h-12.5v-17.9z"/><path d="m509.9 307.5v-1.7c-.9 1.1-2.3 2-4.4 2-2.6 0-4.8-1.4-4.8-4.2 0-3 2.3-4.4 5.4-4.4 1.7 0 2.6.2 3.7.5v-.2c0-1.9-1.2-2.9-3.3-2.9-1.5 0-2.6.3-3.9.8l-.8-2.5c1.5-.7 2.9-1.1 5.1-1.1 4 0 5.9 2.1 5.9 5.7v8zm.1-5.6c-.8-.3-1.9-.5-3.1-.5-2 0-3.1.8-3.1 2.1s1.1 2 2.6 2c2 0 3.5-1.1 3.5-2.9z"/><path d="m518.8 305.5v2.1h-3.1v-18.7h3.1v7.4c1-1.4 2.4-2.5 4.5-2.5 3.2 0 6.3 2.5 6.3 7s-3.1 7-6.3 7c-2.2 0-3.5-1.1-4.5-2.3zm7.7-4.7c0-2.6-1.7-4.3-3.9-4.3s-3.9 1.7-3.9 4.4c0 2.6 1.8 4.3 3.9 4.3s3.9-1.7 3.9-4.4z"/><path d="m530.8 305.8 1.4-2.1c1.4 1.1 3 1.7 4.4 1.7s2.1-.5 2.1-1.5-1.3-1.4-2.8-1.8c-.1 0-.2-.1-.2-.1-2-.6-4.2-1.4-4.2-4s2.1-4.1 4.8-4.1c1.7 0 3.5.6 5 1.5l-1.2 2.2c-1.3-.8-2.6-1.3-3.8-1.3s-1.9.5-1.9 1.4 1.3 1.4 2.8 1.8c.1 0 .2.1.2.1 2 .6 4.2 1.5 4.2 4 0 2.9-2.2 4.2-5 4.2-1.9 0-4.1-.7-5.8-2z"/><path d="m659.5 298.6c0-5.1 4.1-9.2 9.3-9.2s9.2 4.2 9.2 9.2-4.1 9.2-9.3 9.2-9.2-4.2-9.2-9.2zm17.3-.1c0-4.5-3.5-8.2-8.2-8.2s-8.2 3.7-8.2 8.3c0 4.5 3.5 8.2 8.2 8.2 4.8 0 8.2-3.7 8.2-8.3zm-13-.1c0-2.8 2.1-5.1 5.1-5.1 1.9 0 2.9.6 3.9 1.5l-1.4 1.7c-.8-.7-1.5-1.1-2.5-1.1-1.7 0-2.8 1.4-2.8 3.1s1.1 3 2.8 3c1.1 0 1.7-.5 2.5-1.1l1.4 1.4c-1.1 1.1-2.1 1.7-4 1.7-2.9.1-5-2.2-5-5.1z"/><path d="m679.3 289.7h3.4l4.2 13.2 4.4-13.3h2.6l4.4 13.3 4.2-13.2h3.3l-6.2 18h-2.6l-4.4-12.8-4.4 12.8h-2.7z"/><path d="m705.5 300.8c0-3.9 3.1-7 7.2-7 4.2 0 7.2 3.2 7.2 7s-3.1 7-7.3 7c-4 0-7.1-3.1-7.1-7zm11.3 0c0-2.3-1.7-4.3-4.2-4.3s-4.1 2-4.1 4.3 1.7 4.3 4.1 4.3c2.7.1 4.2-1.9 4.2-4.3z"/><path d="m722.1 294h3.1v3c.8-2 2.4-3.4 4.8-3.3v3.2h-.2c-2.7 0-4.6 1.7-4.6 5.4v5.1h-3.1z"/><path d="m731.8 288.9h3.1v11.1l5.6-6h3.8l-5.4 5.5 5.5 8h-3.5l-4.1-5.8-1.9 2v3.9h-3.1z"/><path d="m744.4 300.8c0-3.9 3.1-7 7.2-7 4.2 0 7.2 3.2 7.2 7s-3.1 7-7.3 7c-4.1 0-7.1-3.1-7.1-7zm11.3 0c0-2.3-1.7-4.3-4.2-4.3s-4.1 2-4.1 4.3 1.7 4.3 4.1 4.3c2.6.1 4.2-1.9 4.2-4.3z"/><path d="m760.9 302.6v-8.6h3.1v7.6c0 2.1 1.1 3.3 2.9 3.3s3-1.3 3-3.3v-7.6h3.1v13.4h-3.1v-2.1c-.8 1.3-2.1 2.3-4.2 2.3-3.1.2-4.8-1.8-4.8-5z"/><path d="m776.6 303.8v-7.1h-1.7v-2.7h1.7v-3.7h3.1v3.7h3.6v2.6h-3.6v6.6c0 1.2.6 1.7 1.7 1.7.7 0 1.3-.2 1.9-.5v2.5c-.8.5-1.7.7-2.8.7-2.3.1-3.9-.9-3.9-3.8z"/><path d="m785.9 289.7h3.2v15h9.4v2.9h-12.5v-17.9z"/><path d="m808.7 307.5v-1.7c-.9 1.1-2.3 2-4.4 2-2.6 0-4.8-1.4-4.8-4.2 0-3 2.3-4.4 5.4-4.4 1.7 0 2.6.2 3.7.5v-.2c0-1.9-1.2-2.9-3.3-2.9-1.5 0-2.6.3-3.9.8l-.8-2.5c1.5-.7 2.9-1.1 5.1-1.1 4 0 5.9 2.1 5.9 5.7v8zm.1-5.6c-.8-.3-1.9-.5-3.1-.5-2 0-3.1.8-3.1 2.1s1.1 2 2.6 2c2 0 3.5-1.1 3.5-2.9z"/><path d="m817.6 305.5v2.1h-3.1v-18.7h3.1v7.4c1-1.4 2.4-2.5 4.5-2.5 3.2 0 6.3 2.5 6.3 7s-3.1 7-6.3 7c-2.1 0-3.5-1.1-4.5-2.3zm7.7-4.7c0-2.6-1.7-4.3-3.9-4.3-2.1 0-3.9 1.7-3.9 4.4 0 2.6 1.8 4.3 3.9 4.3 2.2 0 3.9-1.7 3.9-4.4z"/><path d="m829.6 305.8 1.4-2.1c1.4 1.1 3 1.7 4.4 1.7s2.1-.5 2.1-1.5-1.3-1.4-2.8-1.8c-.1 0-.2-.1-.2-.1-2-.6-4.2-1.4-4.2-4s2.1-4.1 4.8-4.1c1.7 0 3.5.6 5 1.5l-1.2 2.2c-1.3-.8-2.6-1.3-3.8-1.3s-1.9.5-1.9 1.4 1.3 1.4 2.8 1.8c.1 0 .2.1.2.1 2 .6 4.2 1.5 4.2 4 0 2.9-2.2 4.2-5 4.2-1.9 0-4-.7-5.8-2z"/><path d="m206.3 434.2c0-5.1 4.1-9.2 9.3-9.2s9.2 4.2 9.2 9.2-4.1 9.2-9.3 9.2-9.2-4.1-9.2-9.2zm17.4-.1c0-4.5-3.5-8.2-8.2-8.2s-8.2 3.7-8.2 8.3c0 4.5 3.5 8.2 8.2 8.2s8.2-3.7 8.2-8.3zm-13.1-.1c0-2.8 2.1-5.1 5.1-5.1 1.9 0 2.9.6 3.9 1.5l-1.4 1.7c-.8-.7-1.5-1.1-2.5-1.1-1.7 0-2.8 1.4-2.8 3.1s1.1 3 2.8 3c1.1 0 1.7-.5 2.5-1.1l1.4 1.4c-1.1 1.1-2.1 1.7-4 1.7-2.9.1-5-2.2-5-5.1z"/><path d="m226.1 425.3h3.4l4.2 13.2 4.4-13.3h2.6l4.4 13.3 4.2-13.2h3.3l-6.2 18h-2.7l-4.4-12.8-4.4 12.8h-2.7z"/><path d="m252.4 436.4c0-3.9 3.1-7 7.2-7 4.2 0 7.2 3.2 7.2 7s-3.1 7-7.3 7c-4.1 0-7.1-3.1-7.1-7zm11.2 0c0-2.3-1.7-4.3-4.2-4.3s-4.1 2-4.1 4.3 1.7 4.3 4.1 4.3c2.7.1 4.2-1.9 4.2-4.3z"/><path d="m269 429.7h3.1v3c.8-2 2.4-3.4 4.8-3.3v3.2h-.2c-2.7 0-4.6 1.7-4.6 5.4v5.1h-3.1z"/><path d="m278.6 424.5h3.1v11.1l5.6-6h3.8l-5.4 5.5 5.5 8h-3.5l-4.1-5.8-1.9 2v3.9h-3.1z"/><path d="m291.3 436.4c0-3.9 3.1-7 7.2-7 4.2 0 7.2 3.2 7.2 7s-3.1 7-7.3 7c-4.1 0-7.1-3.1-7.1-7zm11.2 0c0-2.3-1.7-4.3-4.2-4.3s-4.1 2-4.1 4.3 1.7 4.3 4.1 4.3c2.6.1 4.2-1.9 4.2-4.3z"/><path d="m307.7 438.2v-8.6h3.1v7.6c0 2.1 1.1 3.3 2.9 3.3s3-1.3 3-3.3v-7.6h3.1v13.4h-3.1v-2.1c-.8 1.3-2.1 2.3-4.2 2.3-3 .2-4.8-1.8-4.8-5z"/><path d="m323.4 439.4v-7.1h-1.7v-2.6h1.7v-3.7h3.1v3.7h3.6v2.6h-3.6v6.6c0 1.2.6 1.7 1.7 1.7.7 0 1.3-.2 1.9-.5v2.5c-.8.5-1.7.7-2.8.7-2.3 0-3.9-.9-3.9-3.9z"/><path d="m332.7 425.3h3.2v15h9.4v2.9h-12.5v-17.9z"/><path d="m355.5 443.1v-1.7c-.9 1.1-2.3 2-4.4 2-2.6 0-4.8-1.4-4.8-4.2 0-3 2.3-4.4 5.4-4.4 1.7 0 2.6.2 3.7.5v-.2c0-1.9-1.2-2.9-3.3-2.9-1.5 0-2.6.3-3.9.8l-.8-2.5c1.5-.7 2.9-1.1 5.1-1.1 4 0 5.9 2.1 5.9 5.7v8zm.1-5.6c-.8-.3-1.9-.5-3.1-.5-2 0-3.1.8-3.1 2.1s1.1 2 2.6 2c2 0 3.5-1.1 3.5-2.9z"/><path d="m364.4 441.1v2.1h-3.1v-18.7h3.1v7.4c1-1.4 2.4-2.5 4.5-2.5 3.2 0 6.3 2.5 6.3 7s-3.1 7-6.3 7c-2.1 0-3.5-1.1-4.5-2.3zm7.7-4.7c0-2.6-1.7-4.3-3.9-4.3-2.1 0-3.9 1.7-3.9 4.4 0 2.6 1.8 4.3 3.9 4.3 2.2 0 3.9-1.7 3.9-4.4z"/><path d="m376.5 441.4 1.4-2.1c1.4 1.1 3 1.7 4.4 1.7s2.1-.5 2.1-1.5-1.3-1.4-2.8-1.8c-.1 0-.2-.1-.2-.1-2-.6-4.2-1.4-4.2-4s2.1-4.1 4.8-4.1c1.7 0 3.5.6 5 1.5l-1.2 2.2c-1.3-.8-2.6-1.3-3.8-1.3s-1.9.5-1.9 1.4 1.3 1.4 2.8 1.8c.1 0 .2.1.2.1 2 .6 4.2 1.5 4.2 4 0 2.9-2.2 4.2-5 4.2-2 0-4.1-.7-5.8-2z"/><path d="m505.1 434.2c0-5.1 4.1-9.2 9.3-9.2s9.2 4.2 9.2 9.2-4.1 9.2-9.3 9.2-9.2-4.1-9.2-9.2zm17.4-.1c0-4.5-3.5-8.2-8.2-8.2s-8.2 3.7-8.2 8.3c0 4.5 3.5 8.2 8.2 8.2s8.2-3.7 8.2-8.3zm-13.1-.1c0-2.8 2.1-5.1 5.1-5.1 1.9 0 2.9.6 3.9 1.5l-1.4 1.7c-.8-.7-1.5-1.1-2.5-1.1-1.7 0-2.8 1.4-2.8 3.1s1.1 3 2.8 3c1.1 0 1.7-.5 2.5-1.1l1.4 1.4c-1.1 1.1-2.1 1.7-4 1.7-2.9.1-5-2.2-5-5.1z"/><path d="m525 425.3h3.4l4.2 13.2 4.4-13.3h2.6l4.4 13.3 4.2-13.2h3.3l-6.2 18h-2.7l-4.4-12.8-4.4 12.8h-2.7z"/><path d="m551.2 436.4c0-3.9 3.1-7 7.2-7 4.2 0 7.2 3.2 7.2 7s-3.1 7-7.3 7c-4.1 0-7.1-3.1-7.1-7zm11.2 0c0-2.3-1.7-4.3-4.2-4.3s-4.1 2-4.1 4.3 1.7 4.3 4.1 4.3c2.7.1 4.2-1.9 4.2-4.3z"/><path d="m567.8 429.7h3.1v3c.8-2 2.4-3.4 4.8-3.3v3.2h-.2c-2.7 0-4.6 1.7-4.6 5.4v5.1h-3.1z"/><path d="m577.5 424.5h3.1v11.1l5.6-6h3.8l-5.4 5.5 5.5 8h-3.5l-4.1-5.8-1.9 2v3.9h-3.1z"/><path d="m590.1 436.4c0-3.9 3.1-7 7.2-7 4.2 0 7.2 3.2 7.2 7s-3.1 7-7.3 7c-4.1 0-7.1-3.1-7.1-7zm11.2 0c0-2.3-1.7-4.3-4.2-4.3s-4.1 2-4.1 4.3 1.7 4.3 4.1 4.3c2.6.1 4.2-1.9 4.2-4.3z"/><path d="m606.5 438.2v-8.6h3.1v7.6c0 2.1 1.1 3.3 2.9 3.3s3-1.3 3-3.3v-7.6h3.1v13.4h-3.1v-2.1c-.8 1.3-2.1 2.3-4.2 2.3-3 .2-4.8-1.8-4.8-5z"/><path d="m622.2 439.4v-7.1h-1.7v-2.6h1.7v-3.7h3.1v3.7h3.6v2.6h-3.6v6.6c0 1.2.6 1.7 1.7 1.7.7 0 1.3-.2 1.9-.5v2.5c-.8.5-1.7.7-2.8.7-2.3 0-3.9-.9-3.9-3.9z"/><path d="m631.5 425.3h3.2v15h9.4v2.9h-12.5v-17.9z"/><path d="m654.3 443.1v-1.7c-.9 1.1-2.3 2-4.4 2-2.6 0-4.8-1.4-4.8-4.2 0-3 2.3-4.4 5.4-4.4 1.7 0 2.6.2 3.7.5v-.2c0-1.9-1.2-2.9-3.3-2.9-1.5 0-2.6.3-3.9.8l-.8-2.5c1.5-.7 2.9-1.1 5.1-1.1 4 0 5.9 2.1 5.9 5.7v8zm.1-5.6c-.8-.3-1.9-.5-3.1-.5-2 0-3.1.8-3.1 2.1s1.1 2 2.6 2c2 0 3.5-1.1 3.5-2.9z"/><path d="m663.3 441.1v2.1h-3.1v-18.7h3.1v7.4c1-1.4 2.4-2.5 4.5-2.5 3.2 0 6.3 2.5 6.3 7s-3.1 7-6.3 7c-2.2 0-3.6-1.1-4.5-2.3zm7.7-4.7c0-2.6-1.7-4.3-3.9-4.3s-3.9 1.7-3.9 4.4c0 2.6 1.8 4.3 3.9 4.3s3.9-1.7 3.9-4.4z"/><path d="m675.3 441.4 1.4-2.1c1.4 1.1 3 1.7 4.4 1.7s2.1-.5 2.1-1.5-1.3-1.4-2.8-1.8c-.1 0-.2-.1-.2-.1-2-.6-4.2-1.4-4.2-4s2.1-4.1 4.8-4.1c1.7 0 3.5.6 5 1.5l-1.2 2.2c-1.3-.8-2.6-1.3-3.8-1.3s-1.9.5-1.9 1.4 1.3 1.4 2.8 1.8c.1 0 .2.1.2.1 2 .6 4.2 1.5 4.2 4 0 2.9-2.2 4.2-5 4.2-2 0-4.1-.7-5.8-2z"/></g></svg><g>
	<path d="M813.5,172c-1.8,0.7-1.6,2.6-2.4,3.9c-0.8,1.3-1.4,2.8-2,4.1c0.6,2.8,2.3,4.8,4.2,7.1c-2.2,0.4-2.5-1.3-3.6-1.5
		c-0.2-1.3-0.5-2.6-1.8-3.4c0.4,1.2,0.5,2.6,1.9,3.3c-0.3,1.4-1.8,1.2-2.2,2.1c-1.7-0.3-1.4-1.3-1.3-2.2c-2,2.2-3.9,4.4-5.9,6.5
		c-0.8,0.9-1.5,2-2.9,2c0.4-1.2,1.4-2,2.1-3c4.6-6.1,8.5-12.6,11.5-19.5c0.4-0.9,0.8-1.8,0.9-2.8c1-6.4,2-12.9,3-19.3
		c0.4-2.3,1.5-4.4,1.4-6.8c0.8-0.1,0.8-0.9,1-1.4c1.9-4.9,4.9-9,9.5-11.7c0.3-0.1,0.6-0.4,0.3-0.9c-1.1-0.6-1.7,0.8-2.7,0.6
		c2.9-2.9,6.3-3.8,10.5-2.5c-0.5-2.2-1.1-3.8-3.2-5c0,0.8,0,1.3,0,2c-2.8,0.6-5.4,1.8-7.6,3.6c-0.9,0.7-2.2,1.2-2,2.8
		c0,0.1,0,0.3,0,0.4c-4.1,2.9-5.3,7.3-5.9,12c-1.1,0.7-1,1.9-1.2,2.9c-1.8,7.3-4,14.4-6.9,21.4c-1.5,3.6-3,7.3-3.9,11.1
		c0,0.2-0.2,0.3-0.3,0.4c-0.5-0.5,0-1.7-1.2-1.5c-0.2,0.2-0.5,0.3-0.5,0.5c-1.7,5.8-3.2,11.6-6.4,16.8c-0.2,0.3,0,0.7,0.5,0.7
		c-1.3,2.2-3.8,3.5-5.2,5.7c-0.5,1.8,0.6,3.1,1.8,4.3c-0.6,0.8-1.2,1.5-1.6,2c-0.9-0.2-1.1-0.6-1.1-0.9c0-1.5-0.6-2.6-1.8-3.5
		c-3.3-2.8-5.4-6.4-6.7-10.6c-0.6,0-1.1-0.1-2-0.2c-0.1-5.9-0.5-11.8,0.5-17.7c-3.3,6-6,12.1-4.7,20c-1.5-4.2-1.7-8.6-0.8-13.8
		c-7.6,4.3-11.6,3.1-14.9-4.9c-5-0.7-9.5-2.9-13.7-5.9c-1.6-1.2-3.2-2.4-5.6-1.5c1.5,2.3,3.4,4.2,4.4,6.7c1,2.4,2.4,4.5,3.9,6.6
		c3.2,4.4,3.3,9.5,2.5,14.6c-0.4,2.3-1.2,4.5-1.8,6.8s-1.5,4.5-1.4,7.1c0,3.5-2.3,6.4-4.1,9.4c-5,8.6-9.5,17.3-13.1,26.5
		c-0.1,0.3-0.1,0.7-0.2,1.2c1.4,2.3,3.4,3.2,6.2,2.6c2.8-0.6,5.4-1.7,7.8-3.4c2.5-1.8,4.9-3.8,7.1-5.5c0.7-1-0.5-1.3,0-2.4
		c2.5-2.3,5.5-4.9,8.3-7.6c2.9-2.7,6-5.1,7.7-8.8c1.4,0.2,1.5,1,1.2,1.9c-0.7,2.3-2.1,4.2-3.8,5.9c-4,4-6.4,9.4-11,13.4
		c3.8,1,7.1,1.5,10.7,2.9c-1.7,1.2-3.3,0.2-4.8,0.6c-1.4,0.4-2.9,0.6-4.6,0.9c-0.2,2.4-0.8,4.9,0.3,7.4c0.2,0.4,0.2,1,0.2,1.4
		c-0.6,13.7,2.3,27.1,5.2,40.4c0.3,1.3,0.5,2.7,0.8,4c0.6,2.6,0.8,5.3,2.3,7.7c1,1.6,1.1,3.8,1.5,5.7c0.3,1.3,0.2,2.7,1.2,3.8
		c0.7,0.8,0.4,1.9,0.4,2.9c0.1,9.8,0.8,19.5,2.2,29.2c0.8,5.3,1.5,10.5,3,15.7c1.3,4.7,3.2,9.3,4.1,14.2c1.6,8.5,3.9,16.9,3.7,25.6
		c0,0.4-0.1,0.8,0.1,1.1c2.5,3.8,4.2,8.1,8.9,10.1c3.5,1.4,6.8,2.6,10.7,2c2.6-0.4,5.3-0.1,7.7,1.9c1.8,1.4,4.3,0.4,6.5,0.2
		c-0.8-3-2.7-4.1-5.5-4.1c-3-0.1-5.7-1-8.3-2.6c1.1-1.1,1.9-0.1,2.8,0c4.6,0.7,9.2,1.1,13.6,3c2.2,0.9,4.8,1,7.3,1.2
		c4.3,0.2,8.5,1.3,12.7,2.2c1.4,0.3,2.6,0.6,4-0.2c0-1.5-0.9-2-2.3-2.2c-3.5-0.4-6.7-1.5-9.9-2.8c-2.1-0.9-4.6-1-6.9-1.5
		c-2-0.4-3.9-1-5-2.8c-0.8-1.3-2.3-1.5-3.5-1.7c-2.8-0.6-5.6-0.9-8.4-1.6c-3.2-0.8-6.3-1.9-8.4-4.9c-1.9-2.7-3-5.7-2.7-9
		c0.2-1.8,0.1-3.4-0.3-5.1c-1.4-5.7-1.9-11.4-1.8-17.3c0.1-7.3,0.5-14.6,0.4-21.9c-0.1-6.7,0.7-13,2.6-19.3c1-3.3,0.5-6.6-0.2-9.9
		c-0.8-4-1.8-7.9-2.8-11.9c-0.6-2.7-1.6-5.4-1.1-8.4c0.2-1.3-0.4-2.7-0.7-4c-1.3-5.8-2.3-11.6-2.2-17.6c0.1-3.1-0.1-6.2-0.6-9.2
		c-0.9-5.3-0.7-10.6-0.4-15.9c0.1-1.9,0.3-3.8,2.6-4.5c0.2-2.6,0.8-5,0.5-7.7c-3.2-1.1-4.8-3.8-5.9-6.8c-1-2.9-3-5.4-3.7-8.4
		c-0.9-0.7-2-0.5-2.8-1.2c-4.5-3.8-9.7-3.7-15-2.8c-1.1,0.2-2.2,0.5-3.4,0.1c1.3-2.9,4.2-1,6.2-2.1c2.2-1.3,4.8-0.6,7.2,0.2
		c2.2,0.8,4.6,0.8,6.9,3c-0.3-3.6-0.5-6.6-0.8-9.7c1.6,4.5,3.1,9,4.9,13.4c1.5,3.7,3,7.3,6,10.1c1,0.9,2.1,1.8,3.7,1.8
		c2-0.9,3.8-2.5,6.1-3c1.7-0.1,3.1,1.7,4.9,1.1c-0.1-2.3-3.2-1.3-3.6-3.6c2.9-0.3,4.7,1.7,6.5,2.8c1.7,0.3,2.5-0.8,3.6-1.4
		c0.9-0.5,1.7-1.5,3-1.1c-0.3,2.1-0.5,2.2-4.8,4.9c-0.4-0.2-0.8-0.3-1.2-0.6c-0.3-0.2-0.6-0.4-0.9-0.6c-0.8,0-1,0.8-1.5,1.1
		s-1.1,0.5-1.6,0.7c-1.5-0.3-2.8-1.2-4.4-1.2c-2.3,0.7-3.8,3.1-6.7,3c0.9,4.2-0.9,7.8-1.8,11.4c-0.2,0.7-0.7,1.4-0.6,2.1
		c0.3,5.3-1,10.6,0.1,15.9c0.6,2.8,0.7,5.6,0.7,8.5c0,5,0.4,9.9,1.6,14.7c0.2,0.7,0.4,1.5,0.4,2.2c-0.3,5.2,1.2,10,2.8,14.8
		c0.9,2.6,1.3,5.3,1.4,8c0,1.1,0,2.2,0.5,3.3c1.4,3,1.2,6.1,0.4,9.1c-2.2,7.3-2.2,14.9-2.6,22.4c-0.3,6.2-0.4,12.4-0.5,18.5
		c-0.2,7.6,0.8,15,3.1,22.3c0.9,2.7,1.6,5.5,1.5,8.1c0.8,1.6,2.2,2.3,3.6,2.8c0.9,0.3,1.9,0.6,2.9,0.8c5.5,0.6,10.8,2.5,16.1,4
		c5.5,1.5,10.8,3.5,16.4,4.5c2.5,0.4,4.6,1.8,7,2.5c1.5,0.4,2.8,0.7,3.9-0.1c2.3,0.6,2.9,2.4,3.9,3.8c-1.4,1.4-2.6,0.5-4,0.3
		c-0.4,0.5-0.9,1.1-1.4,1.7c-2.2-0.6-4.3-0.7-6.4,0.3c-1.3,0.6-2.6,0.6-4,0.2c-1.5-0.4-3.1-0.8-4.7-1.1c-2.6-0.5-5.2-1.1-8-1
		c-2.3,0.1-4.7-0.4-7.1-1.3c-1.4,3.3-4.5,3.7-7.6,4.4c-0.9-0.3-1.9-0.4-2.7-0.9c-3-1.9-6.3-2-9.6-1.8c-5,0.3-9-2.3-13.1-4.4
		c-0.8-0.4-1.2-1.2-1.5-2c-0.3-0.7-0.5-1.5-0.9-2c-3.2-4-3.4-8.9-4.1-13.6c-1-6-1.7-12-3.7-17.8c-1.8-5.3-3.3-10.6-4.3-16.1
		c-1.2-6.3-3-12.5-3.7-18.9c-0.5-4.3-0.9-8.6-0.6-12.9c0.3-4.3,0.1-8.6-0.1-13c0-1.2-0.5-2.4-1-3.6c-5-13.2-8.4-30.2-10.1-40.1
		c-1.6-9.3-2.1-18.6-1.9-28c0-0.5-0.1-1-0.5-1.4c-1.1-0.3-1.4,0.7-1.9,1.4c-2.8,3.9-5.9,7.6-9.5,10.9c-0.6,0.6-1.2,1.2-1.6,2
		c-4.1,7.2-14,12.7-22.3,12.3c-3.4-0.2-6.9-0.4-10.5-0.6c-1,2.6-1.7,5.2-2.1,7.9c-1.3,10-4.7,19.4-8.9,28.5c-2.6,5.7-4.5,11.7-3,18
		c1.7,6.8,0.9,13.4,0,20.2c-1.2,8.5-3.1,16.7-5.6,24.9c-1.3,4.4-1.6,9-1.4,13.6c0.1,1.7-0.3,3.4-0.4,5.2c-0.4,7.5-0.4,15.1,0.7,22.6
		c0.7,5.3,1.4,10.5,0.6,15.5c0.7,1.1,1.6,1.4,2.4,1.6c4.5,1.5,8.8,3.6,13.7,3.9c1.7,0.1,3.3,1,4.7,2.2c1.6,1.4,3.4,1.8,5.3,2.4
		c4.8,1.5,9.7,2.8,14.5,4.6c2.1,0.8,3.3,3.1,5.5,2.8c1.1,0.7,0.5,1.6,0.7,2.2c0.6,1,2,1,2.6,2.5c-0.1,2.1-2.4,2.9-3.8,4.1
		c-1.4,1.2-3.3,0.2-4.9-0.8c-1.9,2-4.1,3.4-6.7,1.1c-0.8,0.8-1.7,1.1-2.7,1.3c-6.8,1.3-13.5,0.9-20.2-1c-4.2-1.2-8.4-1.6-12.8-1.8
		c-3.6-0.1-7.1-0.9-10.6-1.4c-2.8-0.4-4-2.6-5.1-4.8c-3.5-6.8-5.1-14.2-5.8-21.7c-0.9-9.1-3-18-4.4-27.1c-0.7-4.4-1.2-8.8-2-13.2
		c-1.1-6,0-11.8,0.3-17.8c0.5-9.3,0.9-18.5,0.5-27.8c-0.4-8.6,0.9-17,2.3-25.4c0.3-1.9,1-3.7,2.2-5.6c1.5,1.8,1.8,3.7,2.2,5.5
		c-0.9,0.4-0.9-0.9-2-0.2c-1.3,8.5-4,17-2.5,26c1,6,0.9,12.1,0,18.1c-0.9,5.9-0.7,11.8-1.3,17.8c-0.2,2.4-0.3,4.9,0.6,7.3
		c0.6,1.7,0.8,3.6,0.8,5.5c0.3,6.8,1.9,13.4,3.1,20c1.4,8.3,2.5,16.6,3.4,25c0.6,5.4,3.3,11.7,6.5,15.4c0.9,0.7,1.7-0.6,2.5-0.3
		c6.2,2.4,13,1.4,19.4,3c5.2,1.3,10.4,2.3,15.7,2.8c2,0.2,3.9,0.1,5.9-0.6c-4.1-0.9-8-2.7-12.2-3.2c-2.1-0.2-4.1-0.7-6.1-1.6
		c-0.8-0.3-1.6-0.7-1.9-1.5c0.4-1,1-0.8,1.6-0.6c2.1,0.9,4.3,1.2,6.5,1.6c5.4,1.1,10.8,2.2,15.9,4.6c1.3,0.6,2.8,0.9,4.5,0
		c-2.8-1.9-5.4-3.6-8.7-4.1c-2.4-0.4-4.8-1.1-7.2-1.8c-1.3-0.4-2.6-0.7-3.3-2.1c0.3-1,1-0.7,1.5-0.5c2.9,1,5.9,1.7,9,2.3
		c2.7,0.6,5.2,1.2,7.5,3c1.7,1.4,4.1,1.4,6.1,2.6c0.7,0.4,1.9,0.4,2.8-0.9c-3.2-0.5-5.7-2-7.9-3.9c-0.8-0.7-1.8-0.7-2.8-0.9
		c-2.7-0.5-5.4-1-8-1.7c-1.1-0.3-2.6-0.6-3.1-2.7c3.9,0.8,7.5,2.4,11.8,2c-2.7-1.8-4.9-3.2-7.6-3.9c-3.7-0.9-7.5-1.4-10.6-4
		c-0.9-0.8-2.3-0.8-3.5-0.9c-5.1-0.4-9.7-2.4-14.3-5.1c-1-2-2.3-4.1-1.6-6.8c0.2-0.8-0.3-1.7-0.4-2.5c-2-10.4-2.8-20.8-1.9-31.4
		c0.4-4.9,0.2-9.9,1-14.8c0.3-1.8,0.4-3.8,1.1-5.4c3.2-6.8,3.1-14.2,4.1-21.4c0.2-1.6,0.3-3.2,0.7-4.8c1.9-6.2,0.7-12.2-0.6-18.3
		c-0.5-2.5-0.3-4.7,0.2-7.2c1.6-6.9,4.6-13.3,7.2-19.8c2.1-5.2,2.8-10.8,4.2-16.1c1.4-5.4,2.1-10.9,3.8-16.3
		c1.5-4.8,2.6-10,5.6-13.9c4.6-6.1,8-13,13.1-18.8c2.3-2.6,3.6-5.8,5.1-9c3.7-7.8,4.3-16,4.5-24.4c0-0.3,0.3-0.6,0.4-0.9
		c2.8,1.7,2.8,1.7,1.2,15c2.4-3.3,5-10.7,5.1-14.9c0.1-4.8-0.1-9.6-0.1-14.5c-0.1-4.4-1.8-7.8-5.6-10.2c-5.4-3.3-10.8-6.7-17.3-6.9
		c-7.5-0.2-15,0.3-21.5,5.1c-4.2,3.2-8.9,5.8-13.4,8.6c-1,0.7-1.9,1.4-2.6,2.5c-1.9,2.7-4.1,5.2-6.1,7.9c-6.3,8.3-7.1,17.7-5.2,27.5
		c0.8,3.9,3.7,6.5,6.6,9.5c1.3-7,1.1-13.7,0.5-20.3c2-0.5,2.3,0.5,2.6,1.5c0.9,2.9,0.8,5.9,0.5,8.8c-0.2,1.8-0.3,3.6,0.1,5.4
		c0.8,4.4-0.3,8.6-2.1,12.6c-2.4,5.6-4.5,11.2-5.6,17.2c-1.1,6.2-2.3,12.4-3.4,18.6c-0.1,0.5-0.2,1-0.1,1.5
		c1.4,5.8-0.7,11.3-1.1,16.9c-0.3,4.8-1.3,9.5-2.6,14.1c-0.2,0.7-0.2,1.5-1.3,1.7c-0.4-3.9,1.9-7.5,1.5-11.3
		c-0.3-3.8,0.6-7.6,0.5-11.7c-3.8,1.3-7.4,2.6-11,3.8c-5.4,1.9-10.9,3.4-16.4,4.6c-1.3,0.3-2.7,0.6-4,0.6c-11-0.1-21.9,2.3-32.9,2.7
		c-1.8,3.5-4.8,5.5-8.1,6.9c-4.6,2.1-9,4.6-13.6,6.7s-9.5,4.2-14.7,4.7c-2.7,0.3-5.2,1.3-8,0.4c-1-0.3-2.4,0.5-3.6,0.8
		c-7.2,1.9-14.4,3.5-21.8,4.4c-2.8,0.4-5.7,0.7-8.5,0.4c-6.8-0.8-13.6,0.3-20.3,0.9c-9.5,0.9-19,1.3-28.5,1c-0.6,0-1.2-0.1-1.8,0
		c-6.6,1.3-13.3,1-20,1.1c-2.6,0.1-5.2-0.2-7.8-0.5c-5.6-0.7-11.1-0.1-16.6,0.9c-2.4,0.5-4.9,1-7.3,1c-5.7,0-11.4,0-17.1,0
		c-3.1,0-6.1-0.9-9.2-0.8c-7.5,0.3-14.6,2.3-22,4.2c1.4,3.1,0.2,5.4-2,7.2c-2.5,2.2-5.3,3.6-8.4,4.6c-3.3,1.1-3.6,1.5-3.7,5
		c-0.1,4.1-0.8,7.7-4,10.8c-2,1.9-1.7,5.1-3.1,7.3c0.5,1.6,1.6,2.4,2.6,3.2c2.5,1.9,3.4,3.9,3,7.3c-0.4,3.1-0.9,5.7-3.1,8
		c-3.2,0.9-7.2,0.9-12.3,0.1c-3.1,1.6-6.6,2-9.6,2.9c-1.5,0.1-1.5-1.5-2.6-1.2c-1.2,0.6,0,1.2,0.1,1.8c-1.2,1.5-2.8,1.8-4.6,1.7
		c-3.5-0.2-6.9-0.4-10.3,0.4c-0.4,0.1-0.7,0.1-1.1,0.1c-9.5-1.4-18-4.7-23-13.7c-2.1-3.7-2.7-7.7-1.3-11.8c1.3-3.8,1-7.7,0.3-11.6
		c-0.4-2.2-1.3-4.3-1-5.8c-4.7-6.6-9.4-12.5-8.2-20.8c0.2-1.5-0.2-2.9-0.4-4.4c-1.1-5.9,0.8-11.1,3.3-15.7c1.4-0.8,2.3-0.5,3.1-0.5
		c1.9,0,3.9,0.4,5.8-0.6c0.9-0.5,2.2-0.4,3.3-0.3c1.8,0,3.4-0.2,5.1-0.6c3.4-0.9,12,0.3,15.5,1.9c0.5,0.9-0.8,1.4-0.6,2.3
		c0.4,0.1,0.6,0.2,0.8,0.2c3.5-1.2,7.2-1.9,10-4.7c1-0.9,2.4-1.2,3.7-1.6c8.2-2.5,15.9-6,24-8.7c3.6-1.2,7.1-2.9,10.8-3.8
		c5-1.3,9.9-3.2,14.5-5.6c1.9-1,3.9-1.4,6-1.5c12.7-0.8,25.2,0.8,38,2c2.8-1.2,5.9-2.2,9.2-2.8c3.9-0.8,7.5-2.5,10.5-5.3
		c3.6-3.3,7.8-5.7,12.4-7.2c7.7-2.5,14.8-6.1,21.7-10.4c3.8-2.3,7.7-4.4,11.6-6.6c2.2-1.2,3.8-2.8,5.3-4.9
		c6.2-8.7,13.2-16.7,22.5-22.2c5.5-3.2,11.4-5.4,17.2-7.8c4-1.6,8.3-2.6,12.2-4.3c4.8-2.2,9.7-2.2,14.8-2.4c4.7-0.2,9.4-0.1,14,0.1
		c2.6,0.1,5-1.1,7.6-1.3c3.6-0.3,7.1-0.5,10.7,0.4c6,1.5,12.1,2.7,17.4,6c1.3,0.8,2.5,1.6,3.5,2.7c1.6,0.5,3.6-0.7,4.9,1.5
		c4.9-5,10.9-8.3,14.9-13.8c0.3-0.4,0.7-0.7,0.9-1.2c4.2-7.7,11.1-12.4,18.3-16.9c3.4-2.1,6.6-4.3,9.9-6.5c1.2-0.8,2.5-1.6,3.9-2
		c4.3-1.2,8.4-3.1,12.3-5.2c5.5-3,11.4-4,17.4-4.8c6.5-0.8,13-1.9,19.6-1.5c0.1,0,0.3,0,0.4,0c8.2-2.4,16.8-0.6,25.1-1.6
		c2-0.2,4,0,5.3,1.6c6.4-2,12.8-1.7,19.3-1.3c4.5-3.3,8.7-6.7,11.6-11.7c3.3-5.8,7.3-11.2,11.9-16.1c2.3-2.6,4.8-4.9,8.3-6
		c2-0.6,3.4-2.4,4.9-3.9c3.4-3.3,6.9-6.4,10.8-9.1c2-1.4,4.1-2.7,6.2-4c6.6-4.2,13.2-3.3,19.7,0.1c5,2.6,7.2,7.6,6,13
		c-0.2,1-0.2,1.9-0.3,2.8c-0.3,0.8-1.2,0.4-1.6,0.9c1.1,1,3,0.2,3.8,1.7c-0.1,1.1-1.2,0.6-1.8,1.3c1.5,8.8,1.1,17.7,1.6,26.7
		c-1.6-4.4-1.5-9-2.5-13.5s-1.1-9.1-1.5-13.6c-1.7-0.5-3.3-0.5-5.1-1.8c-2,6.2-4.1,11.9-5.5,17.8c-0.9-1.6-0.1-3.1,0.2-4.6
		c0.3-1.7,0.6-3.4,1.1-5.1c0.4-1.7,1-3.3,1.6-5.2c-2.4-0.3-4.7-0.6-6.3-1.1c-1.7-0.2-1.8,1.2-2.8,1.2c-0.2-0.3-0.4-0.6-0.6-0.9
		c-0.3,0.2-0.6,0.4-0.8,0.6c-2.2,3.2-3.7,6.7-4.6,10.5c-0.9,3.6-1.7,7.2-2.5,10.8c-0.1,0.4-0.4,0.8-0.3,1.1
		C816.9,162.7,814,167.3,813.5,172L813.5,172z M785.9,146.8c1.4-0.5,2-1.5,2.4-2.8c2.9-2.3,5.1-5.1,6.7-8.4c-2.7,2.4-5.2,5-6.8,8.3
		C786.9,144.5,786.4,145.6,785.9,146.8c-0.7,0.4-0.9,1-1.4,2.5C785.4,148.1,786,147.6,785.9,146.8z M780.6,154.2
		c-3.1,3.3-6,6.8-9.6,9.7c-1.7,1.4-2.7,3.5-4,5.7c2.1-0.3,2.6-2.1,4.2-3c0.1,2.1-0.8,3.1-1.9,3.9c-1.6,1.2-3.5,1.7-5.5,1.8
		c-1.1,0-2.2,0.1-3.3,0.1s-2.2,0-3.3,0c5.3,2.1,10.2,1.3,14.7-2c-1.7,4-5.5,4.4-8.9,5.2c-0.1,2,1.1,2.5,2.5,2.9
		c4,0.9,7.6,0.1,10.8-2.4c1-0.8,1.8-1.8,2.1-3.6c-2,1.6-3.4,3.2-5.7,3.6c-0.1-1.8,0.5-3.1,1-4.5c1.8-5.9,4.6-11.4,7.3-16.9
		c0.7-0.5,1.3-1,1.1-2.2C781.3,152.8,780.7,153.3,780.6,154.2z M788.1,161.6c1.6,1.4,0.2,2.8-0.2,4.1c-2,7.3-2.6,16.1-0.5,21.6
		c-0.1-5.6,0.2-10.6,1.2-15.6c2.1-10.8,6.2-20.8,11.5-30.3c0.8-1.5,1.3-3.2,2.8-4.3l0.2,0.2c-0.2,1.5-1.2,2.7-1.9,4
		c-4.6,8.3-8.2,16.9-10.4,26.1c-1.7,6.9-2.4,13.9-1.6,20.9c0.5-5.6,1.1-11.2,2.7-16.6c1.6-5.4,3.3-10.8,6.5-15.5
		c-1.6,6.9-4.2,13.5-5.5,20.5c-1.4,7.8-2.1,17.3-1.2,21c4.1-4.4,10.9-24.1,10.5-30.9c-1.6,4.7-3,8.9-4.3,13.1
		c-1.4,4.2-2.8,8.3-5.1,12.8c0.2-3.3,6.3-21.2,9.1-27.5c1.1,0.9,2,2,2.2,4.3c0.6-1.6,0.8-2.2,1.1-2.9c2-6.3,3-12.7,4.4-19.1
		c2.4-11.3,7.6-20.5,18.3-26c3.3-1.7,5.5-1.4,7.5,1.8c0.4,0.7,0.5,1.8,1.5,2.2c-1.2-6.4-2.7-7.6-10.5-8.8c0.3-1,1.1-0.7,1.8-0.8
		c2.4-0.3,4.5,1,6.8,1.6c3.8,4.3,4.1,9.2,2.8,14.5c1.1-2.8,1.8-5.6,1.3-8.6c-0.4-2.6-1.3-5-4-6.2c-2.1-2.5-4.9-3.1-8-3
		c-3.5,0.1-6.5,1.6-9.2,3.5c-5.9,4.1-11.6,8.4-17.4,12.6c-1.8,1.3-2.9,3-3.3,5.1c-0.5,2.6-1.9,4.8-3.5,6.8
		c-7,8.3-11.9,17.8-17.2,27.2c-0.7,1.2-1.4,2.4-1.2,4.4c2.5-2.8,4.7-5.1,6.8-7.5c1.6-1.8,2.8-3.8,4.1-5.7c1.5-2.3,3-4.6,5.7-5.7
		c-0.9,2.6-1.5,5.2-3.5,7.1c-0.5,0.1-0.8,0.6-1,1c-3.5,8.9-5.6,17.9-3.2,27.4c1,3.9,2.7,7.5,5.5,10.7c0.3-1.7,0-3-0.2-4.4
		c-0.4-0.4-0.8-0.9-1.2-1.4c-0.4-0.6-0.8-1.3-1-1.9c-2-7.2-3-14.5-1.4-21.9C786.5,168,787.3,164.8,788.1,161.6z M319.3,337.1
		c3.6-0.5,6.1-1.9,7.8-4.6c0.9-1.5,2.4-2.5,3.7-3.6c4.3-3.3,9.5-4,14.7-4.5c11.7-1.1,23.5-0.7,35.2-1.5c11.7-0.7,23.5,0,35.2,0.2
		c6.5,0.1,12.5-2,18.8-3c-3-0.4-6-0.8-9.8-1.2c4.6-1.5,8.3-1.2,11.9-0.1c0.8,0.5-0.3,1.3,0.5,1.8c1.7,0.1,3.6,0.1,5.4,0.3
		c9,1,18,1.1,26.9-1c1.9-0.4,3.9-0.7,5.9-0.9c7.2-0.9,14.6-0.6,21.8-2.1c4.7-0.9,9.4-1.6,13.9-3.3c-0.2-0.4-0.3-0.7-0.4-0.8
		c-6.7-3.9-10.8-10-13.8-16.9c-1.5-3.5-3.2-7-5-10.3c-5-9.1-6.9-18.7-4.1-29c0.2-0.8,0.8-1.5,0.2-2.5c-4.8,3.5-10.5,5.7-15.4,8.9
		c-10.1,6.6-21.9,9.6-31.9,16.3c-0.1,0.1-0.2,0.1-0.3,0.2c-1.9,4.6-5.1,7.3-9,7.3c2.3-1.9,4.7-3.5,6.4-6c-1.4,1.2-3,1.4-4.6,1.8
		c-2.9,0.8-5.7,1.6-8.5,2.4c-2.2,0.7-4.4,0.7-6.6,0.6c-11.4-0.4-22.7-1.7-34.1-0.9c-2.9,0.2-5.6,0.8-8.1,2.2
		c-3.7,2-7.4,3.9-11.5,5.1c-4.6,1.4-9.2,2.7-13.8,4.2c-7.6,2.5-15.2,5.2-22.4,8.7c-4.7,2.3-9.7,4.2-14.3,5.3
		c-1.5-0.2-1.4-1.2-2.2-1.7c-2.4,2.8-5.8,4.4-8.4,7.3c2.2,0.5,1.5,2.4,2.2,3.6c1.5,2.4,2.4,5.2,2.4,8.1c0,3.7,2.1,5.9,5.2,7.4
		C315.1,335.7,317.3,336.3,319.3,337.1z M560.9,291.6c-3-5.8-3.6-11.8-3.7-17.9c-0.1-3,0-5.9-0.1-8.9c-0.3-6.4,1.3-12.2,4.4-17.7
		c1.7-3,4.2-5.5,6-8.5c5.3-8.7,13.4-14.1,21.8-19.1c0.8-0.5,1.6-0.6,2.4-0.9c5.5-1.5,10.9-2.5,17.3-0.9c-6.4-4.1-25.3-9.1-26-7
		c0.1,0.8,1.8,1.1,1,2.6c-1.8-0.5-3.6-1.1-5.5-1.3c-7.8-0.7-15.6-0.2-23.3,0.6c-2.5,0.3-4.9,0.7-7.3,1.5c-9.8,3-19.4,6.6-28.6,11.2
		c-6,3-11.6,6.6-15.7,12.2c-2.9,3.9-5.6,7.8-9.7,10.5c-0.6,3.3-1.2,6.5-1.9,9.6c-1.8,9-0.8,17.7,1.9,26.4c0.2,0.7,0.3,1.7,0.8,2
		c1.9,1.3,2.3,3.4,3.2,5.3c4,8.4,9.2,15.8,17,21.3c7.7-2.8,15.5-5.4,23.2-8.5c3.5-1.4,6.7-4,9.1-6.8c1.8-2,3.7-3,6-4
		c0.6-0.3,1.4-0.5,1.9,0.9c-1.7,1.2-3.7,2.1-5.2,3.6c3.6,5.8,8.7,9.6,14.1,13.1c6.2,0.1,21.3-7.5,25.1-12.6
		c-10.7-1.1-21.5-0.4-32.1-2.5c0.2-0.4,0.5-0.9,0.2-1.4s-0.8-1,0-1.8C558.1,292.3,559.2,292,560.9,291.6z M653.7,284.6
		c-1.6-1.2-3.1-1.3-4.4-1.9c-2.6-1.1-5.1-2.5-7-4.8c-2.1-2.6-4.3-5.1-6.2-7.8c-3.2-4.4-5.9-9.2-6.7-14.7c-0.4-2.7-0.9-5.3-1.7-8
		c-2-7.5-2.5-15.1-1.7-22.8c0.4-3.8,1.2-7.5,1.9-11.5c-4.6,2.8-7.4,8.2-13.6,7.2c-1.7,2.8-4.5,3.3-7.3,3.6
		c-4.1,0.6-8.2-0.1-12.4-0.6c4.8-1.6,10-1.4,15.3-2.7c-5.1-1.7-9.6-0.5-14.1,0.1c-3.1,0.4-5.8,1.8-8.3,3.9
		c-6.2,5.1-12.1,10.7-17.3,16.8c-6.6,7.7-10.4,17-10.6,27.1c-0.2,7.6,0.4,15.2,3.5,22.7c4.9-1.2,9.7-2.7,14.4-4.5
		c0.8-0.3,1-1,1.5-1.5c1.6-1.8,3.5-2.6,5.7-2.7c-5,4.5-10.8,7.9-17.1,10.5c0.8,0.2,1.5,0.4,2.3,0.3c5.7-0.2,11.4,0.2,17,0.9
		c1.7,0.2,3.5,0.3,5.2,0.1c9.3-1.4,18.7-1,28-2.6c4.5-0.8,9.1-1,13.5-2.1c4.6-1.1,8.9-2.9,13.6-3.6
		C649.3,285.7,651.4,285.5,653.7,284.6z M664.1,282.1c0.7-2.2,0.8-4.5,0.8-6.9c0-4.2,0.6-8.4,1.6-12.5c0.6-2.5,1.9-4.7,1.9-7.4
		c-0.1-6.5,1.8-12.4,4.5-18.2c0.7-1.4,1.4-2.8,1.4-4.5c-0.5-0.2-0.8-0.3-1.2-0.5c-4-1.6-7.3-3.9-8.2-8.6c-0.6-3.2-1.5-6.3-2-9.4
		c-0.6-3.7-0.5-7.4,0.2-11.1c1.4-6.6,5.2-11.7,10-16.2c5.8-5.4,11.4-11.1,18.5-14.8c0.2-0.1,0.2-0.4,0.4-0.6
		c-4.1,0.2-8.5,1.4-11.6,3.2c-1.4,0.8-2.8,1.7-4.3,2.2c-9.7,2.9-17.4,9.2-25.4,14.8c-0.9,0.6-1.9,1.2-2.7,1.9c-3,2.2-6,4.4-8.8,6.8
		c-2.6,2.2-5.3,4.9-5.9,8.3c-1.7,8.7-3.3,17.5-3.6,26.4c-0.3,8.3,0.4,16.6,3.6,24.4c2.4,5.9,6.6,10.7,10.7,15.5
		c2.1,2.5,4.5,4.1,7.6,4.8c3,0.7,5.9,1.8,8.6,3C661.5,282.6,662.8,282.7,664.1,282.1z M281.8,307.1c-0.9,4.5-1.9,8.9-2.1,13.3
		c-0.2,5.3,0.7,10.4,3.6,14.9c1.2,1.8,2.1,3.6,2.6,5.6c1,1.9,3.5,0.4,4.6,2.1c0.1,0.1,0.1,0.2,0.2,0.3c0.5,1.1-0.8,1.8-0.3,3.2
		c3.9,4.9,3.2,10-0.7,14.5c-2,9.9,3.4,19,13.5,22c0.9,0.3,1.8,0.8,2.7,1.1c2,0.7,4.1,1.4,6.2,1.1c3.9-0.7,7.9-0.4,11.7-0.2
		c2.1-1.4,3.7-3.2,5.9-4.2c2.3-1.1,4.8-0.8,7-1.1c0.5-0.9,0.6-1.6-0.1-2.2c-0.6-0.6-1.6-1.1-1.8-1.8c-0.8-2.9-3.2-4.6-5.4-5.9
		c-2.6-1.6-3.5-3.6-4.2-6.2c-0.1-0.2-0.3-0.3-0.4-0.5c-0.6,0.1-0.8,1-1.4,0.8c-1.1-0.8,0.7-1.6-0.1-2.3c-1.4,0.2-1.5,1.9-3,2.4
		c-1.5-0.2-3.2-0.9-5.1-1.8c3-2.7,6.5-3.3,9.7-4.5c0.2-0.8,0.5-1.7-0.1-2.5c-3.6,2.2-7.2,3.8-11.3,0.8c2.7-1.2,5.1-2.3,7.5-3.4
		c0-0.2-0.1-0.5-0.1-0.7c-3.3,1.1-6.4-0.1-10.4-0.4c4.2-2.5,7.5-4.6,12.2-4.4c-4-0.8-8.1,0.7-10.8-2.9c1.2-1.3,2.6-1.5,3.9-1.7
		c2.8-0.4,5.7-0.5,8.5,0.1c1.6,0.3,2.9,0.1,4.3-0.5c2.8-1.2,4.3-3.4,5.4-6.1c0.7-1.6,0.7-3.5,2.3-5.1c1.1,2.8-0.1,5-0.7,7.1
		c-1,3.2-3.4,5.4-6.6,6.6c4.3,4,3.6,7.8-0.2,9.6c0.3,2.2-1.1,3.9-1.7,6c0.7,1.9,0.5,4.2,2.3,5.7c2.2,1.8,4,4.1,6.4,5.6
		c2.2,1.4,2.5,4.1,4.3,5.8c-0.1,0.6-0.1,1.1-0.2,1.6c0,0.5-0.6,1.1,0.3,1.8c3.2-2,7-2.5,10.6-3.6c0.2-3.6,0.3-6.9-2.7-9.3
		c-1.1-0.9-1.7-2.4-2.2-4c0.9-1.7,1.7-3.5,1.8-5.8c-2.8,0.1-5.2,0-7.8-1.7c2.6-1.3,4.7-0.4,6.5-0.1c5.1-1.6,6.8-5.1,6.6-10
		c-6.2,1.1-8.3,0.5-10-2.9c2.6-1.2,5.3,0.6,8.1-0.4c-2.1-1.2-4.5-1.4-6.9-3.2c4.5-1.8,8.5-0.1,12.4-0.2c2-1.8,4.7-2.1,7-3.4
		c2.1-1.3,4.7-2.1,5.1-5.5c-1.5,0.3-2.6,0.7-3.5,1.4c0.1,0.5,0.1,1,0.1,1.4c-1,0.4-2,0.3-2.9,0.6c-7,2.5-9.7,0.9-10.7-6.5
		c-6,0.4-12,0.7-17.6,3.4c-0.2,2.7-1.4,4.5-3.7,5.7c-6.3,3.3-12.8,3.1-19.3,0.8c-2.2-0.7-3.8-2.5-4.1-4.9c-0.2-1.2-0.5-2.1-1.6-2.7
		c-0.6-0.3-0.7-1-0.9-1.6c-0.9-3.8-1.9-7.7-2.8-11.6c1.1-1.8,2.1-3.6,3.3-5.4c1.1-1.8,2.7-3.2,4.2-4.7c-6.4-2.7-12.4-0.1-18.4,0.5
		C288,307.1,285.1,307.2,281.8,307.1z M730.3,225.5c-0.4,3.8-2.2,7.4-4.7,10.7c-2.6,3.3-5,6.8-7.9,9.8c-4.7,4.9-7.4,10.8-9.3,17.1
		c-0.7,2.3-1.6,4.6-1.7,7c3.3,0,6.3,0,9.4,0c1.8,0,3.7,0.2,5.5-0.3c4.1-1,7.5-3.1,10.6-5.9c4.3-3.9,7.9-8.5,11.7-12.9
		c0.6-0.7,1.1-1.3,1.7-2c-2.7,1.5-5.5,2-8.1,3.1c-4.8,2-9.2-1.4-8.7-6.5c0.2-2.6,1.3-5,2.5-7.3c1-1.9,1.8-3.7,2.3-5.8
		c0.6-2.8,1.8-5.4,3.1-7.9c1.9-3.9,4.3-7.5,6.8-11.1c1.2-1.7,2-3.6,2.4-5.8c0.5-3.2,1-6.4,1.7-9.5c0.8-3.9,1.2-7.5,0-11.5
		c-2.2-7.1-5.1-13.6-10.4-19c-1.8,0.2-3.6,0.4-5.3,0.5c-1.6,0.1-3.2,0.2-4.8,0.2c8.7,3.5,13.2,10.4,16.2,18.6
		c-0.2,0.5-0.7,0.9-0.6,1.3c0.4,3.7-0.8,7.4-0.4,11.1C743.2,210.1,736.9,217.4,730.3,225.5z M512.4,317.5
		c15.9,0.4,31.1-3.4,46.5-6.5c-4.8-2.4-7.8-6.5-10.7-10.7c-2.7,2.2-5.3,4.2-7.7,6.2c-2.2,1.8-4.6,2.9-7.3,3.3
		C525.7,311,519.4,315,512.4,317.5z M368.3,327.6c-1.9-0.8-10.5-1.2-12.8-0.6c0.5,3.9,3.4,6,6.1,4.6c0-0.3,0.1-0.7,0.1-1.1
		C363.8,329.6,366.1,328.6,368.3,327.6z M760.7,167.5c-2.7,0-4.8,0-6.9,0c-2,0-4-0.6-6.5,0.2c2.3,1.3,4.3,1.3,6.1,1.9
		C756,170.4,758.2,169.6,760.7,167.5z M826.5,132.6c2.8,0,5,0,7.2,0c-0.1-1.6-0.4-2.8-2-3.5C829.8,129.6,828.3,130.7,826.5,132.6z
		 M759.9,170c0.1,0.2,0.1,0.5,0.2,0.7c1.8-0.3,3.7,0.2,5.6-0.8c0.1-1.2,1.4-1.9,1.8-3.6C764.6,167.6,762.2,168.8,759.9,170z
		 M846.9,420c-1-2-2.5-2.9-3.4-2.3c-0.4,0.6-1,1.1-0.2,2.1C844.1,420.2,845.3,420.2,846.9,420z M728.2,448.6
		c-0.1,0.1-0.2,0.1-0.4,0.2c0.1,0.1,0.2,0.2,0.3,0.2c0.6,0.6,1.3,1.1,2.2,1.3c0.1,0,0.3-0.2,0.4-0.3
		C730.1,448.9,729,449,728.2,448.6z"/>
	<path d="M802.1,561.1c4,0.6,8,1.7,12.1,1.4c1.9-0.1,3.9-0.2,6.3-1.8c-7.5-0.4-14.1-1.1-19.3-6.7c1.6-0.5,2.2,0.7,3.1,1.1
		c2.4,1.1,4.8,1.9,7.4,0.7c4-1.8,8.2-3.3,12.3-5.9c-5.3-3.2-10.8-2.5-16-3.6c-5.4-1.1-10.8,0.6-16.4-0.2c-0.8,1.4-2.5,1.4-3.6,2.6
		c-0.1,1.8,1.5,2.8,2.3,4c4.6,7,5.7,14.4,4.3,22.6c-1.6,9.4-6.8,17.1-11.1,25.2c-2.9,5.4-6.2,10.6-9.3,16c-0.4,0.7-0.6,1.6-0.9,2.3
		c0.3,2.9,2,3.6,4.6,3.4c1.8-2.3,4.4-3.7,7.1-4.9c3.9-1.7,7.8-3.5,11.2-6.4c3.9-3.3,8.5-4.7,13.8-4.4c5.9,0.3,11.6,0.8,15.7,6.8
		c0,5.6,2.5,11.2,5.3,16.8c3.6,1.8,6.7-0.5,10.2-0.8c1.7,0.1,2.9,2.1,5,2.2c0.1-1.9-2.3-2.2-2.3-4.2c2.5,0.4,4.3,2.5,6.8,2.4
		c1.1-0.8,2.3-1.6,3.6-2.5c0.5,0.2,0.9,0.5,1.3,0.7l-0.1-0.1c-0.5,1.8-2,2.4-3.5,3c-2,0.9-4.1,1.6-6.4,2.6c-1.5,0.2-2.5-1.6-4.3-1.9
		c-2.2,1.5-4.6,3-7.5,3.1c-6.3-3.1-8-8.8-8.8-15c-0.6-4.2-2.1-7.8-6-10c-4.5-0.3-9,0.4-13.2-1.3c-1.8,0.9-3.5,1.6-5.3,2.5
		c1,2.3,1,4.5,0.6,6.7c-0.6,3.3-0.3,6.5,0.7,9.7c4.8,2.9,10.4,2.5,15.6,3.9c1.7,0.5,3.3,0.9,4.9,1.6c4.3,1.8,9,2.7,13.6,3.6
		c4.8,1,9.7,1.6,14.7,2.5c-0.2,2.9-2.3,3.8-4.2,4.8c-4,2.1-8.3,2.5-12.8,1.6c-4.3-0.9-8.8-0.9-13.5-1.3c-0.5,1.7-2,2.7-4.3,3.3
		c-3.7-1.2-7.7-1.2-12-0.6c-4.3,0.6-8.6,0.5-12.5-2.1c-1.3-0.8-2.2-1.7-3-3.1c-2.4-4.2-3.6-8.6-4.1-13.3c-0.1-1.3,0-2.7-1-4.1
		c-1.4,1-2,2.4-2.8,3.7c-1.3,1.8-2.4,3.8-3.8,5.5c-5.1,6.5-12.1,9.8-20,11.5c-1.6,0.3-3.1,0.3-4.9-1.4c3.8-1,7.4-1,10.6-2.5
		c3.3-1.6,6.9-3,9.7-5.3c2.7-2.3,4.7-5.3,6.3-8.7c-1.3-0.3-1.5,1.4-2.5,1.1c-0.3-0.1-0.4-0.3-0.2-0.6c0.7-0.8,1.5-1.6,2.3-2.5
		c-1.2-0.7-2.2,0.3-3.3-0.1c-2.6-0.7-3.8-2.6-3.5-5.2c0.5-4.5,2.6-8.2,5.5-11.5c1.3-1.5,2.3-3.2,3.2-5c3.3-6.7,6.5-13.3,10.3-19.7
		c1.2-2.1,1.8-4.3,2-6.7c0.6-5.8,0.5-11.6-1.1-17.3c-0.8-2.7-1.9-5.1-3.5-7.3c-0.9-1.2-1.6-2.5-2.2-3.4c-0.2-1.3,1.2-1.6,0.9-2.6
		c-4.8-0.8-15.2-0.3-26.5,1.3c0.3,1.2,1.3,0.9,2.1,1c3.4,0.3,6.6,2.1,10.1,1c5,2.3,10.9,2.8,14.3,7.9c3.5,5.3,3.7,11.1,2.3,17.1
		c-0.8,3.5-2.6,6.7-4.2,9.9c-3.1,6-6.9,11.4-11.7,16.2c-1.4,1.4-2.8,2.9-4.6,3.7c-6.8,3-12.5,7.8-19.3,10.7
		c-2.5,1.1-5.1,1.9-7.6,2.9c-5.1,1.9-10.3,2.2-15.6,0.5c-2.2-0.7-4.6-1-6.9-1.4c-2.3-0.4-4.6-1.1-6.7-2.2c-6.1-3.2-8.8-9.1-7.3-15.9
		c0.1-0.5,0.4-0.9,0-1.6c-4.3,0.2-8.7,0.9-13.1,0.3c-1.6-0.2-3.2,0-4.6-1.7c-0.7,3.8-0.5,7.1-0.6,10.4c-0.1,4.2,0.1,8.4-0.1,12.6
		c-0.1,2.8,0.4,5.4,1.4,8c1.6,4.1,3.8,8.1,5.7,12.1c2.4,5,6.3,7.7,11.8,8.3c3.2,0.3,6.4,0.9,9.7-0.2c-4.4-3.3-9.5-5.8-11.4-11.5
		c-0.3-1-1-2.1,0.1-3c1.2,0,1.3,0.9,1.6,1.7c2.6,5.7,7,9.2,13,10.5c7.9,1.7,15.8,2.9,24.3,1.7c5.1-4.1,11.2-7.4,16.1-12.3
		c-0.2,1.9-1.8,2.9-2.9,4.1c-1.3,1.3-2.7,2.6-4.1,3.8c-1.4,1.2-2.9,2.3-4.3,3.4c0.3,0.4,0.8,0.5,0.7,1c-0.2,0.1-0.3,0.3-0.5,0.4
		c-7.7,3.4-15.6,4.5-23.9,2.8c-0.9-0.2-1.7-0.2-2.6-0.1c-10,1.5-20,0.2-29.9-0.5c-0.5,0-1-0.1-1.5-0.1c0.3,6.2,3.3,9.6,9.3,10.3
		c4.7,0.6,9.2,2,13.8,2.9c0.7,0.1,1.6,0.3,2,0.8c2.6,3.1,6.8,3.2,9.9,5.4c3.2,2.2,6.8,3.5,10.3,5c3.1,1.4,4.1,2.3,5.1,4.9
		c-0.2,0.3-0.4,0.6-0.6,0.8c-0.3,0.2-0.7,0.3-1,0.5c-0.6-0.3-0.6-0.3-0.3-1.9c-1-1-2.2-1.8-3.6-2.3c-6.5-2.5-12.9-5.3-18.6-9.1
		c-4.7-3.1-9.9-3.3-15-4.7c-1.7-0.5-3.5-0.5-5.1-1c-2.1-0.6-4.4-1.1-5.1-3.7c-0.3-1.1-1.7-0.3-2.2-1.1c-1.6-7.6-5.1-14.4-8.4-21.3
		c-3.8-7.8-5.3-16.2-5-24.8c0.1-1.5,0.1-3,0.1-4.5c0.1-5.6-0.1-11.1-2.2-16.4c-0.3-0.9-1.1-1.7-0.5-2.8c2.1,1.9,2.1,1.9,3.2,6.1
		c7.9,0.7,15.7,2.8,23.9,1.3c1.8-0.3,3.7-0.3,5.4,0.7c0.8,0.5,1.7,0.2,2.5,0.1c4.2-0.3,8.4-0.7,12.5-1.5c2.2-0.4,4.4-0.6,6.7,0.8
		c0.6,1.1,1.4,2.3,2.1,3.5c-0.9,0.6-1.5,0-1.8-0.2c-3-2.2-6.3-1.7-9.6-1.2c-3,0.5-6.1,0.9-9.3,1.3c-1.2,5.2-0.2,9.7,3.5,13.4
		c3.9,3.8,8.7,5.8,14.2,6.1c5.6,0.4,11.1,0,16.3-1.9c1.7-0.6,3.6-0.7,4.6-2.7c0.3-0.5,1.3-0.7,1.9-1c3.9-1.5,7.6-3.6,11.3-5.6
		c5.1-2.6,9.4-6.4,13.2-10.6c3.7-4,6.8-8.5,10.8-12.3c0.9-0.9,1.2-2.1,1.4-3.4c1.1-6.2,1-12.3-1.1-18.3c-0.9-2.5-2-5-5.4-5.3
		c-1-0.1-1.9-1.1-2.7-1.8c-2.2-1.7-4.7-2.6-7.5-2c-1.2,0.2-2.5-0.1-3.7-0.3c-7.4-1.2-14.7-1.6-22.1,0.4c-2.1,0.6-4.1,0.6-6.2,0.2
		c-3.5-0.7-6.8,0.1-9.7,2.2c-5.3,0.4-10.1-2.5-15.3-1.7c-2.3,0.3-4.7,0.2-7,0.5c-5.4,0.6-10.8,0.8-16.3,0.6
		c-10.6-0.4-21,1.3-31.3,3.5c-7.4,1.6-14.3,4.6-21.2,7.7c-2.2,1-3.4,3.1-4.5,5.3c-0.4,0.9-0.5,1.9-1.3,2.6c1.3,3.7,2.5,7.2,3.6,10.7
		c2.4,7.2,4.1,14.5,5.9,21.8c0.7,2.9,1.7,5.7,3,8.3c5.6,10.9,11.1,21.8,18.8,31.5c3,3.7,5.1,8.1,7.3,11.9c-0.2,1.2-1,0.5-1.2,1.7
		c4,3.9,5.8,9.4,7.5,14.1c7.6,4,15.5,4.7,22.8,7.6c2.8,1.1,6.2,0.7,9.4,0.7c2,0,4.1,0.3,6.4-0.4c-6-3.2-12.7-3.7-18-7.6
		c6.7,1.7,13.4,3.2,19.7,6.1c0.1,0.5,0.1,1.1,0.2,1.6c1,0.8,14.2-0.4,17.7-1.6c-2.9-1.2-5.6-2.3-8.2-3.5c-3.7-1.8-7.6-2.8-11.6-3.8
		c-1.5-0.4-3.3-0.7-4.4-3c9.5,1.9,18.2,4.7,26.3,9.7c-0.6,2.2-2.1,2.9-3.9,3.1c-1.3,0.2-2.7,0.1-4.1,0.1c-1.9,0-3.7,0-5.5,0.7
		c-2.2,0.8-4.5,1.4-6.9,0.2c-0.7-0.4-1.4,0-2.2,0.2c-5.2,1.1-10.6,0.9-15.4-0.6c-5.9-1.8-12-3-17.7-5.3c-0.7-0.3-1.4-0.7-2.1-0.7
		c-4-0.4-5.8-3.2-6.5-6.6c-0.5-2.2-1.3-4-2.9-5.8c-2.1-2.3-3.3-5.3-4.2-8.2c-1.7-5.1-4.6-9.2-8.4-13.2c-6-0.9-12.3-1.3-18.3-3.7
		c-5.7-2.3-11.4-4.8-16.3-8.7c-1,0.3-2,0.5-3.1,0c-6.5-2.7-13.2-4.8-20.2-6c-2.2-0.4-4.3-1.9-6.4-2.9c-1.7-0.8-3.4-1.3-5.3-0.9
		c-1.8,0.4-3.7,0.5-5.5,0.5c-7-0.1-13.8,1.1-20.5,2.8c-5.4,1.4-10.9,2.3-16.4,1.4c-0.7,0.1-0.4,0.6-0.5,1.2c-1.4-0.1-3,0.6-4.3-0.6
		c-1.8-1.6-3.8-1.4-5.9-1.6c-9.1-0.8-18.4-0.8-27.1-3.8c-8-2.8-16.3-4.9-23.8-9.1c-2.2-1.3-4.5-1.9-7-2c-4.4-0.3-8.5-1.4-12-4.3
		c-1.4-1.2-3.1-1.5-4.9-1.6c-3.5-0.1-6.7-1.3-10-2.5c-6-2.3-12-4.5-18.1-6.5c-2.2-0.7-4.6-0.7-6.9-1c-12.3-1.2-24.5-2.9-36.7-5
		c-4.9-0.8-9.8-1.4-14.5-3c-1.2-0.4-2.4-0.6-3.8-0.3c-0.4,3.5-1.1,6.9-3.7,9.5c-0.7,0.7-0.8,1.8-0.9,2.8c-0.3,3.2-0.9,6.4-0.4,9.6
		c0.2,1.3-0.8,2-0.8,3.3c0.5,0.8,1.1,1.7,1.7,2.6c1.9,3.1,1.6,5.6-1.3,7.8c-4.5,3.3-9.2,5.5-14.5,1.9c-0.4,0.2-0.7,0.2-0.8,0.4
		c-6,8.6-19.6,8.2-26.8,5.4c-1.2-0.4-2.2-1.1-3.4-1.4c-8.5-2.7-13.8-8.7-18-16.2c-0.6-1.2-0.8-2.3-0.6-3.6c0.4-2.2,0.5-4.4,0-6.6
		c-0.3-1.5,0-3,0.6-4.4c1.1-2.5,2.2-4.9,4.1-6.9c0.6-3.4-0.1-6.6-2.9-8.7c-4.1-3.1-5.6-7.3-6.2-12.1c-0.3-2.2-0.7-4.4-0.8-6.6
		c-0.2-3.1,0.4-6.3,2.1-8.9c2.9-4.6,5.8-9.2,10.6-12.2c0.5-0.3,1.1-0.6,1.7-1c5.7,0.9,11.5,1.5,16.5,4.8c1.4,0.9,3,1.1,4.6,1.1
		c2.3,0,4.4,0.5,6.3,1.9c1-0.4,0.9-1.4,1.1-2.2c0.7-2,1.6-3.9,2.8-5.6c1.9-2.7,4.2-4.3,7.9-3.3c7.8,2.1,15.8,2.9,23.7,4.1
		c1.8,0.3,3.6,0.7,5.4,1.2c3.4,0.8,4.6,1.9,5.8,5.5c3.4,0.8,6.8,0.9,9.4,0.6c2,0,2.3,1.3,3.3,1.4c3.7,0.3,7.4,0.3,11.1,0.9
		c7.2,1,14.3,0.1,21.4-0.6c6.6-0.6,13.3-1,19.9,0.7c2.7,0.7,5.6,0.8,8.4,1.1c3.2,0.4,6.3,1.3,9.2,2.9c3.2,1.7,6.8,2.3,10.3,3.1
		c1.4,0.3,2.9,0.6,4.3,1.2c4.9-1.8,9.9-3,15.1-3.6c10.2-1.1,20.4-1.8,30.7-2.7c3.2-0.3,6.3-1.4,9.4-1.9c4.3-0.7,7.2-3.5,10.2-5.8
		c13.4-10.3,28.8-13.4,45.2-14.1c5.4-0.2,10.8-0.4,16.2-0.7c7-0.3,13.5,1.3,19.8,4.1c4.5,2,8.9,4.2,13.3,6.4
		c6.8,3.4,12.5,8.4,17.8,14c2.5-0.1,5.2-0.3,7.6-1.2c4.6-1.7,9.4-2.3,14.2-2.5c4.7-0.2,9.4,0,14.1-0.1c3.8,0,7.7,0,11.5-0.2
		c5.5-0.3,10.9-0.3,16.2,0.9c1.5,0.3,3,0.3,4.4-0.1c3.7-1,7.6-1.3,11.3-1.8c1.8-0.2,3.7-0.5,5.4-1.2c1.3-0.5,2.6-0.8,4-0.7
		c2.9,0.3,5.6-0.4,8.4-0.9c3.3-0.6,6.6-0.8,9.9-1.2c4.2-0.5,8.3-1,12.5-1.5c0.6-1.7,0.8-3.3,0.8-4.9c0-4.1,2.5-6.9,6.5-7.6
		c1.7-0.3,3.4-0.3,5.1,0.2c2.6,0.8,5.2,1.6,8,1.5c0.8,0,1.7,0.4,2.5,0.7c8.9,3.6,18.1,6.7,25.3,13.4c0.6,0.6,1.1,1.3,1.6,2
		c1.6-0.9,2-2.3,2.7-3.4c1.8-3.2,3.8-6.4,5.9-9.4c8.2-11.5,19.7-17.6,33.1-20.6c2-0.4,3.9-0.4,5.6,0.6c1.3-0.5,2.5-0.9,3.8-1.4
		c4.1,1.6,9.3,2.1,9.1,9.2c-1.9-2-2.3-4.5-4.5-5.3c-2-0.7-4-1.2-6.6-0.8c-5.1,4-9.8,8.8-12.7,15.6c-0.4-3.4,2.3-8,8.2-14.5
		c-2.5-0.5-4.6,0-6.8,0.8c-8.5,3.5-14.3,9.9-18.9,17.6c-2.2,3.6-3.7,7.5-5,11.5c-0.6,1.9-0.8,3.7,0,6.2c2.5-3,2.6-6.5,4.1-9.3
		c1.6-3.1,3.2-6.2,5.2-9c2-2.7,4-5.3,6.2-7.9c2.1-2.5,4.3-4.9,6.6-7.2c-0.1,1.5-1.2,2.4-2,3.4c-2.8,3.6-5.8,7.1-8.6,10.7
		c-8,10.8-11.6,23.1-11.2,36.5c0.1,3.4,0.4,6.8,1.6,10.3c3.2-7.2,5.6-14.5,7.1-22c0.7-3.2,1.8-6.3,3.7-9.1c-0.9,3.2-1.8,6.3-2.7,9.4
		c3.3,4.7,1.7,9.8,1.4,14.8c0.5-0.1,0.8-0.1,1.5-0.2c-2.4,5.5-4.3,10.9-3.6,16.9c2.3-9.8,6.8-18.5,13.2-26.9
		c-0.1,2.2-1.1,3.2-1.9,4.5c-4.4,7.2-8.2,14.7-9.7,23.1c-0.7,4-0.9,8,1.3,11.7c1.1,2,2.1,4.1,1.6,6.8c-5.7-9-7.2-15.5-6.1-25.7
		c-3.2,5.7-8.2,9.8-13.5,13.6c1.6-2.1,3.1-4.4,4.9-6.3c3.7-3.9,6.8-8,7.1-13.7c0.1-1.5,0.2-2.9,0.1-4.5c-2,3.8-3.3,7.8-4.9,11.8
		c-0.2-4.3-2.2-8.1-2.4-12.3c-0.9,6.5-2.3,12.9-4.1,19.2c-1.2,4.1-3.5,7.6-6.2,10.9c-0.3,0.4-0.7,0.7-1.1,0.9
		c-0.3,0.2-0.7,0.1-1.1,0.1c-0.7-0.4-0.8-0.9-0.4-1.6c0.4-0.5,0.8,0.2,1.3,0c0.2-0.1,0.4-0.3,0.5-0.5c1.2-2,1.5-4.2,1.7-6.4
		c0.8-11.8,3.6-23.2,6.4-34.6c0.8-3.5,1.4-7,2-10.5c1.6-8.9,5.1-17,11.2-23.8c0.7-0.7,1.3-1.5,1.9-2.2c0,0-0.1-0.2-0.3-0.5
		c-4.6,2.4-8.7,5.5-11.6,8.2c-3.7,8.5-6.8,16.1-9.1,24c-2.2,7.8-4.7,15.5-6.8,23.4c7.9-8.2,9.4-19.3,12.9-29.5
		c0.7,2.9-0.2,5.5-0.7,8.2c-1.9,12-7.6,21.8-16.9,29.6c-2.4,2-4,4.7-6.9,6.1c-0.7,0.3-1.2,0.9-2.1-0.1c1.4-1.3,2.9-2.5,4.3-3.8
		c2.2-1.8,3.6-4.1,4.4-6.7c1.3-4.5,2.6-9,4.1-14c-1.6,0.8-2.2,1.8-2.8,2.8c-3.2,5.6-11,8.5-17,6.5c-0.1-0.1-0.2-0.4-0.4-0.9
		c3-0.1,6.1,0.4,9.1-1.9c-4.1,0.5-7.6,1.2-11.1,0c-0.6-0.2-1.2-0.4-1.5-1.2c6.3,1.3,12-0.6,17.5-3.2c1.5-0.7,2.8-1.6,4-2.7
		c1.4-1.3,2.4-2.7,1.6-4.8c0.8,0.1,1,0.9,1.9,0.8c1.6-4.6,2.6-9.4,4.2-14.1c-3.6,5.9-6.7,12.2-11.1,16.8c-4,0.7-7.4,3.2-11.1,0.7
		c3.7,0.5,7-1.3,10.9-2.3c0.4-0.6,1-1.7,1.8-2.8c-1.4-0.6-2.5,0.1-3.7,0.2C810,564.6,805.6,564.5,802.1,561.1L802.1,561.1z
		 M321.7,563.3c0.2-4.2,2.6-7.3,5-10.4c1.5-1.8,3.2-3.1,5.4-2.2c0.7-0.7,1.1-1.1,1.2-1.7c-2.2-1.3-2.2-1.5-4-1.3
		c-3.1,0.3-5.9-0.6-8.4-2.4c-4-3-8.8-2.7-13.5-3.7c-1.6,3.2-4.2,5.1-6.3,7.5c-0.7,0.8-1.4,1.7-2.1,2.6c-2.6,3.3-4.3,6.9-2.9,11.3
		c0.2,0.7,0.1,1.5,0.2,2.2c0.5,5.1,1.5,9.8,5.9,13.4c4,3.4,4.5,8.8,2.2,13.6c-0.7,1.5-1,3.1-1.2,4.6c-0.6,3.8-1.1,7.6-1.6,11.3
		c1.4,3.5,6.6,10.9,8.9,12.1c4.4,2.3,9,4,13.7,5.4c3.6,1.1,7.4,0.1,10.8,1c7.3-3.5,6.1-2.7,7.8-7.5c-0.5-6-4.8-9-6.7-13.3
		c-3.3,1.1-6.3,1.1-9.7-0.3c2.7-2.5,6-1.4,8.8-2.3c0.1-1,1.6-1.8,0.9-3.2c-3.4,2.2-6.9,3.4-10.8,1.6c-0.3-0.1-0.5-0.5-0.3-1
		c0.8-0.5,1.7-0.9,2.8-1.5c-2-0.7-4.1-0.3-5.2-2.1c0.5-1.7,2.6-0.8,3.3-2.3c-1.3-0.6-2.9-1-2.7-3.3c5.3,0.3,10.3-1.6,15.6-1.8
		c1.8-1.8,5.3-2.2,4.7-6.2c-4.1,1.8-8,3.5-12.2,3.9c-0.8-0.3-1.2-0.8-1.6-1.2c-3.6-3.8-5.4-8.8-8.5-12.9c-1.3-1.7-1.8-3.7-1.9-5.9
		c-0.1-2,0.5-3.4,2.4-4.1c-0.7,3.7,0.1,7.1,2.4,10.1c0.8,1,1.4,2.1,1.9,3.2c1.3,3.1,3.4,5.4,5.9,7.4c0.1,0.1,0.5,0,0.7,0
		c1.3-0.2,0.3-1.9,1.4-2.3c4.2-0.9,8.5-1.4,12.9-1.3c6.7,0.1,13.3,0.8,20,0.9c5.8,0,11.5,1.1,17.1,2.8c4.3,1.3,8.9,2.3,13.4,2.9
		c11.4,1.6,23.1,1,34.1,5.3c5.1,2,10.2,3.8,15.4,5.8c3.4-0.9,6.8,0.9,10.5,1.5c-0.7-1.2-1.5-1.7-2.4-2.2c-0.8-0.5-2.1-0.5-2.5-2.3
		c2.9,1,5.4,2.1,7.6,3.5c6.9,4.4,14.1,8,22.2,9.9c1.7,0.4,3.3,1,4.9,1.7c11.3,4.7,22.8,8.8,35.3,9c2.8,0,5.7,0.6,8.5,0.8
		c0.6,0.1,1.4,0.7,2-0.3c0.1-0.6-0.3-0.9-0.5-1.4c-5-10.3-8.9-20.6-8.3-32.5c0.5-9.8,2.1-19.1,6.1-28c0.7-1.5,1.5-2.9,1.8-4.7
		c-8.7,1.4-17.1,1.9-25.4,2.8c-6.4,0.7-12.8,1-19.1,2.4c-8.2,1.8-16.4,3.4-24.4,6.3c-2.1,3.7-5.9,2.6-9.1,2.8
		c-3.8,0.3-7.9-1.3-9.6-2.8c3.6,0.2,3.6,0.2,6.2,1.9c2.9-0.4,6-0.8,9.6-1.3c-2.9-1.5-5.4-1-7.9-1c-1.1,0-2.2,0.3-3.3-0.1
		c-3.4-1.1-6.8-2.1-10-3.9c-8.3-4.7-17.5-6.7-26.9-7.4c-4.3-0.3-8.6-0.2-13-0.6c-4-0.3-7.9-0.2-11.8,0.9c-1.8,0.5-3.7,0.5-5.5,0.6
		c-4.7,0.4-9.4,0.8-14.1,1.1c-1.5,0.1-3,0.4-4.4,0.2c-5.6-1-11.1,0.4-16.6,0.5c-2,0.1-4.1,0.3-5.8-0.5c-3.3-1.4-6.8-1.9-10.3-2.6
		c-2.4,1.8-3.9,4.4-5.6,6.8C324.2,560.7,323.6,562.6,321.7,563.3z M617.9,535.1c-2.5-3.5-6.2-1.8-9.3-2.5c2.4,3,7.1,2.2,9.2,6.2
		c-1.5-0.4-2.6-1-3.6-0.8c-2.3,0.4-4.2-0.4-6-1.4c-4-2.3-8.2-3.2-12.8-3.1c-1,0-2-0.1-3-0.2c-5.3-0.3-10.6,0-15.9,0.9
		c-8.1,1.5-15.7,4.4-23.2,7.5c-0.8,0.3-1.5,0.8-2.1,1.5c-1.3,1.7-3.2,2.7-5,3.8c-2.9,1.8-6.1,2.5-9.3,3.5
		c-2.4,6.3-4.8,12.5-7.1,18.8c-1.8,4.9-3.1,9.9-3.9,15c-0.3,1.9-0.7,3.9-0.1,5.9c1,3.7,1.8,7.4,2.9,11.1c1.5,5.1,2.7,10.3,6.5,14.4
		c-0.6,2.1,0.4,3.5,1.9,4.7c8.6,0.3,17.1,0.7,25.5-1.2c2.6-0.6,5.4-0.8,8.1-1.1c4.3-0.5,8.5-1,12.8-1.3c1.1-3,1.7-5.9,2-8.8
		c0.5-7.5,3.8-13.7,8.8-19.1c1.9-2.1,4-4,6-6.1c3.5-3.6,6.7-7.3,10.9-10.3c4-2.9,8-5.7,12.2-8.4c7.9-5.1,16.3-9.2,25.9-10.6
		c0.7-0.1,1.5-0.1,1.9-1c-3.4-3.5-6.7-7-11.6-8.8c-5.2-2-10.2-4.5-15.2-6.9C622.4,535.7,620.3,534.9,617.9,535.1z M634.4,561.4
		c-1.2-0.6-1.7-0.2-1.9,0.4c-0.8,2-2.5,3-4.3,3.8c-9.2,4-16.2,10.7-23,17.9c-3.2,3.4-6.6,6.6-9.7,10c-4.7,5.1-7.5,11.6-8.7,18.6
		c-0.7,4.1,0.9,6.8,5,7.6c4.8,1,9.7,2.1,14.7,1.2c2.1-0.3,4.1,0.1,6.3,0.7c-1.5,0.4-2.8,0.8-4.1,1.2c0.3,0.8,0.8,0.7,1.2,0.8
		c7.5,2.6,14.8,5.6,21.8,9.2c6,3,12.3,5,18.9,6.2c0.9,0.2,1.8,0.8,2.8,0c-2.2-3.6-4.1-7.4-6.3-10.9c-6.1-9.7-10.8-20-13.1-31.3
		c-1.4-6.8-2.6-13.6-5-20.1c-0.8-2.1-0.9-4.3-1.2-6.3C629.9,567.1,631.7,564.1,634.4,561.4z M785.1,621.3c1,3.7,1.8,7.3,1.5,11.1
		c-0.1,0.8,0.2,1.4,0.5,2.1c1.2,2.5,2.5,5.1,3.7,7.6c7.3,2.7,8,3.4,15.5,2c2.3-0.4,4.5-0.7,6.8,0.5c1.4,0.8,3.4,0.9,5-0.4
		c0.2-0.8,0.4-1.6-0.1-2.6c-1-0.9-2-1.6-3.6-1.2c-3.1,0.9-5.8-0.2-8.6-1.3c-0.6-0.2-1.2-0.5-0.7-1.5c1.7,0.4,3.4,0.6,5.1,1.1
		c1.9,0.5,3.7-0.1,5.5,0.1c1,0.1,1.9,0.5,2.7,1.1c2.9,2.2,6.2,2.4,9.5,1.8c1.5-0.3,2.8-0.3,4.3,0.2c2.9,0.9,4.6,0.8,7.1,0
		c-5-1.7-9.5-3.9-14.6-4.3c-1.9-0.1-3.6-0.7-5.3-1.5c-0.6-0.3-1.5-0.3-1.3-1.5c3.6,0.7,7,2.3,11.1,2c-6.8-2.5-13.2-4.3-20-5.3
		c-2.6-0.4-5.5-0.1-7.5-2.4c-0.4-0.5-1.5,0-1.5-0.1c-0.3-6.2-0.9-11.6-0.6-17.4c-3.4,0.9-4.5,3.9-7.1,5.2
		C790.2,618,787.5,619.1,785.1,621.3z M362.6,615.5c-0.9-2.4-3.1-4-2.8-6c0.4-2.7-0.6-5.3,0.1-8c0.5-2,0.4-4.2,0.6-6.1
		c-0.6-0.9-2-1.1-1.6-2.2c0.8-1.9,3.3,0,3.7-2.4c-1.5-1-4.4-0.1-4.5-2.9c0.9-1.4,2.2-0.6,3.4-1.2c-1.6-0.6-3.1-1.3-3.8-2.6
		c-3.8-0.5-7.5-1.4-11.2-0.2c-0.5,1.8-0.5,3.7-1.7,5.3s-3.4,1.4-4.7,3c1.8,3.7,0.3,7.2-0.9,10.3c0.2,6,4.1,9.4,7.9,13.2
		c-0.9,1.9-0.2,3.4,1.6,4.5C354,620.9,359.2,621.1,362.6,615.5z M376.8,544.2c-0.3-0.9-0.9-0.8-1.3-0.9c-4.7-0.9-9.5-1.3-14.2-2.4
		c-1.3-0.3-2.7-0.3-4-0.4c-3.1-0.3-6.1-0.6-8.9-2.1c-0.8-0.4-1.9-0.6-2.8-0.8c-1.2,0.5-2.4,1-3.6,1.4c-2,4.2-5.1,7.9-5.4,12.7
		c10.7,2.2,21.1,0.2,31.6-0.2C370,547.9,372.9,545.4,376.8,544.2z M695.5,646.4c-9.5-11.5-16-29.3-11.7-50.6
		c-2.3-0.4-4.7-0.9-6.5-1.2c-0.9,0.5-0.8,0.9-0.7,1.2c0.7,5,0.6,10.1,0.5,15.1c-0.1,3.8-0.3,7.7,1,11.4s2.6,7.4,4.2,11.1
		c1.9,4.4,4,8.7,6,13C690.7,646.4,692.9,646.4,695.5,646.4z M817.4,544.7c-2.6-2-5.3-3.5-8.2-4.6c-1.7-0.7-3.7-0.9-5.2-1.9
		c-3.8-2.5-7.9-4.1-12.4-4.5c-0.6-0.1-1.3-0.2-1.8-0.5c-3.1-1.7-6.2-1.2-9.5,0c-0.6,0.8-1.4,1.8-2,2.8c0.2,2.2,0.1,4.2-0.3,6.3
		c7-0.8,13.4,0.9,20,1C804.4,543.4,811,543.2,817.4,544.7z M427,551.7c0.7,0.9,1.5,1,2.1,1.2c4.1,1.7,8.3,3.1,12.1,5.5
		c3.6,2.3,7.7,3.9,12.3,3c0.9-0.2,2-0.3,2.9,0c5.9,1.6,11-1.1,16.5-2.5c-2.3-1-5,0.7-7.1-1.1c0.5-0.4,1.3,0.1,1.6-0.7
		C459.5,553.3,437.3,549.6,427,551.7z M830.8,598.1c4.3-10.7,5.7-21.9,6.6-33.3C834.1,575.7,832.8,587,830.8,598.1z M833.6,638
		c3.3,2.1,7.3,2.1,11,4c0.9-0.9,3-0.2,4.1-2.1C843.5,639.6,838.6,638.3,833.6,638z M376.9,546.9c-3,0.4-4.5,2-5.5,4.3
		c2.7-1.4,6.1,0.9,8.6-2.1C378.8,548.4,377.3,548.4,376.9,546.9z M849.6,563.7c-1.1,3.9-1.9,7.8-1.3,11.8
		C849.4,571.7,850.8,567.8,849.6,563.7z M817.9,555.5c2.6,0.3,4.8,0.2,6.6-2.8C821.8,553.8,819.9,554.6,817.9,555.5z M818.5,558.2
		c1.4,0.5,2.2,0.4,3.2-0.6C820.6,557.4,819.8,557.4,818.5,558.2z M811.7,557.2c1,0.5,1.6,0.9,2.4,0.4
		C813.6,557.2,813.1,556.7,811.7,557.2z M334,597.8c0.4,0.6,0.7,1.1,1.4,0.6C335.3,597.7,335,597.3,334,597.8z"/>
	<path d="M843.8,175c0.3,5.3-0.8,10.4-2.6,15.5c1.5-0.1,1.9-1,2.3-1.9c5.1-10.1,9.1-20.5,9.4-32.1c0.1-7.1-2.3-13-6.8-18.3
		c-0.4-0.5-0.8-1-1.1-1.4c0.1-0.6,0.4-1,0.8-1.3c0.3-0.3,0.5-0.8,1-1.5c6,5,13.1,8.7,16.1,16.4c0.4,0.9,0.9,1.7,1.5,2.5
		c3.9,5.2,5.9,11.1,6.3,17.5c0.1,1.6,0.2,3.2,0.3,4.8c0.3,10.4-2.5,19.9-8.6,28.4c-1.6,2.2-3.5,4.2-5.8,5.7
		c-0.8,0.5-1.6,1.1-2.2,1.9c-3.6,4.7-8.5,7.4-14,9.3c-0.8,0.3-1.6,0.6-2.4,0.9c-4.7,1.2-7.8,4.4-10.2,8.4c-2,3.3-4.3,6.4-8.2,8.1
		c-2.8-1.5-3.7-4.7-5.7-6.7c0.3-1.4,0.9-2,2-2.1c1.3,0.9-0.6,1.8-0.1,2.8c1.2,1,2.4,2.1,3.4,2.9c1.6,0.5,2.7,0,3.6-1
		c1-1.2,2.2-2.3,2.9-3.8c1.5-3.4,4-6.2,6.7-8.7c1.1-1,2.3-1.4,3.6-1.7c6.3-1.5,11.2-5.1,15.6-9.5c1-1,1.9-1.8,3.2-2.5
		c1.7-0.9,3.1-2.3,4.1-4.1c-1.2-0.7-2,0.7-3,0.3c-0.6-0.6-1.6-1-3.5-1.4c10.3-6.9,14.2-17.5,15.4-28.9c0.9-8.3-2.1-16.1-7.3-22.9
		c1.7,4.3,1.2,9,3,13.2c1.3,3.2,1,6.9,0.3,10.3c-1.7,8.4-4.8,16.3-9.5,23.6c-1.1,1.7-2.3,3.4-4.7,3.6c3.6-4.2,6.2-9,8.4-14
		c3.4-7.7,4.7-12.9,3.9-15.9c1.7-1.4,1.2-3.5,1.3-5.9c-1,1.2-0.4,2.4-1,3.2c-0.6-12-3.8-20.7-9-24.4c2.3,7.1,4,14.1,3,21.3
		c-1.6-3.5-0.2-7.5-2.4-11.7c0.5,8-1.5,14.7-3.3,21.5c-1,3.5-1.6,7.2-2.9,10.7c-1,2.9-2.3,5.8-5.7,6.8c-0.3,0.8,1,1.2,0.2,2.2
		c-2.2-1.8-4.4-3.6-6.6-5.4c1.6-1.7,2.4,0.1,3.8,0.3C842.1,185.6,841.8,180,843.8,175z M866.6,186c-1.1,2-2.1,4-2.4,6.3
		C865.3,190.3,866.7,188.4,866.6,186z M854.1,143c-0.8-0.9-1.6-1.5-2.9-2C851.8,142.6,852.1,143.8,854.1,143z"/>
	<path d="M855.6,628c-0.1-0.7-0.3-1.5,0.3-2.3c2.3,1.1,3.1,4.3,6.5,4.3c3.6-4.2,5.6-10.2,11.7-13.1c5.4,0.7,10.8-0.7,15.1-4.6
		c8-7.4,16-14.9,17.9-26.5c0.1-0.9,0.4-1.7,0.4-2.5c0.2-7.7-0.5-15.3-3.2-22.6c-0.8-2.2-1.7-4.4-2.5-6.6c-1.4-4-4-7-7.7-10.3
		c1.4,3.4,4.1,5.3,4.5,8.3c-2.5-2.7-4.3-6-8.4-8.3c4.3,6.6,4.8,13.4,5.2,20.3c-1.7-2-0.8-4.6-1.8-6.8s-1.8-4.6-3-6.8s-3.7-3.3-4-6.4
		c-0.9,1.4-0.4,2.4-0.2,3.3c0.8,3.9,1.9,7.7,2.5,11.6c1.2,7.8-0.1,15.3-3.1,22.5c-0.7,1.6-1.4,3.1-1.7,4.9l-0.1,0.1
		c-1.8,1.8-2.6,4.2-3.9,6.2c-1.7,2.7-3.3,5.5-5.3,8c-0.3,0.4-0.6,1.1-1.7,0.9c1.8-3.6,4.8-6.5,5.9-10.4c-1.8,2.2-3.4,4.5-5.3,6.5
		c-2.1,2.3-4.4,4.4-6.9,6.1c-2.4,1.6-4.7,3.5-8.1,3.9c0.4-1.9,1.5-2.6,2.7-3.4c3.4-2.3,6.5-4.9,9.5-7.7c2.5-2.4,4.6-5.2,6.2-8.3
		c1-2.1,3.6-3.2,3.5-6c0-0.5,0.1-1,0.1-1.6c-1.9,0.6-1.1,2.3-1.6,3.3c-0.3-3-0.3-3,1.8-5.3c2.3,1.7,0.4,4.1,1,6.7
		c2.7-7.3,4.6-14.2,4.5-21.5c-0.1-5.1-1.2-10.1-2.2-15c-1.2-5.5-1.4-11-1.1-16.6c0.1-2.6,0.7-5.2,3-7.8c0.7,3.1-1.9,5.1-1.1,7.1
		c1,2.3-0.9,4.3,0.4,6.7c3.6,0.9,7.1,3,10.6,4.9s6,4.8,7.4,8.5c2.8,7.4,5,14.9,6.6,22.7c1.8,9-0.7,16.8-5.4,24.3
		c-0.9,1.4-1.9,2.6-2.9,3.9c-2.4,3-5.2,5.6-7.5,8.6c-3.6,4.6-9.1,6.6-14.7,8c-0.1,0-0.2,0-0.4,0c-6.4-0.3-9.8,3.7-12.6,8.7
		c-1.1,2-2.5,3.7-4.9,4.3c-1.6-0.5-3.1-1.3-4.1-2.8c-0.5-0.7-0.9-1.5-1.9-1.6V628z M885.3,541.7c0.5,0.7,0.9,0.7,1.3,0.3
		c0.1-0.1,0.1-0.5,0-0.6C886.1,541,885.7,541.2,885.3,541.7z"/>
	<path d="M861.4,595.1c5-6,8.4-12.8,10.4-20.3c0.7-2.6,1.2-5.3,1.7-8c0.1-0.5,0-1.1,0.3-1.4c3.2-4,2.4-8.9,3.2-13.4
		c0.6-3.3,0.7-6.8,1.1-10.2c0.8,8.5-0.4,16.8-2.3,25c-1.9,8-4.3,15.9-7.2,24c0.6-0.4,0.9-0.5,1-0.6C875,580,880,569.7,881,558
		c0.5-5.8-0.3-11.3-1.4-16.9c-1-4.8-3-9.4-2-14.5c0.1-0.3-0.5-0.8-0.7-1.2l0.1,0.1c0.8-1.3,1.8-2.3,3.8-3.4c-3,4.9-2.2,9.3-0.8,13.7
		c1.3,4.1,2.3,8.3,3,12.6c1.8,11-0.9,21.1-5.5,30.9c-3.1,6.6-7.4,12.6-11.6,18.5c-0.7,1-1.6,1.8-3,2.4c1.4-3.3,2.8-6.6,4.2-9.9
		c-2.3,1.6-3.1,4.6-5.7,5.7C861.4,595.6,861.4,595.4,861.4,595.1z"/>
	<path fill="none" d="M816.4,142.4c0.1,2.4-1,4.5-1.4,6.8c-1,6.4-1.9,12.9-3,19.3c-0.2,1-0.6,1.9-0.9,2.8c-3.1,7-7,13.4-11.5,19.5
		c-0.7,1-1.7,1.8-2.1,3c-0.3,0.3-0.6,0.7-0.9,1c-0.5,0-0.7-0.4-0.5-0.7c3.2-5.2,4.8-11,6.4-16.8c0.1-0.2,0.3-0.3,0.5-0.5
		c1.2-0.2,0.7,1,1.2,1.5c0.1-0.2,0.3-0.3,0.3-0.4c0.9-3.8,2.4-7.5,3.9-11.1c2.8-7,5.1-14.1,6.9-21.4
		C815.4,144.4,815.3,143.1,816.4,142.4L816.4,142.4z"/>
	<path d="M893,574.6c-0.7,8.4-4.8,15.3-10.2,21.8c1.8,0.6,2.9-0.6,4.1-1.3c7.5-4.2,10.4-11.2,11.6-19.2c0.5-3.2,0.7-6.4,1.1-9.5
		c1.2,8.9-0.7,17.2-5.6,24.6c-2,3.1-5.6,5.1-8.8,7.1c-0.9,0.5-2.1,0.8-3.4,0.1c-1.2-1.4-0.6-2.7,0.4-4.2c1.9-2.7,3.7-5.6,5.4-8.4
		C890,582.1,892,578.6,893,574.6z"/>
	<path d="M899.3,596c1.6-0.8,1.9-2.5,2.8-3.7c0.7-1.1,1.3-2.2,2.2-3.1c-2.1,7.3-6.2,13.1-12.1,18c-1.6-0.5-3.3-0.3-4.6-1.4
		c0.1-1.3,1.3-0.3,1.7-1.1c-1.8-1-3.6-2.1-6.5-0.5c1.1-1.8,0.9-2.9,0.3-4c1.4-0.7,1.7,0.6,2.5,0.7c2.1-0.8,3.6-2.8,6.5-3.5
		c-1.3,2.1-3.4,2.8-4.7,4.4c0.8,1,1.8,1.4,3.1,1.9c4.7-4.9,8.7-10.3,11.3-16.9c0.3,2.2,0.2,2.4-0.3,3.9
		C900.9,592.4,899.6,594,899.3,596c-0.9,0.5-1.5,1.2-1.4,2.3c-1.5,0.6-2.2,2-2.8,3.4c1.3-0.8,2.4-1.9,2.7-3.4
		C898.9,597.8,899.3,597.1,899.3,596z M893.9,602.9c-0.8,0.8-2.4,1-2.4,2.8C892.7,605,893.6,604.3,893.9,602.9z"/>
	<path d="M854.3,591.7c3.1-4.9,5.7-10,8.3-15.2c0.8-1.5,1.5-3.2,1.9-4.8c1-4.8,3.1-9.3,3.7-14.2c0.1-0.4,0-1,1.1-1.3
		c-0.5,9.1-4,17.3-5.7,26.6c-0.4-1.2-0.6-1.6-0.9-2.7c-2.2,5.6-4.1,10.9-8.2,14.9c0.1,0.3-0.8-0.4-0.3-0.5c0,0,0-0.5,0-0.7
		c0.8-0.4,1.3-1,1.2-2C855,591.8,854.7,591.8,854.3,591.7z"/>
	<path d="M833.2,166.2c-0.6,4.8-1.4,9.4-1.3,14.1c0.1,1.9,0,3.9,0.3,5.9c2.5-3.5,2-8.2,5-11.5c-0.1,4.3,0.3,8.6-0.8,12.8
		c-1.3-2.1,0-4.2-0.4-6.7c-1.5,3.4-2.1,6.8-4,9.8C829.5,184.9,830.1,173.1,833.2,166.2z"/>
	<path d="M847.5,200.4c-1.6-0.1-2.7-0.7-4-2.5c1.5,0.6,2.3,0.9,3.6,1.4c8.1-8.6,10.7-19.3,11.4-30.1
		C860.1,180.3,855.4,194.5,847.5,200.4z"/>
	<path d="M861.4,595.1c0,0.3,0,0.6,0.1,0.8c-2.6,2.1-3.9,5.2-6.2,7.6c5.3-10.4,10.2-21,12.9-32.9c1,1.5,0.7,2.8,0.4,4
		c-1.5,5.9-3.6,11.5-6,17.1C862,592.8,861.2,593.7,861.4,595.1z"/>
	<path d="M723,679c-2.8-0.1-5.5,0.1-8.1-1.5c-3-1.9-6.4-3.1-9.9-3.7c-1.6-0.3-3.8-0.1-4.8-2.9c4.2,1,8,1.4,11.6,2.9
		c3.1,1.3,5.8,3.7,9.6,3.2C722.1,677,722.8,677.7,723,679z"/>
	<path d="M827.1,218.4c0.5,0.6,0.8,1.2,0.5,2.1c-0.3,0.8-1.6,0.6-2.2,1.3c-3.8-0.6-5.6-3.6-7.4-6.6c-0.3-1.8-0.4-3.8,0.3-6.2
		c0.7,2.8,2.4,4.7,3.7,6.7C823.2,217.6,824.7,218.9,827.1,218.4z"/>
	<path d="M899.4,586.7c2.6-9.1,4.1-18.2,2.1-28C905.4,564,904.1,579.9,899.4,586.7z"/>
	<path d="M823.2,206.5c5.8,1.9,10.6,7.7,9.8,11.8c-2.7-1-3.2-3.9-4.9-5.6C826.2,211,824.7,209,823.2,206.5z"/>
	<path d="M819.7,164.4c0,7.5,1.6,17,5.3,26.3c-2.7-2.5-3.7-5.9-5.1-13.9C819,171.8,820,166.9,819.7,164.4z"/>
	<path d="M821.8,166c-1.3-9.6,1.8-18,7.2-25.9c-1.1,2.7-2.4,5.3-3.4,8c-1.1,2.9-2,5.8-2.6,8.9C822.3,160,822.4,163,821.8,166z"/>
	<path d="M836.2,160.3c-0.8-7.8,0.1-20.9,1.7-23.8C838.3,144.7,836.2,152.4,836.2,160.3z"/>
	<path d="M813.4,172.1c0.9,1.6,0.6,3.4,1,5c1.2,5.3,3.2,10.3,6.7,14.9C816.4,189.9,813.4,181.6,813.4,172.1L813.4,172.1z"/>
	<path d="M848.4,191.5c0-0.4-0.1-0.8,0.1-1.1c4.3-6.9,6-14.5,6.9-22.8c0.7,4.6-0.5,11.3-3.1,17.3
		C851.2,187.2,850.4,189.7,848.4,191.5L848.4,191.5z"/>
	<path d="M866.9,529.6c1.3-3.2,3.2-6,5.6-8.4c1.1-1.1,2.4-2.1,4.1-2.3c1.4-0.2,2.7-0.1,3.3,1.8c-5-1-7.6,2.3-10,5.6
		c-0.9,1.2-1.6,2.6-2.4,4C867.3,529.9,867.1,529.7,866.9,529.6z"/>
	<path d="M865.9,618.7c-4,2-7.2-0.2-7.8-5.4c1.6,0.6,2,2.4,3.6,2.9C863.1,616.6,864.8,617,865.9,618.7z"/>
	<path d="M884,586.5L884,586.5c1.9-1.7,2.5-4.1,3.4-6.2c0.7-1.5,1.3-3,2.1-4.4c-1,6.3-4.2,11.6-7.9,17.7
		C881.7,590.4,884,588.8,884,586.5z"/>
	<path d="M673.1,255.6c2.6,3,2.3,7.2,4,10.6c-2.3-2.8-4.1-5.9-5.2-9.3C671.7,256.3,672,255.9,673.1,255.6z"/>
	<path d="M777,312c1.3-2.4,1.8-5.1,3.5-7.3c1.9,0.1,2.2,1.2,1.4,2.4c-1.2,1.9-2.7,3.6-4.1,5.5C777.6,312.4,777.3,312.2,777,312z"/>
	<path d="M828.8,180.7c0.5,4.7,1,9.4,1.5,14.6C828.2,192.8,827.8,188.2,828.8,180.7z"/>
	<path d="M870.4,616.3c-2.5-1.7-4.6-3.5-6.3-5.7C868.2,611.2,870.2,612.9,870.4,616.3z"/>
	<path d="M667.6,649.5c2.7,1.9,4,4.8,5.6,7.9C670.7,655.8,669,653.4,667.6,649.5L667.6,649.5z"/>
	<path d="M728.9,606.7c-1.9-0.8-1.9-2-2.6-2.8c0.2-1.2,1.5-2.1,0.9-3.7C729.1,602,727.8,604.2,728.9,606.7z"/>
	<path d="M734.6,553.9c2.8-0.6,5.6-0.3,8.1,1.2C739.8,555.8,737.2,554.5,734.6,553.9z"/>
	<path d="M665.3,318.1c1.8,2.4,1.1,5.5,2.5,8C665,324.1,666,320.8,665.3,318.1z"/>
	<path d="M728,177.5c-0.8-1.8-1.7-3.6-3.2-5c1.9,0.3,3.3,1.1,4.1,2.9C729.3,176.2,729.4,177,728,177.5z"/>
	<path d="M673.2,310.8c0.9,2.9-0.6,5.2-2.4,7.5C671.6,315.8,672.4,313.3,673.2,310.8z"/>
	<path d="M726.8,204.6c-0.5-2.5-0.3-4.4-0.2-6.6C728.4,199.8,728.4,199.9,726.8,204.6z"/>
	<path d="M635.4,573.1c1.5,2.3,0.9,4,1.2,6.3C634.5,577.4,634.9,575.7,635.4,573.1z"/>
	<path d="M671.7,432.1c-1.6-1.3-2.4-3-3-5.4C670.8,428.3,671.8,429.9,671.7,432.1z"/>
	<path d="M701.9,570.5c1.7-0.7,2.9-1.8,4.7-1.8C705.3,570.8,705.3,570.8,701.9,570.5z"/>
	<path d="M713.7,194.3c1.1-2,2.8-2.9,4.9-3.2C717.5,192.9,715.2,193,713.7,194.3z"/>
	<path d="M729.8,187.6c1.4,1.3,1.6,2.5,0,3.8C728.1,190,730.2,188.8,729.8,187.6z"/>
	<path d="M724.1,213c0.4-1.4-0.1-2.9,0.8-4.4C725.6,210.5,725.6,210.5,724.1,213z"/>
	<path d="M677.2,273.1c0-1.3-1.5-2.5-0.3-4C679,270.4,677.6,271.8,677.2,273.1z"/>
	<path d="M672.1,326c1.9,0.8,2.5,2.6,2.6,4.7c-1.1-1.4-2.1-2.8-3.2-4.1C671.7,326.4,671.9,326.2,672.1,326z"/>
	<path d="M818.1,601.6c1.7-0.6,2.9-0.1,4.2,1.3C820.2,603.8,819.3,602,818.1,601.6z"/>
	<path d="M736.9,451c2.1,1.2,1.5,2.5,1.1,4.3C737.1,453.8,737.2,452.7,736.9,451z"/>
	<path d="M674.2,204.7c1,0.9,1.7,1.6,0.5,3C673.7,206.7,672.7,206,674.2,204.7z"/>
	<path d="M771.1,246.9c-1.7,0.2-2.7,0.1-3.4-1C768.9,245.1,769.7,245.5,771.1,246.9z"/>
	<path d="M791.7,401.6c-1.4-0.5-1.2-1.4-1.1-2.7C792,399.6,792,400.5,791.7,401.6z"/>
	<path d="M653.2,621.4c0.8,0.7,1.3,1.4,0.7,2.3C652.9,623.3,652.9,622.6,653.2,621.4z"/>
	<path d="M700.8,441.2c1.4-0.5,1.9,0.4,3.3,0.9C702.2,442.8,701.6,442,700.8,441.2z"/>
	<path d="M641.4,588.9c-1-0.6-1.4-1.3-0.9-2.4C641.6,587,641.8,587.8,641.4,588.9z"/>
	<path d="M667.8,581.7c1.4,0.3,2,0.8,2,1.9C668.6,583.8,668.3,582.9,667.8,581.7z"/>
	<path d="M772.9,311.8c-1.1-0.3-1.8-1-2.6-2.1C772.4,310.4,772.4,310.4,772.9,311.8z"/>
	<path d="M848.3,191.4c0,1.2-1,1.7-1.9,2.2C846.8,192.7,847.1,191.7,848.3,191.4L848.3,191.4z"/>
	<path d="M661.7,638.4c1.2,0.3,1.5,1.4,2.2,2.5C662.5,640.4,662,639.4,661.7,638.4L661.7,638.4z"/>
	<path d="M877.4,539.5c0-0.9-0.1-1.8-0.1-2.8c0.1,0,0.2,0,0.3,0c0,0.9,0,1.8,0,2.8C877.5,539.5,877.4,539.5,877.4,539.5z"/>
	<path d="M715.5,170.6c0.9-0.7,1.5-0.4,2,0.5C716.8,171.6,716.1,171.5,715.5,170.6z"/>
	<path d="M698.7,625.6c-0.7-0.9-0.2-1.3,0.5-2C699.8,624.7,699.5,625.2,698.7,625.6z"/>
	<path d="M702.1,630.8c-1.4,0-1.7-0.6-1.6-2C701.4,629.2,702,629.5,702.1,630.8z"/>
	<path fill="none" d="M854.3,591.7c0.3,0,0.7,0.1,1,0.1c0,1-0.4,1.6-1.2,2l-0.2-0.2c0.1-0.5,0.1-1,0.2-1.5
		C854.1,592,854.2,591.9,854.3,591.7z"/>
	<path d="M656.1,629.8c0.8,0.4,1.2,0.7,1,1.5C656.5,631.1,656.3,630.8,656.1,629.8z"/>
	<path d="M667.7,649.4c-0.6-0.3-1.2-0.7-1.1-1.6C667.5,648.2,667.7,648.8,667.7,649.4L667.7,649.4z"/>
	<path d="M661.8,638.3c-0.9-0.3-1-1-1.7-2.2C661.4,637,661.9,637.5,661.8,638.3L661.8,638.3z"/>
	<path d="M642.9,594.1c0.8,0.1,1,0.7,0.8,1.5c-0.6,0.3-0.8-0.2-1-0.5S642.5,594.4,642.9,594.1z"/>
	<path d="M895.9,593.8c0.3-0.4,0.6-0.7,0.9-1.2C896.8,593.4,896.7,593.8,895.9,593.8z"/>
	<path d="M854.1,592.2c-0.1,0.5-0.1,1-0.2,1.5c-0.3,0.1-0.6,0.3-1,0.4C852.8,593.2,853.6,592.8,854.1,592.2z"/>
	<path d="M693,572.2c0.6-0.6,1-0.6,1.4-0.2c0.1,0.1,0,0.5-0.2,0.6C693.8,573.1,693.4,572.8,693,572.2z"/>
	<path d="M636.3,569.8c-0.8-1,0.1-1.3,0.4-2.3C637.6,568.8,637,569.3,636.3,569.8z"/>
	<path d="M774.5,245.4c-0.4,0.4-0.9,0.4-1.3,0C773.8,244.8,773.8,244.8,774.5,245.4z"/>
	<path d="M802.1,561.1c-0.8,0.2-1.3-0.1-1.8-1.3C801.3,560.1,801.9,560.2,802.1,561.1L802.1,561.1z"/>
	<path d="M876.9,525.3c0.4,1-0.3,1.5-1.2,2.2C875.9,526.4,876.3,525.8,876.9,525.3L876.9,525.3z"/>
	<path d="M668.3,422.8c-0.6-0.7-0.7-1.5,0-2.5C668.8,421.2,669.1,422,668.3,422.8z"/>
	<path d="M676.1,334.8c1,0.3,0.9,0.9,0.5,1.7C676,336,675.4,335.6,676.1,334.8z"/>
	<path fill="none" d="M319.3,337.1c-2-0.7-4.1-1.3-6.2-2.2c-3.1-1.4-5.2-3.6-5.2-7.4c0-2.9-1-5.6-2.4-8.1c-0.7-1.2,0-3.1-2.2-3.6
		c2.6-2.8,6-4.5,8.4-7.3c0.8,0.5,0.7,1.5,2.2,1.7c4.6-1.1,9.5-3,14.3-5.3c7.2-3.5,14.8-6.2,22.4-8.7c4.6-1.5,9.2-2.9,13.8-4.2
		c4.1-1.2,7.8-3.1,11.5-5.1c2.6-1.4,5.2-1.9,8.1-2.2c11.4-0.8,22.7,0.4,34.1,0.9c2.2,0.1,4.4,0.1,6.6-0.6c2.8-0.9,5.7-1.6,8.5-2.4
		c1.6-0.4,3.2-0.7,4.6-1.8c-1.6,2.5-4.1,4.1-6.4,6c3.9,0,7.1-2.7,9-7.3c0.1-0.1,0.2-0.1,0.3-0.2c10-6.7,21.8-9.8,31.9-16.3
		c4.9-3.2,10.6-5.3,15.4-8.9c0.6,1,0,1.8-0.2,2.5c-2.8,10.2-0.9,19.9,4.1,29c1.9,3.4,3.5,6.8,5,10.3c3,7,7.1,13,13.8,16.9
		c0.2,0.1,0.2,0.4,0.4,0.8c-4.5,1.6-9.3,2.3-13.9,3.3c-7.2,1.4-14.5,1.2-21.8,2.1c-2,0.2-3.9,0.5-5.9,0.9c-8.9,2-17.9,2-26.9,1
		c-1.8-0.2-3.7-0.2-5.4-0.3c-0.8-0.5,0.2-1.3-0.5-1.8c-3.6-1.1-7.3-1.4-11.9,0.1c3.8,0.5,6.8,0.9,9.8,1.2c-6.3,1-12.3,3.1-18.8,3
		c-11.7-0.2-23.5-0.9-35.2-0.2c-11.7,0.7-23.5,0.3-35.2,1.5c-5.2,0.5-10.3,1.2-14.7,4.5c-1.4,1.1-2.8,2.1-3.7,3.6
		C325.3,335.1,322.9,336.5,319.3,337.1z M315.2,313.9c-2,0.4-4,0.8-5.9,1.2c-1.7,2.5-1.7,4.9-1,8.2c1.4-2.7,3.2-4.3,3.2-6
		C312.4,315,315.2,316.2,315.2,313.9c2.5,1.2,4.1-0.7,6-1.8C319.1,312.4,316.7,311.7,315.2,313.9z M424.2,288.4
		c1.8-0.1,3.8,0.8,5.9-1.4C427.4,286.4,425.7,287.2,424.2,288.4z M423.6,318.1c-1.7-0.6-3.5-1.1-5.3,1
		C420.4,319.4,421.9,318.3,423.6,318.1z M440.9,282.1c1.7,0.1,2.7-0.8,4-2c-1.4,0-2.2,0.7-3,1.1
		C441.6,281.4,441.3,281.8,440.9,282.1z M420.4,287.7c-1.1-0.7-1.3,0.1-1.7,0.7C419.6,288.9,420.1,288.7,420.4,287.7z M334.1,308.3
		c-1.3-0.3-2.2-0.4-2.3,1C332.9,309.7,333.4,309.1,334.1,308.3z M327.5,311.4c-0.9-0.9-0.9-0.9-1.6,0
		C326.4,311.8,327,311.7,327.5,311.4z"/>
	<path fill="none" d="M560.9,291.6c-1.7,0.4-2.8,0.7-3.8,1c-0.8,0.8-0.3,1.3,0,1.8s0,0.9-0.2,1.4c10.6,2.1,21.4,1.3,32.1,2.5
		c-3.8,5.1-18.9,12.7-25.1,12.6c-5.4-3.5-10.5-7.3-14.1-13.1c1.5-1.5,3.6-2.5,5.2-3.6c-0.5-1.4-1.3-1.1-1.9-0.9c-2.2,1-4.2,2-6,4
		c-2.5,2.8-5.6,5.4-9.1,6.8c-7.7,3.1-15.5,5.7-23.2,8.5c-7.8-5.5-13-12.9-17-21.3c-0.9-1.9-1.3-4-3.2-5.3c-0.5-0.4-0.6-1.3-0.8-2
		c-2.7-8.6-3.7-17.4-1.9-26.4c0.6-3.2,1.2-6.3,1.9-9.6c4.1-2.7,6.8-6.7,9.7-10.5c4.1-5.5,9.7-9.2,15.7-12.2
		c9.2-4.6,18.8-8.1,28.6-11.2c2.4-0.7,4.8-1.2,7.3-1.5c7.7-0.8,15.5-1.3,23.3-0.6c1.9,0.2,3.8,0.8,5.5,1.3c0.8-1.5-0.8-1.8-1-2.6
		c0.7-2.1,19.7,2.9,26,7c-6.3-1.6-11.8-0.7-17.3,0.9c-0.8,0.2-1.7,0.4-2.4,0.9c-8.4,5.1-16.5,10.5-21.8,19.1c-1.8,2.9-4.3,5.4-6,8.5
		c-3.2,5.5-4.7,11.4-4.4,17.7c0.1,3,0.1,5.9,0.1,8.9C557.3,279.8,557.9,285.8,560.9,291.6z"/>
	<path fill="none" d="M653.7,284.6c-2.2,0.9-4.3,1.1-6.4,1.4c-4.7,0.7-9,2.5-13.6,3.6c-4.5,1.1-9,1.3-13.5,2.1
		c-9.3,1.6-18.7,1.2-28,2.6c-1.7,0.3-3.5,0.2-5.2-0.1c-5.6-0.8-11.3-1.1-17-0.9c-0.7,0-1.5-0.1-2.3-0.3c6.3-2.6,12.1-6,17.1-10.5
		c-2.2,0-4.1,0.9-5.7,2.7c-0.5,0.5-0.8,1.2-1.5,1.5c-4.7,1.9-9.5,3.4-14.4,4.5c-3.1-7.5-3.8-15.1-3.5-22.7
		c0.3-10.1,4-19.4,10.6-27.1c5.2-6.1,11.1-11.6,17.3-16.8c2.5-2,5.1-3.5,8.3-3.9c4.5-0.6,9-1.8,14.1-0.1c-5.3,1.4-10.5,1.1-15.3,2.7
		c4.2,0.5,8.3,1.2,12.4,0.6c2.8-0.4,5.7-0.8,7.3-3.6c6.2,1,9-4.4,13.6-7.2c-0.6,4-1.5,7.7-1.9,11.5c-0.8,7.7-0.4,15.3,1.7,22.8
		c0.7,2.6,1.3,5.3,1.7,8c0.8,5.5,3.5,10.3,6.7,14.7c2,2.7,4.1,5.2,6.2,7.8c1.8,2.3,4.3,3.7,7,4.8
		C650.6,283.3,652.1,283.4,653.7,284.6z M589.5,224.7c0.9,0,1.8,0.4,2.7-0.5C591,222.9,590.3,224,589.5,224.7z M586.3,279.7
		c1.1-0.5,1.8-1,2.3-2.6C587.2,277.9,586.3,278,586.3,279.7z"/>
	<path fill="none" d="M664.1,282.1c-1.2,0.7-2.5,0.6-3.9,0.9c-2.7-1.2-5.6-2.3-8.6-3c-3.1-0.7-5.5-2.4-7.6-4.8
		c-4.1-4.8-8.3-9.5-10.7-15.5c-3.2-7.8-4-16-3.6-24.4c0.3-8.9,2-17.7,3.6-26.4c0.6-3.3,3.3-6,5.9-8.3c2.8-2.4,5.9-4.5,8.8-6.8
		c0.9-0.7,1.8-1.3,2.7-1.9c8.1-5.6,15.8-11.9,25.4-14.8c1.5-0.5,2.9-1.4,4.3-2.2c3.1-1.8,7.4-3.1,11.6-3.2c-0.1,0.2-0.2,0.5-0.4,0.6
		c-7.1,3.8-12.7,9.4-18.5,14.8c-4.7,4.5-8.6,9.6-10,16.2c-0.8,3.7-0.8,7.4-0.2,11.1c0.5,3.2,1.4,6.3,2,9.4c0.9,4.7,4.2,7,8.2,8.6
		c0.3,0.1,0.7,0.3,1.2,0.5c0,1.7-0.8,3.1-1.4,4.5c-2.7,5.8-4.6,11.7-4.5,18.2c0,2.6-1.2,4.9-1.9,7.4c-1,4-1.6,8.2-1.6,12.5
		C664.8,277.5,664.7,279.9,664.1,282.1z"/>
	<path fill="none" d="M281.8,307.1c3.4,0.1,6.2,0,9.2-0.3c6-0.5,12-3.1,18.4-0.5c-1.5,1.5-3.1,2.9-4.2,4.7c-1.1,1.8-2.2,3.6-3.3,5.4
		c1,3.9,1.9,7.7,2.8,11.6c0.1,0.6,0.3,1.3,0.9,1.6c1.1,0.6,1.4,1.5,1.6,2.7c0.3,2.4,1.9,4.1,4.1,4.9c6.5,2.2,13,2.5,19.3-0.8
		c2.3-1.2,3.5-3,3.7-5.7c5.7-2.7,11.7-3,17.6-3.4c1,7.3,3.7,9,10.7,6.5c1-0.3,1.9-0.2,2.9-0.6c0-0.4-0.1-0.9-0.1-1.4
		c0.9-0.7,2-1.1,3.5-1.4c-0.4,3.4-3,4.2-5.1,5.5c-2.2,1.3-4.9,1.6-7,3.4c-3.9,0.2-7.9-1.5-12.4,0.2c2.4,1.8,4.8,2,6.9,3.2
		c-2.8,1-5.5-0.8-8.1,0.4c1.7,3.4,3.8,4,10,2.9c0.2,4.9-1.6,8.4-6.6,10c-1.8-0.2-3.9-1.1-6.5,0.1c2.5,1.7,5,1.8,7.8,1.7
		c-0.1,2.3-1,4.1-1.8,5.8c0.4,1.6,1,3.1,2.2,4c3.1,2.5,2.9,5.8,2.7,9.3c-3.6,1.2-7.4,1.7-10.6,3.6c-0.9-0.6-0.3-1.2-0.3-1.8
		c0-0.5,0.1-1,0.2-1.6c-1.8-1.6-2.1-4.3-4.3-5.8c-2.4-1.5-4.2-3.9-6.4-5.6c-1.8-1.5-1.7-3.8-2.3-5.7c0.6-2,2-3.8,1.7-6
		c3.8-1.8,4.5-5.6,0.2-9.6c3.2-1.2,5.6-3.3,6.6-6.6c0.7-2.1,1.8-4.3,0.7-7.1c-1.6,1.6-1.7,3.5-2.3,5.1c-1.1,2.7-2.7,4.9-5.4,6.1
		c-1.4,0.6-2.7,0.9-4.3,0.5c-2.8-0.6-5.7-0.5-8.5-0.1c-1.3,0.2-2.7,0.4-3.9,1.7c2.7,3.6,6.7,2.1,10.8,2.9c-4.8-0.2-8.1,1.9-12.2,4.4
		c4,0.3,7.1,1.5,10.4,0.4c0,0.2,0.1,0.5,0.1,0.7c-2.4,1.1-4.8,2.2-7.5,3.4c4.1,3.1,7.7,1.4,11.3-0.8c0.5,0.9,0.3,1.7,0.1,2.5
		c-3.2,1.2-6.7,1.9-9.7,4.5c1.9,0.9,3.5,1.6,5.1,1.8c1.5-0.5,1.6-2.3,3-2.4c0.9,0.7-0.9,1.5,0.1,2.3c0.7,0.2,0.9-0.7,1.5-0.8
		c0.1,0.2,0.4,0.3,0.4,0.5c0.7,2.5,1.6,4.6,4.2,6.2c2.1,1.3,4.5,3,5.4,5.9c0.2,0.7,1.2,1.2,1.8,1.8c0.7,0.6,0.6,1.3,0.1,2.2
		c-2.3,0.2-4.7,0-7,1.1c-2.2,1-3.7,2.8-5.9,4.2c-3.8-0.2-7.7-0.4-11.7,0.2c-2.1,0.4-4.2-0.3-6.2-1.1c-0.9-0.3-1.8-0.8-2.7-1.1
		c-10.1-3-15.5-12.1-13.5-22c4-4.5,4.6-9.6,0.7-14.5c-0.5-1.4,0.8-2.1,0.3-3.2c-0.1-0.1-0.1-0.2-0.2-0.3c-1.1-1.7-3.6-0.2-4.6-2.1
		c-0.5-2-1.4-3.8-2.6-5.6c-3-4.5-3.9-9.6-3.6-14.9C279.9,316,280.9,311.7,281.8,307.1z M302,362.7c1.2-0.1,2.3-0.2,3.4-0.3
		c2.5-0.4,3.8-2.1,3.4-4.7c-0.3-2.6-2.4-4.2-4.9-3.8c-2,0.3-3.6,2.4-3.2,4.7C300.9,359.9,301.6,361.3,302,362.7z M304.8,353.3
		c2.6-2.5,3-4.4,1.5-6.6c-1.1-1.5-3.2-2.1-4.9-1.4c-1.9,0.8-3,3.1-2.4,5.2C299.5,352.7,301.2,353.5,304.8,353.3z M300.6,342.8
		c1.2,0.9,2.7,1.5,3.9,0.2c1.8-2,0.5-4.1,0-6.1c-3.4,0-4.8,0.3-7.5,1.5c0.2,1.7,2.5,0.1,2.7,1.7s-2.3,2.1-1.4,4
		C299.1,343.7,299.8,343.3,300.6,342.8z M351.4,348.1c-4.7-0.9-7.7-0.1-9.6,2.6c3.1,0.7,6.1,0.9,9.1-0.4
		C351.6,349.9,351.9,349.2,351.4,348.1z"/>
	<path fill="none" d="M802.9,137.1c-1.5,1-2,2.8-2.8,4.3c-5.3,9.6-9.4,19.6-11.5,30.3c-1,5-1.3,10-1.2,15.6
		c-2-5.5-1.4-14.3,0.5-21.6c0.3-1.2,1.7-2.7,0.2-4.1l0.1,0.1c2-1.9,2.6-4.6,3.5-7.1c-2.7,1.1-4.2,3.4-5.7,5.7c-1.3,2-2.5,4-4.1,5.7
		c-2.1,2.4-4.3,4.7-6.8,7.5c-0.2-2,0.6-3.2,1.2-4.4c5.3-9.3,10.2-18.9,17.2-27.2c1.7-2,3-4.2,3.5-6.8c0.4-2.1,1.5-3.8,3.3-5.1
		c5.8-4.2,11.6-8.4,17.4-12.6c2.7-1.9,5.8-3.4,9.2-3.5c3.1-0.1,5.9,0.4,8,3l-0.2,0.2c-2.2-0.6-4.3-1.9-6.8-1.6
		c-0.7,0.1-1.5-0.2-1.8,0.8c7.8,1.2,9.4,2.5,10.5,8.8c-1-0.4-1-1.5-1.5-2.2c-2-3.2-4.2-3.5-7.5-1.8c-10.7,5.5-15.8,14.7-18.3,26
		c-1.4,6.4-2.4,12.9-4.4,19.1c-0.2,0.7-0.5,1.4-1.1,2.9c-0.2-2.3-1.1-3.4-2.2-4.3c-2.9,6.3-9,24.2-9.1,27.5
		c2.4-4.5,3.8-8.7,5.1-12.8c1.4-4.2,2.8-8.3,4.3-13.1c0.5,6.8-6.4,26.5-10.5,30.9c-0.9-3.7-0.3-13.2,1.2-21c1.3-7,3.9-13.6,5.5-20.5
		c-3.2,4.8-5,10.1-6.5,15.5c-1.6,5.4-2.2,11-2.7,16.6c-0.9-7.1-0.1-14.1,1.6-20.9c2.2-9.2,5.9-17.8,10.4-26.1c0.7-1.3,1.7-2.4,1.9-4
		c1.1-1,2.1-2.2,2.1-3.8c1-0.2,1.1-0.9,1.4-2.1c-0.8,0.9-1.4,1.4-1.3,2.2C804,134.4,803.3,135.7,802.9,137.1z"/>
	<path fill="none" d="M730.3,225.5c6.6-8.1,12.9-15.4,11.9-26.1c-0.4-3.7,0.8-7.4,0.4-11.1c0-0.4,0.4-0.8,0.6-1.3
		c-3-8.2-7.5-15.1-16.2-18.6c1.6-0.1,3.2-0.1,4.8-0.2c1.7-0.1,3.4-0.3,5.3-0.5c5.2,5.4,8.2,11.9,10.4,19c1.3,4,0.9,7.6,0,11.5
		c-0.7,3.1-1.2,6.3-1.7,9.5c-0.3,2.1-1.1,4-2.4,5.8c-2.5,3.5-4.9,7.2-6.8,11.1c-1.3,2.6-2.5,5.1-3.1,7.9c-0.5,2.1-1.3,4-2.3,5.8
		c-1.2,2.3-2.3,4.7-2.5,7.3c-0.5,5.1,4,8.5,8.7,6.5c2.6-1.1,5.4-1.6,8.1-3.1c-0.6,0.7-1.1,1.4-1.7,2c-3.8,4.4-7.4,9-11.7,12.9
		c-3.1,2.8-6.5,4.9-10.6,5.9c-1.9,0.4-3.7,0.3-5.5,0.3c-3.1,0-6.1,0-9.4,0c0-2.4,0.9-4.7,1.7-7c2-6.3,4.6-12.2,9.3-17.1
		c2.9-3,5.3-6.5,7.9-9.8C728.1,232.9,729.9,229.3,730.3,225.5z"/>
	<path fill="none" d="M512.4,317.5c6.9-2.5,13.3-6.5,20.7-7.6c2.8-0.4,5.2-1.5,7.3-3.3c2.5-2,5-4,7.7-6.2c2.9,4.2,5.9,8.3,10.7,10.7
		C543.5,314.1,528.3,317.9,512.4,317.5z"/>
	<path fill="none" d="M780.9,154.4c-2.7,5.5-5.5,11-7.3,16.9c-0.4,1.4-1.1,2.7-1,4.5c2.4-0.4,3.8-1.9,5.7-3.6
		c-0.3,1.8-1.1,2.8-2.1,3.6c-3.2,2.5-6.8,3.4-10.8,2.4c-1.4-0.3-2.6-0.9-2.5-2.9c3.5-0.7,7.2-1.2,8.9-5.2c-4.6,3.3-9.5,4.1-14.7,2
		c1.1,0,2.2,0,3.3,0s2.2,0,3.3-0.1c2-0.1,3.9-0.6,5.5-1.8c1.1-0.8,2-1.8,1.9-3.9c-1.5,0.9-2,2.7-4.2,3c1.2-2.2,2.3-4.3,4-5.7
		c3.5-2.9,6.5-6.4,9.6-9.7C780.7,154.3,780.8,154.4,780.9,154.4z"/>
	<path fill="none" d="M788.1,161.6c-0.8,3.2-1.6,6.4-2.3,9.6c-1.6,7.4-0.6,14.7,1.4,21.9c0.2,0.7,0.6,1.3,1,1.9
		c0.3,0.5,0.8,0.9,1.2,1.4c0.1,1.4,0.5,2.7,0.2,4.4c-2.9-3.2-4.6-6.8-5.5-10.7c-2.4-9.5-0.3-18.6,3.2-27.4c0.2-0.4,0.4-0.9,1-1
		L788.1,161.6z"/>
	<path fill="none" d="M368.3,327.6c-2.2,1-4.4,2-6.6,3c0,0.4-0.1,0.7-0.1,1.1c-2.8,1.4-5.6-0.7-6.1-4.6
		C357.8,326.4,366.4,326.8,368.3,327.6z"/>
	<path fill="none" d="M822.3,130c-0.2-1.6,1.2-2,2-2.8c2.2-1.8,4.7-3,7.6-3.6c0-0.6,0-1.2,0-2c2,1.2,2.7,2.8,3.2,5
		c-4.3-1.3-7.6-0.4-10.5,2.5l0.1-0.1C823.7,128.9,823.2,129.9,822.3,130z"/>
	<path fill="none" d="M824.5,129.1c1,0.2,1.6-1.2,2.7-0.6c0.3,0.4,0,0.7-0.3,0.9c-4.6,2.7-7.6,6.8-9.5,11.7c-0.2,0.5-0.2,1.2-1,1.4
		l0,0c0.6-4.7,1.8-9,5.9-12c1.2,0.2,1.8-0.5,2.3-1.4H824.5z"/>
	<path fill="none" d="M760.7,167.5c-2.6,2.1-4.7,2.9-7.3,2.1c-1.8-0.6-3.8-0.6-6.1-1.9c2.5-0.7,4.6-0.2,6.5-0.2
		C755.9,167.6,758,167.5,760.7,167.5z"/>
	<path fill="none" d="M826.5,132.6c1.8-1.9,3.3-3,5.2-3.5c1.6,0.7,1.9,1.9,2,3.5C831.5,132.6,829.3,132.6,826.5,132.6z"/>
	<path fill="none" d="M835.1,117c2.7,1.2,3.6,3.5,4,6.2c0.4,3-0.2,5.8-1.3,8.6c1.3-5.3,1-10.3-2.8-14.5L835.1,117z"/>
	<path fill="none" d="M759.9,170c2.4-1.2,4.8-2.3,7.6-3.7c-0.4,1.7-1.8,2.4-1.8,3.6c-1.9,1.1-3.8,0.5-5.6,0.8
		C760,170.4,759.9,170.2,759.9,170z"/>
	<path fill="none" d="M788.2,143.9c1.6-3.3,4.1-5.9,6.8-8.3C793.3,138.9,791.1,141.7,788.2,143.9L788.2,143.9z"/>
	<path fill="none" d="M846.9,420c-1.6,0.2-2.7,0.2-3.6-0.1c-0.9-1.1-0.2-1.6,0.2-2.1C844.4,417.1,845.8,418,846.9,420z"/>
	<path fill="none" d="M809.8,185.5c-1.4-0.7-1.5-2.1-1.9-3.3C809.2,182.9,809.4,184.2,809.8,185.5L809.8,185.5z"/>
	<path fill="none" d="M728.2,448.6c0.8,0.5,1.9,0.4,2.5,1.4c-0.1,0.1-0.3,0.4-0.4,0.3c-0.9-0.2-1.6-0.7-2.2-1.3
		c-0.1-0.1-0.2-0.2-0.3-0.2C727.9,448.7,728,448.6,728.2,448.6z"/>
	<path fill="none" d="M788.3,144c-0.4,1.3-1,2.4-2.4,2.8l0.1,0.1C786.4,145.6,786.9,144.5,788.3,144L788.3,144z"/>
	<path d="M824.6,129c-0.5,0.9-1.1,1.6-2.3,1.4c0-0.1,0-0.3,0-0.4C823.2,129.9,823.7,128.9,824.6,129z"/>
	<path fill="none" d="M785.9,146.8c0.1,0.8-0.5,1.3-1.4,2.5C785,147.8,785.2,147.2,785.9,146.8L785.9,146.8z"/>
	<path fill="none" d="M780.6,154.2c0.1-0.9,0.7-1.3,1.4-2c0.2,1.2-0.4,1.8-1.1,2.2C780.8,154.4,780.7,154.3,780.6,154.2z"/>
	<path fill="none" d="M321.7,563.3c1.9-0.8,2.5-2.6,3.6-4.1c1.8-2.4,3.3-5,5.6-6.8c3.5,0.7,7,1.2,10.3,2.6c1.8,0.8,3.8,0.6,5.8,0.5
		c5.5-0.1,11-1.5,16.6-0.5c1.4,0.2,3,0,4.4-0.2c4.7-0.3,9.4-0.7,14.1-1.1c1.8-0.1,3.8-0.1,5.5-0.6c3.9-1.1,7.8-1.2,11.8-0.9
		c4.3,0.4,8.7,0.3,13,0.6c9.4,0.7,18.6,2.6,26.9,7.4c3.2,1.8,6.6,2.8,10,3.9c1.1,0.4,2.2,0.1,3.3,0.1c2.4,0,4.9-0.5,7.9,1
		c-3.6,0.5-6.7,0.9-9.6,1.3c-2.6-1.6-2.6-1.6-6.2-1.9c1.7,1.5,5.8,3.1,9.6,2.8c3.2-0.2,7,0.9,9.1-2.8c8-2.9,16.2-4.5,24.4-6.3
		c6.3-1.4,12.7-1.7,19.1-2.4c8.3-1,16.7-1.4,25.4-2.8c-0.3,1.8-1.1,3.2-1.8,4.7c-4.1,8.9-5.6,18.3-6.1,28
		c-0.6,11.8,3.4,22.2,8.3,32.5c0.2,0.4,0.7,0.8,0.5,1.4c-0.5,0.9-1.3,0.3-2,0.3c-2.8-0.2-5.7-0.7-8.5-0.8c-12.5-0.1-24-4.3-35.3-9
		c-1.6-0.7-3.2-1.3-4.9-1.7c-8-1.8-15.3-5.5-22.2-9.9c-2.3-1.5-4.7-2.5-7.6-3.5c0.4,1.7,1.7,1.7,2.5,2.3s1.7,1.1,2.4,2.2
		c-3.7-0.7-7.1-2.5-10.5-1.5c-5.3-2-10.4-3.9-15.4-5.8c-11-4.3-22.7-3.7-34.1-5.3c-4.5-0.6-9-1.6-13.4-2.9
		c-5.6-1.7-11.3-2.8-17.1-2.8c-6.7,0-13.3-0.8-20-0.9c-4.4-0.1-8.6,0.4-12.9,1.3c-1.1,0.4-0.1,2.1-1.4,2.3c-0.2,0-0.6,0.1-0.7,0
		c-2.5-2.1-4.6-4.4-5.9-7.4c-0.5-1.1-1.1-2.2-1.9-3.2c-2.4-3-3.1-6.4-2.4-10.1L321.7,563.3z M327.8,571.6c-1.5-5.4-0.2-7.4,6-9.5
		c1.1,0.4,2.1,1.4,3.7,0.6c-2.7-2.3-5.6-2.4-8.3-1.3c-2.6,1.1-4.6,3.3-4.5,6.7C325.7,569.1,326,570.8,327.8,571.6z M348.2,562.8
		c-1-1.1-1.9-1.3-3-0.1C346.3,563.6,347.2,563.3,348.2,562.8z M449.8,594.1c-0.9-1.5-1.9-1.6-3.2-1.5
		C447.4,593.7,448.3,594.2,449.8,594.1z M437.7,563.3c0.7-0.3,1.4,0.4,1.8-0.8C438.7,562.1,438.2,562.2,437.7,563.3z M443.4,591
		c-0.6-0.9-0.6-0.9-1.7-0.8C442.1,590.8,442.6,591.3,443.4,591z M431.7,560.3c1,1,1.3,0.8,1.4-0.3
		C432.7,559.6,432.3,559.8,431.7,560.3z"/>
	<path fill="none" d="M617.9,535.1c2.3-0.2,4.5,0.6,6.6,1.6c5,2.4,10,4.9,15.2,6.9c4.9,1.8,8.2,5.3,11.6,8.8c-0.4,0.9-1.2,0.9-1.9,1
		c-9.5,1.3-17.9,5.4-25.9,10.6c-4.1,2.7-8.2,5.5-12.2,8.4c-4.1,3-7.4,6.7-10.9,10.3c-2,2.1-4,4-6,6.1c-5,5.4-8.3,11.7-8.8,19.1
		c-0.2,3-0.9,5.8-2,8.8c-4.2,0.3-8.5,0.8-12.8,1.3c-2.7,0.3-5.4,0.5-8.1,1.1c-8.4,1.9-16.9,1.6-25.5,1.2c-1.5-1.2-2.6-2.5-1.9-4.7
		c-3.9-4.1-5-9.4-6.5-14.4c-1.1-3.7-1.9-7.4-2.9-11.1c-0.5-2-0.1-3.9,0.1-5.9c0.8-5.1,2-10.2,3.9-15c2.3-6.2,4.7-12.5,7.1-18.8
		c3.1-1,6.4-1.7,9.3-3.5c1.8-1.1,3.7-2.1,5-3.8c0.5-0.7,1.2-1.1,2.1-1.5c7.6-3.1,15.2-6,23.2-7.5c5.2-1,10.5-1.3,15.9-0.9
		c1,0.1,2,0.2,3,0.2c4.5-0.1,8.8,0.8,12.8,3.1c1.8,1,3.7,1.8,6,1.4c1-0.2,2.1,0.4,3.6,0.8c-2.1-4-6.9-3.2-9.2-6.2
		C611.7,533.3,615.4,531.6,617.9,535.1z M623.4,543.2c-1.9-2.3-1.9-2.3-3.3-2.3C620.7,541.9,621.6,542.4,623.4,543.2z M628.7,545.8
		c0,1.2,0,1.2,1.5,1.3C630.2,546.2,629.3,546.1,628.7,545.8z"/>
	<path fill="none" d="M634.4,561.4c-2.7,2.6-4.5,5.7-6.6,8.9c0.4,2,0.5,4.3,1.2,6.3c2.4,6.5,3.6,13.4,5,20.1
		c2.3,11.3,7,21.6,13.1,31.3c2.2,3.6,4.1,7.3,6.3,10.9c-1,0.7-2,0.1-2.8,0c-6.6-1.2-12.9-3.2-18.9-6.2c-7-3.5-14.3-6.6-21.8-9.2
		c-0.4-0.1-1-0.1-1.2-0.8c1.3-0.4,2.6-0.7,4.1-1.2c-2.2-0.5-4.3-1-6.3-0.7c-5,0.8-9.9-0.3-14.7-1.2c-4.1-0.8-5.7-3.5-5-7.6
		c1.1-7,3.9-13.5,8.7-18.6c3.1-3.4,6.5-6.6,9.7-10c6.8-7.1,13.8-13.8,23-17.9c1.8-0.8,3.5-1.8,4.3-3.8
		C632.7,561.3,633.2,560.9,634.4,561.4z M613.9,620.7c2.3,1.4,3.7,0.9,5.5-0.1C617.5,620.5,616.1,620.3,613.9,620.7z"/>
	<path fill="none" d="M321.8,563.2c-1.9,0.8-2.5,2.2-2.4,4.1c0.1,2.2,0.6,4.2,1.9,5.9c3.1,4.1,4.9,9.1,8.5,12.9
		c0.4,0.5,0.8,0.9,1.6,1.2c4.1-0.4,8.1-2.1,12.2-3.9c0.6,4-3,4.5-4.7,6.2c-5.3,0.3-10.3,2.1-15.6,1.8c-0.2,2.4,1.4,2.7,2.7,3.3
		c-0.6,1.5-2.8,0.6-3.3,2.3c1.1,1.8,3.2,1.4,5.2,2.1c-1.1,0.6-2,1.1-2.8,1.5c-0.2,0.5,0,0.9,0.3,1c3.9,1.8,7.4,0.6,10.8-1.6
		c0.7,1.4-0.7,2.2-0.9,3.2c-2.9,0.9-6.1-0.3-8.8,2.3c3.3,1.4,6.4,1.5,9.7,0.3c1.9,4.4,6.2,7.4,6.7,13.3c-1.7,4.8-0.5,4-7.8,7.5
		c-3.4-0.9-7.2,0.1-10.8-1c-4.7-1.5-9.4-3.1-13.7-5.4c-2.3-1.2-7.4-8.6-8.9-12.1c0.5-3.8,1-7.6,1.6-11.3c0.3-1.6,0.5-3.1,1.2-4.6
		c2.3-4.8,1.8-10.2-2.2-13.6c-4.4-3.7-5.4-8.3-5.9-13.4c-0.1-0.7,0-1.5-0.2-2.2c-1.4-4.4,0.3-8,2.9-11.3c0.7-0.9,1.4-1.7,2.1-2.6
		c2.1-2.4,4.7-4.3,6.3-7.5c4.7,0.9,9.4,0.6,13.5,3.7c2.4,1.8,5.2,2.7,8.4,2.4c1.8-0.2,1.8,0,4,1.3c-0.1,0.7-0.5,1.1-1.2,1.7
		c-2.3-0.9-4,0.3-5.4,2.2c-2.5,3.1-4.8,6.3-5,10.4L321.8,563.2z M313.7,603c1,0.6,2-0.1,3.1-0.2c2.8-0.2,4.2-2,3.8-4.7
		c-0.3-2.6-2.5-4.2-5-3.8c-2.3,0.4-3.7,2.8-3.1,5.4C312.8,600.8,313.2,601.8,313.7,603z M316.5,593.8c2.6-2.7,2.9-4.4,1.5-6.5
		c-1.1-1.7-3.3-2.4-5.2-1.6c-1.7,0.8-2.7,2.9-2.3,4.9C311,593.1,312.6,593.9,316.5,593.8z M312.2,583.4c1.3,0.7,2.8,1.5,4,0.1
		c1.7-2,0.4-4.1-0.1-6.2c-2.7,0.1-5.1,0.6-7.5,1.4c0.4,1.8,2.3,0.5,2.8,2.1c0.3,1.2-1.5,1.7-1.6,2.9c0,0.3,0.1,0.7,0.2,1
		C310.9,584.6,311.2,583.7,312.2,583.4z M335.8,607.8c-2.1-1.5-3.2,0.8-4.8,0.5C332.5,608.4,334.1,609.8,335.8,607.8z"/>
	<path fill="none" d="M785.1,621.3c2.4-2.2,5-3.3,7.6-4.6c2.5-1.3,3.7-4.3,7.1-5.2c-0.3,5.7,0.3,11.2,0.6,17.4
		c0,0.1,1.1-0.4,1.5,0.1c2.1,2.3,4.9,2,7.5,2.4c6.7,1,13.2,2.9,20,5.3c-4.1,0.3-7.5-1.3-11.1-2c-0.2,1.2,0.7,1.3,1.3,1.5
		c1.7,0.7,3.5,1.3,5.3,1.5c5.1,0.4,9.7,2.6,14.6,4.3c-2.5,0.8-4.2,0.9-7.1,0c-1.5-0.5-2.8-0.4-4.3-0.2c-3.3,0.6-6.7,0.4-9.5-1.8
		c-0.8-0.6-1.7-1-2.7-1.1c-1.8-0.2-3.7,0.4-5.5-0.1c-1.7-0.5-3.5-0.8-5.1-1.1c-0.5,1,0.1,1.3,0.7,1.5c2.7,1.2,5.5,2.3,8.6,1.3
		c1.5-0.5,2.6,0.3,3.6,1.2c0.5,0.9,0.2,1.8,0.1,2.6c-1.6,1.3-3.5,1.2-5,0.4c-2.3-1.3-4.6-0.9-6.8-0.5c-7.5,1.3-8.2,0.7-15.5-2
		c-1.2-2.5-2.4-5.1-3.7-7.6c-0.3-0.7-0.6-1.3-0.5-2.1C786.9,628.6,786.2,625,785.1,621.3z"/>
	<path fill="none" d="M362.6,615.5c-3.4,5.6-8.6,5.4-14.1,4.6c-1.8-1.1-2.5-2.6-1.6-4.5c-3.8-3.8-7.7-7.2-7.9-13.2
		c1.2-3.1,2.8-6.5,0.9-10.3c1.3-1.5,3.6-1.4,4.7-3c1.2-1.6,1.1-3.5,1.7-5.3c3.7-1.2,7.3-0.3,11.2,0.2c0.7,1.4,2.2,2,3.8,2.6
		c-1.2,0.6-2.5-0.2-3.4,1.2c0.1,2.8,3.1,1.9,4.5,2.9c-0.4,2.4-2.9,0.6-3.7,2.4c-0.4,1.1,1,1.2,1.6,2.2c-0.2,1.9-0.1,4.1-0.6,6.1
		c-0.6,2.7,0.4,5.3-0.1,8C359.5,611.6,361.7,613.1,362.6,615.5z"/>
	<path fill="none" d="M376.8,544.2c-3.9,1.2-6.7,3.7-8.6,7.3c-10.5,0.4-20.9,2.4-31.6,0.2c0.4-4.9,3.5-8.6,5.4-12.7
		c1.2-0.5,2.3-0.9,3.6-1.4c0.9,0.3,1.9,0.4,2.8,0.8c2.8,1.5,5.9,1.8,8.9,2.1c1.4,0.1,2.7,0.1,4,0.4c4.7,1.1,9.5,1.5,14.2,2.4
		C375.9,543.4,376.4,543.3,376.8,544.2z"/>
	<path fill="none" d="M695.5,646.4c-2.6,0-4.8,0-7.2,0c-2-4.3-4.2-8.6-6-13c-1.6-3.6-2.9-7.3-4.2-11.1c-1.3-3.7-1.1-7.6-1-11.4
		c0.2-5.1,0.3-10.1-0.5-15.1c0-0.3-0.2-0.8,0.7-1.2c1.9,0.3,4.2,0.8,6.5,1.2C679.5,617.2,686,635,695.5,646.4z"/>
	<path fill="none" d="M817.4,544.7c-6.4-1.5-13-1.3-19.5-1.4c-6.5-0.1-13-1.8-20-1c0.5-2.1,0.5-4.1,0.3-6.3c0.7-0.9,1.4-1.9,2-2.8
		c3.3-1.2,6.4-1.7,9.5,0c0.5,0.3,1.2,0.4,1.8,0.5c4.5,0.4,8.6,2.1,12.4,4.5c1.5,1,3.5,1.2,5.2,1.9
		C812.1,541.2,814.7,542.7,817.4,544.7z"/>
	<path fill="none" d="M427,551.7c10.3-2.1,32.5,1.6,40.4,5.4c-0.3,0.8-1.1,0.3-1.6,0.7c2.1,1.8,4.8,0.1,7.1,1.1
		c-5.4,1.3-10.6,4.1-16.5,2.5c-0.9-0.2-2-0.2-2.9,0c-4.6,0.9-8.6-0.7-12.3-3c-3.8-2.4-8-3.8-12.1-5.5
		C428.5,552.7,427.7,552.7,427,551.7z"/>
	<path fill="none" d="M830.8,598.1c2-11.1,3.2-22.4,6.6-33.3C836.5,576.1,835.2,587.4,830.8,598.1z"/>
	<path fill="none" d="M833.6,638c5.1,0.4,9.9,1.6,15.1,2c-1.1,1.8-3.2,1.2-4.1,2.1C840.9,640,836.9,640,833.6,638z"/>
	<path fill="none" d="M376.9,546.9c0.4,1.5,1.9,1.5,3.1,2.1c-2.5,3-5.9,0.7-8.6,2.1C372.4,549,373.8,547.4,376.9,546.9z"/>
	<path fill="none" d="M849.6,563.7c1.2,4.1-0.2,8-1.3,11.8C847.7,571.5,848.5,567.6,849.6,563.7z"/>
	<path fill="none" d="M817.9,555.5c2-0.8,3.9-1.7,6.6-2.8C822.7,555.7,820.5,555.8,817.9,555.5z"/>
	<path fill="none" d="M818.5,558.2c1.2-0.8,2.1-0.8,3.2-0.6C820.8,558.6,819.9,558.7,818.5,558.2z"/>
	<path fill="none" d="M811.7,557.2c1.3-0.6,1.8,0,2.4,0.4C813.3,558.2,812.7,557.7,811.7,557.2z"/>
	<path fill="none" d="M334,597.8c1.1-0.5,1.3,0,1.4,0.6C334.7,598.9,334.4,598.4,334,597.8z"/>
	<path fill="none" d="M866.6,186c0.1,2.4-1.3,4.3-2.4,6.3C864.6,190.1,865.5,188,866.6,186z"/>
	<path fill="none" d="M854.1,143c-2,0.8-2.2-0.4-2.9-2C852.5,141.5,853.2,142.1,854.1,143z"/>
	<path fill="none" d="M885.3,541.7c0.5-0.6,0.8-0.7,1.3-0.3c0.1,0.1,0.1,0.5,0,0.6C886.2,542.4,885.7,542.4,885.3,541.7z"/>
	<path fill="none" d="M897.8,598.2c-0.4,1.6-1.4,2.6-2.7,3.4C895.8,600.3,896.4,598.9,897.8,598.2L897.8,598.2z"/>
	<path fill="none" d="M893.9,602.9c-0.3,1.4-1.2,2.1-2.4,2.8C891.5,603.9,893.1,603.7,893.9,602.9z"/>
	<path fill="none" d="M897.9,598.3c-0.1-1.1,0.5-1.8,1.5-2.2l0,0C899.3,597.1,898.8,597.8,897.9,598.3L897.9,598.3z"/>
	<path d="M315.1,313.8c0.1,2.5-2.7,1.2-3.6,3.5c0.1,1.7-1.8,3.3-3.2,6c-0.7-3.3-0.7-5.7,1-8.2C311.1,314.7,313.2,314.3,315.1,313.8
		L315.1,313.8z"/>
	<path d="M424.2,288.4c1.6-1.2,3.2-1.9,5.9-1.4C428,289.1,426,288.2,424.2,288.4z"/>
	<path d="M315.2,313.9c1.5-2.2,3.9-1.5,6-1.8c-1.9,1.1-3.6,3-6.1,1.7L315.2,313.9z"/>
	<path d="M423.6,318.1c-1.8,0.2-3.3,1.3-5.3,1C420.1,317,421.9,317.5,423.6,318.1z"/>
	<path d="M440.9,282.1c0.3-0.3,0.6-0.7,1-0.9c0.8-0.4,1.5-1.1,3-1.1C443.7,281.3,442.6,282.2,440.9,282.1z"/>
	<path d="M420.4,287.7c-0.3,0.9-0.8,1.2-1.7,0.7C419,287.8,419.3,287.1,420.4,287.7z"/>
	<path d="M334.1,308.3c-0.7,0.8-1.3,1.4-2.3,1C331.9,307.8,332.8,308,334.1,308.3z"/>
	<path d="M327.5,311.4c-0.5,0.3-1.1,0.4-1.6,0C326.6,310.5,326.6,310.5,327.5,311.4z"/>
	<path d="M589.5,224.7c0.8-0.7,1.5-1.9,2.7-0.5C591.3,225.1,590.4,224.7,589.5,224.7z"/>
	<path d="M586.3,279.7c-0.1-1.8,0.9-1.9,2.3-2.6C588.1,278.7,587.4,279.2,586.3,279.7z"/>
	<path d="M302,362.7c-0.5-1.4-1.1-2.7-1.3-4.1c-0.4-2.2,1.2-4.4,3.2-4.7c2.5-0.4,4.6,1.2,4.9,3.8c0.3,2.6-0.9,4.3-3.4,4.7
		C304.3,362.5,303.2,362.6,302,362.7z M304.5,360.7c2.2-0.2,2.9-1.3,2.7-3c-0.2-1.2-1-2-2.2-2c-1.6-0.1-2.2,0.7-2.6,3.1
		c0.3,0.3,0.6,0.4,0.9,0.1c0.5-0.4,0.9-0.3,1.3,0.3C304.6,359.5,304.5,359.9,304.5,360.7z"/>
	<path d="M304.8,353.3c-3.6,0.2-5.3-0.6-5.9-2.9c-0.5-2.1,0.5-4.4,2.4-5.2c1.7-0.7,3.8-0.1,4.9,1.4
		C307.8,348.9,307.4,350.8,304.8,353.3z M305.4,349.6c0.2-1.4-0.8-2.7-2.2-2.8c-1.4-0.2-2.6,0.8-2.8,2.2c-0.2,1.5,0.7,2.6,2.1,2.8
		C304.1,351.9,305.3,351,305.4,349.6z"/>
	<path d="M300.6,342.8c-0.8,0.5-1.5,0.9-2.2,1.3c-1-2,1.5-2.5,1.4-4c-0.1-1.7-2.5-0.1-2.7-1.7c2.6-1.2,4.1-1.5,7.5-1.5
		c0.4,2,1.8,4.1,0,6.1C303.3,344.3,301.8,343.7,300.6,342.8z M303,342.3c1.2-3.1,0.9-3.6-1.5-3.3C301.2,340.3,301.6,341.3,303,342.3
		z"/>
	<path d="M351.4,348.1c0.5,1.1,0.2,1.8-0.5,2.1c-2.9,1.4-5.9,1.1-9.1,0.4C343.7,348.1,346.7,347.3,351.4,348.1z"/>
	<path d="M805.2,133.5c0,1.6-1,2.8-2.1,3.8l-0.2-0.2C803.3,135.7,804,134.4,805.2,133.5L805.2,133.5z"/>
	<path d="M805.3,133.6c-0.1-0.8,0.5-1.3,1.3-2.2C806.3,132.6,806.2,133.3,805.3,133.6L805.3,133.6z"/>
	<path d="M327.8,571.6c-1.8-0.8-2.1-2.4-3-3.6c-0.2-3.4,1.8-5.5,4.5-6.7s5.6-1,8.3,1.3c-1.7,0.9-2.6-0.2-3.7-0.6
		C327.6,564.2,326.3,566.1,327.8,571.6z"/>
	<path d="M348.2,562.8c-1,0.5-1.9,0.8-3-0.1C346.3,561.6,347.2,561.7,348.2,562.8z"/>
	<path d="M449.8,594.1c-1.5,0.1-2.4-0.4-3.2-1.5C447.9,592.5,448.9,592.6,449.8,594.1z"/>
	<path d="M437.7,563.3c0.4-1.1,1-1.2,1.8-0.8C439.2,563.6,438.4,563,437.7,563.3z"/>
	<path d="M443.4,591c-0.8,0.3-1.3-0.3-1.7-0.8C442.8,590.1,442.8,590.1,443.4,591z"/>
	<path d="M431.7,560.3c0.6-0.5,1-0.7,1.4-0.3C433,561.1,432.7,561.2,431.7,560.3z"/>
	<path d="M623.4,543.2c-1.8-0.8-2.7-1.3-3.3-2.3C621.6,540.9,621.6,540.9,623.4,543.2z"/>
	<path d="M628.7,545.8c0.6,0.3,1.4,0.4,1.5,1.3C628.7,547,628.7,547,628.7,545.8z"/>
	<path d="M613.9,620.7c2.2-0.5,3.6-0.3,5.5-0.1C617.6,621.7,616.2,622.2,613.9,620.7z"/>
	<path d="M313.7,603c-0.4-1.2-0.9-2.2-1.2-3.2c-0.6-2.6,0.8-5.1,3.1-5.4c2.5-0.4,4.6,1.2,5,3.8c0.4,2.7-1,4.5-3.8,4.7
		C315.7,602.9,314.6,603.6,313.7,603z M313.8,599c0.9,1.1,1.5-0.5,2.2,0.3c0.9,0.4-0.4,1.4,0.7,1.8c1.8-0.2,2.4-1.3,2.2-3
		c-0.2-1.2-1-2-2.3-1.9C314.7,596.2,314,597.3,313.8,599z"/>
	<path d="M316.5,593.8c-3.9,0.1-5.5-0.8-5.9-3.1c-0.4-2.1,0.5-4.1,2.3-4.9c1.8-0.8,4-0.2,5.2,1.6C319.4,589.5,319,591.2,316.5,593.8
		z M312.1,589.8c0,1.5,1,2.5,2.5,2.4c1.5,0,2.5-1.1,2.5-2.5s-1.1-2.5-2.6-2.5C313.1,587.3,312.1,588.3,312.1,589.8z"/>
	<path d="M312.2,583.4c-1,0.3-1.3,1.2-2.3,1.2c-0.1-0.3-0.2-0.7-0.2-1c0.2-1.2,1.9-1.7,1.6-2.9c-0.5-1.6-2.3-0.3-2.8-2.1
		c2.3-0.8,4.7-1.3,7.5-1.4c0.5,2.1,1.8,4.2,0.1,6.2C315,584.8,313.6,584.1,312.2,583.4z M313.1,579.3c-0.1,1.5,0.1,2.6,1.5,3.3
		c1.6-1.3,0.7-2.4-0.1-3.6C314,579.1,313.7,579.1,313.1,579.3z"/>
	<path d="M335.8,607.8c-1.7,2-3.3,0.7-4.8,0.5C332.6,608.6,333.7,606.3,335.8,607.8z"/>
	<path fill="none" d="M304.5,360.7c0-0.7,0.1-1.2,0.1-1.6c-0.4-0.5-0.8-0.7-1.3-0.3c-0.4,0.3-0.6,0.2-0.9-0.1c0.4-2.5,1-3.2,2.6-3.1
		c1.3,0.1,2.1,0.8,2.2,2C307.4,359.4,306.7,360.5,304.5,360.7z"/>
	<path fill="none" d="M305.4,349.6c-0.2,1.4-1.3,2.3-2.8,2.2c-1.5-0.1-2.3-1.3-2.1-2.8c0.2-1.4,1.4-2.4,2.8-2.2
		C304.7,346.9,305.6,348.2,305.4,349.6z"/>
	<path fill="none" d="M303,342.3c-1.4-1-1.7-2-1.5-3.3C303.8,338.7,304.1,339.2,303,342.3z"/>
	<path fill="none" d="M313.8,599c0.2-1.7,0.9-2.8,2.7-2.8c1.3,0,2.1,0.7,2.3,1.9c0.3,1.7-0.4,2.8-2.2,3c-1.1-0.4,0.2-1.5-0.7-1.8
		C315.3,598.5,314.7,600.1,313.8,599z"/>
	<path fill="none" d="M312.1,589.8c0-1.5,1-2.5,2.5-2.6c1.4,0,2.5,1.1,2.6,2.5c0,1.4-1,2.5-2.5,2.5
		C313.1,592.3,312.1,591.3,312.1,589.8z"/>
	<path fill="none" d="M313.1,579.3c0.6-0.1,0.9-0.2,1.5-0.3c0.8,1.2,1.6,2.3,0.1,3.6C313.2,581.9,313,580.8,313.1,579.3z"/>
</g>
</svg>
